<mxfile host="app.diagrams.net" modified="2022-07-29T05:00:28.582Z" agent="5.0 (Windows NT 10.0; Win64; x64) AppleWebKit/537.36 (KHTML, like Gecko) Chrome/103.0.0.0 Safari/537.36" etag="CIphK7QH8aneA8sVTwiW" version="20.2.0" type="github">
  <diagram id="Z-c2q8e5kLSPET983axV" name="페이지-1">
    <mxGraphModel dx="2105" dy="575" grid="1" gridSize="10" guides="1" tooltips="1" connect="1" arrows="1" fold="1" page="1" pageScale="1" pageWidth="827" pageHeight="1169" math="0" shadow="0">
      <root>
        <mxCell id="0" />
        <mxCell id="1" parent="0" />
        <mxCell id="dq0KdhcwPf0WLffFqdIs-25" value="" style="rounded=1;whiteSpace=wrap;html=1;" parent="1" vertex="1">
          <mxGeometry x="-420" y="760" width="550" height="220" as="geometry" />
        </mxCell>
        <mxCell id="dq0KdhcwPf0WLffFqdIs-5" value="" style="rounded=1;whiteSpace=wrap;html=1;" parent="1" vertex="1">
          <mxGeometry x="-420" y="510" width="550" height="220" as="geometry" />
        </mxCell>
        <mxCell id="dq0KdhcwPf0WLffFqdIs-3" value="" style="shape=image;verticalLabelPosition=bottom;labelBackgroundColor=default;verticalAlign=top;aspect=fixed;imageAspect=0;image=data:image/png,iVBORw0KGgoAAAANSUhEUgAAAMgAAACyCAMAAAAwP3ALAAAA3lBMVEX///8Dm8YAi7gkuOs5TVQAqtq/2+AhwvgAotA0YHEzSFAhO0QvRU38/Pz29/eboqVebHFyfoInQEhqdns7SEzs7e4+My4hveksmLdGWF85VV4zZ3gtj63d3+BPX2W0ubwuODwIr9c7PDwvP0UzeI0qn8EwgJgudpAihaDKzs8VLjUMqM0sbYGBi4+QmZy+w8WZsbbU7fEAIS0Sg6sAKTQbep2nrrClvsMrkbYtMDAyV2YmbIc+qs+JyN2jydVlttSt2uhRhZZwiZBOoMKDmp8AgLNQbneMuMRSlKwAFiVi7Y9ZAAAONklEQVR4nO2ciXbauhaGQ1CaIAvjscEzM7bxcJoAoeS0PbfNnd7/ha62PDIlOYmB9C7/K00DsmV9GvbesmRfXNSqVatWrVq1atWqVatWrVq1atWqVavWhxe/pXOX561SBYxKwvK5C/RWqQLRSyLCuQv0VqnCsNuf9WfwM+ubw98Z5Na4nXTHo77bHXd/bxD91jC7Rn9kmr89SFCDfBjVIB9NNchHE4AgML+tfvA7gGyHhrkApHs77vfH7NdHB7EE+ZA07Jq5RvgVIM4ZI2RrPuwVIqT4e6AgZZBLeQWIhzT1BEXeL8tvdWkkNaY/9H8D0V6UyR24Rcrk5a5laYRI8SkKvffqvjGbzExzFsxosQMEoe5sNp51++PxYDyBeJEmd7vmi2E8H/aCYIic9knKvSMKMl53g1FXmRkTk4K4rmvSn9F4REHQrDUxW93AnbgvgngEXTWnPXSmNgGQ1ng0ARC3CyB0ZNN/k/GEguj0S9N4FUg77E2azeZ0iK3TlHxLlYHwHGpQkCbtXacp+ZYqA/H8oMnUGp5ldl8ZSNRbMI7rG4Sd05R9Q5WBCGR1nZC4PfkM7qQyEKI3EpBmUyFnsFwMpDti5tc1C5ARA0Hw5evMr683Uo6m+zU6TazSLsRARmPXHFO/aIJDBD9OPbnZNylI0J8wJgpHQdrlE7c1X99kIFeKdhITHMtiIZm0aBSSyUCzLECZ9V3FLVImCiqdJYY7o2BetEgz8D1aXbyqqke90epIUilORMrnQgoqfRigQfmDUpwz5HajQ6kEsugtPacTAnDkxNaxghYH690iPm+tu7Os2meGUo7cFXNWapFRntCdYHsHxM6sFtX9wEZ+r/eVqudLQhQfB8XB65npztwxLZLZDYy+e9sd345uzVl/otARAkXt0tTu4HZCv5zR5Nm4q7AvJ/RXPxjvAQl7bt4iq8EABYvVqtFY3U/1wRDJRxkzDm6NJ8G4ZU5GbmAGrX6rP3FnCp2e03rvTqhGE3dkjigIm+oaM5jqKjSaNLot0zVmypjsgjj+YwHSalwVagQKni+PB2IAyKgM0mUgLiVx3VEXQEo3HxIQ4yCI6uu52WpebWqlcMcY9McB4cXeaj/G1U3LP0aDHAnkIvbXB0CmvT2Hf1wQVe5Nr/dxTIb4OCHLkUAuPG1gXu9pD4XrHIXj/SBoH0hbXWqKcrPN0Wj1yJE4GMgooJZ0lIKsZyN3Ntgwv5MEpHSn8Xnzq1odzUfG1fXmKF9NUU87ykAHxcwh0uiWFs8dg0OkkWI/c4jgJVlC7hAhfpwlDnE2GTOHuAHStuJliPxhsGqWOG4aphugHgm9akvvOblCrLMIN5GxpqEJ/MCvAIqbaTLoFimuMilOMrG2TDNb0pBK0IZfe9PGVTo+DCMIDKO11oe+H3pVO5BQQjgTUkrr58rBD+jwB4Sz3IjS+/p5EKwKu3uvUADfn99xoqNW7gfboaSvqVpVyxi5jeb1dcl/tEgYO7F3pBkJL35twIXoNavXhh9c6dwxZ+yqOGBxXPN4ytzGUDwiB3W7X2+OC5LFh/rdMTpVPqGxXg9y/fIhhzloXCWXZ1GVDfbs1gcFeW3XMg8dtHrm7NyR6365QTpVORGV2IkhV+VkjCRlWU0Pl2g6QDd7E4LPxs2h5rpaTG/SBgnzRmir4ryiaFENMSGRpzKrtWJXum7SuGGgBLnNzEU/XzUWukKdyWQrFU5iCeD1ts+jqY0pGqzd1c1VY4CyNuC9pSZhoZIBE4uwdYxDYsfxxJ5Jo4bVvTttgddT9MBtlIxx8+pmbE4NPXF7iv5YSoWQaZ24SgW1plDg8omN1eMacqRZTo2haPG8qlpxJ9Q4enUsvHtd0VoKmCNMHEc0hKhD1HWkDJREA4V+0zKmoKBF04oklkoPN4Lp9BFijc0UyKl8opLGA/A/QTZIwxwnsWtLxI68t99EsZYirNYWt+FEG6GjePZynmvaAGK6JFxcWpYFOaoucoyRfsl0U60al4UesVZZeQ/K0nBytUalKmFcLpBfcci+T7yNF5WDlDEu79d+eHyOiwuRPFbdJBscl8FQOMn6jsOtqwXZxLhcKOQEHesCVl31xUskf76d435AjjY335I8fKFv/fnt+/cfb8O4vNel8FQ7arz5+v5Zku8d+dOX15HscLRONEBAbW04vXyG5IfDcQ8Pf/19CsZx1GnhluJ567km+RZxNM54GWSX47KlzE+5b0MVeotnmuTPT4hInRdB9nAYvRPvP3EIun+G5NtD+CLHHozL1sl3BKni0LjcJoF4qbFaBAtK8u3b38e4bynoNA6kJA8pi5wkiflWK5cG4/rw85TyPOcs90Ek41w6w76mDseCeYi8DQNicF3HmPN9+x+rN/Qp4EBDcpb9WbLEbnimt05Bws8/Hr58+fSsUz9AQQP3gXSODTQgm/v58P2PRA8Pn75kOjw6DlJAtyLRufaVWrb09KlQDvLl19/FuFzoQ+1cWzEvYIGM+/lpUwzkr8tXE6TNgXz55OZqgwRxwqddfflx+UqEZHToQ65zvu3KTBbi7Ic9KL/++SqEpFcRqZpbVu8SL3Dkj12Q76vXUdwv1j1in2Pf4o74EPs/dxvlVST309aAE87dqzLxsT3Xnr7vkrzUuxaP6+FcWJ6/V+VSozvOftpplOfHySONZea280FaI5Nl+xIRt0l+HOxSj2tMJGpxP+BT1J6MON9+2hws33/tMtwvHvXBkGjC8gNSMHmRwM2lfz1BtJLr268ywuLRWCu9HhbCjzQydmU5kTCf+zR2/Pn0xOKvh4d//2exWEwfH+FOPB72aHAcLo+3xbIy8Za3FNHd3dyXsK5rbFkAonuJhvfzuSZGjmd9sOF9UG2eVz0nkjXOn99RzTlJE8KINgPP8x++JWrVqvV/KzXk3vH4E98RTnbD/QUt55h7++pYfEfmJ1lbe1F8JL3nfTMdDp1i1fYVqkES1SCVqwZJ9DxI+8jBpeV0QDHE4TsgarykaTTGPXBmFEWdZb61pwxiLb3NY6MwDDvO/pmXFTvLd64EeaKNiESl2aG1DUITNUgkyBZ3rmOFNoYTJTq/dXZAYg2Xnse1xPRYbIs791B5R7Y1hHD0DgxVlkj20jKMuahdBmmHXJFIthYHKHLpTEnYAol9jEjWOO2IHM7owtPS1PnbOTwuWQshaVacJpIcxLK5jUSJK9WlqrFEtnGM/RFvgHj/hdzCAxlJpYz46A6nlfH2h9w92ImHJCLIomhLhF0sf5Ocp0ks0ZZFWSAMuFhgthBLRIIYijKi2XBlkLbDUtPHFTybfcJwrMDOw0WVqKHPvkC28Pb79h6iHEQKY0tVVctJVqoyEDW5vOiwxFhk18uer1UFAOZCNs9V40gjSayYgLQdyFiyk4NVViHs2DZvxREHp2ZrcTAmoSMsY896c7Sp0m5E+3GcZaAupRKIDN2By7dNqg50ISKyzzCSaGHyRN5KS5GApBxpBYuQkR9n44JnLU3SLcwOYZDvu4nkcFDH5fZ05jmIB3/elRM9RC8qOcmf0JR77rUDiMA6LMkaz4Pa2dixbLF3IrKuaNk0T+6dD4SrkMnWMj6wJSAavRi3uSnJo98RsDht2Mix96moDqt9VOK4kCGjcoXw7CBmmttLeix5b9zvQWm2nxoQpQTEgkoVtmoqgi+95DWTe57EzUBgaOUcFqWXylWuhtDWiQnmbZrRu1/Bs6QXlbYNBdABiAO9fNsFWtCfl+0LC6pgr/dKQfLxQa8CQ7uUkZWMveQJY4sySe9xg6A2PIhEtr9VoY5kVvnY3hmCNBH2jsXQIfaOzwSkxHEBDra0AGeBuUN+umDt+WWT/lYQ2ovITnjIh4lnDwntdruPcdNvZZ6NJGlvpgyElAwID1cpMmJWAvudtKtBRnfv5KAghFbvDkgaorDEHRA6yImgvgRSNoS8SDKbDQUHJ45Rbu6gd3OVgOw8IVRqkT0gr2sRVBrbkF/WInznjtmBYsRQEPx+ECjyztwBDBKYsogWeXdtWSiNkb22JgEhJRJWMSwjNWTDvDR+qmmRJJdtV2SlHmKJ94xnFQrSSa3W3qXnThodFpYIrBbbq6XKzImL5UyrAQHfvbMPN0ptsoeTMm8Wk0CsAf4YH5hG5n4kH3zgRensAF51xjg2GrIaEHWPNwLDnmQNnn3LMnrsBPpdG8qL9+1FTpx2KYKnnh2CEMuaszh7y2dUA9KGbMjGJEdlvZjFHjAO8Mb+VhWi48RJgxXF2p6pKYDYIgtos3ECsRZOwpad9q8GJHFOUmnmyUI4jJIS2Cw0Lh60scQixuRDSETF+q1q5SDYbrP5QD7ixXR2kO3oUIuVxopAWBxC3XAnKYXVSbpxWtGexGx+lE4qlgK0lpRGihBB0TEdJlMAyxGFTg6i0fkBi/KjpMBqsg0vqYO21xHtzB9WBsKiWHpFWw47oWyzeaifj3DHzxMjUcAstAizxJgF/HSGKIv0TCyRJGpLZ4g8tAnORkQyD0WITkNlQZPovCbrBFWBUCufTaYxYfWGpVJwvmQFwJDEGDFX8p/OPJ1pk+TMxBznc3aBzULSMRGzWTTKN0lmjV4hyEUH5bc3WPVvDODYlsqJm+8ziLXkrkOSKCXmr7iLwubC+S0uGUv5sUTKbXCFIHBzipPgKTqJI8L2LkorEiQuSeTsaMs/qqVELTUZ8VxK10fgVtI8t7a8I6P0WEleFjHknHCVvce1bTmRKNOu3tl3N9GCN0dB4r47hJAoC5CY7aLhl2FWGXxHLgdrqrcMRYGOt/K+ITimyj0f8LYu9dB9WfYuL/W5xI0zixcftLffgbAno51jatWqVatWrVq1atWqVatWrVq1atWqVavWi/ofCzQptn+ya1AAAAAASUVORK5CYII=;" parent="1" vertex="1">
          <mxGeometry x="-380" y="523" width="69.66" height="62" as="geometry" />
        </mxCell>
        <mxCell id="dq0KdhcwPf0WLffFqdIs-4" value="" style="shape=image;verticalLabelPosition=bottom;labelBackgroundColor=default;verticalAlign=top;aspect=fixed;imageAspect=0;image=data:image/png,iVBORw0KGgoAAAANSUhEUgAAAuYAAAEqCAYAAABZW5UBAAAgAElEQVR4nOzdd3gUxRvA8e/eXr/0AoQeem+C9N4NqPQmHUWpKqiAgmLBLgL6UxBRKaKCSFU6SO+995qQkJB+ubLl98eFQCAgKgrIfJ4nTy63u7Oze5e7d2ffmZF0Xde5S3RdR5Kku1WcIAiCIAiCIDw0DPe6AoIgCIIgCIIgiMBcEARBEARBEO4LIjD/h+m6xrmDBzl6POZPb+tKSyMhIRlV8XBg3z7OxqX8AzW8WdyF0xw7foY/ynFKT0khMTkdtzONgwcOk+72/iv1EwRBEARB+C+SHpYc85W/zeabGYvweDzAtTrq6BhkE2UeeYThLw/HDyDtNK+9+gb7z6ZgkmWMFgsBfg68rgzSnBlomoZsc/D6+AmUzRVCypV4oi/Foui+knVdR0cif+FIgh0yI6JqcTB3bxZ9MyjHusWeP4dmtRMRHgaqm/NnL+IXlp8Ti8bx4QaFyR++SMcGDaj2/CTGPVUfd0YKF+ISMOoS5HC+dV1D1/0oWDAcWc6+TFXdnDpxGpdXQTYYkWVQFBVNVbAFBVCsYCST3x3MbwdNzJ35CUYANZ3d23ZwOdmNLkkUKVeJ4vnC+WVcH5ZpdRjTtSqduzzDuO/nUado3pvqkxp3ihVrt+PVJa6vrQ7IBhm/gNzUrFODQIcRgKQrFzh/Ph4MMhJgMBoxAIqioAOaqhKWJx/58oTf6csvCIIgCIJw3zPe6wr8Wzasms+8FRsYPvQ5ZI8bzRdCYzZb2L1+EZO/3c+Aq4G5wUrhYmWwhHmx2KzEHt3GJ199RWTVxgzoHIXHlY4mGwm0mgBYNW0SvV//GP+QYEACXUOTDLw//UeealgDVXLiUrRb1u2zp/sQ90h9Jr8zGpJP8VzbzjQdPZva6ec4etaLapDRXS7QfNdQMb//QscRH2K0BmO3QmJSamZJBoKCAnClpWByVOa3pV/hZ8t+U8SdEs3Azu04EJcEagapaTrBwf54vW4ath3M9/97DU1Tcbuvu3xxxvH5uyPYG6PhSnMz4I1PKd6pAckX93FCL4bBIKNkpOPVcj5Gb3IMqxbPJ96lYzD4StUBs8nEhVP7WL8X1mxaSZ0KYQCs+HI8L0yaCUYzBsmAOyWJNMlESIAdNPB63bQd8BqfjxnM/XkZKAiCIAiC8Oc9NIG5pqqUqVaNt1577aZlq340sePt768FefYI+g1+BQAl6Rz9ui4kOCKM1PhY8lVoQJemlbNtn3wlgapRXZj++XuYUNF0HQnwDwoBPEgGGaP51qdadzpRNdX3hyzjcTrxuFUMRgsWky9Alo0yhszW8YJ12/DLL/U4eXAb+0+rPBZVA4MEuprOmjXbKFquEsUK5MVhvTlTyRZYgB+WrwVZZvtPbzDg7T3MXf0TBYONGGUHmq7j8arIshkDkJGWytnzGTz7+mdYbTYUlwtdMpOY6kY22zGrRpBANhpvebckpHhtPp9eO8dl0Zu/oW7bT8i47sIl6rkx1O87AslgwGaVGPpkI2YklWbNiskE6x40VcdotfuiexGZC4IgCILwH/HQBOZIErfK2tE0HUm6FsQmX77AmjWr2bxpPXNm/kxgxRqs3bqdjTMnMuqpRnxVpQUtWzagYcOmVC1fBCQwW+2Eh4diuql0N3aHkd1rZ/B0/wNEde/Nk3WqZVtDNpm4HJ/M5YQkPNEXcHp1ZIMMuo7BaMJudyAbDFk53wZHAAUjA1j7/Wt8MReGDO7qW+A8QptxbzNk4lwa1ozI+TQYjISE+1JAriQrxMTvIVGzUTkskJcHPMXmI9Gc2rmTak8MQgKOrVnOM6PGYvSzc+nCRcz+uQj012jUfiRVbA6k9D/3MtxI94BkNiFbruXc2IMDsWc+Tj2/lfUHD+KNi2bvsVTa1ch3bdu7loQlCIIgCIJw7z00gbnBAHu27eTVd97FqrhRdQAdk8nC7g0LcWZkZAW+roRYfvlxHkpQft75bgmdo2oiARVGfkLnrn34ctp01v62hLA8Falavgi6rmMym3MIygEMaKqKNSiA4qVKkzs48KY1bIGBrJ73A22O7UVJv8z+6GS6Wk0Y3CZSLh1iycJFRCelU/2GhPHQfGVQDQtwAnbAeeoA6ZqZvAVL/OH5SL24j8++nYfXm8rYke9Q/YcP6NpjAM1T05gz41OiFRcaULpOI36YWw7Jc5mubZ+kfo9B9H6iIskumY3/SwDH3+s/fDHahRISQr4CoTctiz25m04t2+JfoRsDg8/RqVUrvl84l461igI5ptcLgiAIgiA8sB6awPyxNr1w6oVJj40l3ZdentlTEwqUqs1rT5QkF0D6RWb99CMBEZEE+tvZt3EhO9b8jNVuw5ORjm4wYZaNlC9TnH3bFnKqWVksRpmDu7Yz88d5GN0pxCTEcTk2gaRUN12f7gGSlfKPdOLlF/rkWLeM1FSatI5i9NBB6MnHGdR7BG63F6PVRszerUyZBKfiU7CYfIG5Nz2VywlXSE5xk5aQzN5TFynqMLJn9Qk8kglJSiA6Jp08eXJnpb9cpasa5w5t4plenUkMrslvizvzYo9eNGwZy+eT36NxjQjOH1jK3K1eXx54cDCRwcG4LijExyWihzhQ4k8w+s2vOLb7IGX6OG6bTeJKTyU+IRHdYLh6upFlI7IkoagKm48dwmjScF4+R6IUTpBd5tK5U8yf9xPvvj+B8IoNWLzsWyIkJ1K7lvSKqs3mISN4umcbIgvkw2Z6aN7CgiAIgiD8x/3noxpdVblw9ixB4SUZOKRc5sgxBswWM4rXg6pm5jbrGocOHyciwIguObDZnSiais3PH7sey/8++oJyrXvTpHIYKSmp6EYjsmrDhJHIarWodCCGlUuXoLidSCYLDpsNqz0Eh82Crut4XbfO+VA9XvJFFqVK5UrgDSXEZkZVVTzuNIrUacXU6R/Tq3Fj0l0eAKI3zKX3qAlEp6fhdWXQO6oZiuLFiI7udTGiZxsKFKjJnLmfYzNn39f5PUto3ronhuKNWDxnKkVyBbFkVTC9ew9lyPNvs2LB53jcHiB76/zaBd9xPEXj+29m0+nHKUycWI5ZI7uw3e287bCKS2dPYOzEn5CMvreawWAgIz0Ft+olODgXSZdjSHNr9Gz7BK1emsA7HcvyxsDuzD+YTp8X32f40D4cmTuLX+T8TJqzlIZTJ/L2uA9YuWINc+fNomQevz/7lhAEQRAEQbgv/ecD84zYi4zu15sdSclYjUZf/oOqcSn2EkHB4fjZTCi6jqq4MNpL8OmErxk2+vWs7TetmM+q1RfRVBWvVyN3/uI83e5JQmzXElfyterE9Fp12XHwHOWrPkKw/fpo2MO0+Ms4c3luWUfJIHE+5grJaWlwOZpUtxcdCXQdo92fwOBgzMZrOeb56j7J1B/rgGzE38/Butlf8MyHc5n64w/ULhJMSpoTo9EPq+nmtuyQghV473/fUqR4GZwJ8SjhQRSo0Ixf12zkcoqGnwzpGS4yMq4F5qePLGfg2Gm88uH/OPrzJwwc8T6rZ31E+VIhbHcqtz75uk7tVt357tHHszqG2m1mvhzdk1/22ZgxayooXgwSuD1egvMWRjL7MWrSLEb7hZE/dwgASydNYo6jGk+3rU/bZ16h6ZNPcfaym8hwEZQLgiAIgvDf8Z8PzK25Ivhw1mw8mWOsG2SZpJjDtO7Qk74j36db40ooqoqu68gmM6GhQQDE7FlEl34vcMnpT5FihWjaqSPu9It899m7jBz+Mr3GfcEbfVpgAQySRPKZdfTt9Q6z12ygaqHrAnMdKtZ8gvCg4reuY3g4y36aTt2NS9EUF+fOp9A72AoxOrqqoni9vo6rmb0djfZgihQLztq+fMkiBAWHUap8WXL540vJub4CWckmOn7hhXjyyUKsm/IGgyfuZv76+UQGS5gDQsgX4FsrMrIE1WQrEnB85880e7wHhWr25p3hz3G4RgGimnag68CCtA203pQqc6PwPIUIz5P9uUIF8hB+rgClihXNcZtCRbPnyPs5/AgI8M/K4ffPlY9ymQep6yLXXBAEQRCE/4b/fGBuMJoIj8g+6Y2f4QpWq5WA0HBy5cqd43bjnn6Fk1Rl7/bvCcnWwVHnq2FteeaZkfRv0YjCeX1BuKKC2+3FarFkL0gy02/cxNvWsd/7H/FYSgoGPTOM1iQiSxVk79QMNP3avk1mK+mxJ/hu1nycCkiShMls4sSWVVw4e5jP3h9HyVA7XsV3oWEPjKBHr074Wa6+zNciWI/qwaWpmBw3R7VP9nqZJzMfK7HJtG0+gDe+eBMZKFenFRs3bSIpIJxdn89F1W6TyHKLiFlRNTQ95zsIR9YvY9HGPRhkI7oOdoeZlceOcNzk5OOJnyG53eiAqqhUrFef5rWr33r/giAIgiAID5D/fGCeE4/Xi1fxoii3TsMoVKIUKZsOMX/Jb9SqWJLAQD8UdwYXTxxl/dHT5C9cHD/ztXQWCZWkxBhmTptC2XyBeBT1umVAYF4ee6wFeew3B6u5I4uQ0+WB4vbi9shouo5X8aJJBpzxMew7dBCvLmfFvXJgPgb07oQz9jT7LvkCZV3T8A+RUBUJLDkUjk78xUN8N+UbCviD97pxxCUJzKEFiWremNKP9eHjx7Jvmb9yZfIDW51u3JKKrmfOynmH4xdqqoLH7c1x2YUzx9lz+BB2kykrdadEq3aU1VSO7Nvju3CRwJWuElrskTvanyAIgiAIwoPgoQzMjcgEmC0YDPIt1+n/xf9Q3nuVaZ+8wQxbAEaTAVVVcKa5yVWsBnOXjiAs7FqQ7RdRmvbtWnJo0yoO3RB766qCufAj1GnaghuyOm6rVJN+DI/0YkfBYg3CoHgIL1uXL6fW/ZNHfLMC5WvQsvFBti77ha03LNNUBf9iNWjQqBHB1luXUavLKAK8+dGVdHSTAwO3Pp/XM5kchBYIu+l5HZ0m3QfRpPudH4eemaIkCIIgCILwoJP0O23mvAMPSpCkezM4eOAwYYVLkifYcdt1PRkpnD8XQ4rTicFoJk++AuQOCfiXappJ83L80DH8IgoREXr/dXj0ZiRy+Mh5CpUqQ6Dtj6/1os8cw2kMpFj+nNOIBEEQBOH+dPsppxWPB68KVqs5h2zOvz9dteL24tX0W5R/96keBY+iYLFaMBiu36GYevuf8lAG5oIgCIIgPHjuKM64KzHj7Qs5e3gfpy6nU7Z8BXJd18C3ccoHTNyRxBdTxhGSw3aaqqFpOrJRzjGwVt1uUp3pqIqW1U9LkmQCgwORDRJrJrzExFMhzJgwkpya6VRNB03HYDAg/Yn5/7IdrSuBCR9NoGL754k8uYDu7y9l0vffUzG/zOXDO1lxKIao1q0IvGE45ozok/y8eCM1H2tH0fy3b/QUbu3vTdsoCIIgCILwL5EkiTULvuKRKpUpV6Y0pUtf/SlFiRIlaNNuNNd1mWLH74to06wexYsVo2jx4jzSvCPz1x9EJ2ugM84d+J2+naMoUbwEj9Zuzre/bkfLISjXgfTk0/Rq05z6UR0Z9dJgalQowYj3p3J1OIPUlLOcPHX6lvXfsug7WnQfxBlnDgu1FIYN6kGjRi3p3KUrnTt1plOHDvQd8ArxKS4AUpKOcers+VsGb1vnfEujx3tw7NYjNF+jJvDpu2+zcuuZ7EebHsuSuTM5dMmJ7o1h9+FDpCq+PV7atYjR731Oag4XFaaEfbwy9HnWHbhyBzsXbuWhzDEXBEEQBOHBFHfhBLt276FO0zZEhMhoqi/C9npd5I4IQtV9wc0vkwbQdsgX5Ctanv7PDMXPFce0yZ/Rpt5KvliwnGcfr0r0wTW0bNCI6LDqDO3/NIdWfE3vVg24+MMyXu1YJ9t+JdXNK907sfiwm+++/5EakaEs+PEr+o8cRsGipRjQvg6y0YTFYr5lW3v0mQNs2LgdZ4YGjhvCa9XDvkP7qRrVn9H926OpvqGSVWTCgmwA2Ox2LNcNPHGji9H7WLdpM85U4DZ9xADwJPLD93Nol781Ta4f4EwyYLVZMRokJIMRq9mSdSFgCw1GObuNNvXrYr2uW5mEETk9mgQtED+rCC3/DnH2BEEQBEF4cOgqhFTiva/mUbtQzqtc2LWcvsO+oGr74fw2/QPCbL5Q+ZmBXWhYtSqvvvIWvVrPZ860SRzKKMKGVauonc8Bw/vQrVZppn85kWEd62SLbfW4rfy6I5p3p60gqkZpAPoMGcvpDRuYvWQVA9rXuX2ajfsKC+ctxH3hBD/N/42x/aKyL5cM2KxWzpzaz4YNufG43aiKl0IVa3D59G/8vnU3u+bvQS/cOufAPyOOBT/9Asln+WHmHCq/0OH259EgY7M7MJtubn/XkbBY7dgtZqTr5vdWvB6sIXlp0/kpwqzSdetrpB/ezt79q9DuXob0Q0kE5oIgCIIgPFhUkG+TjLt49lRSzHmYMO61rKAcwBFahknfzGPXsSR0TaN+6+58U28IlfNdzYkOJSQ0ECXJiXZDmZpBQ0fBnZF9BDJdVzD9waBkujOeN5/twOKLofQaUI/xr/ShYO659G2dfZQ1gyRx4fhR1q0zoykKHq+HJHteKgcrxMbEkqJ60A05hOXpFxjTrx0LLubj2WGtmTi6J0UKOujf7rGb1/0jkoSsu9i77XcCXSfxSqasfHglw4nqF0ZUh64U95ey5jIxmsxc3mZm3OSFuL0iMP87RGAuCIIgCMIDw2A0Q/p5pnwwhrURZjyZSeVej4syDdrRpckjHN97gYJFylGySOBN21dv0ILqDXyPKzVoQ6Xrlm2bMZ7PFp+g99gR2G/YTs5di6jKRRg1rBOBxo+oHBnKxiXfMX7hHt6f+a5vpWwxqY7qdrLr92WMen00W8+qTPlhOZ3rFaSw+SkGPtGcdc+P5pWBPShTJAJ0HY+q0W3wKF7t0fKmejds+TgrP7rMqG0ZmbvRUZxpbF+/ijGvD2PHWRuzfl7O47XyUtLo5PlObVg3cDQjB/eibLF8SHfaI1Y2YpOczP/yLZZ54kg1FMOYuak9rDAhrmiGdGuHn9WY1TouG4w402LwiyhJLqvovvh3iMBcEARBEIQHhmQ0gpLM5qWLORpuQfH6AnNVVbCXyGyBNhixyXZyyNK4pYNLp9Khz4tUaNGNsS/2ymENM+9++z2ml4Yy6c2X0dBxuTRe+ngK/dvVAsiexqGkMn5wD8bN3sijj7Vjxax3qF4kFIDXx8+kWvlPee39T6nx43fMXDCPxx8pjNeZxjcfjePK/tV40y5z4fQl4p3p1HqiJ+8N64fX6yVr/BRN4ctX+/PKtOXUbt6BZd+9yaMlwwF4/r2vKV62EiPHfkTVn2Yxf/FCWjxS/KYj0gFZviEUNEA6AQx8dyo1r8yh5aiVWR1qizTqyfJ1LUl3urPfUdDBIBsxm+2Eh918MSTcORGYC4IgCILwwFDdGeBXnIk/rqZplSAU77VZvI0mX1hjN6skZMST4oIAW/btvYkxHDgdTcHiZQn192WRL/nuY7r3Hk6hRh2YO/NrCvjlnJviH16Y8VO/5+jR82gGifCI/IQFXRsaUNdVVDVz5m9jAM2feoFKT42hSb0qN5X1WJ/nadimI8s27qdiseKAl6EvvsqRs3GYTUY87lwUK/0ofv4OCpUsD4CiqqhqZkhsMNHkqYHMaTuclnWr3NQeHtV9MA2j2vLr+v1ULJLv5oPRJXRNISnlCokJccReiOFKupP8fm5ko5XgsHwUMYVhMUhYzTqLJo/i/ZkbsNsdXM2msTr8MKKQlu66WihpqSl0HPoKQzo+meM5FG5PBOaCIAiCIDxYZDO2YH/gWjB+vTpRtXh78ecs23SYvo1LZ1s28c2BDP90JWsOn6JBKSvzJ79Bx2fHUqP9K8z/5j1C/mAev70b5jP4nR+Z+9tCwm7YtVELwG7zkhmaU75efcrfpixbcF6ebJXX94du4olOvah3eC8vT5jBgHc+onJo9vUNBGF2OLLKL/VIbUrdpnx7SD7aP5EZlN84NLtkIJefh+8/HcbaWWZiz1wkLj2N/gOewWS3onoV3B7FNzKMJlGgVDWeeDwkq4OrJEks/vwT9ptL8fLTj2HIvFug6zrlihQScxD9RSIwFwRBEAThwaK7SYiPxZXHnwzX1RZzXyToHxhErVbPUGPcFJ5/7jlKzvuGOuUiAY0tv37Dh1/9QsVmQ6hePIx9S7+j+8CxlOr8CrOmjMMup3ElwY1BNhMQ5J/jeOEuVzr7D24lTVXIZcweRtUf+CqV+qqEAjFH9rF2y25Uk/G28amqKgSHF+KxFg2QgbgjR5gz82c6vvoehGYvv+kLE6muSPgDcSeOsPL3zWhWS7aRU7KTUBUPwRGRRDWtn/145Fy89+VMEpOdGExmcuXKQ3CQP4aUE3Ra9jP61TJ1DbcCVeu3pVL97KXL+1fg9TTi5WHDbnOEwp8hAnNBEARBEB4YkixDyhGefqImgX4ySuY45pqqYAoqzPSFq6hVsDhfTX6LDr1HUbdqZZq1aI4pPZolKzdQsGorJn/5OjacfPHWSNJUuLBqHi2rzSPN40X1uChb/0nmzvoix9k1JV3H4/JweM8+3H4WlKupK4DBaMRkNGJ1WEk6e5xfF87HbbIi3yYy93jcFCtdm8da+HqkGmQZk+Li5L5dFEh14FWuL9+EyWTEZi9K8vkz/LZgPi6bA6N068Dc7XJSsmpdoprdEFUbrRQtWS6HCplxpqXjUXVAR9N0bhX3Z3g8KM4MFERAebeI8ygIgiAIwgOjUrPOvPFRGKqiZA3XB6BrGuaQvOTN55srvlyLIWw80oZZs3/h8OnzSFIRPug2lK7d25MvM4X8scGvkbutG0nz4FF8832qikJkxUduOT+PX5GS5C1WjLfeGIPRoHN9f09d0zCYrHw4bRo1m7djRvN2f/r4jPkKUaRcAaZOfINZRgnt+vJ1Ddk/mAnfzaJKwxbMaNjiT5f/R/TA/DTq3JtSJfPg3WfHYzVBYM5XFh67hQxNhJJ3k6Trd28keF3Xbz+4viAIgiAI/11XrkBiIrhcvsfJyeDMaf75v8FkAZsl52WaBs400ADJABYrmGSyBuLWdXC7wOP1PWf3I8fmbK8XMjJy3IVXV4hPSsXj9qDfMAihji8Oyh0agtVkAoN0y9bmLJLkq5eWOeyj4iUxNQ2Xx4umc0P5GpJkIE+ucCwGAxgM8Edh3A3l/xEdA5hkJEkn6cRelmw5Sssn2hNi1bIfi2Rgx/qFnHGF0K5pHSS0Pz7We0nXwWyGwEAIDgY/P99PRMS9rlk2IjAXBEEQBOGvi42FpUth9Wr4/Xc4d84XBJlMYLH4fv+XSAYw3+6YdF/g/1fDK4Ph9udM18Hj+Wtl/5k6aBoYzWAx+i6ucjocqx1QweX+Z+tzt6gquN2+H4CQEKhRA+rUgTZtoNTtutL+O0RgLgiCIAjCn6NpviB8+nSYMwfS0yE01Bfc5M3re5w7N+TJ42uhFIR7TZJ8FxhxcXDpku93aiosWQKHDvnWadQIuneHTp3AZrt9ef9UNUVgLgiCIAjCHduwAcaMgTVrfC3iPXtC+/ZQpYovIBeEB4nTCSdPwrx5vgvNU6egcGEYMQL69PnX7/iIwFwQBEEQhD+WnOwLyCdOBIcD+veHQYMgMvJe10wQ7o6UFJgxAyZMgOPHoXFj+PhjqFjxX6uCCMwFQRAEQbi9TZtg6FDYsQMGD/Y9Llr0XtdKEP4ZiYnw/fcwerQvH33SJF/r+b9ABOaCIAiCINzazJnQr58vbeWrr6Bjx3tdI0H4dxw9Cj16wLZtMHAgjB//j6e25DSplSAIgiAIAnz5pa8zXKVKsH69CMqFh0vJkr4RhwYMgM8/h169bjmM5t0iRoUXBEEQBOFmP/8Mzz0HbdvCtGlidBXh4RQc7AvKS5b0pXA5HDBlyj+2OxGYC4IgCIKQ3aZNvtbxJk18neHs9ntdI0G4t4YM8Y3gMnKkr8PzyJH/yG5EjrkgCIIgCNdcuAA1a4K/v2/SoDx57nWNBOH+0b+/r8V8/nx44om7XrwIzAVBEARBuKZDB1i0CDZvhsqV73VtBOH+4nT67iSdOgV79/om0rqLROdPQRAEQRB8Fi6EuXPhrbdEUC4IObHb4bPPIDYWxo6968WLFnNBEARBEHyTq1Sr5hsWcds2sFrvdY0E4f41bBh88omvP0bNmnetWNFiLgiCIAiCL2f22DF4+20RlAvCHxkxAkJD4cMP72qxosVcEARBEB52mgZ16oCiwNatIL7L71s6IF6d+8TYsb4L2YMHoUSJu1KkaDEXBEEQhIfdtm2+zp49e4qg/C9wu9yoWs7tnGcP7mL1ilVs23cs+wItnV2bN7B67QYuxKVkW3TpxDHWrljNpm178d5QngTEx17gwKETd+8AhL+mfXvf79mz71qRIjAXBEEQhIfdwoW+iVRat77XNXngbP15Ai+On41suOGCRleZPnEE9evUZ8gLQ2nRpAHPjpmGByAjlle6PEbLNt0Y9Gx3atdvxvLdMQBs/uUrGtSsy4Dnh9ChZR3aPTuWy85rQX/q+ZN0bt6c19+a9e8dpJCzsmWhfn2YN++uzQgqAnNBEARBeNitXQtVqkDBgve6Jv8ijYz0NHQ0zp84zP4jp29aI+VyNDu37yIu8VrQ5XJmoHgUYs6fJe7yZdYumcfG7XuIT05H13XSU1JQAPfFU7z7+mfUH/k1W7duZd4H/Zn+6bvsuOBl15KpTFh5nK9+XceWretpmieB0a9+gldzMebt9ynSdgg7tm1l9ZwpbP1uPL/sPAPAtnULaNK4Mav2HiLIP+zfOlHC7bRp4+ubcfbsXSlOBOaCIAiC8DC7cgUuXoTixe91Tf5lXmZ8/ALNWrSga89+dG4dRaehb5Hk0QGdxd+8R/16jXl2wDPUr9uI75ZsBGDqm6/SsnlTatesQbNWPZm+/CzHNsxh1NifSIo9T5e2bZi59TxGq50gSyh2zY7D4cBochBot+Hwevbi9LkAACAASURBVFm7ZQfVmvbk8SqFCAjMz4AXhpN8bi0XMtKxBQWi+/ljcziwBgZiCbQgqSoAP8xfTOU2vejcrg7paen38NwJWSIjweWC0zdf2P0VxrtSiiAIgiAID6ajRyE+3tf586EicXzvFtZv87Jo1RKC43fS6sl+fFalIb3LpNBjwGt0GP4lrz7TlC/GvcCgp/pTfd9mLh3axcp1O/lo8gQqFC3FhqljWZxekBeGtMbhL9O6Q0dKhtmRw0J58dl6PDXySfb9Wo8d69dQa9gnVIy0M+vYJSLyN8mqiT0gBK9HI8ETypi+PajW7QWq7pjPyZ3rKNKkA91rFwNg7JsT8Pez8/qLp9l3znOvTpxwvdKlIVcuX6fpli3/dnEiMBcEQRCEh9mZM77ZDIsVu9c1+ZfpeM3BtHxmIE0rFwWK0rf7LHZvXk1Eiht74XqMf6sfduDdT8ezcHkdVu/Zj2yQqNL1BYb16wNA3AoHYfFFKF3Yl1rydP/+AFyOPsKkxZup07YHfdo1ZWvRABb8+j0H+kZh9behX99ZVNfAYCYj9gTzf/mZMrWe4MUBHTm5rTCTZ21h3sqDdG1ZFn8/OwDuDI8YBe9+UbCgb9jEvXvvSnEiMBcEQRCEh9mlS+DvD35+97om/zqT1UJk6WvD3PnlDsd93km6VyY8MAL71QWWEBxBVlIy0tA0CA8MyNrGq2jounZT2UdWTuPEaSvrl06jaBh069SUgxVr89OOw/jnD8N7xZm1rqp6cYRYiN+xnh+WxzF5/XxaVQiBTp05d6oyPy2eSdeW714rXMTk9w9ZhsBASEq6K8WJHHNBEARBeJilpoLN9hBOKiShOVPY/euPvj+9V9i7cC0ReUpRLG8Ah45uYuNFFwAxm9dw/ngixfLlR0JDzcz5BtBVldTUtMy/NFKTrqADDv8QPIpCzOUrACjJiTidGVjMIRTLV4Sdm5ZwITM2X7t4ARZzQcoUCAerk0txlzMLTyEpKQOT0fIvnA/hLwsMBLfbNw/A3yRazAVBEAThYeZ2g8nka/l7qEj42Y2s/fYDns6tQvQ2lsfZmdfzceqEx9Iszxe0jnqSoW2qsnjaF+Sp3YVm1cuwLiERZ4grq5TwvIFsm/g5Q8eUZuyA2rSJakXP8Qvp1qwv1SvPpFeXVnRv04Ktq+YR7ShE+1pVKWL04+NPv6Ft+6doXNLC1C9WM/zzXylZtzI9WhTkte4dON2/PRf3rmLDYSOTx/bIVnO3K4M0p8gxv2/YbJCQAF4vGP9eaC2/8cYbb9ylagGInCdBEARBeJCsWuXLj+3bF4KC7nVt/kUqv837CVf+KKoWlkg35ufNDz+mYfm8GGzhtG7dClPaBU6ci6Vqsy58+v4owuxGZGTKPFqVCiUKA5C3cCkC7UYU3U6tOpVwu3TKV61B4YhcPNn6MQzJMZw8d4lcpWrz4acfULZgELJ/BM0bViX+3DHi0gz0fukNnu1cF9ko07BFFMFyBkdPnsWeuzhvfDCe5jUis9XcYJApXqoiFco/TMNb3sfmzIHEROjd23eR+zdIuq7nPFXVX6DrugjMBUEQBOFBMmoUTJ8OGzdCoUL3ujb/IhfPtqnLmVJjWfruY/e6MsKDrF07Xyfq9evBbv/j9W9DpLIIgiAIgvBQqvJIbQrkuv/vEui6zv6YraS4EqlWsAEWo+1eV0n4h4jAXBAEQRCEh5CVp0eNRzLc/3f6VU1h9dGf2XVxA7n981M8vPy9rpLwDxGBuSAIgiAID6UHISgHMMomWpTpQoV8tcgbWPheV0f4B4nAXBAEQRCEh0ZyxhU2n1nGpdRz8Af94nRdR0KiQFAxahRuisPs/4flexQ3XtWNzezAIF0b6careHB60zAbrdhMN+chX0w+hcubQdGwspn71pCka6NaR4aWoXBIKayZ23oUF7LBiGwQodx/iXg1BUEQBEF4KCRlxDNl01vsvrARgyTd0YAVmuabPOhI7G5613gFuynniZi8qoe1x+ez8dQy0j0p5PbPT8MSbahSoC4pGVf4duuHRCefxWHxJ29gISrlq80jBeojSRJOTzpTN48jLjWGJ8r35OyVYyQ4L1EsrDzNSnXAbvZn2tb3iEk+ywsNPkCSDEzb+h4FAotSJqIqhy/txN8SSNVCDQm1585ef10l3Z2KqqvYTHaRn36fE4G5cEd0/nsTjd3ZMWVfK+dt/vzZ+S+eT0EQhPvd6mPz2XdxC36WAGTJwE3D0un6Ta3oEqBqKlvPrKRU7ko0LtEux7K3nFnB9zsmEGAPJdwvL/titnAp9Rylc1cmNvUCey5uxKP6WtP3XtzIhlO/0aZCX54o35uUjATi02NJ8yQxY/snqLqK0WBi29k1qJpKVNlunEk4QlzqRVyKk1RXEgeit3E0djfLj87hijMWs2xh98VN9KsxijC/PKi6yvZzq9l0ahmxqRcBnVB7blqX70Hp3I/8E6dXuAtEYC7cEQk4vnM5v6zYhoYJu78/Jk0hJd2Joso0aNSa2jVL3VlhmSN0JsUnYA4Mxm6+1aQWOqe2r2Lp5v2kZngAHV22ULtpa+pWLHb7fWgpTP9uIbUatMDkPMjOk25atWqG+bq5biUljRWL5+NXuDo1KxW/VRXYsWMNW7fF8lTPzgRmNpQo3lR+mb+Y4lUaUKloxC231SWdhEsJ+IcGo6Vc5pffVlErqg2Fg23sWDqb2b9tp2ydRvTq0FpMwysIgvAPuNoQcjbxGOtOLsYkmzHcEJTr6HhVD4rqxWy0YDSYsm1vMMjIBplVx36hUr7ahDry3LSfo7F7casumpbsQFTZpziXeIz4tFgsRhtexY1RNhJsC6NO0Siik8+w8/zv/HpwJlXy18Vm9ENCQtdVCoeU4vFyPQi25+L45f0UCC6KpivIkoxJNmcejYRFtuJR3VTMX4v8QUXZemYFB2O2sS9mM42Kt2HT6aV8t/UjVE0hIqAgTk8aey5uJMgeRqncVZBE89B9ScQCwh27dHIvv/26gt/XruKdYUMYOOYDVq5ew/JlSzl8IvrOC5IkDqxcwDPPDSH9lkE5gMSWnz9i4NDXWbp8DWuWr2bG5Ik0adqMWct33H4fajJfT/6WE2cS2LZ0Om++8xlu9YZ1dCcT3x7JT4u23rauv/z8DYMGdWH01z9nPe11xzNy5DCWbj98u+pz6fhG2ncYTLJLRkm+zIyp33EuUQXXKbr368vK7du5HJsq/hEFQRD+IRKgaSrLj8whPj0Gs9EMgKZruBUXqqagql4q5avNgDpvkT+wKKqm4FU9eFQ3emYIbzZauJh8ipVHf4ab29qpkK8GfpZAlh3+kWlb3iMh/TJl81RFNhjR0NE0DavJRpOSbRlU721qFG5KijuJXefXg+S7ONB0jaiy3ahWqBHFwsvRskwXykU8ipqZTuPj27eieSkcWpLe1V+mbYW+1C/6OEgSSc543N4MNpz6DdDpW2MkY1pOpW/NUQRYg4lPj8GtZPyzJ134y0SLuXDH6nZ8iTUdXwJgeN0a7KjcmRUTn89anhB9kq17jpC/WHkqlLg2G1lGYgzbdu3BFlSQqo+UxYDCgYM72XP0GOcvxBGSNxfyLSJTTVEpUqs7a1Z9DoDuSaHjY7WZOnM2XZtVJTXxMl7JRkiQHxKQGH8ZLH4E+4XzvynjKVgskvlbJKwWS1buSPLli+zcd5xiRfLgFxiKxXj7aajNFgcAk14cRFTNWjR/NAKQsNpsmK6bwjol7gJbdu4nuEBxqpXzteifPLidg0cPcvr4WSqViuSTSRPIG2Fl1/IlxCaH8O24yTSsnJ+EFCehAXbf3QRNJSY2noDgMBw28S8qCILwl2U2l++L3sKOc6uxGm2AhKopyAYjZXJXITYtmkRnLDULN+XRQo05mXCAs1eOUTC4OCajhbNXjiBJEgZJxmgwsen0MqoWqE/R8HLZdvVooUYE2cPYdHopR+P2svnUcornKscztUZjMpgyG7olpMymmKst1snuK5mdTH3PWY23mqBGv+EvDYclAFtmznuwIxSjJONR3KS4k4hPiyYioBBVCtTDarQREVAQm9mRdWdARID3J9FQJ/wlqgbm626DLZv5IXXrNWfY8OE83qoxr348HYDDG3+hVVRrhrwyik5tW9G65xhiTh/h53nfc+rkcV4bO5HTKTc2ZV8jSRK66sWZ+XmkeDMwmhyE+ocjARNH9ObFkVN8NdFSePfp7rz14RKQnLw0bBTbd5zFYbciGQzYjbBx0Qzq1KvPs0Oep02Hbqw9cAE/++07wmQ406nWsAltqoTwzAvPkuwFq8mIdF3HodULJ1O3fn0GvfgibZs3oddrk0mNjufHj6dyJfEQb4//kP27dvH+2++x8cAO3njrfySmRfPhByMZPvQZujw9hituQJLYv3I2zaI6si9B+RuvkCAIgoAETm8avx2eTYY3A9lgRNVVQOLJ8n14uclEGhR7ggyvM9vQibqk06nKQF5u/Cm1IlugaiqarmE0mEh2JbDi6By8qufa+ujsOr+OdHcK3asNY0STSZTKXYltZ1ezP2ZbZvqMTIYnnV8Pf8+k9a+y5exKLEYbFfPWykqt0QFNv9Vnv8RNLfW6b/QW31Lfd5Kma5iNFhwmfxLSYzmbcBTwdXx1KxlIyIheTvcvEZgLf5mWmSsee2Qdg4e/TdPe73D40GFmfjKUT14azPztF1m6aBZH3fn4ffNuVv46Fef5zUQrwfTvP5gK5Srw6biXiAy8dYu1yW4n5sAi2rR6gidbP06tGrX5YdVhunTrCEDMxWgunE7IXFvhcuxZohOdgM7RI2dISfIgGyVkkw0l8TSjBw8hono3tm7fynvDnsJ5JRFVv/0HlOLOwFGgIhN/moJ3+0Je/XAuWPyQJTBabbguHuDZPkMo2rwnO/fu55cPXuGXcUP5esdphnzwKgXz1uS9N9+lWLCNQ/t2Yg4uxafjBpPLnp+3xn7BS32fZN/K2fy+5xwAP0ybgBxQgWr5rX/7NRIEQXjYbTmzkmNxe7HKVnRdx6t4aFCsNS3LdCUh/RL7ozdjMpjRM7/Trga7286tRJIkuj4yhHIRj/pamQGjwcze6C3svbgxax+arvH7iUV8tPpFPlg5lNk7J3Em8RiBtlDC/SLQdA2DZCTZnciCfd+w9cwK/CwBtC7Xk/J5q6PqCpIOquZFzyFoNhiMgISi+epgMVqRJF/L/9UGIoMk41U9aLpGoDWEmpEtSPekMGXzW3y+/jWmb/+YdHcKVqM1Ww69cH8RNzKEv+zqbbhzR3cQk64Qe2Ebr47ch8FzBYuUwqIVh+j7aEM8U8bwZPMW1Gn6GG998DGPFM/HtgN2bDYrweGB3C6RRFMUHCGFaBXVErMBXElVYfJUPv/iK6Kqv4nVbsfiuvo2ljBbLCgmX2uAxWJGlg2oOshGC4kndxBjCmX8C8MJtlto2uUZnvhmBs6M9NsfpySRkpRI/sjafPpGf54a9zzN6i0iMMAPk9HIhaNHSJPzMfqdMfiboWq35+gy+WtWrd9Jx2dKYTaaiQj3xxwjYzKZkGUTuQpEYDb7EeoXSLFqrale4i0WLFnHEyWrMnvFKYZ+/bX45xQEQfibrqTHsfrYPAAkgwGP4iYisCBRZXvgVjL4esu7HLy0A7vZcW2jzLSVtccXYjHa6frIEJqX6szphCNkKGnIBhmXN53Vx+dTMlcV/K2ByJJMq3Ld0dE5fnk/xy/vJ9AWQtuK/SiVuwqHonei6QoOkx/NS3Ygb2AkBYKLUjjEN2iCw+JPiCMc0Mnjn/+m43CY/SmdpwqBtlD8zIFIFolCwSUJ98uLLPm+LcIcEUQERBLu7xuQoHmpThhlI2uPLeBQzE6sJhsm2YJRNmG838Y+V90kOlWC/W9O41GSY/n1t9Vc8UC1ug0oG3ltwIXzR/bw++bd2MMjaNa8OX6mO78TEHv2AKcueahWvUr271vdzfbVWwgrWYnI/IEAuBJjWLZ8NUkeE1XrNaJsobC/eqR/6D57ZYQHkdftxWGzUyh3LkL8JHQ5jI++/o6SxQpRq05jFvlH8uOC6SyfM5XPJkzgq8W/U9RkQNJv7jxzI8XtJqRwLQYPeDbruSalgqnX9x2ORg9ClnSMcuY/ssGMxWTAmVO5EmhuDdlox2y/+ra34hcaAtofp4xIaGhAxxffYs7idQwbMhApJQWz2YhXBYvDQuB1n+t2q4OMDDdej6/jkK5lDUYD6Hg8XjRdweVOB3LTtVVd3t/4O19MO0paUGnaNav4h3USBEEQbm/tiQVcSDqNWb7a4VOlfN7qBNvDWHXsZw5Eb8txsh9JMmCQDGw8/RvVCjagZK6KFA4tycGYbciyEaNs4ljcXjafWU6zUh0AKB5egQF13+RS8jnSPakE28OJCCycmYCiomoq/pZgmpfuTJAte2DnMAfQreoLqJpC3sDIm+pjNBhpW/FpFM2LnyUISYK+NUdilq1ZLeYFg0vwfP33CLSHousa8emXqFm4GbUjW+JSnJxKOMyXG17HJFvus0mJNKa+0ZvLFYcxsn32YRxTLx2lb7eu7L1kJF+wl9FvfsLns37g8epFOb5uAVFd+hFWvBxJpw7xdYu+zPnfO9iNdzA2fdpl+nVtR6y9JmtXfJstGN40/39EdXqfd35cwYD85cm4eISuT7ThsBpEhF1hzLvj+Wr6LJpVLXKXz4OPSGUR/rKrt/1yRRREcUsUbdiWYcNfZlD7liyZ/QPn0l1MGzeQebvS+OSzH9j2+2/kjj/N7K2HMchGEtPc+G7KqRzacoDo2NSbdyJJKK4UXCqg66QkxLJo+Xq8phDCAvww2QycSzgAgPPiGVYdiUEyXX+LzldHVfEQWLgslitnmD/vJwBSj29iw/KdmG1+gM7+I4c4ev7KzceZ+VsFsIbzwfj3cB7czPGTpzHIBnLnzUtGzDmmf+67remJ2cjCvVuoUqYUJjQyPKlkSGCWjddulWaWevXipHnnp1D2L2PUm5/SpOdz5HcgCILw71BV8Hqvbz34TzidcJhNZ5YhGwxZuddG2UyR0DIA7LmwEclgyJpd89pkQ77fRoORdHcq+6K3YJRN5A8qAkjo6BgkGUVTWH9yMZdSzmXt02q0Uzi0FGUjqpE3MygHskZ2IXNYxhvpuk7x8PKUyl35lpMeOcz+BFpDstaPCChEqOPaZEJG2UjeoMI4zP44PWnM3PEJX2x4gwRnLEaDieNx+3B5nUT457+jiZX+mI7i8eJWdHRvBls2b+L85aTMJdec2LeNTTv2Zj2nqSpulxfV7eLo4aPEx51h5eKFHL0Qg0dR8boySE5OA2DFrz8xZ+sFvl+9ntW/r6FJLjcTps4FXLw5YiQhFduzatUq5n/zKXt/nsb0FfvuqObfffgCizcdw2zxzxYIp5/ezYC+I0jyejGbfbHEqv+NZ/FhmVkLVrBm/RoezZPBpK++Qcu56L/tfrpkEh4gGampuD2+D5eijz7OkA5zGNa+DjNKleDS0f2khtXio2pFOXG+AAOef5pViz7DoSRzJbwyg+pVIijFxandG2jQ8lkWTH+dHt3b8OSrn/Far+bZ9mMww+ntX1Ox7CaMBnCmpBCX5uG5VyeRLzCQRnXaMH7Wy1SsdRo/5xWOxlymsqQDGikpTtxewJNG4pVELPnKMXLMC/R66Wl2LvqK1IQL7L+SQissgIdhvTtRoNHLfP1O92x1UDOcONOvfYhFVn+csSOe4+k3vyA5MYWQ+o/y5vDHGTzoCVbOLk38+SP4l2jJkM6NsKZux5mwg6atHmfyK/3RFS+KpiNpblKS0/GovnKDImvToU4kY37w8FyHlv/kSycI/wr9bwR51wcNd6sc4TYCAiB3bjCZ73VN7gqv14uiKOyN3kxCWiymzOERdV3HLFvwNwejagqprkRkSc5adu29lhlyZb5/rqTHAWA3+2OQDFkjvZhkE9HJZzh4aQd5AgqSE7eSgcVoQ8KAmpkfLueQwPln3qu+VW+/vsVoI9wvL0sPz+ZUwiGsRhsJzlhyBxSgSoH6aJqGwfB322Ylkk7sYujAYZzxaKQ7U0hySbz27nj6PdkEZ8xBhg8cxNp9MXgkL/mK1+K7GV9QyJbCwG792Xf2LIePxVC+ai2OHlSRvnmHb/3DCWENXy49xpI507DZrVhMDtJUHQ0Zl9WM1WZBjznMvnPRdHt5ODbZQInG7WhUYwK7Nm6Clre/47xn6QzenrWftu2ak+5xoWXN+JfBsJcHYqtWj+rnLuN2++6mV+45lI0dhvFIQT90VwJWi4xu/edaz0RgLvwl3Ua/jjO/LzdOsjgYM/VHqjSdwe5jF7F26EGX7r3JH2ykaL9RrChQmnXbDqAZjHz4+FM8Wj4c1Cb89MPXHDyn4zDYqVo3Eo9+c4t5jY4vMDH3Y6SlOdEBR0A4DVq0omIxX45Z474v8mvucDbtPUNk+cp8FOYgw5QXcPD+R+OoUqkghuJ9GBvpRdeh/cCx5C5amrXbj5OrZDUiAw345yoJGGlYsQSxHu9Ndej51FDqp0nZ/ln6jngTW+GKlK9QCDDyzFszKVjpe7YfOoM9uCdP9epBbj8ThFRn3pwf2XIoBv9CxXjt7TcpE27FP7Q+k6ZMpGihYF+BBgO2ggUo07gQj5QOvauvlfDvSEuI59iyJYSoKvmbPYYx93UTkOQwm+DDQNf1Ow44dMCQua6mazgz0rBZ/ZANvkBIy7FLnHBXPPcc9O6DGhJM6umj+AUFYwzOBVyNQe/vuYoVRSExMZEzZ86wY8cOrFYrbdu0RdHdXN9265vBU8GruTFIMiajJbP124BXU9l2Zg26rnPy8gFk6VrQas1MdVFUjy94N1wr0TcWes5jgu++uIGF+7+lbfm+5AsuSmRoaUqEVyDA9s98xiuqlyvOOILtYZhkC20q9CPUkZsD0VvJ8DopGl6OekWjKBJWhri4OHbs2EG1atUIDw//y/tUPUlsWLuRygPH8Ou7LzBp7HMM6jWU6ke2svz9V5ixK5n585ZR3D+WNs2a89TAwiyZOpR9G1aRWLQWk/73CoVLlOCrQVvQuz5P9y5VOHHISVe/kuhAy+adqBs0mVY1KlMpj5GNJ+JZMaUjKRfOkJJsI2/JXJk1MWMLDeJyStxt6+uKP8bzzz1P7xemUcawjomL47I+mue9P5yFuwP4ddEHvNa+G1rmez5fiTLkA9YsnM6IEaPYdvwy88Z8/4+lnIjAXPhL6nbomPno6ge2iVad+tDqunWufinXbd6Gus3bZC9AttG6Ux9aA2TE4GfJS/1qN1/lFqnYksEVb9OCLEGD1t1p0PqG53Xo1uPqPutSuOx1dW/RmbotbljfeRG30Ur9JrVu2kWlek2pdP2hApItjG69+193nDIt2nWnxXUzNftiMZn6UR2pH+V7rnLZkplLC9Pr6cIApMSdYdaX4xk/ZREvTl6B/f79/hNy4Ey8wsGlS9g+9weuHDlC/bBQDL+vwdG4Gf9n77zjq6jSN/6dfmt6B0IJJKEX6UiXoqwNESvWxS7WXde6a1nrz64r2AsWREBBUQFp0gUEpEMgBBLS+63Tfn/cEHpTUCzP5wNJ5s6cc2buzJnnvOV5owYOQUlK+lOS8uOBIOytQbgjfzszZk+loGQdnTp3o0vrQaTEpyPW0UPbthFObZ74u4MdF0f++tWsGPcModXzGdSpOa7e5yG364sYH6nbcKqhpqaGpUuXkpOTQ25uLtu3b6e4uBiPx8Ojjz5KdEw0zWpaR3S7jTCCKEWSP/UgBdW5dGx4Ok3jWrKx6EdUSUORFFblL+DH/O8RECJFgSwTSZRpFt8SgFJfIRZWvb3btAyinfE0T2h7yDGu2/0Dq3YtpFOD3rRt0IMxfR5HU1zI0smhXj/mL+DTH1/jb60vp2/zc/BoUZzV6jIGthhOyAjg0aIRxcjo4+PjWbNmDe+++y4XXXQRgwYNIioq6rj71MM6aR0684/7HyDaq/DA/fcyYdLZTP16KTkbdnDjTY8zsFNjoDFvPz6GnmNmsHPbxbiSG3P2XU9w1YVdgBBT4kCNb4zTpdC2c3/ado60//3nb/JTwOTy0VfQNl7B/9b/+OStL2k1siWKVyIQ3iegxLbr1eIOiVAt995wDbntLueBMefyzoMTMEwBFdi6dBK3P/sRz3+xjA4pYUp8QWxjf0NddHQ8Z1/xd7RP32HcK+8woOPjRDtOPD3/i5j/hV+Iw0/Yx2wpk2O496lXiY9ynzjD4nG2YStx3PHY80THJB3eNnSYNg93nsd6HqGyPKZ+OZfB1z7MjRd2PbaD/sJvjtrSYjbMmsGqLyaxY+VKDMPA63IhKirBHbnUvjWWqjmziB44CG/v/qhpDX7rIZ9yEBDqn6u83duZPX86s+d+ydbczSSmOyk21rN86yw6Zw+ka8uhJMdGYmNtgT9cPPRviXAwyJznHmHT93No0TARM3cj/rwnERdMQ+06BLXTAKTEg5VCfkvous6kSZNYtWoVbrcbVVXRNI0xY8bQvn3EyNM2tRvt0rqzJHcWquiIlLwnQpiHZl9CvxbnsjTvOyr9pTgUV4SM21ZEU9y2CRkBWqZ0pmOj3pTUFrCtdH1EK7wuztyyLTqn9yUjsdWhB2nbqHKkjgZA3D7x4CcDu8pz2FG+mR3lW/bbrilONGX/eh2SJPG3v/2N+fPn89JLLzFjxgyGDRtGv379jougW5ZFdKyX5Oi63K5oLzFeD+HSciTFSVz83vsmsVkKLp8fyxdA1lQcWh2ptUIYJijiwRrtLz34Oo3O+TevPXojAJkN4ZrH3ue28+4jJiqAXWvW72yHAnjVw489mLeIdyctROji5srLLmbF/JnkVdn86+lXcK1+j50lPj4b+wTj8zezdtdO/vfIGDIavETH9Dh02U2nvsPo1HcYI7sm0O+Sp9m8+x66NI095mt1rPiLmP+F3xyC4iS+7pn+rQyLguIkOiYycf3auUEEBgAAIABJREFUQ0jM7s2UeT/gcP4x4jv/LFj03tvMeeVFkEQUzYGqqgiSFJFa0zREyyK0bStFWzYR2LiB1HseQHIcuZjVnwZ23YJWgLyCHObMm87chd+yLW9LpDiKpuJ0uZFUhaLKHUxf+A4/bphHh6x+dM7uT1pCs/rJ4pfEoP9ZoYeCbF/6PVXLZtGhbTbhtCzMUBDV7UZSFATNgWBZmLlrCeRtILx4Gmq3M9G6nYkYl3r0Dn4FxMXFMWTIEDZs2IDb7aa2tpZzzz2XM844o34fRdY4I+tC1heuxBeuRhYVVFllc/Ealu34jh5NB3Nxp1sYv/wFqgJlyKKMKEiEbRPLNGkcl8nFnW7GpXiYvm48xbX5SHX634YRJtWbTv/m59XLFR6IiHXaRhG1I56LZZvkV26nNlxFnCuZ5P3kEveaiopr8in3F+NWvTSMaVaftFoRKKEqUEZFoASn6qYiUMrW0rXEOuOJc6cgHOat1rJlSzp16sTy5cvZvn07L7/8MlOnTmXUqFH07dv3mL4HWVUo3JjDgkW5ND+jCSu+msmSbbu5rW8XyuYG+G7+ZP51bUcA3nj9EwKN0vGmJGIZJpaxx9ptEw6FCVeEAKgpLaGi1iC9SQqJTTys3roNE5CAksIiTB3im2YRKynM+OB/XNfrAcxdq1i2eCsj/9YFgKKC7QiuBJJivPVjlRKzefHN16is9hE2LKqLNlGTa9OyeQZtuzxAUvcdBIIhAqlu1qzYRPOOXWiWnsJHT97IC8s1Vi/9hHhg4/IcTDEet+PI3+vPxV/E/FeCbdvouo4kSUjSkUvA/4U/GQThT0rKT0I8ws9xufzMYVQVFqLrYTzeSLzogS5UQRQRHE4svx+9qBDCYfiTE/N675IAtmUzbcYEPpnyNgUFO7FsE0VRQBCwTKs+/06VNEzbYlfZVgoW57Jyw3e0z+5Dl1aDaRjfLGJBt6GuKswpFTZ06Fvrt4zDifS9fuaXzHj6IRpJQVpti8evxUBZKYISibnGtkEUEVQn2Bbmzi0E8rehL/sWpctg1K5DkRIa1Edv/9pnY5omn3/+OTt27KBv377MnTuXTp06MXr06IP2bZ7Qhh5NB/P1+o/2Em8zyOQ1b5IS1YgeTQYT705m9ubP2VWZQ9gI4FKjaJHUjkGZI0jyNmBx7gzmbp0GNoiigG1bCKJE74xhNIg5WNpwDwRAEhR2VeWwOn8xDsVFemxznIq7/jYorN7J5z+9zebi1QR0H1GOWHo2HcyZrS5DlTRAoDZUzfT1H7Fy5zyqgxU4VBftUnswvP3fkUSJt5c8ydaSn0AQ0GQHG4tWsqFoBekxGVzX8yESPIdeTEmSRL9+/VixYgUOh4NQKERiYiLNmzc/5u9CVjX0mjxuveZvTO2SydJvZzP0yjs4v2sT0q66mfNH/4NeZ64h2arkm9lreXDiNBol2OwqLiMQqlOnESQSPHE8eecVZLnfI612Hs9P+Yk5sydxxyP3Mf38u+jcexMZiRZz5ixg1B0vkpqUwX3338s5o+9kWNEKilcvIdy4B5ed3w3CFfzjkjNwDh/HuNv2WajFpHPFtXull70VC8kNylw1/ExEoEv/ug9K1vDZaxM5Y8R1tGyUgjLyEl7/8Cr69RpKZrzA3G8WcMnDr5KZcrDM5onAX8T8V8DkKV8wYcJnlJaW4XI6uPbaq+nevSuLFi2mV6+eJCcn1e9bUlLK2LFvkJXVgpEjR7B58xY+/PBjBg7sT58+vQ9qe8aMWXy/YBHXXDWKps0OP0H8hb9wPDiepL26IzjW17Me8lNW5iM2MR5VOZwtB4xADSVVPuKSktH2LZV9pJ4EgXCglvJKP3GJCajy4eL/bKorKgjqIgmJMT8riUeSZcRjWWSLIoIsn4phuicfwv5JnQCFJTtRFRmXK4ofVi5k6/YNeDxeJGGPcsbew20bsC1EUUAVNWwbiip38PXS91ix8Tu6ZQ/htNZnkBbXhEiK4iFKlh8VR7l3fwGPFoBtq75nS8BLelSIb+fnccN1F+L4lW0zFrBl3gx8S7+hVZNUKlZuIODzISd7QZCwq8qxQ8HIomZPXfh65UARQXWAbWPs3IKRv43wkumopw1E6XUuUsKvG6KVk5PDJ598QkJCAqNHjyYUClFVVcX111+P03nohe+A5sNZtWshxTW7UGUHquygpLaA1xc9yoUdbqRTo95kJranJlhBQPfjccTgUtwYls43GyYwff14/OEalDotdN0M0zyxLb2aHZisdCAENFlj0bZv+D7nKzTZScvkjlzU8WZSoxvjC9Xw3rJnWJW/iChHDF4tmqKaXUz8cRyq7OTMlpdg2iafr3mLrzd8hCa7iHUlUBOsYNbmz7CxGN5+NCneRpT7SvCHa6g1K1EklVhXEmnRTVHkI1eQ7tKlCw0bNmT79u0kJyfTr18/GjQ49u/UCAXxNm3LjVfeQIy/lDPOupgrrxyJBPS88AZmpjZlyowFWILCdfe+xNB+7bEDFTz69NNkdI5wFlvwcPOzE0j6Zg4psRrtOg7i1rT2iDa0GHANM+e3YMKUmQR1OG/UHVxy/kAA+l56G9Ni0pm1cAVy1z5cdMVVNPaqYBi0bJTJ4t0Hyx/vi9PPvoG4riKGDeo+z7juTOPB558mo3UkTKV535F8t7AhH0z6lmAYhl/9Ty45v//vP/lz36ny6FOnfZDr5fiJwqmB6dO/Zcytd4IokJ2VSXVNDeFwmPnzv+euu/7F22+PIyEhngkTPuOWW25EEAReG/smQ4cOYuTIEeTt3MXLr4wlOib6kMR80aIlvPLyaww7a8hfxPwvHAzbpqqqCj2kY1oWtgAOl4eYqCNLPQmCQKCqmqAlEh3tpLaiCtnpxeXav4yzEfRRU2vgjY1C3odsVG5dw7j3PqXashFEAUFWSE7qxi03DqVk5UJG3vE4L38+nY7JDqpLywiaxp7hIqsq0THRFK/7lmse+5jnPphEK+8+YwOKd2xky65yNFXDoSr4A35MWya7dXt2r5nG3+95n8+++py4UDHvvP4eBYaJIgoE/D7iMjpy53UX89VTj/BhnsmUj14+5AQbrq1BBCSP98Rw6sPMX2FfLZgmalT0iejlFINQR8ptcvNz+fq7L1i7fi4NM6JJSExnd8V2nE5XvWzb4aNSIm8EQQBBUhCxKavazVeL3+WHjbPolNmfrm2HkhrXOBL/u09DgdJtfPD+R2zbXY1umPXbbcHDyKvH0L1txOPxw3eTeO+zGZSUVuCNi2foyNGMGNip7oUVZvL7rzLnh60IipvzLr6KAd0OiCs2/Uz48GMad+xH97YZLHzvf4TbDyC04mveXBvFNUMa8+Enc7j2+gsxqnbw3PNvYosORHRCugG2gKZp2GaI2PQsrrvmcn6pozxQXYVdvht/RSnfPPkAjYwymjeNxigOIypq5L4WBJDko3saBAFBUSMW9N3bCUx9ndCSr1F7DItY0JMbn9R3tG3bTJ06leXLlzN06FB69eoFgNvt5qGHHiIuLu6wxyZHNWBg5nA+XvFixNotiGiyg8Kanby++FHa7ehOx4a9aRjdBFXSKKrOY1vpBlbsnMfmktXY2MhSZO6zbBNVdnBG5giij0FdxbB0WqZ0ICOhJZuLV7Nsx2yiHHFc0/1f/LR7CT/tXkrj2BZcctoYkrxpLMmdxZTVbzJ3yxf0a34OZb4iFmz/hihHHCPaX0+r1E7klG5gwspXWJr7Hd0bD+KyzrcTMgJ8uXY8U9e+Q9vU7lzb/T7cmveo44uOjqZHjx60aNGCSy65hPHjx+PxeOqv79FghcP4DYnhl99E90OE0Lc7fQjtTt9fBllwxnLRqL2yxALQsHVn7mjduX5b605792/RvjcPtD+Y/wD0Oet8+py1v7iEEdIprkmif6/DxP7v6aPHUFofYrviSWDENVfst61R657c1/pgcYiTgV+FmNuApRsY0xcilFUgpCYgxMVAnBei3AgeF2gatiQhCNRl3+8l5zY2ggAhXSds2ngdCr8H85NlWUycOIlQOMwHH7zN0CGD6j9buHAxZ545hJSUFKZM+YJnn32R5ORkTj+9B05XxDphmibBYAhN09B1k3Xr1iNJEhkZzdi4cXMkphUBRVFYsngZRUXFZGZm0rJl1u92IXM8qKquYdu2bezO30l5RSm6HkJRVGJi4klNbUTz5hlERx9/lvkfCVa4htFnD2VxXjFuh4qNTU2tyTV3P8K/x1yKcgTL3fQXHuODndG8//RlXDXkAgbc/hq3XL5/curaqS9yzX+XMvHbCWSk7LXMqF4PiiYjBC08UR6+Gf8S89Z8SLVvDJXrF1JYVRMp3hAo58EbL2VZgYAiCigOibJduZx380PcOiQBPWihHDgwIGf1DMZNWkll8S7W5RTQuetpOJR47rmvE16vA78vjEvV2LZtObf/+7+cecF5uBWBYCBA0/gMbEDSDUI1VQR0C1EESYqQQ19ZKetmz2THV1PpFBWFJ7sVWkZztEaNUVJSkGPiIlZwSTrGBMTI4kRSI9a22vIyqncXULo9h8KNG9ix5kdaygrthp2D8/S+KPvKLP7OISDgC/qZPH08U778hPyCXGITHVhxsWwr3UhhRQDxEBUIBQEEsc6AuydMpW7Ojyi4CIiSgC1CcWUe0xe/zaL10+nX/lz6d7wQp8Nbb/zxl+3kqccfxJ3Rn1ZNkyJ61ZaJJSfWKTpYPPvYXdz3+Di69z2XVk0SKNi+nAuHfMAj70zkwVGDeP76y7j/0/mcPWIgvi1zueDMSbwx+WtG9MvcO2grwKQ3x9Hvlmy6t81g8bRnKA3GMCwmFlUWUFQVj8cZ4fnBEJIu4Teq0UUnUV4HWDY1tZWEBY1Ewf2LX87hUJCZzz1M4rbFNIrzYPpqEKNdICsgHL3a8WEhiAiyGlHAKMknMOll9FVz8d76EkJs0tGP/xnYunUrkydPxuPxcPfddxMdvXcRK4riEUn5nnunV9OhrNg5n41FK3AoEcOEKmmYls6S3Fksz5uLQ3YhSwq6ESJg+OuSN7W6d2nk/gsbYTo37kunRocmigf2rZth2qZ24ew2V1Jcm89TM29lQ+FyqoPl7KzMwTB1OjXqQ/sGPQDo3ewsFm77mqKaXeRX5VJau5vqQBk9mg5mYNZwAFKjmrBo+7f8VLCEvIottEzphCY70WRn5L4XBFT52Jd1I0aMwOVyIcsyo0aNYty4cXg8nvok2iNBi2nAgP59cdkh+MVLyRMDUXVy9/89RYMWv8+59Fch5gJgFRSjvzAeIWcntteD6HGC1w1eJ0R7ERJiISEWITEGeXB3pEYp+xwvACYfLAkwZ6PO/We5aNXAwalOzv1+P5s2b6Fd2zac3qsn06ZNZ0duHs0ympCXt5NFixaTnJTIl199g9vj4dVXx1JdXU18bCzz5i9gxIhLKSktRZJEKisruf76W8jMasH//d+T3P/AvxFFiVYts9ENnbGvv0lZWTlpaalM+OQDsrOzjj7A3ylCYZ05s+ewaOG3GKHdJMSJRHkVFEUi5LfYuivM4u8tJDWV7j0GMXDgQDTtUPTujw/RNCjdto2u1z7KQxd0x7ZtFn3+Erffcwv9e/dkYOcmhz220wUjSQx7cZs1FJUWUhXaa200g378lowihSkpLyNs7f8supKbcecD/4n8UbOD2e+8xs0P3kiH7CasK8pBlbdhGgY4o7n7+dcIGW5cqoxh6Xxw6y0UbC9BFBORJAn5ELNUj3PG0OMc2DD7Yy7911s8/cYHJOi7WbT0OzYtm4NpRxb5YUzSW/di8sSPD7KKK04PP83/lEsvHMWdD/+bAe0zwbb57uXnWTj+XRIUjVZpqejrfsKWZKToaNTUNBxNm+FokYleXHhAldk646MQsRKbdaRdlGSCNTWs+PRjCnJzKdqwnrK8XHxlpeihEAaQlphEcV4ujh9XkHrfv5Fcf4zSr4IAZaW7+fLrz8gvyMHhcKFqDmRZQ5JlJClMXU3d+v0h4jM1TROwkWQR2wbbFuqLwNTZzxGESIKfLdmUVeYzd+Uk2jTtTnpqq70VFwWIS2zBU69PZED7gy2cOSum8dBDL3PdUx/x8j9G1m//18VDmPD6eK7qmcWkqfO5+qnJvHp9L6CaC9t2ZtKX8/cn5qJMTFQUJbt2sG1bCpW2isflxLZtNKcTt9uNABgGxCRncv9//8PLj97Ebq03D/zzb0CYh289H9fQl7hxWMYvvvZGIED+2h+JCpdjS0EEy4qsdhBOTBx+nQVdAKyyIqyg/4S79gOBAF9++SXr1q1j8ODB9Oz5cyyWkXN1a1EMyhrJ9rINmJZRX5JeFCScigvLtgibQUJmEAEBVdIOMm4Zlo7XEcOQrIvqw1qOBWJdkmaiO41oRzyl/t0YlnFIab/acDUhI4goiEiCjG1bgF33DEQMbkHdT0D3ISDWtw1g2ToCNqapY1kmh6hjdEjsq8LSsGFDrrjiCt577z00TSM7O/sIR9okZHfhuVc67xeu9ltDVNTfLSmHX9NivmwdQlEZUkx0ZFLwhaAmAJaFbdUl7AhgGgb6otU4nhyDkhi752hmrQ/w4swwuWUCBZV+Hjob+mdHLHS2LZxK+T71ME0TQzdwxDoBm48/+ZSPP55Ir57dGDRoIMXFpWRlZ4EgMHbsG9w25ma6dOvMpEmfI8syHq+HmlofIGBZFoFAkHAojGVZhEIhRFFC13WcTiePPPIQ5eXl3HHHPcydO/8PSMwjVo8dO3bx0cdv46tcS3bzGFJTGiHKEggidp3ymmVb2LpBUWEVS79/l9WrlzJy5FVkZDSud3H/0b0J+0KQFTp070/79hES0SHlSh594WMK/LUYJdu4//6XGHbLg/RpF0/+mhX89+UPuPmZF7DytvJjsYdu6c1RZbW+4MacyW/w6NOvYXrSiNcKsaITkcVDX8/c5Qu5bdQFhFqdx9//1oZp0+dQsGM7QcOMCJcJMo0aZYAVpKIyRGxcArGpKRQqLsDGwqDGH8B0qPUV+vaNf102exarfpjNrAWbuLizybQpU8jdsgLdjEUUI963mqoSlq7dSpIDdEOnsrgQOzad6mCIpOz23PGPm2jXLJIcZVsW5TvzME0TJdqJqDkioTiWhVVdTaCygsC6tYiShL+mBtnpQqwLyxVsCJsWNYZBgqahChECJDo0CnbuZMbjj+APhZBECVGK/NNcbkTbRnI4QBAIFRZghUJ/GGIOEWKsaHLEwyfstXrbCGAJ2NaecuUCpmVj6hamblOw3UdtlYHHq+CNVXF4ZRRFRJRkLMHEsmxsa297iqwhKyoHG2xEsHU2rVtD89iMSLEi20JzOElJSWbhjM+IbtGVe28Zud9RD7/6IVcXlhOXksI7cxeQnNECANNXy+5AmNbeA74jUUK2dT589wXy1rVk9oJdXH+hA01TWTPnK97MjyVkpbBvWoIdNCnctTXyh+5j/exVXHnTiUkoEwQBRdUQLKUuVOWENHuojuqs8CeWlq9atYrp06eTlpbGbbfdRmzsL5el69CgB50a9Wbhtum4DpDVEwXxiOdgYxMyggzIHE5m0tEtybCHSItUByspqd3NhsIV5FZsIjOxHTGOeJrGZyNJMsvyZtMwphmxriRmb5lCSe1umie2oUF0ExRJJsaZwLrCZXy57n0ykzqwKn8heeWbiXbG0iR+L3E2LbMuRcA+7kyLfdGiRQsuvvhixo8fz9VXX01GxuEWikIddfvzvE9/DfwqxNw0DKx5KxENG7S6WWmfUrCCHbmRTAFMNIyFa9CfGU/Uw9chOzXW7wzy369CFFVDnEtgXYHNnRP83DbQZFQPDUmS696Mp9bN4XK6SElJZsPGjewuKOTNN16jurqG0tLS+pjK9PRGiKKIJEn07debps2aUl1bw8AB/Xnrzdf45tuZXH/9LZhmpHyuw+EgNiYGTdWwbAvLttE0jT59elNZWYHH7aKmtvY3PvMTC7tOWm1bTi7jxj1NWmI1w85rSyAoMHvuBpZOWUG0JKFIEpZlYYkC6X1a0HdANh06NGb2vE2Me+1Jrh19J1lZLf5c8mqCgKZITHruXspnpmNbJqsWziC+zaWc270NNZtmMOmjCTS94G76tANf7nY+eWcC5z/6Ar7lM5iwOoa/n9sGUQTV6aZi09dcePmNDLvpPi4/oz333nITxYE4pAOIee7a73n9rfeYMXslrfuM5pNxj+L0FRAUosiNjWZVwXf7LY5WzXiPe15YxqQvx7G6pgAlYwQeVWLXpiWMuepyLh9xK3+/sl/dOUV+zP74WZ6asIDrrhjJk9cNQnzlA5568UW2Lp7Albe/h2mAqnmRqeae224mJsZLrDsaRRHpcO61eF1ustp0ZOABsZSyohyc1CmKEZWVusAawbYwTJNaw8RvWIQsm6BhEbYsigKFpDodpDg0Uh0OGricmJaFJMtoknywZWnP/SiKCIryB1w0Hkh2Iq9xURCQZQnLhKDfQA9b2IZdZ2gRsH1QW1qLrAioThnVKeKOUvFGazhjJDSPhKKJiJIYuYYWh3wHyLKKpZfzyD3XMC4uCtO0MC2TpKZZTJn2Gf78QlKim+A5IEdOi08gKz4BgBbZLeq2+hhz7ZWsCHn5v8vO2P8A0yAsKIy+7W5uvqgvT1T/gB4KIDoFQv5aKioELDsFWYKa4i288/4XLPjhR37IX89bH6Sg71jJrPVlxLz8OhW92nHhZefzZ9Rq8vl8TJw4kYKCAs466yw6dOhwwtqWJYXBWSPZWPQjJbUFaPKxqSTZ2AR1P03jWnJG5vBj7i8iZ2gzZ8vnLMr9lgp/CW7Vy4DM4YiiRLu07vRoMpj5OV/y2oL/4FCc1IQqUSUHg7MvRJU10qKbMjBrBFNWv8HHK17BrXrx6zUICAzIGk6z+L1x1KIgE9ID9dVMfwnatGnD+eefz1tvvcVNN91Ew4anlo79seAUE2k6ZvwqxNzavBNr9WakunCCfa+TDViigC0ImAKEBQnDoxL+9gfstGSqLjuff083WFcg4FIlEGxcikBxFTw2NUhuic4dgx1EuzVOnkng50FRFc46aygzZ83mllvvYPCQM8jLy8PhcKAbOqFQkFA4jCAIVNXUMGHCZwwcOADLNLGtiFaYJEoEg5GywrIssXbdet5+5302b95Cs2ZNsW2b8vJy3nn7Paqrq6muqaVhg7Tf9sRPMAQBKiqqeO/dl0hPq6Vn5yw8Hg8523YR9AXJ37AbGsTQzJLJw8KuDaF3TKeoqIamTRPp3SOT+Ys38t47L3LzmAdokPb7dXEdN+pUFgK+KoK1fkxLp8xvUl65jp8Kyminarii3ChKZBKXZQWv140sguzQcLmcEcu2LeBwqSz86Avspv144v8eIQ1w/3M1Fz68EN209uu2qKSIXUXVnD50OD27tGL6pE8xLBGHQ0WIS2XkBSNJcu2dfvRgiMLyKmqqgjRNSyOtexZ68CdcKZlcf9cD9M1otE/rFm88ejd3Pf4Oj384lVuG92baS3fw91FXIL8zldPT3diAz6/TIrsvC2ZN5duvvqESCZeiojkcqFWbKdWcnNGvKzocMo79aNc11eWiMKRTHAhTEzbwmya6ZVOlm+zyB1FFEY8ikezQSHIo2MKe2pV/Yc8LM6mRC2+cSshvogdMQkGTQI1OyG9iGBamLmIaNv5qndpKi9KCWhRFQnHKKC4R1SnhiRJxR4uIiolbiKpz/cMe14pp6giyl5tuf5hzercjGAphY6M5o4gSRSRVRRdqI0WL9h8lfn8tsuJCVSSozmP01Zfw/pwdfDT1W7o3P0QZc1skJbURLk8U6XEau22TQCDIaUNGcO1ZzfjPE7MwLUAw2b27gMbtB9C0bTXP/OcukrJ7cP29dxKoqaasuuxYoxD+UFi+fDlffvklmZmZ3HnnnTgcR1YU+TloltCK0T0f5NsNEyir3V1HG46kyhOxPqdGN+aslpeS7G10+H0PQPsGPdlVuZ1AuBZRlGmf1pPujc+gTVokV8chO7mq6z9Ii27CuoJlBI0A2Ukd6dF0CD2aRnLSREHknDZXEu9K4oe8OVQGyvFoUXRo2It+zc9BEvfeKa3TOtOpuA9t07odV6jN4XDaaadhmibjxo3j1ltvJSnp5OQQHA4BI8S8vOVUh2qPeaFh2hZORaNfoy5Eab9Pz+NJJeaRIBQw5q/ELq0EVUXARkKMhK3UPRCWIGAIArogoQsShiARkgTCn81jeo6Txe6+OFS5TgxLBCwcso1uCrw+J8i2Ip2Hh9s0TTo5mpK/BJdeehGlZaV8/vk0Xn7lNaKivJx55hCaZzSjU6eOeDxusrMy6d+vD19MnUZMTAxdu3SpV1jxRnlp364N7du3pUl6Oq/+73Veefk1GqU3omWrbJo2aUzXLl34+usZFBQUcMEF5zJgQP+jjOr3BdOw+HD8uyTElpHdvAHeaC8WArt2ltGzWwtiHvUSrPST89Fysoe2Jq1VGo2SvBQVVhEKQ0y0h9Yt05HlfKZM/ogbbrwdWTpZQkenGCyLkGFy3m2P8dTF3QEI+Yq4sGtL7rn/baY/2gcQEOquhyjKh31FCdhU+UzaZ6WxRxU3s2srYhN/wDT3J5zd+o+gW89ejH3ldVb+sASzLlxNAKp25bFkSxGDLxtFkjsyBcmyjCRYVJsObv/345RW+Ni8uYzkhFR69uxImrr/SLK79+eN8YNISnFTa8DZY55n+Tl3EBOXxrblK/D5AximhSRpJCRo7Coqxm/YkbTyOg/d1iWLsVuUcNWoc47/strQwuMhw+0maFrUmgblIZ2CQJDNNTUY2DhEAVkQEAWLinAYSfyzOnwthH28VDY2FlYkcd0VsXzv0SK3bLANC1M30cM2oYCJr9ogUBPCIXiI8zaisLCIivJypLCC1xFLohxPjBpFVJSTzCYZRLnj60II6vqzTQTRSafO/Wnf4WBSldm1LwUTXuOnzZWcnhlTv33+u09ZjdX5AAAgAElEQVRxy3Of89HMOWSpO7nmgnOZtUFi1vdz6d36EDrPooBp+Hj/f0+yY2Ub5ny/k36nayAIGKZBWNexsTEsiEnM5olnn6s/1FeWR5sr/ssNA/5oIYjHBp/Px6effsqOHTu46KKLaNmy5Untr3VKZ7KTOhLQa4+qhhn5XMCteo/bm9UqpTOZSe0xLRNREA8iy7Zt49GiGd7u7/yt1SgMS8ehuA4ioYqk0q/FufTO+BshI4AiaSiSckBbEc32uwY8iyTIJ8zz1rVrVwKBAGPHjuX2228/rqqgvxTfbl/MP+c8j27qx0zMbWxM2+Turldx62kX/7ZlA34mTioxFwCz1o+9YBUioIoS23QfL5VuotQI1d84lgAmAhYidh1RNyMVKKje8j2h+OYEZAfCHqUR2wLbRPEk4+14PTN/SmJXSTmPXWTQM9MLB6i6/JaIivLywP3/4tprrqSkpAyv10N6ejqGYTB0yCCioqPRNJXx49+hcHcRKSnJXHvtlciKgm1Dp47t+eijd/F4PCiKwpChgyKWpqQkLCtiRR816jICgQClZWU0Tm+E13t0iaTfE5avWE5l6UoG929CcWmA2FgP+burKCmu5MLzOjNkRA9mfraENW8spFVWAy69bRjlubsZ/+H3+HxhkhvHI0ky7Vo1ZM7CH1m2dCk9e/b43bq5jheRZ2bviWruKKLdEgXlASRRwjb9EI5YGSv8xVRZNnUpYvvBQiAlycHqz9azqxYaeWDlijWUlIXqFU32g5ZI+279aFBaGSHuAmiaxqolM/nihw2oLoVVH7/K7S98RMBfyvqNuxh+1uk0a9gQpzuGXoM64dEkQiHY16dv2wK9B51N6aqvGXjFjfzvq/n0aqTRqEk6AAkNszj33HPwOCMvLkVNoUeXrpT7g3UJVOByu/CtXsammp+ZsCZEbN+SIOBVZKIUmcYuF5lRbsK2TlEwhCTsMwMJv7t3wwnGgZ4CEWwLPWRj6jaGYaKHIRw20EMGRtAiNsFBXKqDuFSwTTcpMY3o03kEVkDDXxsgKjqW1KQ0EuNScLu8+/Vk2xbYe+NfdT3A5q0/0bGxSKiuqIltQXxyCr0GD6ej+2muuOYGJr/5FO2zGrJuyQzufOAxtG7Xkxkjc+8Fwxm/zGbSF5/RNtlDTk4O0TGJxMdH7fMduxnzn8fJySvEMG2yHnmLTr37sOXLFViWJ7JYkBREXzXfz/6SnT5AkFDsGn78aQtFk8YTX9YWPWRgY5OS3ZmBnf/4RH316tVMmTKF5s2bc99996Gqv04AjyRKeLSTL1EqiwqyeGif3L7kWZU11KOomkiihEv1HKatvf2daPTt25eqqirGjRvHmDFj0LSTr75SHqxm/LqvCBlhNPn4lPhs0+bDdV/Rr3Fn2iYce7GkUwUnPZTFWpsDG7chqgqiIFBqhfmwIpfycODYGyn+6ZCbVW8qMa0vJTY2ma35Yca8Xsw95+mc3yMa+RSprrknizo1NZXU1L3VtyRJJTFprys0LjaWuEMkt6iqSkJCQv3fLVoc+iaLjo4iJSW5rs8/DuG0bJg991sapGn4QxabthZhGTZzF26idHc5eiBEOBAkL7cMBYHduyupqfZhhgy2bC1ie0E1fU/PpKzSR9PG8TRN9/D19M/p2rU7svwHuUhHggB+v4/P3nqOqJw2hMJB1iz+mi/WWLwydSTutDhSUmxefuJfaAV9efWZ+6kMKQh2pGy33x8E28ZXU0tVRS29r7qK1P97iysuvJ1rR2Tx8D9fpDjcCekQl9IyC7jk6psZdNYldGuTiK5H1DdiG2Tx4tODSHWJhDr05a5/JoPTg0uTMUSRlMQ0UlJSCObMYuqnwYNPqa6vcDiEZIUpraggmBAVscoDcemdeeapvXHjtXlbuX3E9Qx7/DFOS3EQ0i3CoRDdLvs7V3ToefxhLHWwgZBlYdg2YdNEt238pkmUoiAgELYswraNYVkRhZY/0oP5s7FXTcXCpmhnDdVFkVC9etUVy8aywOFSiDIFwAIbCit2MmXOa7i1KFwuN66yKGJK4vC64nBp0aiKm+ioBJo3bI9Hjao3zEiKA0X08fg9o3k92otpWXVytDY3/OcJ/jHqQl4e+z433n4rZ/bvS2aLhmxdv4b0087g3VcfpHbH97z+1TrE+DT+889Lua+mmqAhctUtz/GfO/+2z6nJdOzRl4499j/j9UEflunCMA1CQR3ZDjD320+Ysb4aVRGxEYlKbk7N1iW8tmFhRE0obNLrLOsPTcyrqqqYPHky+fn5jBw5klatjqw5/Rd+W5xzzjl8+OGHvPnmm9xwww0nvYL51C3zWFW0EVVW6q3lh1Oy2QNZlBAFEU1SKagt4a3VU3im/x0oh5BkPZVx0ka7p3iY9d0y8AWwHQ50EWxRwCNJlAMut5uOHTtGytSLIrW1taxatQpd1+vbSU5OJisrix25uezIy9uvD0FxIdsGshUmTtHxVRn898MCan1hrh5yasQRH86dZFkWy5Yuo6a2lo4dO+xHvg+HvLw81v60lvTG6bRp0+YIff7s4Z5S2L4tl0WLZxPybaVR6wasXZuP7gsT5dJIinLgL1PIyyvFlRDHzKnLSbAEVs3fRGFeKYGickpLa+nYMZFYj4PNG/Lx+0K0bpVK7s5dfPzxm/ToeQbNM06dokwnRXtedXH+JZfy/fY8lixZimVbJDTpysT73uS8/pFs/qdeeJknX3iDdz/6gnNH3cUAX4BUBzjb92RYnBPVFcuwyy6nZTMvalILPv/iI+574g3en5TLyBtup5YEvM6Dxy3YEOV1IYhCRCknkuWNbZvs3LqOdWub0q1dG85ueeh7OT/HQA8HMA8zD0sOL0JVAY/cPIo3o1WMujh327bQYhrx1EvPkZ0UhSDKxHrjEGrKKJRUjPoGLfKmTqZB2nU0ST6SDvIBsEEUYEttDXk+P4ZtE7IsgqaJJAj0TkggTlXxmyYhy0K3LIpDITbW1GDa9p/ccg573g42YOgmpm4hypEiRKIIiAKCaUeM6tgIda5o07bRQz58oWqsKhvbsrBtExsLwZaxLIuk+EZcf/5/8SZH1xvpPanZvPb+F5SU+/bTqrAsi6w6neaWA4Yyc8Fi5n+/mHJ/iKjYBPr064dThoCrJVPnzsYK64R0PTJuS6R5q04cCzoPvIiori4c4a20TE/G8iTz4NipPHgCr+jvDQsWLGD27NlkZ2dz9913n5RY8r9w4nHppZfy1ltv8e6773LttdeetH52+0qZtHkWumXglLUIl7QsHLIDh6wdJOAQqXdgUxsOYNlWHTlXmLV9KbOaLePMpr9OYaAThZNKzI2SCqwf1oIoYYiAKBEWJPak5qSlpvL2W2+RlpaGJEksW7aM4cOHU16+t4zqwIEDGTduHI888gjPPPPMfn0Ito1ihlCNIBghHKJOdRCW7zK4+mSd2AlCSUkJ//7Pf/hx5Uq6du3CpZdeSuvWbSguKqKsogw9rCNJMjGxMcTGxrL8h+VMnDiRn9as4fwLhvP6668jH0rg+XeOPeS0qKiEd999icToEob0b0pstIfNm4oZMaIbTTNSKS7zk7+znOUrtmEaNu44J9UtY3HEu9j203a2bi3E0E2yWjWk98B2pDVKYPqMNSTGexk6oBnLf1zIB++u4/Y7HiY27njcmScuYC0c1pn61XSqKys479xzjlIk4wgjsm10XUfZR9GjnuRLDv7x4qv84wjHd+p/AZ/2v+DgD84ZTZe6Xx/cJx62eY/z+HTqeUcfmBjPs4/eS+7OYrBFlPokJRuHqkUKDB0B8Rldues2L0mH8ZrGNu/K25O/ojYU3M+KYts2tugiLSqiuOBu2JRHxj9DYUV1JLyhfj8TQfbgOV5SUNdAYSBIjs+HQxQRBAHLtnFJEqIg4JAkVElCABRBxCFJkdjzP1jhr0AgQDAYPH4pu7rHSBCEiBzlftfE3mvZgfrrLQhCnZXuYEudjY2uhyLxKeb+n8mOKDp373PUISlRCQwcdvZB251RqfTrm3qII44NqdldSAWMUFOyWw/AfWo4c38TFBUVMWnSJAKBABdffDGZmZlHP+gvnDIQBIGrrrqKsWPH8v7773PFFVcc/aCfgcmbZvNT8Wa0ujh6wzKI1rz8q/s1tErIIGyEDxqXJIpM2jSbD9ZORRYjhadqdR9vr55C19TWxDt+P5WVTxqzEwBzxXrMvEIsVcYQRCRBIijs1VMtLCzkiSee4Pnnn6esrIznnnuOmpqa/drRNA2Px3PIFbWAjWKEcZgBRNOPYNvobi+K+9SoPnUklJaWUllRgW1bLFu2jPXr1xMbG0t1dTWhUAjLshAEAVVVcTgckbLquo4gChTuLiQQCPzhYsn3RX7BboxwCa0yk/C6NGw7km29auMuflyfz87iKqJS4qhBZk1uMW16ZWEjIIuwtbCKSlugWauGbM8vY/IXP0QsbqaJYIHbqZHdPJHcvHwKC4uIjYumvKyMl175H+UVlciShKKoEZeyrmMaJg6Hxk03Xkfjxo1P2DkWFRXxf//3HLt27iIjI4O+fY6lktxe+Hw+vvzqa+bOnUdZWRlxcXEMHjyIwYPOwDAMxo57HUSRW26+EY/r10+MFkQ3g4adf/QdDwNHQjPOPbvZYT9XXV7ad+l82M/3QPN4GXLOzx/HoWEjCQKqKCLXSZ8K7NHnBsu29+GHFtYfVI2lsLCQxx57jK5du9KlSxfat29f7+L+ZQsQYb9F1NH3jpB7UZIQTlHiK2suok/Qq6myshK/309a2u9HgWvevHnMnj2bLl26cNZZZ9VLBv+F3xdkWea6667j5ZdfZsKECVx00UUntP2tFTv5bOMMbDsi+WjbNrppcFaz0xmZPeiIx6a4E1hdvJFVRRvRZBVVUlhZuIGJG2ZyQ8cRJ3ScJxMnz2JumoRn/UDYH8bwuNBFGUlSCIl7Lea1tbVMnjyZBx54gMLCQr7++uv9wlgg4r4A6qrA7Q8RG6cVxB32gxGk1BtNUHagHKbYyakEt8eN2+NGkiQ0TSMcDrN79+46reQ9CXs2oVCIYDBYr2FuGAYejxtNPfUXH78UhmETCpvkF1bj85tExXvQLRsVkSYN40lJiqGs2o/fF8RhQ8g0qLUMFFUhKi6Gxo1T0FQJQQTTtEhMimJjTiHRUQ5EEUzLqs+JDIbCrPlpLUXFJYiCQFFxCaZlkZSYgCzLuJxOQmH9yAM+Ag4VppKUlMgVoy6jtLSMrKzjiyWtqKjgscef4rPJU4iPjyMtNY0dq9cwZ958RFGgR/fufPXV1wiSyOhrrvpNiPmvCb/fX/8s/dmxx81rH+hFOODvI+174DGH2k8QBGpqasjLy2Pnzp18/fXXNG7cmK5du9KxY0cyMzOP3au377pF2N9gfujzi4ytblTYlk1YD6PrwYjVvK6dPypKS0t54oknyMjIoH///rRr1w63+9SUhispKeHDDz/EMAxGjx79u9TD/gv7Q1VVbrnlFl544QWmTZvG2Wcf7Gn6ufh040y2VOThViMez7BpkB6dypVtj95HkiuWGzpeyN2zn8On+5EEibAV5oN1X3J6o460Scj4XeT6nDxiXhvAUlXCcXEEgwa66ECwFQKCzL4zpqZFyt6KooimaQcR8yNBsG1cRhCPEaDQqVHj8CAYMsqhMtFOMgzDwDTNYyYGQX+AcHivO0aSpGNKplAUhe3bt7Nx40batW/3s8f7WyAcDu8XbnEo7PksISGeoC7x49oC5i3dxY4tBXTTXESbAnnBEDvDOvlBP3IwRDNRw1IVKt1OxGgvpiTiKiikl6Dg1xQ2Y1CT4CUhMYGqqiriYx306t4Q3VCJi42EjyQmJfDSi88DNtU1tdx8y21UVlXy1BOP0aJFc0LBEA6Hg1AojKapbNq0GdM0ycrKRJIkSktL2bEjD0VVaJHRHKfLic/vJ+D34/V60TStnpxHtgfwej1cOepyTNPY76W6fft2SkpKSUpOpnGjRgiisB+xt22bN956hw8+/IgBA/pzz913kpnZgh25O5j3/QI6duiIZVtIiowkSaf6HHRCkJOTw9ixY+nevTunn346TZueOrkDvwQzZsxgyZIlOJ2Rl9S+lTP3/Xm82HM/HXhf7cGez44EURSpqampH1s4HGbt2rWsXLmSjIwMhg0bxplnnnXoeU0Q6uJC9xhfBPa+FyKSlgcyc9u2MS0dAQFREJGRkUUFVXUR5YzD7YkmLaExUa6IXGJZWVm9YeePBEmSqKyspKKigu+++4758+fTuHFjTjvtNHr16kVGRsYpE7M9d+5cZs6cSc+ePRk2bNhvPZy/cAKhaRq33norzz77LF6vl379+v3iNteW5PD5ltkoooxAJDcJAS5vPYwWsenH1MaQJj1ZlLmazzbNRBUVPKqLIn85EzfOpEWP9PrwmFMZJ42YS1Eeov79d5wX5VE1bxEV02YRDEYTQMWy97qwDMOot8wYhnFQO3vI66HcXrJtERUOEHColHlisZCxbRFVOpTY28mFaZqMHTsWr9dLnz59aNas2WFddbqu88EH49m8aRMOhwPbtveLkRX2+X/fZCVRENA0jZytObz6yiu8+tr/fldx5tXV1YwdO5bWrVvTtWtXGjRocNh9G6SlkN64JRMnjadycxmtwyaSEGarQ8WXGIsh2LiKdWJtAd3rxUyMpUFcHKrTTWDnLtraMg5RYoM/iC8xlrSGGSTExJGSZJG3M59PJq3ikksvIyEhEhuryEp9YaZAMISiRErAN2rYkNSUFAp27+af995Hxw4dcLlcvPTK/+jWrQsP3vsvJn42mbnzv6egIB8bge7duvLQ/feyIy+Px554kvPOPpvrRl+LIAiEdZ0nnnyG3Nw8HnrwXt56+1127Srg6ScfIzEpkZdfHcu0L6dRVVlFVFQ0Zw4dwvWjryU2NqaeRO3YkceUKVNpkJbG/f/6J23btAagVauWtGoV0f/dmZ8PHBi7uxcnJdH0BGPPvLDvP4gQuX23ybJMMBgkJyeHDRs2MGnSJFq2bEmPHj1o27YtaWlpv1tLeufOncnMzKxbYB2alB/p5+F+P9K2Yz1WFEW2bdvG/PnzEQSB2NhYOnToQM+ePWnXrh1JSUlomkZZ1f7ezj0UXBREYlOcqJqIHrAwwxE1FtM00cMWAga2bUXKi1sWDoebjIbdSIlpRGJsKglRKThkL6rqxuOKwuuJRRIi86FpmkyfPp28vDwU5dR/ER8PRFHE5/MhCAIulwvLsti8eTMbNmxg8eLFDB8+nMFDhvymoSJVVVVMnDiRqqoqRo8eTZMmTX6zsfyFkweXy8WNN97ISy+9hMvlomvXrj+7Lcu2eHftVPJrivCqEUNVwAhxWnIrRmYdOYRlXwgC/KPblZyX2R8RAVEQCFk6bsWFfKrGuR2Ak8fqBJA0Fal9c4Sib3BsWEmNkYyYr2Bt3bubw+GoL0mvaRrBYJDWrVvTvHlz5s2bV19owOfzHdSFZJsENJXCqISIBnqkQCFqXYa/ZR1fXOfxlGo/1L75+fksWrSIqVOn1pPPjh07kpycHCmgUmc52rVrF7Nnf1fXDoQNHVWW6+OpLNuK6PAKkZtKrLOYhnUDSRLRHBoLFi4gJyfnqCEQB7qwjwcn47jVq1czc+ZMUlNTadeuHT179qRVq1bExsYiSRKiGLkGkiTRo0d/Jo97jxYmlLocrPfIxKQkoIdMwtU19Du9Ay2ymkUKVAWDbNq+k6WrfiTJFijNboCaFk+620VKMExlZS27dpUjKU4EwWLoWRdwxai/I8vSQSRVD4frq73t8eBUVVWxes1PrPxxFQnx8XQ+rRNDBp1BIBhkztx5NExvxPALzmfpkmVM+WIaqSkpjBx5IYWFRUyd9v/snXd0VOXWh59Tpqb33gmkQEILvfcuIk2wcFU+LBSVq/deC+q9NiwIFsQCKlVBBBEQBQVF6R0B6TWQkF6nnfL9MUkAQQWFEDTPWiwyZ2becuaUffa7928vZciQQfh4e3PqZCZfLF1OclI9ggID2blrF8ePn0TTNb5b8x2TJ79Ox44dGDp+IN+uXkNBfl6VRnjlGA8cPMTpM2fo2bMHKclJl9zPvxedqygKmzZtorS0tOo3qzR4f+3/3wtx+KXh/Mv3L/W589/75etLhVf88m9wxzwWFBRgNpsrVjUcrFmzhjVr1pCcnMzAgQPp1KlTjfEiXgn+/v5/OCm4OjCbzdSrV49WrVrRqFEjkpOTf/eBz60z7lZb8fU34+tvQdc0NFVH0VRcDgWXU8FkNLg9Z6KEJErEhtWjc5PBiLqIrjoxykZkg4wkgVNxUFiSiyQa8DB7I0kyQ4YMcefl1PAH0CtFEASOHTvGtm3bKC0tJSwsjJYtW1bF+Ht7e2M0GLDbyq/bGHfv3s2BAwd46aWXrtsYaqkeAgMDufvuu3n//ffx8PAgNTX1D7XzY+ZOlh9ei0V2O1FUTcUkGbmjQV/8LVeWuOlltNI45NL3Rqj5NYeuubvVcfoArtWfIosaZp98TE4dQXZ7UCIjI3nnnXeIi4sjKiqKV155hbFjx3LPPffw4IMPsn37dlJSUjh58iRr1qy5uG3ZwAmfQDTJBIqCIEhIkgFd01j2+WccPZGJbHAXK/gjRuYvl3l/ufRbSeXrvLw8/Pz80DSNtWvX8s033xASEkKvXr3o06dPlYc4OzubnJwcJElC0zR6t2xMh8apmM0mbDYHNocDp6oiiyIWkxGr2S0XtHnPQT7/YQtlNjslJSWcPHnyNw3zzZs3s27dugu8hX/U2P6tfXI5iKKI3W5HEAR8fX0pKSlh+fLlfPHFFyQmJnLTTTfRqVMn/Pz8EASBk5mZvPbCixTlF0FUKF6hAQyuH02Qvy+HjmWSX1ROQr1E2jSpS2ZWDuu3HMBmE4kOi6RtRj3CokLY9XMm4YFeNEuNIze/kMwzZ9m0+zg5pU6SEhOrfo/LmYMouh8cy0rKGDf6Afr374cgCCiKwswPpxMU5Ja7rBMbx5Yt21i/aTNjx46mY4d2fPHFcg4cPERGk8Zs27YNm81O9+5d8PZx30CtFguyJHP6TBYOu4P4uFh69exOr57dURQXsnyhx6+goBCXohAaGvKntGRLS0spKSmpCi+q9IKKFSojv/SYXq1/le2f33ald+/8vs//7K/9L0kSBoOBAwcO8N1331FeXo6Pjw/t2rWjefPmVZ7bq+81FVB1HaemVXh/KzS40S94LQoCBlFE/osZh5WEhYXx/PPP4+Nz8Y3zt64PFY9i7t8ZkGQJg9mIbLBiks2YjEbMBi+sJk9MBk9k2YhRNrLv2FY0Ta207nG6yimzl+B02SktL8BotHJLp7FEBcVjMplu2JWS38NsNtOgQQPS0tJo1qwZsbGxNeoBpEnTpuzYsYOVK1fStevleztruTGJiYnh1ltvZe7cuYwYMYI6da6sqI9LU5j90zKKHaV4Gt35UHbFSde4lvSId0sdVl5Ptmf/zJasfWi6dkXHfGVOSve4lsT51Oyk6WtqmGvoKN/PRS/IQjCa0DUJXdMuiB3My8vjk48/QZIlSktLEQSBDz/8EA8PD9LS0li0aBEffvgh27dvv6h9lyjhkM3IiOiChI4MuoDZIFK/XhpxdZIqYhkv/eNdavuvGd2/fH3+dlEUURSFQ4cOcfToUXRdJzQ0lPr165ORkUH9+vUJDg6u+ryuaWiajtOlMqBjU54ZNYzQ+CQUBPTCM6guJ5U+T1EAwSsAydOfvjmn8Paw8t6SVWiajqpcnBB7PpGRkXTq1OmyVBL+zD765bZLvS/LMoWFhWzYsIHi4mJEUSQhIYH09HSaNWtG3bp1q0r92ux2Xps0iTKXg/QurTEI4HIqWE0yAb6e+KTVZcaCVew5mk2Ap0xOQSmFJQqRYYH4+vigqFCUV8BXazbhY5VJjgnDz8eLsrIyvL28Cfb3Zev6b2jXvgN16vy66scvUVWV2LgYOnXsUDVHWZYpLS1l7ryP2bNnL5lnsigrL8Nht2M2GWnXri3zFyxk46bNZDRpzKYtW7FazbRq0QKtIqFZ191e+vbt2tK0SSNmzZrDkSNH6N6tK71798T3F0aPJLsTWp1Ox2WP/VK/R/fu3f/w92saOTk5REZG0rRpU9q0aUNiYuI1DGFwX+BDzGbKVBVF03BoGg5Vrbq2uXQde4WOuVPTyLbb0fizSiU1jz9j/OqqhmI3EOgbRoBfMH7+QXh4+CAJkru4s17xcCZIgICqOnE4y3Ao5RSXFFJWXkCpPZ+ysiKcqoLDZcPPOwzFVVGUqqa7xf4EERERTJgwocY+eFjMZgYPHszrr79OfHw8CQkJ13tItVxjUlJSGDBgAB988AH33XffFSX5ajqUK/bzs0zQdI0gqx9W2b3SKQgC6zN38s/Vr3GqOBtJvHynlCBAuctOUkA8veNb//4XrjPXVMfcsX8d+pYVSJKMVrXLz10pMzMzufuuuxEqVFQ0TUNRFHbu3Mm9996Ll5cXNtuFSZIXdaIL6BVxQzoiOjoeFgMx8YnXamqXRNM0TCYTSUlJdO3alYyMjF89MH19fd0KK04Hg7u0JiQ6hsPHczi1dSv1W6ZjEnV0TXU/VMhGMg+cIvv4Jlr07sCtvTrw5YbtnMopwMv71+USdV2/qNro9aa4uBhPT09atWpFp06daNSo0UXL9Jqq8dVXXxEdHc39o8ewfMF72PPz2bgnE7tdwWSQKS+14XI4UB1uJY68Ahtmo0DnFrGs33GKY5l5NGkQRUKEH14eFhwuF1azREFxGQ6HRkSQJ7LZjP4HYjANsuGCfIDNW7byyL8eo6ysjKGDB9GtWzfeeOttVFXB6XTSsnkLoqKi2LxpM6f69WXHjp2kpiS7E0odDiqbstvt1K1Xl3ffmcqceR+z8LNFfL/2B75f+yPPPPVEVVVXgLCwECxmMwcPHqS0rAxPD49LeCd/e2Xkr2YgRkdHM3HixHlTzrQAACAASURBVCvX0/5DuL3hiV6exHt44NJ1HKqKXdMoUxQOlZayo7CwyjB3aRoqF6Y3/n1xH5fuxE+B7BNFHP+pGE/v04SEBhMUFIh/YAD+/n7IRgMul4rdVkKZrYiS8nxKSvOwu2y4FCea7i5dLwoigiggyTIm2VAV+vUXtstrrEF+PsHBwdx0003Mnj2bf//73zfEmGv5czRu3BiHw8Hbb7/NuHHjLnBI/hYmSWZocg82nN6FqmlIoohJNrLmxGZ25hwkPchtz608vonDBSfxNFoRL/se5k4ilUWJ21N7E+VdM4pP/hbX1DDXju9BLy1Ar8iCFQRAk6Ai+VPXdVzKpVVYNE2jqKjod3oRKoxxt0Gu64AoVMSYVy8ul4u77rqL2NjYC8ILXC4XqqricDhQFMVdTEMUCQ4NxV5Wgp+3B6ogk7ljJ8c3bqBOw3qYvQ3ueFtdA1HizN59nNyxm/rtW+Dn74fVZMRqtWIwGigoKEBVVSRJwmwyI0oiBoOhRmrEyrLM008//ZtJnw6Hg/i4OHr17IkuSKiqjCBqWExmsvNKCcktRJAkendpiabBoRO55BaUExZgpmlKNCcyiziRVcLhE3k0b9QALw8Lp88WcOBIGcdPF6KpKppqQzIFEh4W8qvj+DV+GV+9cNFijhw7zpuvT6Jf717k5uXx9rvvY7crKKpCcFAgrVq0YMuWbXy+ZCmZZ85w69DBiKJ4YWnhiotMZGQE/3pkPHfeeRsTnnqW5Su+om/f3vTp1aPqo8n1kqifmsLGDZv5Yskybr11cJWhvX//QYKCAtyhHlc8uxsXT0/Pau2vcn9LAsiCgEUQkASBclFgT34e2U4XxvPCckRBqPESXdcKXddRVRVN1y8sDSQIqKpGaZmdclsZ2WfOIIgCZosFby9vQqJ98fAXsbvcoSpuD3qF2hkC4nkes8q4dU1zJ4zWAqCjKgq6qkKl3PC1kNPXdXf7lwiTzMjI4PDhw8ycOZORI0deg85rqWm0bNkSp9PJ1KlTeeCBBwgKCrqs73WPa0XXuJYsObAaT6MVo2TgVMlZZv20lAYdHkQUBEI9AjGIMoqmIAqXsnF0REFC/oU33eZy0iyiAf3qtL8KM7z2XNMCQ6bWg3E6ylG+nYPgKEWXDNhtXijq1Vti1pFwV5SoiO4UhOsil2gymS5artM0jZLiEspt5aiKSmlpCTa7e5k1PS2NPT/t5tjpszRy2YhvnoFfZASePh6o9hLKS8oweViQJSfxzZoQmNIAX28Lew5lkZWbT0LdZFSXyuHDh5FluUqSzyAb8PX1xWSued4Jq9WK9Xf0tM0WM2lp52QgvYIi2LRrCzl5JZTafSjZeRxVUSgoKsdkNOHv60mgr5mMBtH4eHsSHenPgRN5OBQ4nVVIadkZymx2BEHCZJTIzc1CFHzp3LgrHhUyb5dCVVVURb3ACFdU9SI9fQEQdI3Dh46wcdMWVqxYwZEjh4mIDEevSD7u1LEDq1d/x4czZ+Hl6UnLli3cX9bd/WiaisFgYPGSL1i/fiN9evfCx8cLdB2z2Z1jcD7+/n7c/Y8RHNj/BM+/OJHTZ05Tr15djh07wZx5HzN0yGAGDRxQZRDVcvWp9NSKkgyyhGA0IlmteHh4khoVg8/ZHMpKiqpW/FRV/Vs9KJ2P2Wwl0D+cE6eO4XI5QTehazqqpqCiIooVDy6y+zyz2WwUF5XgkooJNXkgiCAgVri/BQRBvyC5Wdc1FE0FTcfH6o/ZUHle/5V95r+PbDITWi8V00k7gq8HOuUVGu/6JY3oK0bX0VUFNAXJLxDBdOnk6oEDB/LKK6+wevVqOnbs+Of7raXG0759exwOBzt27LjsHANZFPm/9FvYmLmbAnsRRsmARTby5eEf6FunPe2jGjOwXmdOFp9hXeYOJEG66OwWBZESZxm5tsKqs1/RFDyMVu6s35dAq+/Vnuo14doZ5jrIHr4IfR9EDEtAWTwJNS+f0nJ/dP0qdisI6EhoggqCiIiALNcMb7GmaThdzirFGT9/PwwGA0ajkaDAII4cPcqMz1eSFBtBanpDosLr4czNwo6Ao7Qcs9mMQYCIEE9i6/pTlnWCecu+RZONjBs7lsZNGqOpGoqqVHnkXS4XiqpgouYZ5pfDL0MsunTpTnFhMfKRQxw/8DM2wYLVYiSjQQwhAZ5k5eZTXFjCj5t/YsfPhzmVlU9xdgF2h4tWbdOJDIqksLgcRdUpKStHbtyYuDr16NjxN56cBbB6WHE47FWrH6Io4mn1wMPDekGJ8H59+7Bu3Xqmvj2NOXPmkpSURFpaGnbbORWhpk0aExUVyZZt2xh4ywCioyPP9WO14unpiSi4JdC+XrWKFV9/7VZVsNu4/bbhZFRUt9QrCiMIQO9ePVFUlTffeps3p06jsiBVSmoKGRlNEACL1YIkin9bT+21QgfQdXIEHUNYKMHRsXgGBWHw9EYyGQkCnA4HZSXFFOflUpSZyfGDBzh4+gya8PcyFTVdJzAgiIfve4pvv1/GNz8sp8h2GlkX8fYKJt+sU6zlI8oVHq6KFQbZICNXKFW5K9KdZ4pXJZ9rKKoLEYEQ3ygaJLameUpXgvwi/3SS+18Bg9lCt/FPoZw9gbOsDPngP9HsWegu2W2g/8EDUdd1UJzoOojBERgbd8LUvBeiX9AlH4VkWWbEiBG8+eabxMfHX9XqybXUXLp164bL5boikYiGwXXpX7cj07YvwCDKyKJMibOMGbsW0TwsFX+zN/9tex95tmIU7WJnh9Vg5tP9q5i4YQa6riEIIk7FRfu4pnSNdTvEboTH9WsqlwggAULTvkiBYRR+MpOSPaWoiouQsFAymmZUqRdUYjAYyM7OZsOGDZfl7dOQECvLN+ruMBHTdQhluRSSKOHv74/RaKzapus6paWlxMTGMO3tqUycOJFnP/qcNik7aRAfTVhYKLIgUO5SUIrLMLpcFB49yfHTZ/h+9yEO5pYzceJL9OhxYeJe5VK+0+lElMQbQqf6coiNjeGBseOw2e28/uITpESYiI+JJCzEn2/X/8RPn+7GK7uIHLuNQ6oLT0GigcmMCJwx/EzYTS1JTo7EaJBZtX4fpSXl5ORk41ORaOpeZ7lwP1ksFp6e8ASKy0VYmDseLSI8nEkvT8RsNuF1XthEyxbNeeuNKezesxcfb29aNM+gsKiE3LwcvL3cOQBBQUE8/+wzZOfkEBcbi9XiXjUwmUw8/vi/cdodBAcHMfzWoTRu1Ii9+37GbrcRGxNDk8aNqmT+fplwfPNN/WjcqCF79u6jqLAI/wB/GqY1ICQkBIfDwf+eeQpREPD0qN4wj786AjpoOofyczmek0vg8RMEBAYRGhZGaHg4fmYzekEhUn4uPkWF+JWXI4sCh3QNTcf9sPR3QdeRBJnYqHjuGj6G9m17snvfOsLCAvH3Def9nKmcOrwKWb7USlpFVL5woZGto1d43nUCfULJSOlM0+TuRFbEobpvJ7WGOYDF1x98/dGAruOfwrbxS4xRwYg79qOdWIOOyb3DFNe5iqlwactF19FdDnRACo7E0KgjplZ9kSPr/u44QkND6dmzJ/PmzePhhx++4J5Yy1+XP5KAPyy5B98e38iRgkwsBhMm2cj6zF18dXQ9NyV2QEAg8FfkE12awvasn3GpCrIkoWgKPhZvhqf2qpJhvBGsomqpTiMCYmxT7E3MlHz+Hg6njab1G/P8c89VSQZW4uXlxZo1a9iyZctlGeY6FcmfgoiuCogCmGtIPQlBFC66ALlcLubM+5iCgkJGP+AW5l+95js2b9rE0p8z2TlnGWgKFpMRRQO7w0Hd5BSi4xNJad+Th7t3Jzz81xM6/2oXPFVV+erL5ZTZ7FiDorHruTiAhSs3snHuapqeLcPDZKCetw8SIAkiGiCi43cwhw1TFuHysiCZDeTlFLMnN5dR/3uqSgHmUnrfBlmmSeOG523R8fCw0rx5xiXHWL9+KvXrn9Nu9ff3Jz7O7RWqfEBKSUkmheTzWgRZkmj0i+qtyUn1SE76bW3684mJjiYm+uKKaCaTiaZNGl92O7WcQ3E43HG5leiArqFrGrrTia5pyBYLuiBSmp+Po7CQU0eOsFuW8PPyom1wCP6aWqWBb6i4xomigLOkpMIjbEQyuDW6q9B0d/t/wRhp9/xFEqLrkBB9TkotwDsMp0tBFO0YTaaq81HQhQsNRdwGuaI40VWNQL9wmtbtSEZKNyJD6lJVkK3WU35JRCC5Yw9o3wVEmQCv+RjXbcBZWoTulBA8/cCoQUlphQPgwuui7nSgqy6ksDiMTTpjbN4TOeryr1MArVu3Zv/+/Xz22WcMHTr06k2ulr8UCX5RDEnqwYsbZqDqGpIgYnPZmbt3BR2im+Jj+nVH06yflrH8yFp3jp0OLk2lZ3RT2kY1qcYZ/HmqrWykqulk7i/A7pIwm01s2LCeQYMGAhf6NiRRpLzcdnlScO5sT3RBQNdFdAFEQcdck4s7yQYatuvErKlv8OyLL/PC/56mY4f2dOzQntmzZzP9o9lomoooiYCIw2EjKLYOrz48HqvlxiuQ8meRJIno2FhG/eNuPDUdIy7iRQkpu5AGuojJasShgazrlIvuJ2ZvQQId/M1GOmgajmInrkInB4tLsTRtyogRd17hKP74M/avylD+4RZruaaIIoHx8Qjfr0GxlaM5HKCpIMvIfn4YI6MwJ9bDUicR66fzEVZ9hcHD0y3vpemUl5XiLLWCxYIoyyAIKC4X/pHR9L3nXrJOnuDMrl3kHD1C8dksXGVlqKLk7kcUMYZHIv5KrO6NjHDBymil5CwMG3IPASHBrP5+GUeO70OUREzG8+cvVBjkDlTVRbh/DI3qdaRJSmcigxIRcJ/req2H/PIQZXQguUsfzL5+lGxciTG1DnpYPcRJE9GzfwIq9r+ug+pCd7kQgsIxt+qDsXkvpPCEP3z9GjRoEFOmTGH79u00atToKk2qlr8at9TrzMpjG9hyZk+V13zn2Z95dt17tIpsiKppF5zzkiiRV17IzJ++QNM1jKIBl6YQZPXjjtQ+GK5AWrEmUG2Gub3IRubPp1DEipLCJWXs33/gT7Wpo6MLAoLudq64vecgX4fkz8tFAlokJRA4djRjHxrPI489yc39+pKXn8f06TOwmk1YrFaCQ4LJy8vDXm5j308/cWD/zzRs2PB32/8r0jA9ndEPjmP62PE0FAyEWEwYRRldEtB1MAgCLgF+cJRzwOWki9FKrNFEka5SoqkUKgq5ZTZOWAzcd99IggMvL0u8lr8fgiDQ9eF/EZJan2NffI7FxxuPxCRMdepiTkzEGBqOaHWXi5bXrEZXFPf3cCuGSJKEIEkXxPXrqorZ04N6/QaQbjLjstkoyjrNmX17OP3Tbk7u2Y23LBPcsw/WTt2QKtr/61KZUA2RoVHcPfQBena8iWWr5rP6++WcPH0cBR1Fs6CoTjRNJdgnnEb1OtAyrQ9h/nHnWtJ1boyo0RqEDkarlXrtuqK364KAgFZuQzCaUex2NMWKrrjQdRUxJBpDRpcKg7zOn97LXl5eDBw4kE8++YS4uDh8fW+MZLxaqpcgqx/DU3uxJ/cQqqYiie4K3Z/t/4bFB1df8ju67i7uZpQM6ICiqvSMb0OT0JRqHfvVoNoM85xjuWSdLsTTO4hu9W/B5nJUFAUS0AQdVQNdlNAFAYdBJsfbjEMyoSKjIaFhQENGR0IXJHe4gskXyRyAprjQAJeqI4kCslRzvSeVzwx16tTh8X89ynMvvMh3q1bidDkozC+gadOmnM05S1BAALbycpLq1uPkqVMUFhRe34FfLyoSHocOH8ahPXvZ+tb7uCQRD6OAqqooCNgRyFYV8kK8SUmNYefe4+zNLEBXVURfH4TwEPzjohkz6Bb69+9/vWdUS01GB5OHJxkDhpDetSciOrLXr5SD1q4g5EQH1eVEMpkxWCwExiUQGJdAg179cJaVorucmHzdmv5/lfyQy6EyoTk8JJKRwx+mV8cBrPruC1asXYpoKCXEO4z05A40T+lOeECdiu9AlbLIJcIuavltzj+0KkOHTBYz7e9/BIt/EMLJvUgRoZibdMaY0R0xLA6Bqxe1n5SURKNGjZg9ezajR4++Sq3W8lejV3xrVhxZx1dHf8RcIT0ri9Kvro4Jglh1bLsUF5FeIdye0vsK9M5rDtVmmJ/cf5qCYjtGiy+p3q3QBAmXDi4FdFnE5GWmQNDJNQiUeXmgmzxxCmZcGFEwoQomVIyogowuGNAxoGk6itOF0+WOBw3ygjaJIjF+NTi56ryDpHWb1syZPZODBw5QXFTEK6+8itlsxmgwVEj1QUBgANlns/++t56KJXCDJPHQE4/xtqeVHxcsxlFQhC4ZEMxmsgsKMPlZ6N21Kel1o/jKZGSDfog27drTu39/GjSoT0hwMAbxnH7+38XwqeUKOe+wMHp5V/19KZ+s4nDgKC1Fkt1JLZquI0oSqocHmqZSabZrNjua3e6uenwJjOcn5/7Fjs3LmktFqWxBEIgIj+XOW8fQq9tg8grPEBIUgp932HkfvVj7v5Y/jyAIxDRpSWRaU+z5Z7FYLIjeFQ+KcNWPy759+zJ58mSWLVtG7969r1q7tfx1MMsm7mzQl42nd5FnK7xIm/zX0HQdRVcZmtydugE3pgJQtRjmikvh2N5cXKIBFZHScjsuXcfgZSY8MZCkxuHEp4ay62wu8348zqk8F7LgRBNEXOgoaGiCioaCJhrQUHC47DhUAYtRIjVcoFOSgW6pJlIjZCwG6YZZ3PTz86NZ8+aUltswTX2bMqcTl6bj0CvK1DpVNB2cNXcR4JpTGZ/q6+XFf558kj2DB3Ps6DGMRiM+fj6cOH6cwpxsBF3hjFOldZf+/N/D6TRKb3jRMVBrlNfyR7jUERPdpCn28lKMFnfoiQ4YRYFgb2+8DUbUSg18lxNjZDSC4TISs/9Cx2blefZ7CZlueXK3T9btBBcICgghKODiAmACArqgX5b7tvY8v0J0HclgwCPkwgJw536fq4cgCIwYMYKXX36ZhIQEkpKSrmr7tfw1aBWRxr2NB7HlzF6MkgwVazeVxfkqZYIrXoCu41BdBFp8GZzc/VfbrelUi2FedLaUowdyKHfqGAwi/lG+1GkYSnLTKOLqheDl4y4IkUQE9etG8O7XR1i1pxxFFzEYZHShIpxFFylzCLhUnSBvgdZ1DPRoYKZVgkyYrwzn1ZW7ES7JqqZxqsxFpl3nVE4BeWV2dEmiXNVRnRpOXSfX7qLU7mRzrg05T8VbsxPrZSSgpkjPVBPn32RT69Ujtd45RYBmjdzqI6quI/3ODaT2Zl3L1aLF8DtpMfxKE4n/flz+OSf8vv0nVIRf1J7GV59qvjb6+fkxZMgQ5s6dy/jx4/Hx+ZWQsVr+tggI3NdwEK40terwFAQBVXNXEjZIctVDuiAIKJqCqmnIooRBrLaAkKtOtYz80O5MdEmkaY8kkjNiiEsJJjDUG7eI04WkxATy4ghvFm7I5r3VeRzNAUkWsWsCkgxJYQa6pprplmqkQaQJo3yj7Xy3L7/MpbIhu5zDJS6cmsC+td9TmJ9LvdadOLp1A4rLgeKw4xsVS15WJuu++RpLYkOMZgs/5TtoFmQmyc9ScbDW3qWA3zXKa6mlllpqqTmkp6dz5MgR5syZw/3333+9h1NLNZJVksvi/d/SMa4Z9QJiq7avPrqJrNIcBqf2QBIlvtj/HVtP70EQRDRNJcY3nOFpvTHLRhb//C2+Zi9CPAPZevonBiR3xWpwqwq5NIUFe74i1jcCQYD9eccZktIDi8GtZ17mtPHJnhXUD0qgWWTaJcd4vZCefvrpp69mg5fyjuhAevs6tO6VSlSdIKyeZn7LmJQlibQYb5olelLq0Mm3QatELx7o6su4zp70Svck3NeIJN6IiT/u8R4sdLDhrB1dENFddjL37SWoXnM8/fw4vn09SW27UpKThUdAMPV73YHL4SIoIgKrty/FDoVCp0qSrwn571SspAaRmZnJpEmTcLlcJCQkXO/h1FJLLbXckCQmJvLjjz9SVlZGfHz89R5OLdXEruz9PLriZbZk7qF5dDr+FUWDXl83iy/2r2Foem+OF55m3LLn2Z19gAJbEbuz97Py0I80Ck8h1i+Ch5e/yJH8E5wty2f6lgV0rdOaQKsvmq7x8g8zeH7N23ibvdCAx796lTLFToe45iiawhOrpvDGulk0i0qnfkjin5/Q/PlQWAh33QV/oLDS+VSLuzmqTvBlf1ZTFcSKWKKUcC9eHubB8Twn0f4mzIbKmEUVkG7osIRgq0yYh0RWuYpgMJLWcwBnz9o4umEVaf1Hkda1F4EpbcjavxtLaCLNmrTAbAKH04VJhAQvI0ZJpFYqrPrZtWsXCxcupEWLFuzcuZOsrCyGDx/uLmpQSy211FLLZSPLMsOGDWPatGnUq1ePqKio6z2kWqoBHR2zZGLzyZ08uPR5Jvd+jDr+UYCOJIiUOsqZvnUh5S477/R/hozwVE4UneHxlZP58cR22sY2IcwrEH+rL4qqgA4GUULTdSat+4hpG+ehaRqqpjIktQdH807w0bbFGGUDDsXJgt0r+L/mQ+mX3Ol674qLqCZLQr/kn1U4inn3+afZevIE77z+Ii+9+RWg8dmcz8jNK6NuiBmzoYRF8z8np9jF0Z1rGXzzzWRWaAjfiARZZHpFedE21EK0h4SHqCNoTuq07kZ8236U2TS8o5JJ63sbsmxA0pz4mwRS/Az0iPKkRYgHIjfiisGNzbp161iwYAG33norPXv2ZOzYsZSUlPDmm29SVlZ2vYdXSy211HLDERoaSufOnfn4449xOC6juGAtNzyarmGQDQxK78PZsnzGLn2Oo4WnsRpMmGUT3x3bwmd7VnFbw76kBCXw1aEf2Z19iLZxGRhkA4fyTtAxoQWtYhojCmCQZByqwuR1M3lz/Wx6JLWnTmAsNpcDs2zk6U6j+UfTW5i2fh4fbVnE6Fa3M6HDfVhk0/XeFRdRTQHa54zHE/s288SElygXRQySgG7y5sknx7Fl1RL8u/fldPZpTiq5gMK0J17kRJmVYf2bUJK9nn9NeI53kjuQUFrMro0bsQs3Wnz5OXQEPI0SjYKsNAgwU+BQyA00UuzUKLOr6IIRVdWwmmQ8ZBOBXiZ8LTJehhurgtVfiaVLl7Jt2zbuu+8+wsPDATAajdx///0sWLCASZMmcccddxATc2NKNNVSyx9FVXWkyiINGlUuH1UFSQKXw4ZTFfGwXnwTdDlsuHQj1t8p2Vyl7lKZAHredsXpAlHCcFnXRx1dq5RAr3VsXC46gKajuBQ0dCRJQpbd+9tWWoJk8cJYtfs1nIqAUb78/du2bVv279/P559/zuDBg6/28GupYeiAU3VyU72ODK3fk9FLnmHM0mexyEbMkhENrUq7fNuZvTy+agqKqlJsLyHYK4A20Y1ZvHcVfhZv4n0jUTWNV36czreH1jMkvRcPtRrB3Z89hqq7HbguVUFRXRgk+VyiqK4hCTVvpbvaR+QbFk2fgf3p3asXbVs1Y/HM+ZwpsOHt643JYMBoMmE2yYBMgI+LeXPf5OkJz/DMUy+RV6JgtpowWKzYCosZf8c9LFu7sbqncFU4/3IliyJBFiPJwZ40j/SmUx0/Oif40a1uAG1ifGgU4U2Ut6nWKL9OuFwu3n//fQ4ePMiYMWOqjPLzGTRoEB07dmT69Ols3779OoyylqvO78j8/d1Z8doT9Bl0O4UaLHztf0z++Etyjx2kX/feLFl9lKJD3/CvCc+xaMkX3HPnbQy4uQ8PvvwxduXcfv1q5hT69ulHn27dmTLzM1y/0d+PM9/kpanvX2CUg43pL9xH33430b9vH56d/AmO3637pDPxmVdZ+EPmn5h9zWDGf+/n1rsep7wa+tLPHuLxO/swYPAgBg8cyH9emkGp6uT1R8Zxc7+b6dp/KIvXHKDwyA7u7t+b/v1uZvHKnVfUx9ChQ9m7dy/btm27RrOopaag6zqqplLmLKdtTGNe6fVvThRm8s2h9WjodIprzoDULnywbRGF9hJe6PYwIxr3xyDJ9KrbjoyIVJyKC1XTkSWZ08XZLP15NYPSevJUxwfwMnpgczmQBIkSp43HV03mw22LGN3qDu7OGMxb62fz9LdvUeqsjrPnyqh2l7O3XwiDhw4HoPDAUl6KaUGMTxQuxYXucqBqlRdtFcXlw8i7H2FIv4YU5uxnzx3/xel0oasaHl4eZLRqRnhgQHVP4ZpQVcSulhpFYWEh06dPJzAwkAcffPA38xratGlDcHAwc+bMITc3l65du1bjSGu56ggCxbknWLvtIF27deb09u/JMkXTIjmQdSu+xDuuJSnxnqz5YRfNMtLY/uOXbP05j8ZtOtGu6bky0LkH97Dk61Uo3jEMvLk//p7w3RefctplZWD/XhiEG/DkL8/irTmz+XJrLstWHcDXp4yvv95KqukoX6xajl/3zYgHDnDk558pPPIdh9RExt/bhy9XnqS0WMHsbyBz23KefPFdbn3sJcKPrmPJ9z8y/PYBHFi9iC9WbqZV11vo26kJ+1Z9zZKNG9m+Yj5e7QZQfHYf77+3AN+ERowY2p2dWzcR1HwkA5NhwjPP06B1Bg0985jx8TIat+lMny7NWbN8Kdt27UX0TWHMyL4c2LEDS5vB5B/dynsffIoprjn/N7A9q79bTWyLmwkv2cUPBwvp2rUd5hr629hP72fexwtZtU9jyOhR9G8YyqqFi9l9KhOT1QfZWUSp6MMdd99J8cENzFn0LWEJqfTsksGaL7/C7tIx+EbQo1cXdq/4iG+2ZNJ7+EhaRxv5/LPl7Dt1kqC4egy7dSAWUUC3nWXLlpW0fnQ2Tf1NBEXX5dt3X2Dq17t4bdJ/2fj1fNZ9txK/DF+8kjqTnLWNqa+9Rs+uH3K5wQKenp7cdtttzJgxg5iYGAIC/hr391ouwxjzkgAAIABJREFURhREVF1Dq4hv7prQkondH+Hh5S9gU+x4GCzc3WQgKw+t46lVrxPpE0ZOWT7eZk8G1++BUTSg6SqSIGKQjbg0lRFNBjChw/1YZTOF9lIAJFFi0b6VzN65hPubD2d8qztRdJUyRxkztn5KSnA8tzaoWUWuqkWV5dK4eHLcPygOa8XDI/uydMYUPpz3FT+u3ERapwH0aJPErLde4ce9O1i37jsWL17K5j15jPy/e7CWH2Lmoi+ZNG8O9YL8r+bwrym/nab5Bwrf/GaDtUmhf5YzZ87w9ttvk5qaypAhQy7r9wkICKB+/fp8+eWXHDp0iAYNGtQmhd7AfDJxNINHPknrQSM4s2EWz837mb6NwmjfrBOnfONoGFbOoy/MRTyzi6mz5yM4Jd58/nlSu3QnNiQAe+Ep7rnlbk7YdH78YQmr1+UTZDzGI4+/yOb135NjjaFdep3rPc0rZvPimazYrfDUmHZ8uHIbw/p1YcPyJRzflUlag+YUHC/gcHEWcY2GMaJHXVYvW8LSb3bQpF0XurRMw2AQ2Pz5J+zIM/DaC/8mrX1nbunXnTPrl3DXvS+R3CiOmW/OJSomhFee+jdyTFNyTuwgJC6ZzSu/YE+uwFeL5qF7xKHm7SG22zj+0b8rBzav4GSxi1mvTMEzIoqFb07DKzKWt157EcEnis2LplMQlIyefRqfuHCWTfkPmVI0+7/9mCOGQLYueJeDxV7k7VjI/M2lDOnduvqXlS+Tr+e+wR5XMiPbGlm8zcGt7RO4d9BQSsNCWTXvdcq86rDhu6WcNqTik7+FfYdO8Nncj3CF1ifBT+CZ4XeyptyLOEsOL0ybT11/C69++DVpEUYmPHIfQU3as3TODCwpXUmP9kUoy+aT2R+y76TCwX17iK+Xzk9rviGoWR/G/eNmOnTtRdcOzYhOTKNnhwTmvjsZ77Sb6de16RXdifz9/XG5XHz99de0aNHihhZ5+Luzdu1aTCYTnp6eF71nkc1E+YbRIjIdX7MXAIkB0dQPqUtaaD1SghIIsPoQ7RNGsGcAcf5RpAQnMDC1O22jGyMKIv5WX1pEpdMgpC4NQutyd+Nb8DG7+5JFCX+rH80i0wj1CqR5VDojGro97qIg0jwqnVi/SJIC4wnzCvrzk73RVFkuxfrVc5i65Aizv16MJJTgEq3c8+h49iz/FIetHBB49qN32X/wGDaXiiRK3DHCnxC5GN07mDvuHY1QroC1BsSZ6xp2mwOj2Ywogsul4HAoeHhacJYe5oHx7zD6kcdoWMcHW7kdENyFkzQNRVERDCJmo8Tr//sXDt8WPDJmEJnHD5NfXI5UEcOn6+DtG0iIBzw55kkGPvUMGQmhFd1rqLruTgUVJcQKbfPiY3t4/sW3uO3p56kf6nu99s4Nyd69e5k9ezbdu3enffv2V/TdoKAgHnroIT788EOmTJnCqFGj8PDwuEYjreVaoRceY9HGY7Tr24Ylnyzmvvat8PjiE9Zu80AJ8+XothOs9SsiqV4sHoqdXXvOcsttbWnarDl1otzVExXdxcn8k4SKrbjnrlH4hMRTJz6Ql6a+wfTnH6W4wHadZ/lH0Fkwfw4795awyHSaDVvPkHv/Hci27by325sNX89jyr39WLAWvlj1CGf35/H823MoPvo9PQaPpXvfdrSrF4G3rycFuVkUAH5HtzP5ix34G44jx3XkmQnPcXpLP9at/YJSL4H//Pchvv/vAVacySY7+wxiZCRJyVGYKUVBR5JFQCGnqIww0caOU3kkC0ai68Silp3BEtaAR596lnVvnWbxnmPESkaKzhzgSI6dyfOe4+i0B3hmaxZvjhzOqGcns9PDh7smPETNDR608eXSFWw6KKGG21i1dxab7+1KWHwYYx+4i2k5x7hp1Gi++qCIrFP5lPgXoooKdpeKxTMc9fi3OFJv5rMPp7Jxyp1ENr+Dp58fzBctb+HQoSxSGjTnmSceZPTOzWQdy4fWsaiKgsXbi1HPPUuLcB/8AoM4tuQNTh07BsD+7xex6oiTe4f34vHb+5IZ0p6PXhj1hx5sevTowbFjx1i4cCGDBg26uruulmph3rx5nD59mrS0izXCdSDY05/haX0ueq9DXEbFh9ye9B6JbeiR2ObiNnSdnoltq14nB8Zd8J4sSNyU1LFqW5OwlKr3ADyNVm5t0OvKJ1YNXBer9tCGVQy86X4G3DeRm1uEgu0sgiCS2Lg+ZUc3cazMHWmYnpHKmpXLOHS6FFEUAI2VKxdTXJyLwxzI3TXAJgfYvvgdJi7P5I03niXIDMd+WM6rs5bw0ozpWDQ76zbvZFgZYDvBy088wf4sjdz8fIwmCz5eVsJjevDSc7ex/+efsPu5NbHnf/wBi5atxWgyomsaxTlZmJI6M3/ykxzauIXcEjsAeft/4oUXX+asJmCQZcpKslF9Ynj7vTcxK0Xs2rGBgvLfitys5Zds2LCBJUuWMGzYMOrXr/+H2jAYDIwcOZKFCxfy8ssvM3LkSCIiIn7/i7XUGDZ++yk7DxYx5oHuvPnefO4dPAl/rzwmPvc+Tz/2IidXz2bKBzoDRz9F96GpPOftz6JZkzlwphRjeluGNY/HwzOMN2a8zaIFc/jvI3NJ63EL3adPwt/PyHSHjC0rG7f4641D7s4vmb+jkP9Oe5vmEWY8Hh/PzM/XEhWRSvBpgYYN65OYHIXzsERGfBhvvLuQWc9PIyXRQnhEU0I93HrFaV1vIu39+fRp0xk1+yRB6Tfx6pP9mPPWKDp2+oE8Anhv8G3s3bOVwUP+D9feNTQeMJToYAsbd+7AYgwkOSaZ/SvymfTQEL4KNpNniOfR3jdxasGX7D95gkCPQBITkrCd/oAxt99K9vHdjHnlH2z+aAvhEQ1Ijg1kYIsOuMpPccfjQ0ju1grfhx9mp9qHnk1rrqb2kR+XsfaIyguvTqZ+sEjJA3cx+Z15GM1mHDY7NrsDh8OB3eZEc9nZ8uVSDnqlYA0I5Nj6Rbz66rOU+Kcz4dF/0atla06/8RqdfngHn6gmNEgJYs0if4w2hTKHA11yGzKiJFCQlcNz/xlPqEUkOKkLdw25i7ljxtC16zqOH95Px3sm8uXHU3j+k800bGHluZde5+l/j8XyB+Z4++23M2nSJHbu3El6evrV3YG1XFM++OADioqKeOCBBzCbzRe9f1lrIL+xUqLr7giD1d9+S7NmzfHwvNDx9VurLDfCCky1m7Z7fviM/jffRYtbx/PuxDHujRVh5S6HA5dTOfer6Z507N6POlnZOBzukqwGiyc/r13Is299QtHUNwit7glcgvxTB9l7OIfK40/Wijh0ZDciYLBY8LBaEHQXmCP4x9insasqEx8ehT2xDf+9fwglpSoFOZk4nWpF4is88PBTjBqrIAjuVKeNc17j4dlbsWsiJqsHFg/3co1nRAwjH/kXuihhkI3s+PQdxk/+mHLexCpKmM2WikJMtVwOy5cvZ9OmTdx7771ER0f/6fZuueUWwsLCmDZtGgMGDKBRo0ZXYZS1XHM0G9OnzMHLP5yjB09A6REWb8wkXHExc1sWry+7Hef+z9n52Upe79mQ+W+9xM+OMF6e/BZjhnRg4fqDDGseT9GJbUx86R3ueewJUv3Cefqjr1j46RxySnSatmvO7G/X4mAU1us93yvAQRiTXn6Fm/u3QwBemvIKG087SfJpSNtiKxIwYvQE0m814eXtzX9eep+4D2awv0hhwv/uoG6k+9plCojjrU8/ZfpHsygzhXPPncPxsYhM/eBNPl66lh4Db6N5gwTemDSVGZ+tJuHOm6kXH0tyeAgz35mGPTyNhk3rIjr/g8+63Vh9wxgwdDiRAWbemvky0xd/TVTdDtSN9ET18yejeRr17ryD27q0JR6NgLR06jR7i5D3P8Sjfifu6teGI4d2YPOK4JbevfH4c6vR1xTdP4anJr7Ezb1bAvD+a5PZlWvDx7MtdSPiGXn/Q8TEBRFy+wjwq0vMoNdZtGIzfn0HEBHkS5MGceSezcVmCqfvrcPISAxi8drjDB95H4keedz5zxAEg4l7x40lMNGtMiX6J/Dws2+z+2QRmurCv25dGrfvyuL57/HRpysJGfVPRgzsxd71K5ky5XXsZcWEJyX+YSPDw8ODQYMG8fHHHxMdHY2fn99V2nu1XCtUVeXdd99F13XGjBmDJF0bl4MgCBw6dIiZs2aRWLfuRYb5jU61G+YePmE8Nukjht1+07mEEF3H6XCgahUaVpVPNIKNV598glOE0CI9CrvThSAI6IqVhx55nCCzsbqHf0lMnp6oeRuYN+8zgq0SRzb8iGrw5lTmKdSTe7HZHIgyIMhExSYATvIzT3BcLCU+vg7T3/wf/1u1mQ3rdjNs1AgAjAYDRq2cd5/7Dy3GvYhddeLnYyHE14RiK2biU0+SN+RmbrmpG7HxsdhsDgTZQGhgPF6CcEm5+Fp+HUVRmDt3LmfPnmXs2LH4+1+93IVWrVoRGhrKzJkza5NCbxDsmZvJ8Yrnrakf0SbVkz4tJ7J07wG69ehMX7UujUKt0K4PvQ4HkRQcRHy3Lnz99IvcueJTohvexvO3NgfAOzKdLo1iePbh+1EEL8b97yWaJVsZe99DZOPDQ09NuqGMcoCI9EYMqHBg6rpOeHJzbk52v07GvQId1aQzlWViBE9fho15+JJtGXzDuXfcv6pe60BSRieezjhX9CMkLo3/jL9wOfyeRx6r+juj401kdLzpgvf9U5rxSEozABz5xxjQZyCD7riNwIo7XusuleFp0Yx5bEJV7ys+X0BI4948NPqWy9kV142E5AwSKva5jk58666c799v37E7ALGt2lVsCWVsaovzPtGO8wntcAsNO1S+iqRDn0gAOnbudu5D1kB6D7+XX6bJhSW15d9PnAspSG3ZldSW513j/oSyQVJSEg0bNuSTTz7h3nvv/UNt1FI9lJaWMn36dLy8vLjrrruuaV+6rjN//nxOnTrFmTNniIyMvKb9VTfVbpjHNmjJPxr8YqMg4xMQgcloxFZSjF2xV7yhUJCdj3/9DBo1aUhZWcV2ARSXyKl9x/BPia3O4V8SSZYoz89i4w8/EOhp5PDugxQVwtuvTWL/xrWcOGPEKJ/b1XNffJhdpxXU7HlMeLsRY26/n449cnj6n/dTZjsv5tSksX7FDOLunkBMajNullvgYRRR0PE0ymi6i7wDW3lg1BhK/aLwtZrJP32SwKZNMMOliznVchHFxcVMnz6D4OAQ/vnPf16TPuLj4xk3ZjTvTZ/BmTNnGDZsGLJcQ2KxarkIQ3BT5n46C6vZbTZ3u+NR2pTZMFpMdB3mDj1pOmgUC2/6P4xGEDO6s2BRe3IKivEPCsZQEVgrmjwY9cxrDB2XhyKZCPBxe4sXr1hNmSrg62XlRk7UvtSy8J9ZKb4We8HkH8t9d13OfULgvgef4X7pxjovhZp+7PzJ0IE+ffowefJk1qxZQ4cOHX7/C7VUO4WFhbzzzjvExsYyZMiQa97fhg0b2LhxI4qikJWVdc37q25qxhXI7Mt/pkzFOyQYtVV7yvTEijc8uG3sKHbsP87un/ZWfVzXNVyKgfqNml+f8f4CZ7md4PrteeWtSfgBB1fOYszE93jw8acw5myn9+2voCpQVpDDs4/cz4fL1jFt8RoSC39g4Mgx7Fh/N0tmPk9YkA/lgoDDns+XX67GVZbDviwnn7z7Ps0jvNmzYy9v5J/A7B3M6CefplVCAMfWLmD3yTyeeu4jWkaYcOkCXj7eBAGl6LW2+a9QGaOWk5PDu+++T9OmaZw8sYdhw/7NxLdeJKpi1TQ/9xD/eeo1Rjw4gZaJIb/aXtHZ42z7OZ+O7Rqx+YdFzFi4hZdfew5j9mEeHf0g3x3KZfyEtxk3bhyzZs3i9ddfZ+TIkXh5eVXTjGu5EiST9ReebAGrh3uLXBUyKXH+op1oNBMScnE8JYCP/4WybwarB+fSsWu4YfU3QrjBjPK/A7IsM3ToUN555x0SEhKIior6/S/91alBz/L5+flMnTqVtLQ0+vXrd837Ky0t5ZNPPsFutyNJEvn5+de8z+qmZlyFRInQSPfJ1nfgHe5tuo6OkcF3jqKm1wDT0VBcDuzlKppZwG6zoaER5OeDpzXKrcAiSGjOLLIJ4tUP5tO1aR2sUiJfLk3km20lgEaZzYHgL6Daclm5YhlGL3963DUBh+Iip8hJWpOmpMTG8cMsO2WlpUAAIGD2CyK1USJRlRk2ukrW2WyKS50YpJoq9nV9EQSBgwcP8tFHH9GxY2c6d+7IbcMmMW/etxhio/jo+QcAKCvN4eMFn9Dptgd/0zDftOQN/v2lia3tGmExGvG0eGIEjm76mA+W7+OZV54ho1kCJpOJe+65h8WLFzNp8hTuGzWS4OBfb7eWWmqp5e9OZGQkPXr0YPbs2YwfPx6jsWaEsVY3BeU5uDQngR7hiDXAMs/OzmbatGm0aNGC7t27X/P+NE1j8eLF7N69G6vVitPpJDMzs8rR9lehZhjml0Ko8Qt0VVisQdiOL2Xc3SPwMMrkZh4Gn1AkQHE6K0pG2/EKSWbG+1N596nR/D975x1fRZm24WtmzpySk94LSWihhN6lKFWaCNJExIIiihXQ/dRdy666q2Ivi4ooKor0okgVpEgTKdJJAqGl93J6mfn+OCF0UZeQEObixy/JOVPeOWXmnud9nvt5bOt+Zrz0EIktu3F/SwAvoRFROAz++IU0Yuq0Gcz65itMoV0YNjDpzM6shXwgSwgVBZ16gxkl6zgvP/Y4sQFgczqwl5ZzNNvKqLvvJzjQeKaVtUYlO3bsYOHChdxxxx2VFf+ybMCol/nmtX/R9+a+jOmZhCiI+JnN6Cq8yBVHKYu++YpVmw5w06BR3DWiF/aSLL5fuomclCBWbtxNqwbJDB0cR/mp/bzx8WKUwBDi4mPJOvgzqrstTepGc9ttt6FXHUx46GFeeOll2rT8a+4vGhoaGtcDXbt2JTU1lblz53L33XdX93CuOl7Fw7zdH3ModxdP9nyThJCky69UhWRkZDBt2jR69epFz549L7/CFcBisZCdnU10dDQ2mw2Xy0VKSgp2ux0/v2utWufS1Fxhfg3R6rYJrLppJA6HE0VVkXR6AoKCMAH2ClF89s2cNecUebrzp+MkXn73c7wesXKWauEP3xPULO5cYW4O479LZhMc44uyRrXoyoefTyezuBRRlgkICiIyKpqY8EjEwjQ2fmOvmJ61883nMwlveCP9uydzPbNq1So2b97M+PHjqV//TMmUpdzCbeMeITZ/J08+9iB9t6zDzygjAKJsQC3PZNywQaw5KtD7xqY89eBwlm97gVcfG8Sh46ew5pRxODUVa3Yub07fyOdv3Eva8UKcBXZ+3biGtJ2LsdUbwfLPXkYCDm6Yw55MmdU/rqW0II8evXpdcswaGhoa1ztjxoxhypQpbN68ma5du1b3cK4qoiCSENIQm7scg+7iKXNXi/T0dGbMmMHAgQPp0qXLVdmnqqr4+/szefJkDh8+zNKlS2nbti0FBQU4HA5NmGucizHAn/iACztbAaiKF1u5Fa/nTNRaJwlsW72Ap1+wI3sceCueEkSRFl16cucgX0W72eDhl9WfMkXejtPpQUVFEERkvY5mbW9hcN+WSKZAuvUfcNF9l1hSKS+34kUEFOZ9/BZhXbhuhbmiKMyZM4fjx48zceLEC9o9Kx43LnM0L/5rKosT2/O3t7/g7Se7oRMF/Ix6tiz9jLnbili5dSc3NQ9nw9JP6TPi7zx47738a/IYJn4vM+mBUaz67kNsZQ4at72VF+9dwL3zPfznjf+wa24gQ56ay4HcF2lpSGXG1+uYMHMzE26M579TPyIrJ4dRo0ZVmcWUhoaGxkWxWMDhgNBQqMGdivV6PWPHjuWTTz6hfv36xMTE/OVtHSs8RIE1m8sna6sICEQFxBMfUrVdel0eJ17Vi0m+UGQKgsiA5Dvp13QUolB914gDBw7w7bffMnz4cNq2bXvV9isIAoIgIIoiZWVl1KlTpzJ9xu2uXb1aNGFexejkQAb37U500JmcuK4jHmBixG4U0YsqmTj9jMvlxeM984W7c+QdRKzZwomTGWflT6m43QIJ9S//QZQDoujV/1bCTBJ4FNo0b4oUe33mM1utVmbMmIEsyzz55JMXbXqAAA5rGUGRLXn/zUnc/uzz3ND0PQL9TEgopGdk06JDT25qHg5A91tH0bDey/yWnkoLrw6v11u5KVES8AIul4LqVShVoUOfW4k2vMfqrQexWxZRbGjCHR0bExAoM2nSJL788kumTp3KfffdpxWFamhoXD0+/hgWLoQFC6CGW8/Fx8fTp08fvv76ayZPnoz8J9ufexUv3+//krUpC7G5rT6H5t8R52rFvwB9IAOT76Ff05H8npg/VnCI3ZmbsDrLiQqsQ7v47oSZo3B6HKxP+47s0hMEGIOJCUqkaVQbQvwiAfAobmbteI8Caw4jWj9ETtlJSuz5JIY2Jjm6HSqw+vA8Cq05DGlxPzpRZm3qIqID6tA4sjUnilMx6wNJCE2qMqeeHTt2sHjxYkaPHv2Xm+9dCU6dOkVsbGzl33/2M1DT0YR5FaM3J/D6m8+f81jbXoNo2+vCVrTnM2DQaAYMGv2X922OSeKZV172ObPYM2jSYwDt+1Z9gUZN4XRBSFFREdOmTaNhw4Z/oL2zAsCtE/7BnSvW8+ykSRgEEZ1ehygJlNmtZxZ1WnBb7eh1OhRFQdKdduY/MzuiqqrPp98BYlgTRnRty5rF09hVtouOw8YSH+E7oZhMJh5++GEWLVrEO++8w9ixY0lMTLyCr4aGhobGJcjLg7Q0uEYijz179uTIkSN89913jBgx4k+tu/3kT3y/70tUFGTpEkWkZ7menBa5xfZCFu35lDrB9WgW08E3g32eAE7N3cO0zS+RYzmFJMpYnKW0juvC//V+n5yykyz4bRoWZwle1YtR9iMuqD5j2j1B89hOFNny2ZX5MyW2ArLLjpNTdgqHx4a/Poh7O/6NzvX6si7tO3LKTtI7aShWt5XFe6YT7BdBoCGY9KJD+On86Z40mCEt7qtMd8m3ZLLr1CbyLVm4FQ+hfhF0q9+fMPOfa8+4efNmVq5cydixY0lKqt789sLCQpo0aVKtY6hKNGFe5QjVbmskAJjqMHrsw9U7kKuMIAgcP36cL774gi5duly2atyrKChKhajWBfPyv1/jx059OOU2oKCjTeuWHH3mc56ZtYnJfRqyfMokThSEcUOLZHKPzaAgLZXcUhugQ1V9Al9VFBSvUqHVRUaMv48pvUdikWJY8euFNwnDhg0jOjqa6dOnM3ToUNq1a3dlXxQNDQ2N85FlMJlqdBrL+dx+++188MEH7N27l5YtW/7usqd7HJU5ivjx8Fy8igeT/sJukW6vG5fHjlH2QxLOlUcm2R+7q5yVh+aQFNECvc54joBXUdl6fDXZlpMMb/UgNzYYxNZjqym25yMKAnZnOQgQ6h9NbGBdcspOcazoMDN/fZvn+34Cii9VVRIkyp0l9G40nDD/aA7n7MTtdeFR3EgI6CUDCuD2uNCJenLLM3B5HCSGNOJUyVFWHZ5DvbAmdEjoyZH8fXzxyxscLTiIJIqoqoooSjjcVka1ffQPv9Zr165l48aNPPTQQ9XezOd00WdUVO2d/deE+TXA2ZalTpsVNyJmk8n32HmiX1W8eBUFnSRis9rRGf3Q666dk+2VZPfu3cybN4/hw4fTvn37yy4fIpsoN5yZEotr05spr/8f41/8BLvNSnLve/j4+QP83+O38qUsI8hG3vpsJu0SzBxq1gXPsWncMfZJHhjeAn//ABTA4GfEEOiCiregSec+9Gsdwy9+A+jaNPyi4+jSpQsxMTF8+eWXlJSU0Lt37yvxcmhoaGjUGoKCghg2bBiLFy+mbt26BAYGAuByuS6wUzydCbrhyA8cKTiAQa70FkZRFQRBxKt4ifSPIyGkISn5e7C7yivmPtWKnG4Vg+zHgZxf2Xr8R7o3vPWc66+AQIg5ElRILzhIUkRL+jYZiUn23QB4UVBUL0GGYB7q8gJuxc3nW1/lYM4OdmX8TIvYG1BVcCsubm/1KAOb3ulbr9ndSKKOYlvBWZ1JfLPBXtVDTGAiD3X9JwkhDZm7ayorDs0iq/Q4XsXD6pT5nChKoV/TUXRK7M2JohTm/zaNE8WpuL1OZMnA5Vi+fDnbt2/nscceIyIi4i+9V1eS3NxcRFG8oEasNqEJ8yrGY7dwMiMbDzoSEhMx6isUmqrgsDuRZD2yfPFCjoPLvmZzsZ5xd42q/P5/+NbTHCqN5LO3/wnAyQMb+XLBehAE+ox6iC4JVp76+xvc9+hTTH/uYZrc9SGPD669Uz6XYu3ataxdu5Zx48bRsOEfK9h587/f4Dmv2n305FfoPPQhwmMiAD3j/vUu/e55lHKnG7+gcBJjfSeqpj3v5td9nbEoIhGhQdzUYwQGoOuDr7NujJeIivOfp7yMIouZe+4eTcDv1O/Uq1ePxx9/nE8//ZTc3FzuuOMOxGsomqWhoaFR1TRr1oyUlBQWLlzIsGHDmDVrFp06dbroTGNGSTrr0pYgCRKiIKGqCh7FjZ/sj8vrQFUVBiTfQfeGg/l822tsOroco+yHIAg4PHZ0og5REPGgsCZlAS1iOxLqd27Utl+TUXi8LrYcW80HG54l2BROt/oDuaXZXUiCVJnlaJBNhBtiqB/ejP052zlWdJhm0R3x3QSIxAXWq9ymJJ6WaRfaHiuqQlRgHImhSUiCRL2wJsiiHofbRqmjiOOFh6kT3IDhrcYTaAwhwhzDysNzsbusOD2OC4S50+kkIyODBg0aALBo0SIOHjzIpEmTCA4OvmD/1UF+fj5ms7nW5ZWfjXalrzK8fDfjXdq3a8vg24Yy+JYB3NC1B7PW7vM9XZbO+JE3882KTZfcwq/zv2fW/BXnvEn8g9MAAAAgAElEQVQlZWXk59kRgIxjR0hJz8DtcuF2eTl1LI2crCwOpZ8g1ylRUlRGcamjSo+yJjJ//ny2bt3K5MmT/7AoBwiPrUN05HlRbMFA3XoN8D+rxWOd+g1p2rRppSg/TWzdhjSqX5+Q4DDi60QhAn7BkdSPi0EW4NeFs+jUpjOHxPo8OO7y1ojh4eFMnjyZoqIipk6dis1m+8PHoqGhoXE9MGzYMPLy8njiiSeYPXs2x48fv2AZFZXVh+eRX56FXmdERcXpcdCmTjee7v0+NzW4FafXgb/BF3U36vxQVYU72jzK4ze+SkJwQ1weJwCyZCCj5Cjr05ZesB+Ls5Q+jUfwyi1fMrnnW5hkM3N2fcierC3odQYEQcSjeDiSv58NR77n15M/ISISH9wQUTjTMsirXCLXXxA4X6ALqoCieCueFkAQURQviqKgqipexYPLbQdAUb2gKgiCcNGu4KmpqTz33HNs27aN77//nvT0dCZPnlxjRDlQ6WNem9GEeRWx6Zv3uH3c0zQceD+ffvY5M2Z8SrNwJ3f16cOaXXngJ5OWlk5+of0SW3CwIesQG9b8wq7M8spHRVFCVxFhn/XlDJas/pXi/Gyy8nLZvGwRi1bsw2Q0knP8MBancslofG3E4XDwySefkJ2dzaRJk2rEtNvZmEKCueG2MXw7ZwaJfn/sq2cymXjssceIjo7m3XffJTMzs4pHqaGhoXFt4HK5WLBgAXv27CE7Oxuz2czevXsvWO5Qzi62n1yLQfbNiDrdNhpHteL+Tn8nITQJj+oFVcWr+gSuqioVXiwKTaPbMrbT00QHxOP2uhAQEASRLcdWcqIopXIfiuJl1o73eGXVQ2w4shSrswxJklFR8SguVKhIScnnw43P8fGmf5FXnkGruC50qdcXr+pFQMCrKigVNUpnIyCgqiqK6kVFRRJ1CAjnLCsgoqpeVFUhxC+cptFtyShN59udH7I5fQUrD8+hzFmMXjL6IvjnsXz5cjIzM3nllVfYv38/Tz31FGbzhbn41UlhYWGNu7ZfabRUlipAdRXy+nsf0uH2p5n71rOc/vi3nzUT8+PPUVKYBURg8jMh6y4mnBW+evNJ1heE8cDQIB6+fRDvfDaTjo3rIAgiquL7Ij7x5ES+ev9Nps/fjlunp0v/exh2yw0sm/cRH7/5FodTi+hlvj5aFxcVFfHZZ58RFxfH6NGja2TaR/NetzC11y1/ad2RI0eyYcMGpk2bxpAhQ7SiUA0NjeseRVHIysoiPz8fURSRJImTJ0+Sk5NTGVV1eZ2sOjwPu8uKUfbDo7jxNwQxsvXDmA0BzN/9MetTF2OUzxKgggAIzNv9MXqdiS71+tGv6Shm7/wQRVXQSTIF1hzWpi7m3o5/84lkUSQ5pj0Hc3fy5S9vIAgioiDQpW4/WsZ24URhKqqqIgkS8SENifCPpUFEMp0SeuOnD8Dpdfi8uoEAw4URapPeTIhfJFZnOQadCYNkwk82IwkSkujTEf6GAFQVZJ0BSdRxa/N7KXeWsvPUBrae/BGDaEQQBWRJjyydmwpy6NAhNm3aRHBwME6nk5SUFA4cOFCttojn43Q6sdlsmjDX+PNYslJJy87j0ed6c7bs1oc25tNZC3x/lKVddCrJXpLLq0/ex/TN2UybvZwhbSN57cGR3DvqLhb8sITgICNioe+u/uTmtbz60XzeXbWOzoYcug+9j66tgwiok8TdD/yNb1+ajM3mqvLjrW5OnTrF559/TseOHRk4cGB1D6fK6N69O3FxccyaNYuCgoLLusxoaGho1GaMRiNPPPEEHTp0YMaMGaSlpZGXl0dKSkqlMN9xcj0Hs3/1uagAHq+b5vEdSIpowb6sX1h1aG6liD4bUZSwui18v/9LGkW2oENCTzYeXcaJohRkSY8k6th16mfaxXenVVxnBAT6NBpOg7BkUvP3Y3EUE+EfS8u4zvjJ/ngVN17FQ6h/NA/c8A9ig+uds79gYxgDk8fg9NipF9b0gmM16Ezc3uZhrM5ygo1hCIiMbv8EgYbgyoZD9cOSGd/5OeqGNQYgwj+WB7u8wJH8fZQ4iim3F7Fk3wxEUXdW7rrP1nfJkiXYbDYkScLr9eJyuUhLS6NZs2Zn9VGpXgoLC/F6vURGRlb3UKoUTZhXAW6HHUlxYTaeK73PdldBvZgsB51OILrNID69oyWxSga//JJBn/ueIq5LOgVp+wmPasnQpr68aXNkBDpRYdPKVZQHWNCZgqkTFQJegciYWMySB5fLe9H91Bb279/P7NmzGTRoEJ07d67u4VQ5DRs25NFHH2X69Onk5+czZsyYGnPS1NDQ0KgOOnfuTJMmTZg5cyaLFi1i92+76d69OyWOAtakLsSjetCLep9doCDROMrXsXJz+gpcihODzsTFiiv1kp7csgx2nfqZvk1GUS+sCSeKDqMCOlGHxVXC2tSFNAhPxt8QBEC9sKYXFdbgy3UXRR0G+cL0EAGRvk1u/93jrBvqE9yn5cMNdW8+53k/fQDdGviCUw63jcV7P8OsD2Rwi7EAbDz6A3a3lVC/8HO6h+7bt4+1a9ciSRLJycn06dOHbt261ajccvDNjBsMBvz8LuyMWpvQhHkVYA4ORzIGklXsOedxAdixYRXu8CQ61zVc1N5c9o/k0ccfIXXlbF6buhpREBBEHQa9Dtem9aQe2kvyTWO4a2gf6rS/mR+Wz2XZdz+SVubh0QmP4HE4CA6IQbCX06BpMnX8L2+HdK2ybt06Vq9e/aecV2oDp4tCZ8yYwYcffsj48eMxmUyXX1FDQ0OjlhISEsLEiRNp2rQpW7duw1pu47f8zb4It+hL21BUBb3OSIQ5BkX1klt+Ct1ZkePTYlWsKL8TEFFRyChOByDIFIogSJXG6DpRJiXvNw7k7KBT4u/b2qqqzy5RUbwoqufCBf5EfOWPxGJUVLJLT7AzYyMpeb8RaAxhf/avGHUmkqPP2AfbbDaWLVtGp06dGDJkCG3atKmxjieZmZmEhYXV+mCUJsyrAEN0E3o0SeKLDz9iwoh+RFSkeRccWs2gHv0Z9voCOj/T/Xe/XOGN23HvXWGU2U67qgiYjHqmvrGbkyfPFAAmt+5Cbvphps1dzf7d25lTZiM8MpK3nn2CxDY9mdSrbtUdaDWyePFi9u/fz6RJk4iKiqrs8nm9YDQaeeSRR5g7dy7vvvsuDzzwQK2f3tPQ0NC4HH379qVD+w44XU6yS0/gVbxIujNSR4AzwfHT3T0FAY/Xw/HCFBqEJZNnyfB19axsFqJWLC6cM/UtChJOj4Pc8oyLjiWz9Bi/nFhDp8Q+hPhFYpLNRPnXqYyuX1EqbhYUVUEUREyymdtajQMgNX8fHsVFgCGEgc3uonVc18rVysrKGDFiRLV38/wj5OXlER8fX93DqHI0YV4l6HnqxWdZ1nM4ffqO4m+P3IlsSeet119HTu7OU3fdBo5jlJWV4rhEC+Rts15m/KxUHrpnFAbcKKqKKAp07DGCtt3OTF8p5cd55rl/0aTv03wz97HKN/S35Z8yZOzTdB85nlHta0801eVyMXPmTMrKypg4cWJlU4nrSZSfzahRo1i3bh3//e9/GTZsGK1bt67uIWloaGhUKyGhIQBEFsahE3WVgRtREHF6nRTacxEFiQj/OI4WHESWDOhEHevSvmPnyQ0UO/J9kfSKnJHoIF+Aq8xejIrii5rjsx806kzEBCRedBxbj63m250fYNKZ6d90NOM6/4Nwc1Rl06EriiCQXniItSmL6Fp/AMnRbakflswjN/6bzNJ0bK5yQs1RxAbV9d1gVBAdHX1N2A96vV7Ky8uvibH+r2jCvIqo23ko3y9fwr/ffZ9PP3wXweuiSfe7mfHcUzSIk8DmR4+bB5KUePEPmWAU8HjA3z8QA06U0z3IFDeHdqXSvkUrwkP1CMZQbu3ejQVbFvHMC8U0TIjGUpTDji0/k9iyJy0SAq7mYVcpxcXFfP7554SGhvLEE0+g02kfX4CePXsSExPDnDlzyMvLo2/fvtU9JA0NDY1qp118d7YcW0V6waEKH3EBRfGQmreHHg0H06VuP349uR6P4kEWZZxeOzmWcmRRRhBEnB4n4eZo2tTpht1t5XhxasWWfcLWrbhpFtOB5JiLu2TZ3BZ0ooxX8SAIAu3ju1fp8e7P2s6Ph+fhp/cnOdqXR2+UTTQIb1al+70aFBcX43A4NGGu8b/RvNdg5vQajMNmRxUETKazukr6xfLmJzMRLl4DSrvbJjIl8FfKHW6Us/1GBRW90YAo+U4MghzI8+99TPuVy/ntUDo5GRkgyPQaPo6B/QcSH1mzPEj/KpmZmcyYMYNWrVoxePDg6h5OjaNJkyY88sgjzJgxg9zcXO68804kSeLYsWMEBAQQHh5++Y1oaGho1CKCTeH0ThrGiaIpKKoXUZDQiTL7s7ZzvCiF1nW60itpGKsPzcEreZAlGZ0oo6gqLo8No2zilmZ3ExOYwOb05WQUH0GsyEn3KG4C9EH0ShqKWX/xAJgkSAiCcI4DyqVwe104PXbM+sBLzgCrqoLNZUGvMyJL+rMeV3F5nTjcFgyyCbvbisNtw6AzIgg1zzr4r1BcXIwkSQQE1J5g46XQhPlVwOh38VSSyvS1ixDZsD1jG7a/+JPnb8cYxIDbRjPgtr82vprOwYMH+frrrxkwYAA33XRTdQ+nxhIZGcnEiRP56quvmD59OoMGDeKdd96hWbNmTJgwobqHp6GhoXHVaZ/Qk+2n1rH71M8YZT90kkypo4iFez7l0W4vc1f7iQQZg9mYvoxSeyGqqiCKOuoGNaZ/0zvoUq8fmSXprDw0B5fXiSzpfa2HVC/tErrTPKbjJfctCgICAk6PHYurDJ2gwyif6yjiUdxsObaSPZlbsThLCTfH0K3+AJpGnxuF35u1je0n1pJvzSZAH0T7hB50qtsHl8fBD/u/Jr3oEEXWXIw6E4dzd/P+xmepE9yAwc3uJcBYs9xV/grZ2dmEhoYiSbW/aaImzDVqNBs2bGDVqlWMHTuWxo0bV/dwajwmk4kJEyawbNkynn/+eXJycsjNzaVfv37Uq1fv8hvQ0NDQqDWo6HUG+jW+nZTcPbi9diRRxqAzsi9zGzO2vcHodo8xuMVYujUYyPGiFKzOMkLMEdQLTcas9+dY4SFm7XiPjJJjlVFqj+Ih3BxL70bDLhMNFzDojKw78h3bTqzFXx9I2zo30qvxUIw6PxRVZcFv01hxcDZe1Y1O1LPP+wt7MjfzUNd/0iL2BgA2Hl3Ktzs/oNxRgizp8Xg97MnaSrmzlE6JvUgt2MuhnF3oJQOiKFHqKKTImovTbcfhsRPAtS/MMzIyrhuDA02Ya9RYli5dyu7du5k4cSJRUVHVPZxrBkVRyMvLIysrC4PBQGlpKXPmzOHZZ5+9botkNTQ0rkd857smUW3oXPdm1qQuwCTKCIKAXmdg+8k15JafolejYTSP6UCbuK4IgohX9ZBTmsHa1AVsOLKUQmsuesmXo66qKqhwY4OBJIT8MScTSdRhkv3IKEknJW8PKgq3NLubw7m7+DFlPn56f3om3UZMYAI7T23klxNrWLr/a5Kj21NqL2bpvq+xu6zc1HAQyVHtOFpwkE3py1l5aDaNI1vxwA3PUWDNYfPRFWw6toKmUW24tflYIvyjCDPXjmtnSUkJLVu2rO5hXBU0Ya5RI8jMzMTtdlO3bl08Hg/ffvstubm5TJo0qdJ5ReOPcfToUXbs2IHBYMDpdAKwZcsWtm7dSpcuXap5dBoaGhpXF0EQ6dN4GPuytlFgzUZfkXut1xk5UZzKl9unEOkfR5g5Cr1kxOGxkleeSZEtD1GQMOjO1Ie5vU4SQxtzU4NBf2DPKi6Pk851b6Z/0ztJyf2N6Vv/zS/Hf6JP4xEcKdiH1VlO50Z9ub3NwwAkhjTiaMEB0gsPkl12kgJLDtnlJ0iOasdd7SZjNgTSIaE3p4qPklawj/SCg/RIGkKEfwzHCw6jqF78DUGVxZ+1AYvFgtVqpU6dOtU9lKuCJsw1agSrVq1i+/btPPPMM/z444+oqsrEiRPR6/WXX1njHBITE5kyZQoHDhxgx44d7N69myNHjvDFF1/QvHlz7UZHQ0PjuiM2qB7dk4Ywb/fHqKqCIIgIFakmqqqQW55BdtmJyuV1ouwT8GcVgimqF1GU6NVoKMGmP1ZQr6Jgkv0JMATRPqE7yw/NIr88k3JnCRZHGYIgEBV4RnAaZT/0OiNljmJsLgsWZwker5tw/xjMhsCKZUzoZWNFMai1cl234kTAVwjqdNsxyLXDKjknJwegZhd+XsHZaE2Ya1Q7GRkZrFu3juzsbJ577jmGDh3KyJEjq3tYNZOKJhK/h16vR6/X06lTJzp16kRhYSF79uxhw4YN/Pzzz/Tr1+/PWU2et8/rrZmThkatRxR933P1EjZhtYQb6w9k16kNHC3Yj/EsL3FBEM+Jil8Kh8dO67hudEz4/S6fZ1BRqUh/AU4VH6HAkk2gMZQAQzARAXGoqsrBnB3cUPdmAgzB/HryJwosWYT4RRAdEI+ieDHKfhzJ38ehnJ3UC2/K/qxfOVV8BKPsR/RZot6ren3GyqpCbXonc3JyCA8Pr9mFn16v7zp5Ba6NmjDXqHaWLFlCXl4efn5+5Ofnc/z4cSwWC/7+/tU9tJrFX7xohoWF0atXL3r16kVubm7lReIPc96J5nSepSbONTRqCX5+UFoKVuvll72GCTKF0qfxCI4XpeDyOtGJf7z1vMvjwCwH0K/x7Rj/YCRaUUESRbafWMupkqOcLEql0JpLz6QhGHQmWsV1JjG0EXuztvH2uqcIMIRwqjgNu9tKv4RRBJpC0OuMtIrtzC8n1jBty8tE+tchp/wURdZc2tTpRuOoVpX7U1XwKh4U1EsZvl2TnDhxoub7l+fng14P8h//TF0KTZhrVCsHDhxg3bp1iKKI3W5Hp9Nx4sQJ8vPzNWF+EVRBwLJvD5YtmxFCQjH37I0uJBTV5fTp9oucjU8/JAoiwcHBuN1u3G7XZfZU0Y5a1qPaHVjXr8WdfhS/Vm0I6t4dsZZ442poaAABAT5RXsuFOUDHhF7klmewLnUxdo/1nFSVS6ECwX4R3JJ8F8kxf8zGGHzpM6F+keSWZ5BTfooAQzC3tbyffk1GARDpH8v9NzzLvN0fc6IoldyyDEx6M30aj+TW5vcCvrSVO9tNRC8Z2J/zK2n5ezHojLRL6M6I1g9h1gdV7i8uuC6BxlAi/WORdYY/98LUYHJzc2nevHl1D+PSqCqUlEBkJFyBxoeaMNeoNtxuN7NmzSI/P5+EhATatWtH165dad26tZZbfjEEAUf6UbLffB3n8eMgy5Rt30rAqDHoGzcFjwdVUS69esVPRVXhchOdooQo63AfO0bZ7NnY169DtVrQhX2HKPyLoO49r9hhaWhoVDOnG5DZbNU7jquATpIZ2nIcbevcSL4lk0vEMyrxzQ6KxAQlEhf05yxnu9brT0JIEg63DVnSE+4fTajfuZZ/jSNb87de73K88DAOt40w/0jiQ5LOuWGICqzDw91e4kRxGiX2AgIMQSSENEJ/nvhuW+dGwsxRhPlF1ZrgicPhwOVyUbdu3eoeyqWxWHzfnZCQK7I5TZhrVBs7d+7E4/EwefJkbrzxRq075R/AcTwdx/FjSGZ/UFWcO3/Fm5VFwIhRmG7sgag3oHrcF1238jRfEVo/NxNFAHw2YOh0oCrYt22h7JuZuA8eRjAYEMz+eIpLKd+7VxPmGhq1ieho3/c+O7u6R3LVSAxtRGJooyrdh15noEF48mWXM8l+NL2Mi4ooStQLa/K7y8iSnobhNTiy/Bc4efIkAEFBQZdZshopLITycqhf/4psThPmGtWCqqokJCTw0ksvYTLVjsrxq4Hbq+BQwSz4CpZEox/enFxKP/4IV1oKAcNHIcXGoTqcCKqX82NB58bJz48TiQhGPd7SEizfL8SyaDFKaTmiyeTrYKeqlHsVBKeD68O0SkPjOiEhwZfOsmMHjB5d3aPR0KgkMzOTiIiI6h7G73P0qE+cX6F0G02Ya1QLgiAQGxsLaC4ffwYRsHk8OF0ugmQ9OgSQ9eDxYF2+HPeJkwTccSfGNm1AEcDjPXcDakVR0NmvtwpIIoJexpWWRvm3X+PYsglVURGNRkRBQBWgwOXipLWcxl7P1TtgDQ2NqicxEerWhQ0bwOkEQ+3JT9a4tsnKyiI+Pr66h/H7rF/vu6ZeIWFeO5KQNK5NKtxBTovyP+0W8pd3e+0aSQmAUQSPx0u2w4HN7Ub0ekCSEGQ9rgP7KHnvTcoXzkdxOBEMBk5HxlVV9UXMT4vyiswVDHoEQcC2ZjUlb/4H56afEUUJSTYgeL043W5O2Gwct5Th9XqQa1W9v4aGBjod9O4Nv/0GaWnVPRqN/4Vr9/J2UXJycoiJianuYVwaVYXFi6FpU0i+fNrSH0ET5hrVhyDgdDopKirGUdGh8kqjqiqqqmKxWCktLcPr9V5+pRqNiqBCoCgiK16yDQaKAwJRXS5EAQSDHqW4hPKvv6b4w/dxHj+GYNBXinEV9cx5WxAQ9Aa8BQWUzviU0o8+xHv8JIJejypKKG4XjqAgMoKDyLdZ0KkKOm1mQ0OjdtK/v8+L+aefqnsk1zbqRX89B7u1nNKSUhxu3xJnB4vKSkspLSs7s42KpzxOG2WlpVjtp2uIzqxTXlpGaUkprguzF69p7HY7Ho+nZnf83L8fDh+GAQPgCqXlasJc45IoHhu2Y+uwn9yMqlz59AWXy8Wrb77HbaPu4bU33sXpupyF359HEARSUo9w/8NPMOqecfywYvW1nTZTYaiiqhDoVQmum0jpiJHkJTXC4/UiehUEnR5UsG1YR/Frr2D/eQNIEshyRaW/iioKYJBx7dtLyZRXsS9aiGB3+tJiFAWP24mlfj3Ehydgbt8e2eNGqk1nfA0NjXO58UZo1gw+/fS6cGepMgTY/tNSvvlm5UWEucq6BZ/QqkUySY2S6NilDz8eyPJdk5xlvPX0fdRrkETDevW4/+n3KK/oWXNg83f07NKShg2TaNLiRhZs3A8IeO1FvP33+2nUoD5JjZLo2mMw61Lzrv4xVxGZmZkYDAZCrpDbSZUwYwYoCtx55xXbpCbMNS6OqlC2eyb5q/5G3sonsab+cMV34XS5SU07ypGjR0lPP4bHUzW5y8UlJRxOSeXI0XSyK1r7XuuogKIoBOkN1GndBveIUWR3uRGb3ggeN4ggyno8J05S/OG7lHz9Bd6SYgS9HkHWo7pcWJcsonjKf3Dt3YOg0yPoJPC4cYoCtpt6YH78KcJu6IpOFM8N/Wj6XEOj9qHXw2OPwYEDMGtWdY+mRqNe8g8f82d9wpK1+y4QWOWndjBp0lO0v/1pli1fTguxiEcnPYUb2LL4A175aDVTpi/km0/fY+5//85HC34GTwn/GP8wYt2RLFu+jOF9Y3jorocodSqs/PJ9/vbWHF6ZMZNl339HeM4Bxj7+NEW1pAzo5MmTNduNJTUVpk6FW26Bli2v2Ga14s/rHFVVOWUtAhUSAsLOPO514czdC6ovCus6ugqS+lOmGrC4nIQZ9Bgkgf9FpQmCgCzr0Ov16OSqy1wWRRG9LOPR62t2S98/gC9grqKi+H4qKoEGE3GJiWQa+pIdHU3wlp8JysxEEkVUgwHFaqN8zre401IJuOtexIBArHNnY1v7I6qiIBqN4FXwOpzYIiLxDhxESI9e+AUEILjdlQWjtSx1UUND43zuuAPefBNeeglGjoTg4Ooe0VXFYy3mi+kzsbgtrP9pA25dCPc//AwjBrYFFJbOm8GMrxaSU2ql+6C7+L/JDxKmL2PmpzPIyM1n/U9baNG4KVu27STLlcnsVd3omwT/ef87Jr/yCgGWImxeD6MG9aRD++bcNrIfa6ZtwAIsm7uCtiMf4YGhNwI38vL8mUz/agUT+zWguNBF946D6dChAwG2m5k26xVyyux4jGaeevk1Hhg8EIDHx9/NqP+uJM8FobVA3eXl5REXF1fdw7g0L78Mbjc8/bRvVvoKUQveOo3/hfWZKXx6YB0excujLW+mR1xjAASdkcDoZNyZv1CmSKRmHKPwtx2cNNQn31JKm/AghtWLRi9p4dPqQDi7oFNVCPAzERcRTlbLVhRHRODctpXQfXswuJwgy4iCgGP7dry5uQgGI54jR0DnKxgV3G6cKNhatUIedBuhzZqjB1S3C6GivbDK2eJce881NGolwcEwZYpPlE+ZAq+9Vt0juqqIDiffvvoi29UY3n7nX+Ru+YbRo4YQ9utm2DeHoXf/k4ee/hfD4vX8+5nJ7DtazPdTxzHvs9dZ9pvMnSN6EhMTSmx0DHZLXRKiQ/A4jnEq4wROl4v4xt3p17s7kx5/kO39OvH19GmMmvQJIXjYW1hO+55nihzb3NyK0tcPoQ+KZvSEPrzy0TgcRQP46dtP6DLwH9QPNdP4vqcZcnoFTyFfLZtL3aQexBur5eW7oqiqSl5eHq1ataruoVycn37yzSyNG+dLA1NVuEJpspowv45RUVl76gApRb6mEovTd9AjLgkQKfdCqrEpO8v8OGpxkecqRjFsw9gwEo/HzaacYrpGhxDv//vFDsdPnORw6hGsViv+/v4kxNehQb266PXy766XV1BASsoRCgoLkUSJuLgYmic3xWC4eEfQrJxcUtOOUFRUjE6WSYyvQ9PGjS67n4KiInbt3kvrls2JjKj5DY4E1fef0z+FirQWVcXfbCZG8ZKjKNj69scVG0PIzxsJKCpE1OkRjEY8GRm+CLgsI4oiqtOJ1WTC1bM35n4D8AsLR/J6QBRBEDkzJ6LFyzU0rgtGjPDly77+OrRvD8OHV/eIrh6qgj4kmmee/y8T7u4Dd9/C3oPtWbD4B6Sty+g/9gWmvvIMAI1CJYZM+oSDGUMwmoIZ+7en+OLV8QC88mQ6Ie4b6dqqCQx820QAACAASURBVNCE+QsHAGDNOU5xRh6C10xObgmyTseJ8lIsbjeC4EVVz3RudqkCoqsEu83KyZPFeAQnBSXlKFIALnsOxS4XkaaK66GniAn3jGBZioMlPzyPuRYkKdvtdlwuF2FhYZdf+Gpz6hSMHw916sC//+177ArWrmnC/DpGQCDaHIS/3oiASlpBNkuPpeMhiENlNnJLgsh3ReGxn0BCRS5Kw+sqxysaqWM2EKS/9MfH7XYz89u5zFuwhLyCApxOF7KsIzQkhIYN6nHPmDvo2L7tOYWYkiSRl1/A3AWLWbNuA9nZOdhsdkRJJDAggJbNm/HYhAdIbtq4cp1yi4WZ385j+crV5OXn43A4EQWRoKBAkps05qmJj6C/hJgvLCrm5f+8yZp162nXpjWvvfQCderEXrkXuIoQFBAVFVU9XbF/prLf3z+ASFUlv0DB1bo9pVGxuDasI+jwIWSdiCjrQQDBq+B1OLAm1kW95VaC23dAL8u+1JWLnGBOR+gF346u2rFqaGhUA2++CZs2wYQJ0KSJryj0OkBR3PiFRHBDm9PXmAA61m/EjmMFGL1m2nVrX7lsg1btCTYbOF7iRBRlGtWNqnzO7nDh9lgv2P7K+dNYnu5m3a9raB1l4uhPXWg16EW2DL+ZqKAwzp6N1CteJP8o9q+fz1ff7+TrVZvp174x+ftG0vGmW3hn3r28fm977PlHGXfXcJbtczJ7yQr6tK/BqR9/gtzcXPR6PaGhodU9lHNxOuGhhyA9HZYs8XXNvcLUgvsqjT/L2bqqSXA8qk2hOKucY0eymbZ9J2syCzhZWo5bF4gcmgSKFwUJg+UkTeRSRiXFMq5JPIF6+ZIabeWPP/Hhx9PJyMxEFARioiIJ8PcnOzuHNT9tICUlDVl3JidLAHSyjv0HDvLfj6ezb98B3G434eGhGA0GioqK+Gn9Bl585TVOnsoAwGqz8dqb7zH14+mkHz2GzWojwN8fg0FPTk4um7Zso7ikFJ105gbitObMycvj7y++wuo1P+H1eAkLDcHP79roQFqZX64qoKoXvAeBgYFERURg0umQEhJwjridwj43Y9cbENwuX+qKACWduyI9+DAhN3RBlkQUt9sn2sUKES6cjpdrqSsaGtcVsbG+afrychgzxtfV8DpAECQc1nLSTp0+Xju7jp0iql44foqDvXtSKpfNOXGQMmcZMWYBRQG3+0zFpar4iu/Pp6S8BL/IWOpF+a41Ddq0JFh2U27xUD/czOatxyuXXb9kG5Ft2oJiA1MwSQ2SAIho2pT4EIm8fA9KeTbjhw1kZ2EiG37Zya03NDk9giv7wlQDGRkZBAYGotPVsPjxs8/CihXw4oswZMjll/8L1LAj1rgaCAIcK7exNa+UA3ku7CUS1mI7CCoFRZnUiW4KgoQgSoTFtiIwfwNJRi8N/IppHJxLSJzPuuhSHTsVReHnzVtx2O2Ehoby8Pj76dunJ6WlZezes5cTpzK4dWA/3G5vpX+rCng8Htq3bcPwoYPxeDwMvmUA8XViKSoqZu6Cxaz4cS0HDx1mzU8buP/eMXy/bBXLV/6IJIkk1ktkzOiRtEhOxu5wsG3HTgyyng7t2rBj12+VYzMYDGRm5fD8S/9hy9Zf0Bv03NK/L08/+TihNdmSqZKzTrjC6Ui2cMEiAQH+CKJIYWERqr8/6s19Ka5TB9ea1Yg2O+6b+xFwUw+MZpOvQRG+ItnK7QqnxfkZ73NNnmtoXEd06wbffutLZRkxAubNg5reGv1/RNTp0ZXl8eJTk6lr/CdH137Dip05LJ0yCHdcLsMffp43kqLpWE/iHw9OIrr5gzSPj8RSXobrrB4ZouDhx02L2JoyhAbSEe7/+1ze/2gqffsP4IV/j+GRp9/hwVvaMf/t+ygLbkaLNo1JZihv3fp3XvugNQ0CjvLKxt/4bN7HtL3BnwjvCzz42EReeHAE6z7+kC15kbw6rBGz3nucWZtSue/psexbO4efy8qQIuoxatgQwq7x5q0FBQWEh9ew9NJ//hPeew8efdT3exWhCfPrEKvby7wj2RwusWCS9YQERlFcko2AgMVaiOy10DK2LvWDzCQ17oXgXIJUfARVVVBzdqE2G44g6i/pBy4IApIoVTb3cbldGA0GopIa0CipQeVyFuu5Xrlej5fAwAD+86/nfF7dAjgdThIT4gkI8GfH7t84duwEGZlZ2B121m/4uSIHLZT/e/IJunfrUrmtDu3aVP6uKL68Pb0sczj1CBs3bWXbL78SEODPwP79ePKJCQQHBV3yRqMmcqZR0MUjI6oK/mYzggDFRcV4FS/GVq1R4uMRFYHg+nWRBRG8SuUWRFFEFMQzaSsXTWlRtWk2DY3rhWHDYM4cX855nz4wcybU1GK8K4Dq9aIPjyY5TOKliQ/iMETx3y9n0r1TArR/ivdynbz79nNMR6FN9/G8/vLLGP28NGnVmYTYM2mQt424mx+3PsdH3yzl5TvqY83OwOly0qDtYObO+pC/v/Ye9y+cSmz95iyZ+xGNQmXoeS/vT8nk1anP4vIY+ce/P+Puga2Qgdnffcszf3+RceNWEBicyOffL6db/VB+KSwnuXkLdq2czbalHrxuJyEdb+WWYUOogZnZf4r8/Hw6depU3cPwUVoKf/sbfPYZPPIIvP++rw6ritCE+XWIV1WxeTwoFS3aw0JiyCo4jKQX0ftJtI6AsY1jOW24UhLXmtKiFNDpcJak4Ck7jkg8zqMZyHFhyNGh50RUBUGgT6+b2LBpMwUFhXz40acsX7mGls2T6dihLV1v6ERgYMAF4xIE3wc9/dgJlq5Yxb79BygrtxISHOgrzFRBlERUVSU7J5ecvDxUVaFJoyQ6dWj3u8csCAKSJLFm7XocDgd6vUxUZCQPjB1DcIVP6rUgylXO7hKnVmaaXCyiraoqZj8zqFBaWopekDDVq48g6lDdLlTBd8NyOlIuICCIwrmvg3BFa1o0NDSuNUaNAj8/uPtu6NEDPv7YZ6tYC1G9Hsqcbh588QPGdE5CFeXK6yBSIPf93+vcM/nfKKqKLJ82FlB55/PZCIJQGeTo0Hs423YOwaMI6CSRNRv6I4q+E/WNQ8ey6bZ7cLu9yPoz21BFA3c9/hKjH34eRRWRZV+qp6qqJHccwNK1/XG7PUg6GV+2ocrktxcz8excRlVFlCRE8dqe43Q4HNjt9prRWOjgQd9nf9cuXxrLq69W+UVRE+bXIYF6iYGJUWzKLiLMaCA2oRUzpGNk2IpAhFO2HFTVA4Lv42Fq0ouytO/xlnooS8/B+esXiOkBOFKOY2gaT8zrD6CvH3POPnr1uAm3x8u8hYvZf+AQO3f/xs5du1m8dBldO3fkmScnEhMddc46OlnHwYOHefafr7D/wEFEUSQiPIzMTJHycgt6vYxOp0MUBZwOJx63BxUICAw4J4/8UiiKgsvtxu3x+ApN8/JZunwVDz94H6JwjcSBVSpnIlRVrXRnudRpQlEUAgL8MZvN2Gw2FLcHQVQQBeGsdBXBd/xn6/HTz1XGz33R8mv3VK+hofGXufVWWLvW14Bo9GjYsgUmToQGDS6/7jWEVycRGhODpAqI0sUdvSSdjnMdq4WLBk9FSYdeOrPMuauIyPqzVzpznpV08jnbPxMoEc66GajYryTVyhnM/Px8JEmq3lSWsjJfKtcLL/g6e371Fdxzz1XZtSbMr0sEOkUG0zosAIMogiCwt6g+6Sn56AWJg2V5nFRs1BcD8eSX4djlpHSNkfLUXDxFKrJ1HYFqPAIC7sx8rBv2XSDMBUGg/8296HFTVw4cPMzuPXtZ+9MGDqWkseanDUSGR/DUxEcrCzskUcRht/PN3AXs23+AhDp1uO/eMXS9oSOSJHEoJY133p9KaVkZXkUhODgYs9kPAYGMjEwsFgvBwb/fIUxVFARJ4tZb+nPs2Al279nLzFlzSUxIYNCAm6vs1a4qVPXs6Pn5z/mEuyzLGI1GJElCp5MpLy9DURSfVaKqIooiwmmRfgnVfW7TTy2ErqFxXdKuHaxZ47OHe/ttn1CZMAEefhjq1q3u0V0RdMERvDX9MwIjYi6/sEaVkZubi9FoxM/P7+rv3GLxpW+9/TYcPgwDBvhciq6iM1FtvNnS+IMYJKlSZHWMS8Jk9kOUdeTl5vPr3BUUvvQtGfdMIefxL7Bt8OLMVlBcAh69C0XwgMuLoXE8xlb1Lth2WXk5Bw6lIADt2rTigbF3M/W9N6lfry6CIJB65CjFJSWVnThFUaTcaiX92HFEUaRjh3aMvWs0SQ0bUL9eXerExeD2eBAEAY/HQ0R4GI0bNQQBjqYfY/b8hbjd7sr9W6zWSvcWEFBVcLrd3NyrJ//553M89cQjhIWGUlxSzEfTPuPAwcPApYXutcTpYzAYjJhMJkRRQlXBaDRWVrkrilIZKZdEqTKF5fz/pzkTLddEuYbGdYvZ7Gs6tHUr9OsHb7wBrVvD2LHw/fdw5Eh1j/B/QpRk4usmEmS+uMWuxtWhoLSUkJireHOUnw8//wz/+IfPu3/8eDAYYPZs+OGHq24XqkXMNQBItpuIPlDKyb1HUU6UsC1/C8nlgegRUCQJPX7Y1Yp0B70NuWUY4b1uwb9vW4zNEs/ZlqqqfDN7Pl9+8y0tkpNp1bI5UVERZGfnUlhUBEBoSDB+Jr/KwkxFVTEa9D5nFBVSUtNYsXoNMdHRHDh0mDnzF1FS6rM+9Hq96HQ6ht82mM1bfyEnJ48ZM2eRmnaU1i1b4HQ6+WXHLjIzs3jztZcxGvWVpZJNGjdEp9PRqWN7Hho3lnc//Jj0Y8d454OPeO3lF4iMrPmuA+fmmZ/1eMVjgiBgNBqRK+26zuQbGgxGBEHAYrH4xLkonOfCclqQn46in0li9z1X5YenoaFR02nXzufSsnmzL+d8yRJfBF2vh549fe4t0dEQF+drwhIWVmHxdO0HPjSqkIoLTM7mzTSOioKNG+Est5v/GVH0WYBmZkJGBmRlQUkJbNvm+12SoGNHn1XoyJEg/36DwqpCE+bXOa70bIq/Wo1z4wEaZhwk3VOIThJJRyZfMhPv1aEKAn4RcRBuRYwuwxgvEtItgvD+Qy+6Ta/XS05uHg6Hk583b2Xj5i2+KK1XQZIkYqKjGTpkEEFBAdjtdpxOJ06nE7PZn8GDBrJ7z15S047w7AsvYzQYsFhshIeHYjb5kV2Wg9vjQVEUWrdszpNPPMoHH00jMzOLH1b47BNV1edZYjabSTtylPr1E3G53LhcLtwuV+U4R48aTuqRoyz67gfWb9zEN3Pm8+QTj1ytl/4v4fMv991m+PxUKn6ruOBJkoTRYESn01UK+POLWvV6A/4BAvbzXHHORhCoyEM/Nw9SQ0NDo5KuXX3/c3J8kcXffoMNG3zRR9ulzy8aGpfCI4pYGjUiPCvLl+ddlej1EBkJN93ku9ns08fnOlTNEShNmF/HqIpK4dTvKZqxEqPBQDODzHqdCF7IlzykR5tIbtqS/2fvvoPkPu87z7+f5xe6e3p6eiImIQciEGAAoyhSDJJIKlD2OeyuZctraSXZXu95z1u6PdtV62WVr8p7t3Vrn+07n+2V1/aWJa8VbIuiFSiJkiiRYgYziDSIk1PnX3qe5/7oAUiQoEgEYobk91U1RWAw3fPtH8CqTz/z/X2/4Y07KVy1icbc39A4eg9K+aQLz5DVTuCXXr1lzPd9/udf/STXXb2bRx5/kqNHj1Gt1fCDgA1r13LXh+/g3ddfR5pm7L7iMtI05YrLd+FpjzvefytaO+659xucGJ9Ea81lO3fw3ltv4tv3f59nn9/Lzh3bT4XND3/gdjasX8u9X/sme1/cT7VWx/c91qwZ5ZYb3817b7uZ8fEJbrz+OurNBhte1guZz+X41U99nFYU4axl9+WXXbRrf85eWvf5ss+1/xMEAblcHk/rU33hrzVpJgxCVFERRa3TTtpf+ljqPefkzaHtXzvncNae8TmFEO9QQ0PwyU+2f91qQaPRPpGcmGifUEpIF2+EUiw0m5gDB1h16aVvzkjCMIRSqf1TnA0b2u1ZXV0X/vucBwnm72TOYVsJLjNkXspGz2ewv4uJtUXSNV0cfvcNDHzkF/AK+faXj91AY+xesqiKCnpxJnuNp3UM9PfzoQ/czgfvfD/1eoNmq4Uf+HR3lfG89v9sQeDz6//608RJSi4MCIL2P8fb33sbt9x0I5VqDc/z6Okuo5Ti6qt2k8QJhUL+tMB56fZtXLp920vfx/favdRL/esb1q3lv/yfv4u1jnw+f1qta9es5j/97u/geR7BStswdga6WAQUtGJ0luLS9k8A8vk8od/+sZt17uRmoNO9fOqK49Qd/kkSn2opUi/rJFdu6QHG4NIUi8Iag1d69ahLIYQAoFBof/T3t/vPhTgLU8eOEdx3H12f+MRyl7JsVn4SEW8a5Wl6f+XD7WklxjB0yxVc0XGM8eQI+ULA3s6MSZ0wSjvMFkZvpHv3J2ideJTOrXfhl9eccYD2aTcNKkWp1Emp1HnGGsIwJAxffaNNGIYM9J++IiEXhuTO8LUndXYW6ewsvvp1ak2hUHjNx+Vzb50VaZ27Lqf84buoPfAAJDEUioT5HJ7nYUz2429ePUNQV6rd/mJtux3GOINC4ZTDOtf+iV4+h+rqQvkB/bt2sebOD72ZL1EIIcQ71OzBg5TD8B3dOKncBRxD8VbanCheYlPTPiENPL45+QK/84MvYjNDzg/509t+iR29L200c4BLW+jgtYOueHM453BKkdSqRMeO47IEr7NIODSKU+o1Q/kbmaZi3entKS8ty1DEM5Ok83Pg+RRHRin2DyzdDHoBXpQQQgix5HOf+xxDQ0Pcdttty13KspETc4EOXlpncHX3Wt6/+lIemzrEe0a3s670slPrpTCmJJQvC7XUnpIvdZHfseOifd/iug2w7qWRmPIGXAghxIXmnGNhYYHLL798uUtZVhLMxSnOOXrzRf633R9kOqox3NFNwQ/aNxv+mAU04uJZCXlYQrkQQogLrdFoEMcxQ0NDy13KspJgLk5RS+0QnWGeznDphk85HRVCCCHEm2xiYgKtNb29vctdyrKSzZ/iNK8M4RLKhRBCCPFmm56eplQqveNzhwRzIYQQQgixrI4fP87q1auXu4xlJ8FcCCGEEEIsG+cck5OTDA8PL3cpy06CuRBCCCGEWDZRFBFFESMjI6//xW9zEsyFEEIIIcSymZycxPd9+vv7l7uUZSfBXAghhBBCLJsjR45QKpWWu4wVQYK5EEIIIYRYNlNTU6xdu3a5y1gRJJgLIYQQQohl4ZxjfHxcJrIskWAuhBBCCCGWRbPZpNFoMDg4uNylrAgSzIUQQgghxLKYmZkhn8/LjZ9LJJgLIYQQQohlMTY2Rrlcfsdv/DxJgrkQQgghhFgWJ06cYHR0dLnLWDEkmAshhBBCiGUxPz/Pxo0bl7uMFUOCuRBCCCGEuOhqtRqNRoOBgYHlLmXFkGAuhBBCCCEuutnZWXK5HN3d3ctdyoohwVwIIYQQQlx0x44do7+/H8/zlruUFUOCuRBCCCGEuOgmJiZkTOIrSDAXQgghhBAX3eLiomz8fAUJ5kIIIYQQ4qKq1+s0Gg2GhoaWu5QVRYK5EEIIIYS4qObn5/E8j1KptNylrCgSzIUQQgghxEU1Pj5Od3c3hUJhuUtZUSSYCyGEEEKIi2pqaoqenp7lLmPFkWAuhBBCCCEuqvn5eQYHB5e7jBVHgrkQQgghhLhooiiiVqsxMjKy3KWsOBLMhRBCCCHERVOpVAAol8vLXMnKI8FcCCGEEEJcNBMTE+TzeZnIcgYSzIUQQgghxEUzNTVFd3c3SqnlLmXFkWAuhBBCCCEumvn5eVatWrXcZaxIEsyFEEIIIcRFkaYpc3NzcuPna/CXuwAhhBBCCNHmnDv7B52pJeRcnudNppSi0WiQZRl9fX3Ay1/va7W1vDmv45zaaJx73WrOtz1HuXP6F3BmzjnpFxJCCCGEOAfOOay1bzyLKkDpdjA/Gb9OPtZZsCsvnGcmY3Fhkb6+vpdlRtX+OPn7U6/FtV/Hm8Dz2tfNGcPUTJXjszUW45TMge/7dJU76O4q0J/z6e0IQWuctdjXuaZKKbR37g0pEsyFEEIIIVYA5xzWvIEgqhR4GgeYKMZFLWyWggWlFSqXQ+cL6MBvZ9zMtAP7CohoJ4OryQzOtcOxwuJcE0wV0kWwGU51onKD4BdR1lyQ2h0OT2uU1iwu1njwiQM8sPc480GOQl+ZvnInfcUced8n31nA5AIq9Qg7PsdVQyWu2DJCsSPEZuY13ztJMBdCCCGEeBt43WC+FMhNlhGNjZHsewFzaB/MzeKiZvt0WXnYfBE9PEq4dQe5rdsJh4fwAJeZi/ZaXs5Tqn1Xo3XgwDgPq0CpFthxVOtZqDyDqxxGRTWccWA9rF4LG38Jr2872HOr3TlQngfW4vkanONr332CP/+7BxjLcmy//RquuW4rlw+VWB1CjvZ7AOOgmTnG45R/evIwRx56kiv7Stxx/eVcvX0UrcGYV5/oSzAXQgghhHgbeM1g7hwEPhZo7t1L4xtfwzzxKMzP4HuAH6C0AhxkFhNn2CTFaB+1dj25295H6f3vJ9/fD8aCtWfuS7+QrwXwlQLliKOUqVbGVKKoZpYur8qWzuOUzFMw8zje/GHIfChsIs5vwOWGQDnU5B5cYvGu+U10R1+77rPSfo1m8Shh/yiNpuH3/+zv+ZPPfw9vcDs3/vwdXPGebWzrhsEswtfe0mVRWByZdWRacTx2/OjhpwgOPsVoT561/Ru5aU0PA9u3Yy1Ya04d6J9vMJebP4UQQgghVioHKvBJkpSFL3+Z1pe+gJocxwtDdCGHVRplFc6ppZZsBcrDeQqVpNhnnqX+zPO0vnM/XZ/6FOVrr0ErhTvrkHt2fK2Io4Sn55o8F1vGdY5SR8SlnQcYNY/TMf0k3vg+mvWAp4JrORxcz67uy9i5bg14PqkFVv8E9pm/IJt8imDze1FnW7KncZUp+P5nObHuVv7DF/bxV3/3LcrDO9i8aRe+H2Dv/yq56nM0b3gfatPleMYC7V7yzEETaMYG2zXMgXSBjeoFSt5h/u6/TvK+m25k60/+LA7vnE/0X3XdLsizCCGEEEKIC8s5VOAT1evM/tH/Q/wPf492DlXIYQEXZ6iUpRtAaR9TW4ezFmeWPrwAnaRkP3yY2QOHST/zG/R96ANo9FKYvPAn556Gw7M1vjkfcbRQoDBQZEfuONd5jzFSexSOPwMT8xzr2MX3L/k59gRXM7eg+e7RRd69MMX/tL2XUrGA8Yq41Tdh5g7jZw516kW+QQrSvY+Qff0enpm9nx88l2f70CDD6/KE2QTb7v0qV47dQ/O6W6h86BN0ZuC7pVYWq6gbw1QrZbYWMTdXJ6WDh/b1sqV8jBt+Kse3Pvu3ePVxNv/8r2OUd0FuVJVgLoQQQgixAinPJ2k0mf79Pyb63OfxAg/yIS4xuMyitF0aaPKycO0czjqwdqlX22Izh/NC3NETzP/O/46z0H/XB9BOX9CxigrQCvZMVLmnlpEM9DDaCVfrp7nc/Yhw8gkY20+rkee5Nb/EnnU/w3zYR2fsIIiZ9zr5h/Eq+x88zievWMW6gTImKEKuh3YgP5tQrsA5Gs/vY+bZWdb31/mT3UU6SnU6uqaZnrHovS8Sjw7x4p2fplzsw2QZHZ5CAxGOscWEo9MVatWI6mxCdT5hRw+guthcPob76QG+99dfpvfy9fTu+ilMdv5vciSYCyGEEEKsNEqRKcf45/+W1n/773i+j/E1LjYobdvTV/TSiEHlwCkcrh207VLeNhZnaY/5yxzoADcxy/zv/T7B6Ag9uy/HZeYCnZk7tFLsmazyd3VDbnUfl+RavEs9xubkITi+B3f4GHP+Jp687NMcH7wRFJQyg/YcruBj+xRozZ7jVf7Ljyb4zA0ea1xMVuxHaX127SJK4TLD/Nwi6UBAR0+eNY2EZDbCzC1QrGd4Jc1isZtmrohSGuuFJMqhTEpsHSrn0dFVoNa0dI3myYI8931/jJs2LlAo5bmkr8r4VSVefOQrvGv79aBHzvvU3Lv77rvvPq9neAW5+VMIIYQQ4tycnMnhaY9nZ17gS1/7A0afmqFDBe3z4qUTcWfaLSs2SrGtGJcZXGqwcYKL0/YpeeqwmcWlSx8WlPaxE1MklRrFW27Ez+fP/9TcteeCj1dafG4+wY32sbVQ52b1EBta34fDj+PGxhkrXM2Dl3yG6c7L8Jot0iQjAVAajUJ5CuVrtO9zYC5jbmaRq/ti8uVhlN/B2Z2Ya2zcJHv+q5hjB2nNW+LEkaaQZYDnEXblyCZm6T74PKtPPEPx6QcYayQ0B9fRMo7YOWzgoYs5jBdgVI7JyYiZ517kzmtidJJR9gyUE3pWbUDnNy6NYz/3LCwn5kIIIYQQK4hGkSYp3zzwNb6zo87gFd3c8HgDhd/uFVEai4M4Jhzsp2P3ZQQb16MLBWxrkXRxH63Z57E2QXvhUqeLQ2mF1qBNCVd4kNbRBwl33nneJ+ZKQ5ZkfHO6QbW3zM58jZt5kNWNH+AO7cGNL/JM4VaOjP4rVvsjrLYR2ofpVsyLlYxjhQJ+Zwc5HCavScoB/cNd/PDgFFceD/iJkV7MG5nvfvpFxBx+FPPMg8QLlsyCcQoDWK3wQnBOoVFsPPYU6+pP0ywUeWAxYHHV1XRoSFJDaiBKoTbXYvrJF1DW8kJthBeefJrdOy2dXTn6+hNc8xiui6XpOOdOgrkQQgghxAqitObo4hhPTD+KKeV49N0+m/a3GGhYvMBDOYtLYkrX7Sb3K5/i0OhWxmNNhqIz0GwutxhJvkc09tfYZL49wcVX+J5C++D5BTxbo+G+QxLdRC7sAM6tBcMBnta8uFjjKRWytivhFvUgqxsP4A4+gTtR4fHinVTXfpJbRkfpCg2oEByMlvLsUHkzRAAAIABJREFUiDO+Pb7I00BQKpBz0FHwKHb5VMolvnJkkXdvjegrF7DmDZ6YK4UzGfGeb9E4MkWW5XFKYawjc6692ChTeFlG7/p+1t72Xlrd3Xx+T8YLndfSNZ/QUoq4lVA7MUPqfFJ8anMLtBbnmJ2NeGFfwtUjCfnBMtgmtjlP+2/g/KK1BHMhhBBCiBVmz+Qe5uI5Cr7P0U0Be3YXuem7VQJPEWYZHddcSfybv82XG93sfWweZ0y7hcJBIQy5ddsd3HJJD/6JPwRbQ/vtGd0K1T5BV3n81nNkjWPk8tvONZfjKTBpysOLGWGPz63+I2xoPYgbexp3vMqe/ruYHvwYt60ZpeAZjOO01plcPuB9I2XmTlQYL+TwtSbwFLmCT7Er5PCM4tmJCrd0n0Uri9bYuSPEB/eQxB725Em5A6favfk61ASdAb0jIc9O1viTFzZxqGMjPX1raFZT0lZEGqVUjk7QmJnG7x8iabUw81Ns7HU0GtCajPELKQ5FY/8BQvUinVsuPbcLebL083q0EEIIIYS4YLTWZGnG3vm9pDZFW7C+4pEbSxwb9EmiBNtdwv3Sv+Tz0wXuf+QItUqDOE5Jo4RWK+bE7AJ/88Bh7p+8mmD4AwSBanfALDWtOAvO+Xhmgaw+hj2PFnOlFJXYcdQ5bux4msvSh+Dw07hjC7w4ehdPrvkEu/oHKYSA0nje6R8oCDtyXNedxzVa+Jr2R+AR5D1MLscDB+axaYZ+o73bClxjhqy6gLE+Vqv2+w5P4ec88l0++Z6QXDlPT8nyYkuzx99KrneAuBWzOFtlbuwY008+QW38OK3ZKSrPP0lr4iiteovbr4i45eqA1PNIKzE2Uzz37SeZ2PPEebcFyYm5EEIIIcQKoZSi1qoy1ZzGUx4AfuKYHc3x8A2ddH3+OJ2Xv5tnBzbx4HfHCZUljh1ZmqFoB1BrLZVGxD8+PsWu229gbfBtXDIPyn/5N0KRYlpHsO58TmoVU82UTZ37uVE/iD7+DO7wNIf6bubRXf8atRAwValSbfm8fNm8cydHr7e3xs81IpQXorXC0w5PKzzfwws8DlYyotTQkffe+P2fBtKGJcssNtA4BV6oIacZX0xYPFJnJtfL1MJGJvt78TtTmjPzpybdmNjSmp8nqSxgrMGZDJNZolZMLquyfVNKa16hQkPSSHj0UJObdtfP+SqeJMFcCCGEEGIFaaYtmkm93ZqiFMqCn8Hz13Wx9sGAodVreG7BUqk2KRV8MtMOsrA0LdFZjDEcnlzg4MIQ6wr9kMyeen7n3KkpiyqZb887986xWKdQnGC3/xDds8/hxsbbi4N2/hvSsIxfjnk0yoPhZaHanepmcUuftN2ddORC2o0hS1MgVftmyoSAODN0qDe2YEgBWT2iNV3BKIV1Cnzw85qpSsbeF+sUbcz+4c18rnkbpfkCJbtIy/NxSmNQYC26ZwSNRzp5BGcynLHYNCGqNchaGSQJQYfH1JEmc7ki3etL53gRXyLBXAghhBBiBTHOYIx9WSu2w8sg7vJ44tYerurIUW0ktJIUX4PntfvLFQrnHNY50sySWks1clB4ddyzzuGcw1lzVlMIT6ewNOkL9pJbfB519ChzWT//tOvXWCiuppxlEAZ4+RDl2o006mSPuVKnvu3SwlIy47DGYZTCOIcxitRAbMGcZb+NqbWI52MyC2iH72nwFY16RjnUDHUWGFpdZaxnnqfYTK2ZgbIEZJR0jEHTMO03FDaOcDbDZg6TRPhZE9MKSSOL18hoLUa856ocq1f3n+uFPEWCuRBCCCHECuIrHx9/6W5Fd2qzp5/AsV2d7CWhj5Q4S/AT8LRamp390pKhKM0o5HKUwwhMA17W/by0FBNjFIb8ufexOINTJ+hye1ETx0gXLF/f8HPsL19Ob5rS8hReM8Y1EpRrj4EEd9obgZNn4NZB5iyxac8Zd40Mr9qiENfp0imB53E27yB09ypsZz/R8RP4pQLe0vUp5TS5kk+502OoWOW38l/jC83L2ZsN0aVidodH2N2zgLdmiK9XNvP3P8rI0gyyiFZk2DZQ5+r+BsQJ2ma0ZjPKJmJ3VwdebhR32pU+exLMhRBCCCFWCgedYSedfhemaXEB7aU1dum0uRDyWGmSm/MpRe2oNGoUc2F7mPjSEzjrWGy0uHRNL5d0HcU1Zk7/c+fAOEwKzluFPsvZ2+5k+lR1lD2OWjxAODXPA8X38f3y7RSSlJZvscqje6HBu6yjmA+wznIqub4iYzvVbjp3GpwPNlTYrgLZmhwdgaYjF7zhcYnOOsJ1m/FWb6Px3EFyYZ6go113b3cAztHZ4dGoQree5n/pfoCKypMjpWRb+AspVTPBVZ0tvuFto2rAtRpEUcbtWyrc0B9jWgbbMkRzCcl0C7d2A7q87qyu45lIMBdCCCGEWCGss5QKJUY7hnlizkIO0Et3SqLwnc+h5hGu6H2Wn7pyG3/27edZaEHg+2itsNbRihPW9vXwsetLDJov4bJ6e3b4Uke3Q2GNJU1DVMdatObsxiUqgAyoQGsf/sxRjsSDfLH3I1SzEB3FeKEHnqZpFeu6Cgx0F176HsqBe9mbAeVOe+PAqekr6tTnTGbe+Hm5c/idJQpbLqX5j18lqScEeYUKFbmiT86HcKl15rm9LTqKEcP9Pql2nEgcD1W7+WK0jePBKIk2mLhF3GhRDiOuHaijWhlZSxHPJcQzMemipvTem/E6utpH/+exZEiCuRBCCCHECuGcQ/uaXQO7+OaR+zCpwQ89nAblHAqFMYZvT32Du7aW+HX/Eu55ZIzxhTrGWvKhzzWbB/nQu1ezNvdVaDyGW5rG4pa6SFwGJk6I1AYKXRvQnG2buQJSlK2gFvahqzEPeu/lmeY6eusNmn6A0oogc9SLeZ6tR9xaymGVap+2O059R0U7xz4/Mc9YMwGlyVJDlmYkkSGOYm7esor1q7qxZ9FnroDu62/A6+xmYb6KVYp+D7Sn0B0+4ChoxQYN334x495jPkm+yBHdz3PBBmp+L36SorJJ4tiS0sW719S5dtCQWmAhIZpNSBZjpqdzlIM1nHx/I60sQgghhBBvIztHdzHy9CiHWwfxdAf4CjwHFjznMd9a5Isn/oYb176bX1m3g8biGpJU0Vl0pLl5ji3+d67VjxOUNKnT4NqTUJx1ZAm06ilp39X0lkZOG2P4xliUcpBOYKcPoL119G94L/ZQk1o+hw7B9z1i38Mv5Hg4ihicqbJjoAu0OnVTa3shkmX/TJV7GxnV7m5amaNSSViYbTB9vElucYbr1vWgtAZr3lh5Sze29lx+JavefRMnvvhlWvh4gSYIdbunvsPD+Yr+oRxXFIs8dqCbJxoDHMtWQdxCNx4ljqsQ19i2usSWdb18endMuTtHdbwBqcFUUg4chwPVPnZ0lZe+91leyleQYC6EEEIIsYJYaxnuGeKWtTfz2acPYAKDxgPUqY4PX/k00xb/dOLr9BUeYTDfT5DzWazVGRsb5+f7FrmkFJK69jZQ58AZh0kgaUTUsmEKI+8nCENwbzDwnmJwWKgfxy0uknTfxrt27ODK6SP8YKaOn1f4OZ8w9AmNpdXTxVfmqkxNLrKtmKPT93BAIzPsr0U8nDmiwT6UU6TGEKcZUeLRbGb8xJZetq7uw5qzq9EZS1DsZMsv/kv2f+8BJmbmcTOKQsGja+lI2+U1Fs0lpYzfu3KOH83U+PKxRQ4ttIjsYUpFxyXrfT6xy7C5q0LXYCfVCYjmU1TmmJq0fG+hzO0/dSU9Oy/B2Pbtt+dzZi7BXAghhBBiBbE4PM/jfdvfy0OHH+LpyjN0lUvtaSqcHECu8LSH53wWW1XmmvMYa2k2YXcH/ORIDovD2qXZ5taRxZC1Mpo1sKMfpjx8KfqsmstP0jiXomtHMFGIKe+gs1jgFy7t46nvHmV+xifIBwSBj+9p/JxPMtDND6OYpxstys7hcFScol4oQKFAmjmqsaFaSagtJkxON9gQRPyLqzajlYexZ1+ntY7h99zMzo/+HLN/8IfMVmKCCcUmL0+HA5c5/ByYEMJA8a7eFteUj7OYOCLTSU9O0RW2b5TVRtM40SKxoMsh6XRE3OVx57Ud3PzPb8d5JcjMy/rjz4139913331ez/AK6jwLEkIIIYR4p3LOndqI2d3ZTbffzROH9lBNqgSef3rO0u2QrrXG1wHKeuTw+ORQxs6SJTYKa8Fm7VCetgyNSkSjcAO9V/4ypXI3uLMLvCdvHsVUUVP3YqoONvw0XrGP0e48Ok74/tgixmu3juBr0BqlQOcC0s481Y48tY4CSUcB64fEKVQTS7WWsjgfM3GiQWFxht++aYid6wYwb3AayxkuJp7v0XPpTirPPsPE3heppAqbQSHQaNVu7XEWjHFkmUMZKCro8kBljnrFEqftr7EowqE8fqjJ5xNWby5wyXs/jt7ws6d+6KCUam8PPUcSzIUQQgghVoiT/d5uaWf96t5RiqrIU4efpRY18FW7pYWTN1E6Ba69WChK4MZixkf7UmyqyFLIYkcSOeKmpbEYUwuuoHz1v2VgeCPqrFtYligFpoaauQ/XUrDmA+h8GeVgx2AntFo8drRK0yo8T7dP7mkvCTIWjIXMQpI5WomlFhsqtYSFmZiJIxX6avP81g2D3LJjdCmUn0e2dBCUSgQbN7LwwgvUjx+nlkAcOwIFoafwVPs6Kts+9E4TR5pa0hQUilxeE+Y9wqKPpyyuEZF09JBd8UsUrvhFvCB36g2OBHMhhBBCiLeJk8G8fWMkeJ7H5sFN9If97D26j9naHMpplFVgQRlQ1pFkUHaWX+6JGXSORuRII0ccOaJqSnUho1m6kd5r/x2r1mxvB0zaU17OskKU0u1QX3kE6pO4nuvR5SGcdQSBz+7V3azSjheOzjNRSTFOkTlIrSPOHFFmaSaWVmypNjLmFxOmxhtUj85yTdjiN29azfWXDNJeSnr2Fb6qYmPJOjpIRkZIZmdg/BhxnFFtWEzq8JcCuq8VgafI5RSFnKaQV+RzisDXKByNhmXiRELV9TNz1cfo2HUnPT3dS8uLOPX3JsFcCCGEEOJt4LQJKQosFs/3uWRkC9v7t7KwUOHE7CTNZgubGmzmsIkjji13hjE3Bxn1piNuWFr1lEbFUE/6cet+mqF3/SqDI+vxnMVizynyqpPbgXQel1bQMz+EuIkrb0V5eWzWwksX2dFZ5dpyTJho5hdSFmsx1UZKtR5TqSZUqxHVxZj6bAOmK2xK6nxiSye/8q41jK7qOdW+cqFSpXYOkwtZ7O9nvtUinJ8hjBNakaXZsmSRxaUWZxwuAVJDmhiSxGKMYSbTPDJfZC7rJLrsVvquvpm1o8MUOwqnZd/zDebKnf2MnNfknJNgLoQQQghxDpxzWHN6z7fDLe3f0WitqSwu8oMXfsR3Xvgu+2b2M9uapekyNgSOz/SmrNKKyDgyOrCFEfyBKyhf8n4G1u2kIxfibMb5x12Hw8NlVdzYF3BHv4/zuqFrMwQlyHVD13ry/ZsgKDJZafD8VI39lZi51JFZh1LtXu7VHT7bBwpsHuiiUMiDtRfiHsozVtxoNDh85CiP7dnD4R89SO7Zp+idHKcQtfA17Q2j+fZpuZ/TkNN4RYUpBcwVupntWI3eeBXrrn4PO7ZcQk9PN753+hwVpRTa069RxeuTYC6EEEIIsQKcFsxdO0w62jO53dJynfaGT496rc7YxGEOTB5ibP4EQ1mFnUGG0SFeRz+5nrV0Dm6m3LeaQsFHWYdz59q+csZqccpvT3ypjGGqJ7BOQaEPvzSKly+iUSjl2ptFlVoaD+PA2vbvlaLd4K3AOsxZLBA6G3ZpoovDEccxc3NzHDx6lIMHD1I/uI/gyEGSyiJBFNEV1zGBT6vchS7modyF6xkkN7iWVeu3smnTZkaHB+nsKJ4x80owF0IIIYR4G3h5MD8VyJ3DWkuSJEStiCRJyOVz9PX2vRQALWRZRubAOkcQBgQn/8g63DmMGnyj9aIUTnvtmznjlKjVIIkaFAsFevt6X/0gS3vBz8ufx1jM0jSaN8PJYJ6ZjCRJaLVaRFELlMZoj4XFRWqVReJWC9NqkTmHzuUpFDoodBQplcp0l4r0dnWSz+fRWr/mUiYJ5kIIIYQQbwOvDOYnT7ZPBvQsy0izFE9r8vkC1UqFKI4IwxxpmmCdolDIUatWyaxl1eAQHbncOWz2PMfanSXLMkyWYTNDo9EgTRO8MAfOobVCeT7OWpxJccrHZBndPT2UOotvSp2vvI7WLtVoDbkwpFap0EoTwnyB6nyFIJ/D8xRpK8IqCIIcPd1lih3FpUN/92PrPN9gLguGhBBCCCFWmJe3myilUEqRy+XI5XKwtF1yfmGeI0ePooBapUJnTz/r141yYN+LHBuf5PY7PkDnyBAmO8exiGdTr1J4ysPP+aiCprowx+GxQ1TqVQqdZUyW0VnMk+/s4viR4wQovDCkmcRcftlllLtKmLPc7vmG6nrFdfQ8D8/30EqjUExPTjIxM02YL5A2E4JCSF9fH/NT02Re+/GV3l62XbINrZZufH0TyYm5EEIIIcQKcKabP3/MF5Mag7EGYzKiKKJYKuErTZIkxElMqVjCD/w3O0u+ujQc1hocYI3BWfB8H2ifqidxglYaz/NxyhH4Pp72Lm6RS4wxZCbDWoOnPZwDz/ewzqFwWNueJx8EIfoNNNtIK4sQQgghxNvA2QRzpxTKeykqKmi3iCydrmva7dzWWHgT+7dfi1KKSrXKiRPHaTaa9Pb1smH9hlOn/y+Pn85ZLtxgxDfu5OqiV2bXk8udWPpz1/4kb6RGaWURQgghhHiHcFq382Ezws3PYWbnoFpFtSIwBqc96OhA9ZShvx/6elC5HM461Jt0E+iZWGvZv38fzVaLQqHAE088QbmrTG9vL1mWobXG87z2ElOzPIe6J7/rGc+o3Wn/4WK9cZBgLoQQQgix0imF8zSu0cC9sA/3wouo8XFUvY5nDKbVwiQpvu+jfI9MKVypC7VhHVy+C71tKyoXtnfOv4kcrt2W4iBfyDM2NkapVKKvrw+Ho1avEccxxliCwCcX5ih1lVBKXZRe+JVOWlmEEEIIIVaA12xlWQrlduww7nsPwN79uGYLz/PI4piDBw8yuTBP6iCPYv1AH6PDw9jM4IyBrk64ejfeB25HDw+jMsub0XjucGjtkcQx1VoVB2RpRhgGZFlGZbFCHEVoz8P3vXYPurPgYGRkhN7eXpx1GGMv+IKhi0V6zIUQQggh3gbOuPlTKdAK+/iT2K99A8anANBaETWbPPbsc0S7drLmg3eQ6+mmOnaYY1/6B1bPzbFz8+Z233mSYHHobVvxfuGj+Du2oZZ6zy8YBVppZmZnSeKYUrmLudk5nnpqD/v37WN6eppms4Ex7TaWXC5PsbPE6Ogow8PD+J7PmrVr2LXzMjxPvykTWi4GCeZCCCGEEG8DrwzmDsD3MI89gf3bL8DsHGgNDpQ17HnueZrvu40b/uNvky8UTj1u9shRHvq3n2Hj8WOsX70Gk2Xtk/M0RW3cQO43fh1/+1ZcZi5I57RSChQcPXoUpRRBEHDffffxyMM/IstSCsUSuXwnqcuBCvCUwaYNosYCtVoVlGLduvWUOkts3ryZOz9wJx2FDrIse8vlSgnmQgghhBBvA6cFc+dwgY8dGyP7f/8cjh7DeR44i3YwPzvHM77PtZ/9E3pHR17qz1YKz9Ps/9b97P+Nz3BNuZswF7af11iIIvx3XUv+d34L3d9//j3nqh1G9+/fj7WWqBXx5b//EjPT0/SuGiUsjWBUN4P93RQ7u8mURxRnzMzVIJlFR+O0apOcOH4M3w8IwpDrr7uOn/voRynkCxhj3lLZ8nyDuXf33XfffQHreUtdPCGEEEKIleTkeanzPIhjsr/5H5hHHm33Y6cZLk1RacqxiSm8O97Hlg9/8NV96VpTHBnm2IMPEx4coxQE2DiBLIMswxwag64S/lW7Ued5POv5HofHDjMzM8NCZZEvf+kLaDRdQ9uxxS2U+jezbnSUbZuGwGoWqw0C39Hd3UUuX6CZBBidZ81IH3GzxuzcLPv278f3fHZeuvMtlyuVUih97jWfe6QXQgghhBBvDq0wL+wl/d4DmDTBRC1ss4ltNkmrNerO0Xf5Ze1WFPeKYG4d+Xyenqt3U4kibKOJi2JsFGOTDFtrkPzdlzGHj8L5nO5qj2qlwosv7mVqepKv3Xsv5XI3XnkjDW8d5b41WBRT0xWOH18gzTIWaxFzizXmZiZoNqr0jQyR7+hjYjHHpq2XsXpkhCzN+Oq9X+XJPU+e1+nzW9E769UKIYQQQqx0SoG1ZN/7IWZyChenuEaEa7U/0lqdNJ+je/Omkw847eHOWhTQs2M7LRRZo4VrxdhWjI0iHJr0ub2k3/3+mR7+hlksTz/zDEePHePxx5+gq6sIxdXMM0qhe4BqK6HaylhIFS8erzNVSamZgFoCtUbCTAS1IwfQY49hgy6OV/Ns23EpQ4OrqFSq3Pet+2g2m2j9zomr75xXKoQQQgjxFuC0xlWqZI89gW1FuFYL12phWy1cKyKrN8lyOXI93T926GGhr5csnydtRdg0waYpWWrInCVttogefBgbRe0bSs+S1ppqtcqTTz7J2NgYzmT0DKzlaKOLnuE1tKyjllgaBqoZRLk8l+4YJrUZi7U608ajOHeY3h/9D6ZTHzrLRKrIfFxkx44deJ7m0NgYzz//wnm1hrzVSDAXQgghhFhBlAI7MYE5cgzSFBfFuCiGVoxrRiStJuRy+IX8j32eoKMDW8gTZxmJdcTOEjtDZA0t36f+wovtzaFn2cftAKUV+17cx759+6jX66xft4bppJMk7GahUacapTQt1FJDJU6pZZYdG7rZsqbAVJQyOvM8Vz/yWQ7qMgtDl1KPYiKnmWz5lHsHGRkeplatsn//vjNv5nybkmAuhBBCCLHC2GPHsfPz2DjFtaJTbSg2jsniGBWEaO/HL3D3czlcGNKylpa1NK2lZV37Q3vUJibJZubOupNFA846Do2NsTC/QFepE5UrcaIGzWaVmenj1OMmdQcdpZC1oyV6ewv84IVJqonj/dkB7nj0szzSCHhu9U00U0ejGhE3IipNRyX12bRpA8YYqtUqszOzeJ53ztfyreTH/40KIYQQQoiLzo5PYKs1nNLtzZ8O2rs1HVlm29M/XuekW/s+zvNoWktgDcaBxeFQGCyu2SSt11Cc5R5QpYjjmMXFBbSn6espU08DJhYjdGDQOJxuEtmQujHcsaaLH+w5zN/ec5B/0XqYn64/yPeykKmbPsbWtVtoVeoUSh2sH+3lyMQsmY0ZXDVIGARMTEwwMTnBwKqBc7+YbyESzIUQQgghVhAFmHqLNMmwgd8O5oABcI5oqbXj9TpQ9FJ4b1qDZy0WhwWsA2MtzmSkSXrW9WmlaUUtWs0Wvu/T0dFB5PnEypA0DLV6i0Q1aeoa/cMDPHhwlsdePM5H1mfcNVfl+2MtHrn5Y/z7//UTHJlc4PNfe5JHnj7Os4fmsaGHVT5ruvJ4nsfU1BRJkpx1jW9VEsyFEEIIIVYYE/i0cDjn2jPMXTtUgyOxjpP3Q/64k26HAwdN51DWYjj5XJBZA05jz2UcoYIsy9CeJggDAt+nZi1zCwmDuTyFXJG5NOV9Vw3x8+/bycNHKnTnLJ+6cYDjz/Tx9bleJtfdyB//4Ah7Ds0wOZuhenqZXqhi4owtLiQMA7RS1Ot1jDnPJUhvIRLMhRBCCCFWmoF+It/HGIPzNPZlAT12FqyF17sp0hhcltF0Fufawdw6MDgyYwgKeXRH8axLc7RPzTuLnYRBiHPgK0OH9tiyepDeco7Hxqbp7inx2MEZtLH82q3rmTj4PH/9+DTP7fowH9q1junFBhUFXWsHUNYSH/dpVRsUQo9CPodxljRNsda+bk1vFxLMhRBCCCFWGG/tGuJCnnhxEYffbkFZakXJcOg0wxr7Y/vDXZpi0oSGtWQnW1mW+syTNKa7by25/r6zrs05Ry6Xo6vcRZgLiZOU3u6AnlUh462M2dgynjq++NhxfOX4Dx/ewvTB57jniaMEI9t535YNVKwhX8rR05fRyiwkKcrTFIp5VpVDfK2I4wTP8ynkCudxJd9aJJgLIYQQQqwgDgjWriFbNUB1ehqlNRZeOvG2ls5WhHmd/nDTiohaLarOYqxZaodxGKAVRYxuu4TC4KrXPXh/dYHtzaJBEFDqLNGMY9YVA3q6U56pWnSa4fcVsZnln13Wi185yh/88AiLpfX83oeuIbGWf/f1fXT0dOD7PqEPppmgwzy9nQGXrikxdeIAc3PzXHLJFoZHhs/xSr71SDAXQgghhFhJrCXX30vumiuoPfkkhAHOgVVgnCPDkWvUMZUKauC1T7xNpUqjUqXqLNa0g7nBYawjVTB4w3WExQ6MObtWEeccnucxMDBAV6mL6ZlpQq25cjDkiApJ8bFOcU2vojeZ5LPPVpgob8XpgPsPzrN1oIMgMQTax8/ncJkh5+ehBLv7U7YMl/ncd/ezsLjI8PAIAwMD2LOs8a1K5pgLIYQQQqwk1qE8j/4P3klS7KCaxNSwVG1GzRpqQG1hgejY8TM+XC1NJm8cPsxivUHFOqomo2oMdWOpNJuUN2xi8x23tx9wDgt8lFKsX7+eNEuZm5tjcnaOW7ePcEW/xuYL9BahM5rkH48YZvq2UuztodhV5HsHqnz3qQqeyaGVJsgFkDrqBoa7FD9xaR/zM7M8+eQegsDjmmuuQnv6HbNkSIK5EEIIIcQK45xj4F3X03frzSzWG9SMoW4dNWep4ZiZnWPxmeeWvvoVcxM9hXWOmUefYCFq0QJS225hyaxFYbniZ3+KgW2XnPVp+UnWWlatWsXGTZtIs5SHfvQwnoJ/fmkPO8qW1CQc8gaxq3dQLJcIOnLoXJ65SZiZteh6QBppPM8jyTQWeFacAAAK8klEQVS9Bc3Pbe1gQ1+Rf/rGfezbt49tW7dx9dXXnOWQ9bc2CeZCCCGEECuMM5ZcV4kdv/rLhEODLDSaVI2hlhlq1jIdtTjxw4fIohjl65dlV4dSitaRo5z40SPUrTk1zxwgi1tsuOIKrvnkx9FagzvHYO4sQRDwruuvZ9XAIAcPHOQr//Q1Nq7q5lcvK7NjqEzUN4oqFtCFPF6xA13IQ77A4EgXPYNdRC4kzjRrChn/amvAzZtXce83v81XvnoPYZjnZ376Z+jr63tHTWXx7r777rsv5BO+3hYqIYQQQghxZi9v2XAOypvWk6Upe799Pw1jMFqTOkcMmPEJ1l66na5tl4DW4ED7HgrY/8d/yiNf+DKLvo+3tKAoiyJ6uru56z//J9bfeAMmO/fAq1DgoNxdxvcD9ux5iueefRZjHbfdcA1XDRcJ0zqVTBFpH+OFuFxIlguxePhln65Oww2FJh+/pJPdq7v5+3vu5f/+oz9ibm6OT37iE3z0ox/F97y3VBuLUgqlzz0LSzAXQgghhFghXhlCtdYMXnEZWbXGsUcfI7EWrT3QmlqjgXn+BbpHhimuW4cfBsSz8xz8r3/JQ//XHzLWqIPn4xSYKKJcKvGh3/2PXPnxX8RZd0695a+klGLN6jVoT7Hn6ad5/PHHmZyeYfuWzbxn62qu7FZsyKcMqhZDgWFTKePaQcvt6zzuGPJ5//puTKPKn/+3v+Qv/uovWVys8M9+5mf5N7/2a/T09mAy85bKlucbzJW7gG9DnHNvqYsnhBBCCLFSOOfOMH3EoX2ftN7ggf/jP/PAH/1/1Op1dBhiFOTTlI3dvay74nLC3m4aR08w9swzHI0jMt9HAzaK6B8Z4Y7f/R2u/PjHwCnsBdymqbUmyzK+cs89/Nmf/SkHDx5i08aNfOCDd3Lre97D6MgIYRjgee1hgGmWkSQxU9PTfP+BH/D1++7jwMGDFPIdfPiDH+TTn/4Uq1evxmRvvY2fSin0uWxTPfl4CeZCCCGEEMvvzMG8TfkecRzz2F/8NY/8wR8THTuGh8JphbMWP07wrSP1PbKldfZYS6YV3bt28p7f/vds/9AH8BwX5KT8lTzPwzrLgw8+yF/95V/xgx/+kFqjztDgKnbs2MHGDZvoKnehFNRqdcZPnODAoUMsVqr4gc+6tWu564Mf5CN33UVXufyWDOUgwVwIIYQQ4m3hxwVzYwy1ep25WoUnv/NdDn3lXvTzL9KxWEXHMSpN24Fbe7gwIMmHNPp60ZfvZPtPfoSd115Lb2eRUqmEp703pX6tNUorZmZmuP/++/n2t77D3hdfoFqv41AEYUAYhoRhSBCEdBTyDA0OctmuXbznppvYvm0bnudjLuBp/sUmwVwIIYQQ4m3gtGDuwGLbn3MWm1mSNCFNU2JjqNRrLIxPEI9PoucXoVrFZhk6l8N2lbB9PXSMDNM3PEx/uZuOMEcQBmitL1hec87hcO0arcVkBmstvu/j+T7VSoVDY4c4ePAQE5PjNBotwJEvFOjr7WXN6tVs3LiRNavXEOZCnHVv+QksEsyFEEIIId4GXnlifir0GkuapURRRBzH5PN5+vpee+Pnq5+4PXf8zZhucjKcG2NIkpQoahHHMcWOIr19vQBYY0myFGsynLV4no/neQRBCIq3RSA/SYK5EEIIIcTbwJlaWRwOXHs8oeOlAKu1XpoAojlx4jhT09M4Y/GCkPXr1tLT033R1tifrLG96Khdo1KqPScd8HyPsbHDLMxOkmUxnd3DbNi4nnzg///t3VlsVGUYxvH/Oaczw0wXimALWAGjRFuVAIEAmhRcWK1AlSgQKAIXRgoucYFoINFGRSlLJURQAioCIlIRqBUEiguLCIISLdayW5bWCoVSZtqZOV50iRgj21DGyfO7m29mznzf3ZM37zcvweD/568QL8aVBvOoEO5FRERERELIwGgY7GlgYFn/6A+3bUzDJOCvAQwcBvgD/kadlvn3PfIve7SDNg7LwB+0MUwXGGZthI+sTB4SqpiLiIiIhIH/uvz5X2rr1GCYdYE3WNsCQ7hEMtsG08Sqq6DbwSBBO0j4bDB01MoiIiIiEgnqesEvS306l2vqSgcMqZVFREREJBwYXFG1NbzY2HZoJ8LX15IjuQisYC4iIiIiIWYQ6vxcH8gjuUNDwVxEREREQqqi9CB5G7ZyX9pgEmPdddVz8J87ze6d31N46CguZyztb7+TDik3czEjj3bkr6YsOon+qZ2u+v6vFQVzEREREbkCfj79YDFJXVPpmnwTABWH9/LGK6/Spvu9JMa6MQzYuWk5T2VOIf6WzrRuGY1lWLw/+3UqPTczd8EcklvHU7h7M3lffodhWXhcDnw+L/4A9Ezrx+bVC1jr76pgLiIiIiLy74J8ljOPLhPbNgRz04rC43Zj1receI+TNXE8nkGzWPPasIZv2lWljErvzbjsNRTMGElZ8X42r91BE1cZKwt2cXfvAbirAtxyR2eim0bjrIjs6BrZpxMRERGRq8zE7zGprK7525qNYVm4PdG1L60mtG91A5t+3Ma2XSm0aBpLsNrLiZIiio6cJWVgKwBSh2SQOiQDjmyg29iZZC9cRMfaAaLMWJVDlKtJ4x6tkUXK1V8RERERuRZ8Jew+VsiePQcbliwrCt/pk6z6eBnf7t4HjnimLfyCbo4fGdAvjewZOUx7ZQr9+z5C54yXWZB5/3mPPFBUxN5vtnJwf1nDmstlcWTvdnJXrqfk2NlGO15jUjAXERERkcu27bMVlJbVsCF3Mb8e9QG1rSyBM6fIW76EdV99zdefL+PjTVuwPbG0aZlM9y6d6NK5Gy0Mk6ZxleTmfsTGH4obnrn6882c9v7J4k8+bFhzuSwO/byFeQuXUHy8stHP2Rg0YEhERERELsuZE7/Qp186A5+ZSunKmeT/mcL6tXOJ/q2AB0ZNJDs3n7taw9TnJ7C9JEBcjAcjAD5vFXaUA5fTiWUEOHWygvbdH2XqpGEUf/M+6Y/NYtz44byZ9SaZ09fx3OhO5GQOZiM9+GT280TVTTmNNOoxFxEREZFLVlK0jRHDRuBr0YenM9Jx9mlHYdpAeg+ZwOIX03E6LUwDcDRn0qwlVBw4xKKl81iRX0DQcEKgBud1iTw4cBhjMh4ixmmyI38RQ8c8R2rmTJ54ZgQ3xp9j6JMP46heiMcTg+lz4DAjt+FDwVxERERELllFyX6aJfTi7fnZuAFadiI3bx1L83ZQUx0gELAJBgO1H645Sdbj/SmgA1kvTSYuLh68VZSXlzB50gvs+Qnenf0IW9dvoOOg8bw1cQQAaaOnsMKdxJGzVVQHgfrnRSgFcxERERG5ZCn3DCf3nuHnrXkSkxk7Jpmju77E6/XR0DHtq6Tw2O+07PssPbqlEhvnwQj4OVN+mPbtmrFv3+8ATJj+HhP+8Tt9h44BYPrjc6g2FMxFRERERC6a7XDTLCGBKLNupmdMElPeWUbW5FdJ7TWf225ti32ukuL9+2jTsSc5b4y84DObxifQzI65yju/tnT5U0RERERCKlDj5fDhozS/oS1xTSxswADsmnMcLyulvPwUtuGg+fWJtEpsXvveBXLk6T+OcdJr0SYpISIvfoKCuYiIiIhIWIjca60iIiIiIv8jCuYiIiIiImFAwVxEREREJAwomIuIiIiIhAEFcxERERGRMKBgLiIiIiISBhTMRURERETCgIK5iIiIiEgYUDAXEREREQkDCuYiIiIiImHgL8VpFPfWtCjeAAAAAElFTkSuQmCC;" parent="1" vertex="1">
          <mxGeometry x="-800" y="160" width="742" height="298" as="geometry" />
        </mxCell>
        <mxCell id="dq0KdhcwPf0WLffFqdIs-42" style="edgeStyle=orthogonalEdgeStyle;rounded=0;orthogonalLoop=1;jettySize=auto;html=1;exitX=1;exitY=0.5;exitDx=0;exitDy=0;entryX=0;entryY=0.5;entryDx=0;entryDy=0;" parent="1" source="dq0KdhcwPf0WLffFqdIs-8" target="dq0KdhcwPf0WLffFqdIs-14" edge="1">
          <mxGeometry relative="1" as="geometry" />
        </mxCell>
        <mxCell id="dq0KdhcwPf0WLffFqdIs-43" style="edgeStyle=orthogonalEdgeStyle;rounded=0;orthogonalLoop=1;jettySize=auto;html=1;entryX=0;entryY=0.5;entryDx=0;entryDy=0;" parent="1" source="dq0KdhcwPf0WLffFqdIs-8" target="dq0KdhcwPf0WLffFqdIs-15" edge="1">
          <mxGeometry relative="1" as="geometry" />
        </mxCell>
        <mxCell id="dq0KdhcwPf0WLffFqdIs-8" value="" style="shape=image;verticalLabelPosition=bottom;labelBackgroundColor=default;verticalAlign=top;aspect=fixed;imageAspect=0;image=data:image/png,iVBORw0KGgoAAAANSUhEUgAAARkAAACzCAMAAACKPpgZAAAA/FBMVEX////1hjWRQQfediryhDO2XBqxWBjvgjKXRguaRwyMOwDLf0f4hzT3m1r+8uvs4NicUhvnfC+hTRDvhzyyZTHfhUSbTx2iVCHl5eXBwcHoh0IAAAD19fUgICC7jXPa2to/Pz+cnJwqKiru7u6Li4uurq67u7tERERxcXF8fHyYTyJsbGyWlpZeXl7MzMxSUlIwMDDl08YbGxtWVlYuLi4PDw+0fluMNQD+8ej2k0r95dT4qXL5uI+pqal6enriw6772MHPsJ/4sIGgXjb3pW381Lf6yKfEoI3hkli0gmK5c0f0fyLroW3hy7vlx7CyXyb5uIymaUPBl3ygXCs9wzO7AAAG0klEQVR4nO2da1ubSBSAId3t2ojBNdUOzSDXkKQEglG0URPvZi11a/X//5edAeKletSVWISc9/FJCI/izMvMmUM+zBEEBEEQBEEQBEEQBEEQBEmQ97bzbsKbRL5c+Vjf+Zp3M94atb3Nua3qx3okHu7X8m7MG0I++FmtVirMjChKErqZsLZ6VGFeUjPMTf34JO82vQno6lbs5doMcxMtnGDAYWZSMTdm+JxaOJ15Nw+a4W6OZ90NYIa5EQe7MxmLZTl5B83weFPfnbnkb2189c9F3OtHzPA5NZgtN3tnV1sry9GAu3nUTOzmYkbcUHm8tFWtVleWJYktz9u1x81wN9LOLLipXc4l+QszE4fZnW9PmBFnJDFeW0lFJGZE8Y8/K0+a4Ynxzn7eTX9l1r68yAwfXeV9aJB55vZiM3wRH5TyoUEef/t+WstippwPDeerR9VPn1nG/+8jZn48ZaZ0bmoHV3ydZmYk6d1cBTJTef/Xk2b4nBIvSuPmLFmnP31m/cpshhENTkuS4GwmE4ibEadhhifGh4V3wxO0qZspvhsqn80fbtceNvM5ixnuJtrZLmpifL66uDUf1Q+/PWTmwzsxkxkuR7wopJq11RW2IM1LovS+8jpmRGmhiGbkRb4icTMimrmDvMjnEJq5z30zS3U0w3nAzN9ohoNmINAMBJqBQDMQaAYCzUCgGQg0A4FmINAMBJqBQDMQaAYCzUCgGQg0A4FmINAMBJqBQDMQaAYCzUCgGQg0A4FmINAMBJqBQDMQaAYCzUCgGQg0A4FmINAMBJqBQDMQaAYCzUCgGQg0A4FmINAMBJqBQDMQaAYCzUCgGQg0A4FmINAMBJqBQDMQaAYCzUCgGQg0A4FmINAMBJqBQDMQaAYCzUCgGQjcswgCzUDIS5MdwHBvtF+QL48qfNc4afDjtfbTi44LaYbXHlpdmR/sbj+4B2NmM5JU5GoIdI3X8XqV3SmjMuz2P/0dTSUpOizDJsGbW9M1I0kLJRgvnPO4pNe0dk4uVUUReY9vt813246WV7KZKV0VGnpwVFn6LC7sn2fZu55XLrrIuytTp3ZwdniSbVd/KSrVxvU31Hha9nIzLL6U00vKS82w+FLKAhk3yD/TUoKpGelZZiTx+DTvlr868vhLvIbHZqRosLv5ZJUilr+cFPQB6f8hjxe3kspWUf3iGZWtouOSz6Nb1MZXlbll9kT49elqaGylz7u5v5Xaweb33WdU0BMPZ2Me3aaWzpDHqi5Kx/u5tjFfIDMsCh2XvzjcY0DVXQelLwz3FA9XBBZL8jVDJsYf0tzv2kwkzfx4SZAvk9wvMSNJ9VJ8XTcd5DH/boubmaFirs9EPjiqMjNl+1pqKtQOrn7Ucbw8zBrGFwRBEAQpEZTS9MCi+bYkE449zH4RanQZdpewY9LsuG1DoYLl2G6762e/ek7oDTP7jSW62WL0mBnLU1vttqn6QlftjXphT5tCI/PACdx+M/NViN62kiPa7hvMtGX4QlNhn+2Gkfnq+eC5fs/jB8RnPwq7wZrvJ7eZfVR8Pp58TnxOY6f4AfUty1d8a3IVZiYdeM1+5871lUb3d3Rj+li6LXQCHguMoNlTGz3F6amhzk8460EvMFm/aCPsq32XaWi2zJbaGlJBC7ojs9+3J2quzdBOeDewFNaMYzqCE/IBb6iBQfy+HjQtx2yzE90usYgbsNBBiKWENhV802OneqYiaOaGp5HO9TwkuqsRQljUdVXrzj/ohtnnai6MWuw+90fshhtxFzqhw1/1Sdgcqk787q0Tga7rvNdkw6WaGo+R0E5/jegqo68IpKffieda4JHf1JXp4gd8uHQ2mAijwbvQDLkTOzZDWcTpqPEtjwWRoMN7Tb2epalxXFU7qQairzcdxyHMTHDbjOUGBV21jX7HMIxR2OVmuI1bZsiopesbsRnS4kGaqPEQoS43E0cP88ZMGmcs17w9m+zGFJKlPLC8OA1pbbBp8qsZ6ukOZdGnycOqHqdwqRnvETO001Burm/3baGYaGx1YRm81Q2Ve2ZII4nLzMwwiaJWr8fHg2aOKGiGhXQvHjSWxedgUXMZwU6XWMW075tRXSL4LjND9XVF0wifezahWnuDrU33zHiOEmc/1A7bjqY120NhaHoOy3+UIj47qcn9Fch6MDETv9oBD8n9lquP1KGgNUxd11mWb41CnaU4bABpYWwmXtTiC+ihyfF5GApVPVB1zfIaZsDO9QsYg6kyWZw1hZL43iavWvI6HGqCwlZrRVEm2fDQaGo3f3n994If/44Si9aaxpArSs85RRwzCIIgCIIgCIIgCIIgCIIgyFvgP71LK+bv/L/yAAAAAElFTkSuQmCC;" parent="1" vertex="1">
          <mxGeometry x="-470" y="585" width="125.59" height="80" as="geometry" />
        </mxCell>
        <mxCell id="dq0KdhcwPf0WLffFqdIs-35" style="edgeStyle=orthogonalEdgeStyle;rounded=0;orthogonalLoop=1;jettySize=auto;html=1;exitX=1;exitY=0.5;exitDx=0;exitDy=0;" parent="1" source="dq0KdhcwPf0WLffFqdIs-11" target="dq0KdhcwPf0WLffFqdIs-26" edge="1">
          <mxGeometry relative="1" as="geometry" />
        </mxCell>
        <mxCell id="dq0KdhcwPf0WLffFqdIs-11" value="" style="shape=image;verticalLabelPosition=bottom;labelBackgroundColor=default;verticalAlign=top;aspect=fixed;imageAspect=0;image=data:image/png,iVBORw0KGgoAAAANSUhEUgAAASwAAACoCAMAAABt9SM9AAAAdVBMVEX///8AAAAaGhrt7e16enq4uLjq6uqNjY2pqamAgICRkZHb29vz8/MtLS0jIyOKioqenp4NDQ3h4eFiYmLOzs7Jycn4+Phqamq8vLwzMzOurq5ycnKEhIRCQkI7Ozubm5tXV1dNTU1dXV0TExMfHx8/Pz9JSUnYXnWpAAAJyklEQVR4nO1d7WKqMAwdUxHFbc4rirhN3Nf7P+IdIKSlaaFQDK2en4i1PbZpkibpw8Mdd9wEdn64jf6wDf0ddV9GDD8+7Q8eh8P+FPvU/Rod/GTvSbFP7oRV2Cyf5UwVeF5uqHs5CgRPTUwVeAqoe0oNf9GOqQKLW16OvkJQ4djfKl2roy5VGY4r6n5T4NSFqgwn6p5fHeFjV6487zGk7v118dadqgxv1P2/IvxGvaoJzzcj6OO+VGWIqUdxHbyY4MrzXqjHcQ18muHK8z6pRzI83k1x5Xnv1GMZGodmDtrjQD2aYWGUK8fZ+jDLled9UI9oOKSmufK8lHpMQ0HLHdMWC+pRDYNkCK48L6Ee1xDYDMOV57nocK6PcRYHU30b8RjE8bn2jHpk5lF3ihaOA3+t46qZF5Moqj3eU45rCNQH6G2rT37aMfUKwqn+UUQypOEgjJ35bNvmfIeV4/8UjTkAQWtIuY+rjfKwf1kncbTdRvEsWB4rQ5J3MazrrTmlP4g74bz2xtE7vMTIvjaJTmfvUPtgKzTn0o54Vq6qHDpRIL7Q3NlgZ4khzoR+js6d2N62+VuWALGf+21gYnvOWNTIxDJOljNTC3M29FqGK6TB1ExfqSGK4z+s+7SImpluHI6hB6rTPi2iZ2luHLxiI/O++rSIn2eb6i8lBKuwQB81Em/RBQtREoPVR8TgrnwXnA84V712ekQpdWMd4qtw2a/R0NF1iEY2fPdtdYq1an/0A+qr6j8HsFafDHSXFKh4MWDIoUGWtuevoCLLQGwV+ifYLrTQGWCiYUwjsT00FxvT0UTDmMlju6aFyfeZiYYxz4PtEh5bhWb8A9iBo5GGyTDByDLTNLbAJ2aaJgKmahtaLJi2a3c2AaY5GDqJEQ4PPdt1hxkyIkNRxgHStJGtgwxYTNaAZNkdq4WtlXS4pnt59smBKfCGwtexpu1W4bG/f8Dd0O6ZhQkWQ3oWlgdrd845GnRrxpNyRlq2W8CjJ3xm4oOwlu3OqxvKneWkQws9WagHsnUCFm1iubmDOVK8HxMto15Fy8sYYEMyIuHRvEUD7VICzZkzYMKhU9b2iDa0Kkjav11UgTPiryYEpsKb8JV+Y83arcBLNq3+cet4UID1oZLoqHr7f/EMKSMdpgSemZP2axSVWGZUElIs8anVy4pDo1R7h+aMALjQ6mcgStIU7dbfc0jI6iG2zpIWDXaaCmgoVYau+oOMKxdSw2TrsKOPYCJNTrReccggJavLXJCn8L+a7zkBVMX9NK3EUFFyxO7DihKMzfu9DAJehn1p6BDRr4J2290zJcCYLvSF2lLax21cNtuGMoG2G9ElIC/pEm22qzujfuZYym8JPzo1V7FxJvEXirGll0mEDh4NzY6/GnnK4E6ZNjbl7SLSEaegpBhWuzq5zkwsPvCsOAhFPJ0yJbUNV65IrAwcNYXyKDgOpBmIbaojObIVFuB0rUJunWvjlZvBzVzZ7iKtgXUUXPZE3jOsUMAbC6E/X2cMVwN32losxB0n5BVSp3EdOiTdC7BOwHLfmzPPFIYPnjAHsN/pJ4A160p/w+pUeJ33iUqJR+PDAbafFmJgd8SUfd7oBZQkrpZwaicswTq29KSMkisn3FgiGNVKr3Stiiu7g/0UYBwHWglcCq5c8CVLwGhMqcbX5FzZnjSnBFutr/0CknLljq8BBVfb8DjbFCqDvw1Ue6KMq3/X6TMdZCdjqv1R8hWXXA0SSM7z9ckyEpo6duCXo2iTZXcGWGtsXvXIQjV454xnKYQStsqoDoSs9Fo9HQPEpE2tmWV32ok2dvXrdzTIOjtpOisR8bUG2i9DuxN0uiJoSRZ33OGYu10Da12y3Ij+6IqkDLdqYe58OeuOaY0wN4CUVUbz9bp31MuniyhpiJ3dJLcp1e+444477rAO4ez0tlgs3uanJHKjOPtAmKzrYaLn0+14nLTgI/6pP3xoZh4Fr88FeNtnd3n6/NjugALeH+Phj/RiaOjs7PNwPjVFcMNZBucyhoS5dkkUTByJ9lCGxk5+KW1Qe6XBYGkk67FVh4Cs0WWooDUDLihXU5WbpJb77pOlup/w8gpE7qmFiPNkqS5nTy/vMBkC5ddW/iSHz3qIXScLPwO8oPTUMSdfpToh0vfgPlkCQa+Hj0O5Mkt5zqRT+vXvseNxnCw+8v89KSfObjObwqRhboIsH90iWWwS0lddMai2PkjdqfzCIn0PrpPFRomqCmqWEzCtntwgWUzYo3ocUS7jmXj1GySL2eaazMAw4lbp7ZHFVDnRjcHTIQsGbzNZjJKltvpWF8DZIIxnl3+S29hDkLWbHXPN5XFPHM/FxPAp34OQmUJqhYHo0snYakcWlE2qtltI0Iu4978nXEIZ6ck/DFkdYQ3a2Pzvr8ZzwzOzB8jiTgnBVM/JAhW3kpPwr2Usy1N9fgcgoS3AN6M+V+fIQq8IrZN1XDMAKvqSZapgeBdAJ9RVZfTJkqA3WYRBu9CHyt2+fOHwlgv+EZFFdn8K4/ZbiY8K5FniYyKr18W5PcCoWeUjgaw8D2lMZFG55Y2SxasOxsj6DcLJZMsqEESFvbuR9RD+gWFsE+YPsveMk3UoZSkTYUiUUN2RrBziVx8GIAuMMDgCTgfjQwmGLKmAHwtZYJkR2YsMM774qBdZn1nQRAl43J0spmNDUqIAdKC0o02RZcjcYXwh8INEF7dCB6r0kDDa/gE635EslT+rG1lQVYJILQWpWUvrnvEfjIEsKBdIRBaUAas5mkZI1pmaLOYgjI/FGiFZ5DOLOdzhy/WNkCyQWVQ3c8OQ+S6MkCw44TRJgA4Y7zB3YjFCstAfvCrYsBDW5tIgS//4vhNZ0AbddQQMWWyVhSvNrMqB0EwW9IiuGARfo2F++asnUHGtmSzmdLYdWSCqq0yyF+6LGFlwXEB4xOM1QEYW1Ev8Bq2jHVnM6VBhZYWMu6rmz9pf/opj/TskwK4+bkMWGzD4tD9+HnhPqYosJoDJ+5gu+NBD0VOaHqfcK9dkpw5VmKSCLKFGfDa/2pGl/H8a3cq09WuktyQoyRKcy+3JUoVHN5NFe4PKTsmWjCzG/NAlCys30posQ1fJd4eq81Ky6lNLgyzJFUWtyKI6NgTIQ5aLeGWMrLro0SAL+72Pd5GsN/HCi1HkpAdYhfvHUqUBslh7m79iJiMLNngJWeVWVr+D7nlWBiEmzPuxcF/gWK58Cpd8Dt3vCXq2Kj3qU96TE8Bf/y8zxKNp+R6ftlI55CH+ZM1IykU2X8LjdFp+8fJ+1uQMtLKncVWF2ESz9Wm5XCdR21TDXRgnQbdUztU2WS9PQdz43TAO1n9dopdWd9whw39H7XZx3Tge1AAAAABJRU5ErkJggg==;" parent="1" vertex="1">
          <mxGeometry x="-640" y="845" width="89.29" height="50" as="geometry" />
        </mxCell>
        <mxCell id="dq0KdhcwPf0WLffFqdIs-14" value="" style="rounded=1;whiteSpace=wrap;html=1;" parent="1" vertex="1">
          <mxGeometry x="-290" y="546.25" width="150" height="75" as="geometry" />
        </mxCell>
        <mxCell id="dq0KdhcwPf0WLffFqdIs-12" value="" style="shape=image;verticalLabelPosition=bottom;labelBackgroundColor=default;verticalAlign=top;aspect=fixed;imageAspect=0;image=data:image/png,iVBORw0KGgoAAAANSUhEUgAAAZcAAAB8CAMAAACSTA3KAAAAk1BMVEX///9tsz9ssz9usUBqsjz8/fv5/Pf9/vyjzoRnsDTD37O62qVhry3y+O7u9unl8t3Z6s5zt0Z+vFV6vVHJ47m0152s05Wn0I6Fv2Lq9OOay33e7dSnz43X68uYyX7t9ufP5cKQxW6Gv2OSxnTA3q5+u1iizId1tUuRxnG32aGt0ZfM5L5stj2n0oyOxWqYxn2FwVtiwv3kAAAbr0lEQVR4nO1dCWOiPBM2EDm0iKBySFUUEK3V9v//ui8nJBgUW7p193tn32NrI+g8zJmZyWDwH/0rZMSrsfUlOo9c57c//b9KTnqe2S/21+gFRsep8dtf4R8k47T0bKh/maD9Ugau+dtf41+jOECoAF0HX0MF6ABo0Pbn/4lMn2S6S4SKBgh/v0I6gRTaYPwfMD2Su4RQ+yomHBodaBr8D5geybGYDvsWMFgFAgjnv/1t/h066fDboBBg0B/bj3/76/wrFEfflxUODDL+wW9/n3+EhgvsH/cBCwYGQC/57W/0b1Ayg6AfcaHA2NZ/pr8HGp4hcaZ6ggWrxNNvf6d/gVbet11kGRrdzia//aX+fnK2dn9aDFCfDIz/y8d8l3Jk9PtDhQIDI/e3v9bfTnEEv559aQMG2uHzmX7T2cSbv2UzYhh0UmJkSVffAPvK/uq3v1mTjOS4z/ZBMvztD9KJEq9TpM+Sxt2wwbiA85efTNNwnNiNJ47Tq8wllgdtaF/+Cg1rnGEnHYbzXsg9gLAbimhl+UVf2YnT8Vuwztbh22KebHp7us3ch5oGNBg8n4a9plMJ74sAyeDDaL1YrHegAzAkhgGHr6TJnOl4XSDzhAlCfxueNj19UyfUEC4ImeIvMDGTDHYQFsxmmKUxUi9TS+8AJHmD9rivbLp5VgL8WGPSNAi1IuwpqTOxNEJg9hfgMvY6qTEd2Eumll3L7mhj4O5Rjg6T0EcPNdBqAtA79ONBGAuPyAvMnh+XpOiUGEOwRBWP3cjuBqXmPajJzeRcEtYhOSFEobGjfoBJL+S64PT0DpkRaO3iIgiFDl5qnTQc17hwJ00NjB6lD32cTegxGSmjy+XiaxyYSy9ZHWN+8D1/lz+/uEyLtvR+VU1Bf4JgWr3JTHWaH6grNJTYotf09SMMNVKfKhpvmyeu664WW0+nwIx7+bqGu5qvkuf3xoxQV1l9wmoNuUSVOOhwVjv95tQjuGBY8CpIM2LX0CALUz6ypTyxILEs3nJFeeekB2pqoN+XU/b0KgzTyVfzk4BRFgUgu2W6GhcMCwTlbutrLXkc/PvlA76y+0nFpRzxR3p4Kqhis3P1W4wYydXkDrNxjNpBSMwJulbcquTorf6EsMWZKr2vkxAyOqbJdG4xb03CZVDhAsswRepmHME21xmWeWdfeXii1gUWtZk3LCYwW/KjGa+mK0xEGW3S/HWZZdl6PJdDeDdd1avieZBloYt98NVqit/OEzHVsgG52NhC11q+5isFNMZqvlijX1vjE5Zlh36KlWrpt2k4LhW+GIXlkDrmwDTihQ+v5KXCBfo5flRNZ5UBJTBYz207+8rOgvlions996hnRmOO4dzfRZiCycCZL6MSo4ZFezkWkZlHlEJnMFxZhafBC75kvkMU7QqeUR3TixXhEF3MikoqmuVuv2pIhZEGlwL/GmplsUPxVLIs8Dt3l58oMEkuKqNPMighf6TifaseQ8sCZtWHblBCpfXXgRd0faac0Ka4RLWPMXCzovhE/8xIUmc4eqH+894xRoXGHWkkrmWW1tpsblMwPxxzdSHhKXk6xiV51V4yti9eAPl5PTTmGDx2MQAi2WVzg53H74XWe+Ek2dE7/EThjxF46lAf8bsGIY1gi7ygsLHWN3FQqowM1nVF1zSZ88Zw8ee17jNcRoQDCBf6UAdGshWjT8TUYl4BM2c8/HAmIeEnxSWnwZG9ZAsRLmTZ3nQPULwa9EeCxLhWyTBjOjVKk8ym634Al7SA2pW84OpvLxDuhmxQq7xkAlatwACw7+hLGSOdsWWpyPgSqDguXpgE+NHFvQewYmbK184ZA/cO9bxBA5daXgi39zF6RGk+jl8rSqpHA8HCJclG90Nr9OxcwJ/CxdmDK3EhqqgMxZspcKnk5UNcuAlKoEodIIHp6isnM/acl9ZU7S1U8lJsfVBelsExWEaVAor452G4gNdNiJM6iJ87qsc0pbwUyxksD+HinBX8Uu9HLjDOsuQSGVn4fgXSmh5/FPrHZe7D61Ad47KWHtau8oKAsZSZZl3TVY+/iuIDExjE90Dp6nBccOx5GbuOYRhOlbvR7JChyXBBjERMtOHscsD+GLYvZJkl44Lvt51P8LWmSyYydpULPzLZA9txTO43PXuVXesfl42l4qHOPJeaTkW7vPgjaam7hYqkDo6EOhaSGznXIxrUC2txDU2NC7hU/RyThc/kzGcfcl7xW/M+g6nLNthacfGylCGarKmhgR5LosVMhPQtXzJwxt6P4WIiXXsFDM7NNzJa8Rq0+mM6bASNq0iRBH3EV3aXNTDoUv5lOXIlSCtcoIj1Jiwpg19YuqbCBepLwedtxcWvkn/DU8Q+ArP8Y+aLlMIz6Lz9mB5Djt5VSEkKWI+SYkduMvEN1PE+1CxJQw3z4tr0k/Bz0c1XNlZbrSaS7/esufDeGpe1yJFpxLUPXVvLSya43BUuDfuiwUP9NZIDc72ovDhbJi5LkS/TLRfQnnFBPvJ1HIgZLeUZzVUGITPeCj2GxesghWBGqCltFuyaqB+uDpV/xciGtcaqcIFlLuZehiwPrdkUhgoX2eXg/tiavffIcBG3I+IPBjGVlylDSZe+gBP8kLykkSrSR55JKiwyV1vu+sq4JDwPg2MYaTOD5KcVvrL90dFXNuPF7AXKkQnUz/zdFS6NoGjFrMALVZgcFyins5vxy5H7YwLTnZBdaUFwOensOZBdF5747hmXSehdV/LhLGMgSKuRbgG3FypcKDDa5SRKzFGVoMYZm3nXNJmZBMVLQ2jgJ9NlCBfKyt1UehNTZODlSH7k8UtDK7fhIkqzETB5ITI0tJjCOsieS/oj8Ys5akmMFQLzsbRU7pUSF8pxcBESIIPNTp0oU4aKbRTPUUBRB3mYS5+ULxyX9728r+MyhW9b5EeOSySj14bLTvhsxhuTF4KLc2F6rLH/M939BC5IhyoDwPIoftW14Fwp7QvXUVIYM/JaNmLyh3Y+nPn5UNbIAHAmL3NcmhvUTsZwoaF8hYts1tryMOJ+/1DCZcIcCrCQP16y/QFchvjzKTImUBSXSQAEmVL6yVT5IWBC4eElRbWqICaTn937ZEzHh1mtycj9qzxMIxlqcGudSbg0/PM2XD4EkDkuVI9Nduy5aDTA/QguSaZkHQSL+pE2cinddUNeEJ6emOVbAE250wbeHt+rcOY7LjKAyHKdH2vgsubyQgzK/J3ispa9jTZc1oIoN+SF49KUF6rfJK58l4yjwug3xWUq24lWeSESY4s5AjdSKknNlny9ruQeuIUhHG+TF6bHALcvHBfZCrXhYgneQUNeeJR5lC6EI+jecUkj+4ptBJhl/dQ7RyDtzbTKCwUGinGjpRIYRDC8U4NhUvbIjhv3gGGJVUYVVzbkJd4yXGi8wnH5kFe1yotCjzG7v+MaseGP9e8nb/ZKLYasvrCFjuVUXHMLF/zeYlVzc6SsFCQ1GLdMvzlZTSlJ8DlcYEgrLcfFbliOacFwYXEll5duuHwo9BiVF64fG/GLeeodFwPnkZWPs3APZwxk3t7QY4Tn74LATAplSRrSZNktqTenM1L8qvlSyGiGLMdMIu46rkylN7N4ArxL8f53cKHyMhgxPeZJ95uE9NUecYn3qgJLklKpv4SbNUpd78gLEJ9fw1JvT+t3BpTEO7oH6AWSwLwyFkjyAv2RqO6MPWBiJOXHvi8vg4TtIYBM/OjTS9/5MexnqSpXdNG0memsEbXfkRfEcmGKEnrGrm9ALnIzr+wsWOq2EDMITsZw2WEeV/YF7KW8JdtTtuV8cg/y4hy4IhMeBGfhgZ5xSba2yiojcdHrFJ+zuEoK35IX8nbBQeLlmFcEwfGGr8yrLTUtq6fLDed8b4VEEHU+2c+FPP+eFTh9Mtz7k5dBzvdadvxpMZ3chz3jgpFWl6xCv4773KzJ2Nvygt8uNGHFLRYMAVOkN0x/zJNR2uFES/WGzom7Y7QrsJYXGPH8P051cuzY1fuTl8GECYwGLjnZr5wkQVU33Rcuw9VOUWtBGSuYlyS6iYtCXpBHVquo4VKNC54cc6sGw0AgUEZphXWaJsk03XNpAZZUd4GzzMUiIXxKw4KWT4Cq5aBHXAZcYDVQHsJ8dLQuHiwudCOuL1xwckVZf4+7jir9aZzKR+VFh55gYKwWeSF55Rum3wm8qkgLeL4/4xkyqDHLVMuLhzyBXZDn47UP2NZVUaUdetRjKJTzqkfBfsH1MNA7poc+/eThyW/pqkAcqzfknLer/pY78tIwMOc2PYaWWbd85U3ISyhoBwzfRgGHlH0Djssl3OEypXdY1ylF4+oT9CkvCJioSqACPCoSLF231/zYJFQafcqwc82d821cruUFDx45195tYLfdBcDZzfGXm2NVdVQR1Molr3mocAkmORUTDh0UYKG4AAUuxFGUcMGMFvOWOM9PFtUZayPferAu7dS2J5Pt9/SES3Kx27pdAKwzppM7uCjlRcKlXV7klM01Oad9UQq7Yogf5XZcFdlV9WOhES9BXYYHy0wsA5hjWUK0lO919Og8YZ5wCl5oe62YtzTe2NBhYSyEsXrbFYDVSUfWyRn0istw7rV2ISF+Vevu4aKQFznZP1Ym4Nh97jRemPFpsS48D7PBBp63/ciFmcw1Ls5wGm5nZBnwivVYGpaQLj/2H1m2HMu4jHDxf7bMeM3eKMMl+ll2FHEZZZRyUa6d6Skgw7v34zQ2q6xdP7gYc3BD8d/Bxb8pLxiXmgejdlwkx01NphOneX583e/3b+M82Yj8qXB5dQbmJBmNF2jVEfGqsU0Wx5NJjP4zbL5MaGKqf2Z3p+Q0Nr6dDSbW/8LzlkUvuOStvZT3cfGEPr6VAl8Rl/wmLl32x0zTcCaTidEsChBxIesMZ3O9qkfiKMXSPcw5r6zpo+/TCVr7iO/aFyB0OA5zxe+hMHVk0TqeCeHir77BxiYuP07Jev2BaC3XE/C8pZ3fcmK6EvJ/23qH7/pjQJhb5W6VuHSw+38fLnFEGl1sT6wU4EWZ0Ev7EFVjdEuP3YxfsMDwyCMO4ZX70DF+6azH2uiP4zI428QX9861fTVWS5YmfaR5tJ2QP3YDlzreJ35bc4EG9HW6cZzNdO9dbazheH90P94nC6PvTBX587icWOnz7DwlNh/5BfPMY7Xloz7U2MA8qXP8FJeLlB+7XoDeGe2D4GMHr/uPZDFoy4+Ry3zvGfvzuDgZL/Df7Y/z02n0hqcKUXGxesomu4c2w493eWsNirfFFMAAXKyMdJimqA2X8snFLVxupfrv0p/HZZCCKtL3St8vq2jW3rY0Tz1MzpuqQYU98OL+y9v1ZB4+/UKcglH/DtivtdlfaTfCJP9Wpv8u/QIuwxzyQULCyBoMS9pXL7+5Ulep0vK8xn7lA+OUcQmZkPbKYVsWDi3s2mypJlxviQjH+9+5zENkjHypjp08F7jVsL8RC84bw0DFWqEaNF4/istB2N9vNS+4Ru17nuUwf5+VZel55z84ntlY4Z0wMWdne8tR3GM0a5Jt5BZchLI+YwwUxRk3cLEFL3mjroch94BfKLqUvkBMi5n+7PAd00mO2wjQhCb0okPYTPx8l4yxqtaSME3qVEsubTsCqrfK9WOn9klzcJt89ykzByahb17mUXI27mm8CBAd5+7E6X36j2uplT92sYSzDpzFI/KivYtlqZa6Gob0ZIz/nFnonYaGg8n4kYlMQ9IeruaaGPElzQqyVsIF/du79cnEkYM3C/v+vylWlsFivkFdKFrHTkg3icGhjxj3tgzMxFtiPcXH/ySZp5aoT9fgTohfJyFocd0aUoALJAXfd7Nr8ZKxj3wnPjY3U4kSMhjm/wRLJ1CXxGCBkfvF7A4DrBEs8EPUTnlbDk6/7yMbI8/HbnBFRRQV0XrcWwAnk9n4/y9TkrVYGF1qNBxMd/a9A/pw1szeSf2V27YCNXC/MQknvEnBBPlDEh7IV9C8MrvZCfBFMhcZ2RpePsmxjkb7yGRPbFcbpsX17IUmLJodSU9z27XRwt3dBL8xem8G1jSQA+VPxPdnmp31Xp8DF9rRqpIXAKT2hWEakdOS26JE/Cu7kPr33Rbrgl4r7+/tteGiQf0ngDnT/gHwNAeijErF9AMaj8uVPdMlYMNeVZzWIQSZtPtoBLrai0OvdWgUr3GpxlpXmamy/8MOzqyF4mlw2ezVhTH4qZYb1V0800kFDBkGC/W9zGzaLKu6sNSn0EYcF9zo9P6uvb/bwtS3svejF6m8PBEueDiiqmkYT4K8pNJK47TFA+okZUbHWaPHeTuSlctqq7UMudSh1SGPzHGBexdXw8TuKg8LjQ/xC/r2m6ynwwUXaLek+2HWeC43Rx+XHtDfUkiwBoPQXzRY7WYtQ+VJHrnDx6pwETy3ZMkKY2FxzT58fs+9xAjJnig5z+TFC5/EUR6QNvC2bAzMmtGfe/x8J9oekjCSav5o0Vw2WbfsupGRmV3MdoWL2Lm8Kpi8NE5tQUFobu0+Pz8vy9FqomatkaTBFi35PBxTKQM9NBBx+7LH7RrGz+S9HqRhPlM2DZPd4v3V3sZkFR5mOqAlusgIHc7plVpy8OgstYegwUunIpgKl1fxE5wZLpp4DSNZXHAtP6TDR3cLxaFhzmip23QN+m8hDjJLL9vD1mcacnbZoj/WUxwdHH8AdRoLS4yl2HQyklM+H5/DcDQ6Jc0a0QHuRiDDTdTGpeMgRYN1/zZw4T1zgo+xWXxCG9fikwceANv2g4b8Istov0C2hAwfhVkVauW26FKQOvHiKY6pM+dFy3FUCJj3c5uRbt34mOCWotbdsI555BZ54UN46qbLadacHodCnMwVP5uz8Gytsf9r+7zo44Q/Wf0LgAepfaeurT+atPjKVGKWj+1fmQkVvzaj33H4mBoX1gMOq3EcwyntKCf89CoGQ1/QRE44g9UazHbyV+gzOzcXKyiIybSj58AFjyJoaenDwDxU7GGsDqA1lYZucm2wWq7DcRE7+NOIvlZXouJyK8Lmcrc8B+H6wrr/7Lq63jiyocfAP1hBYB2YLYEzmnWY+0VRlPQ14KG/F37TD/0tah0DT9CCxXjTVWQ2eUQOT2zNI3cdBF/jwluNDSPJGCxVlDFhY/z5jGUjeS351B7+vlXJTpLZjrCrZsb51qNLfFL0NVlNkymPX5bTJEmmT3NcD5kB05b6Ara371aIYyRhCduOiSdTLjrXelW4rKekt8GdzhcROfZAq/NjRjpjPUFV/IRcQaaQWA3chI7P1/RsVb2LnfBj105NwOKXxmyx3ybz2CIwNPLHHYv3qz4MN99BtSPGriSernDvYjw/5s18QjNA7XuR1ZmFCevyB0IHbWzRimE2p9c8UeMBo7qqzRixETJ1Df7T5ccYuVl7fT9+HXpZ7ipc4opMIx4ty9YzeSgs5bhzwFbhAmGVuCQkxLDmlLdqnYRPduLzlMgz4CzZpBmxyixmQzHsPYf4WXEheeXWDRbil4HLYtrWj2VMpsfL9dkL8kU07YE68db9FyutdpMNNkUGSEXbbsactgX+rDHXdOKcenoKLx5Wwt/4tLg465YRboLMvPvWaDppJpgMZ5KMLB/YbYalFpcOeeTqqq37L96OuyEOzwIvxI9kHkvGdCwMJ8DUmOT6ps1moqfFhbQ739yQxJ6ZbRf7xTxx4w2pn8J53uS02Ef2HVDoTszHAwWrIi5Ei2GJZczj+zebjDjJ0JNTCGzEO/QxLgw6zZKWTD7oq1Vn/vPiMgz0m6fwsvSxbduz3SFbB2+LRfD6kW0vJUJLaz24ska1eQzDbapwidZ70pT9sVxuWSCi2UuMsDklAFwlqFkjKtRRFGJaykSx8UqjHnh+elxwEd79s8QB3W2haUJ6rBAx9ffeqeOCgUe+c51PJvsvk8kmjleLgsfzeMvOTNkPBzkMrAbBI0/ZPLO4U2a4w4fHhc+Py+CoTl/K3K06Xmos2k/flQB9LOmk2n8ZODlrc4D4MN7h6Z0+9I2U25TjkqM1ezb8ugWX59djOKfR6dxqUB+5e+tE5MZboHd86CtzXKRyZ2TpWQ5Fn5LQhPCyOSuzwmV0F5eXvwEXrJg78vlB0uXmvi6kxmWQ8mh+RPQYsS924wh5PusP67EB02NNXF65vLCA6qlxcVoK/L8NCz5vcXT//iK14DLlZ7+HOHPNYxM56TZidh9Su89wkSJaJ2S4/AV2f0As5gMtFZ1RwR2b1oM1Xy24rPiBeHj0w4T6yVqp9pPJsbA8sbmXLhPzsxUWfwUuw8Zo8X5wwZvH/qM7gG248IF5uN/ACCku2pt0UBPLXNLNs5QlcGSvg+VqoLaS40rvOXEZuK155W/ggktmHv6+NS7yMUcMFz3Fa9hPskNWnf9C8jAblnERJ6jj06BZFoBfnMvLs9TBNsjMYWu//XdwuTvQ6orU8pIcGC5kpJOZ8NFfo9p6mCOGBBl+jWWKclw8PctdMm1YJXA4Lh8/UPvcB00udsse8DdwAWD8cFmWIn4xnNWax5V0mLizZ1Z9XeOeLJkQ0b1mPIiLYlfXRBtjligop808//JJccGdqn3jopMo8EGqcDmM5yNC+Tjgx1NDQL274Yq5xOWeFyG47PxKyKfoIyeTRvwHvh1unA60DuC9LkA/84nVT7KDfEWG1TqY7IuooH8f9JHJ56j2xUq6L+aXpcdHe3v8sXYWTDhKax4PTTM+nX36Qm3RmLLTysM4MUzS583ORv6sQWDaTis/priu7/t87J0SsnPZFzT4Os2Rn53oqp6/3hmDXl0a6Fqs1sUr1sFi8RExnEB9PKgxp3gCUGZoSZCVbELsTDpHgA/N3oVBeHNO7S+RGdgPDbi4AwtOWH5FN7TuvyCOZvWQHDOx+PxrzfM8nf9dWEKar+olHrM3ttSEE/NJ4nh0qff2hLgMXL9bmqwjMBpc3L/nNeE+vivCbHsvQrGgzaRHiItVexB6llQK68wj8aBFJnMnUYoN6x3Uv1s8Iy74kKO+0mS6fMbPA2TkL7aCvM8glcsMzM0ow1OWOXTwxbvkjdpxY7qfka07StC2/ddGhY97sW12De055QWPP7u/odINFeSLveT376ggI7WsbFlTtsTbY+fUve6TMNyRVZB5+XhkfmHl1+3kprMKDyX+PZnqcghWzRoSMw4KGy14wdfovx+tFzrhp+/73rJO5198cdqRgbepnYmD/3HIXzCp62kMJ5nPx+H5dTyaJ+oGFzyJeZ4H+/1iNF9tVOUjhjufj94C9PtRj2Or+iQjeCFz+L4JDCkIAH+mNN4cDg3DMYzhsD2CxWscvKZtyRBfBF3iJ4cwf4sm1gs9BfbLyBBFiJthT8/6Hf9KmoTQbus+7ggLmX8R9TJU+D+qyBh9vkAgbxg/QFSHvTzYovEf3adhcvZZVdhXcMG+6Gf+rEnAv5qG7vjgUc/xYbK92Xn+B8dO/p+R467GX6KT2/PQx//oP/qj9D/bnQ6Kim3swgAAAABJRU5ErkJggg==;" parent="1" vertex="1">
          <mxGeometry x="-280.64" y="563.75" width="131.29" height="40" as="geometry" />
        </mxCell>
        <mxCell id="dq0KdhcwPf0WLffFqdIs-15" value="" style="rounded=1;whiteSpace=wrap;html=1;" parent="1" vertex="1">
          <mxGeometry x="-290" y="628.75" width="150" height="75" as="geometry" />
        </mxCell>
        <mxCell id="dq0KdhcwPf0WLffFqdIs-13" value="" style="shape=image;verticalLabelPosition=bottom;labelBackgroundColor=default;verticalAlign=top;aspect=fixed;imageAspect=0;image=data:image/png,iVBORw0KGgoAAAANSUhEUgAAAZcAAAB8CAMAAACSTA3KAAAAk1BMVEX///9tsz9ssz9usUBqsjz8/fv5/Pf9/vyjzoRnsDTD37O62qVhry3y+O7u9unl8t3Z6s5zt0Z+vFV6vVHJ47m0152s05Wn0I6Fv2Lq9OOay33e7dSnz43X68uYyX7t9ufP5cKQxW6Gv2OSxnTA3q5+u1iizId1tUuRxnG32aGt0ZfM5L5stj2n0oyOxWqYxn2FwVtiwv3kAAAbr0lEQVR4nO1dCWOiPBM2EDm0iKBySFUUEK3V9v//ui8nJBgUW7p193tn32NrI+g8zJmZyWDwH/0rZMSrsfUlOo9c57c//b9KTnqe2S/21+gFRsep8dtf4R8k47T0bKh/maD9Ugau+dtf41+jOECoAF0HX0MF6ABo0Pbn/4lMn2S6S4SKBgh/v0I6gRTaYPwfMD2Su4RQ+yomHBodaBr8D5geybGYDvsWMFgFAgjnv/1t/h066fDboBBg0B/bj3/76/wrFEfflxUODDL+wW9/n3+EhgvsH/cBCwYGQC/57W/0b1Ayg6AfcaHA2NZ/pr8HGp4hcaZ6ggWrxNNvf6d/gVbet11kGRrdzia//aX+fnK2dn9aDFCfDIz/y8d8l3Jk9PtDhQIDI/e3v9bfTnEEv559aQMG2uHzmX7T2cSbv2UzYhh0UmJkSVffAPvK/uq3v1mTjOS4z/ZBMvztD9KJEq9TpM+Sxt2wwbiA85efTNNwnNiNJ47Tq8wllgdtaF/+Cg1rnGEnHYbzXsg9gLAbimhl+UVf2YnT8Vuwztbh22KebHp7us3ch5oGNBg8n4a9plMJ74sAyeDDaL1YrHegAzAkhgGHr6TJnOl4XSDzhAlCfxueNj19UyfUEC4ImeIvMDGTDHYQFsxmmKUxUi9TS+8AJHmD9rivbLp5VgL8WGPSNAi1IuwpqTOxNEJg9hfgMvY6qTEd2Eumll3L7mhj4O5Rjg6T0EcPNdBqAtA79ONBGAuPyAvMnh+XpOiUGEOwRBWP3cjuBqXmPajJzeRcEtYhOSFEobGjfoBJL+S64PT0DpkRaO3iIgiFDl5qnTQc17hwJ00NjB6lD32cTegxGSmjy+XiaxyYSy9ZHWN+8D1/lz+/uEyLtvR+VU1Bf4JgWr3JTHWaH6grNJTYotf09SMMNVKfKhpvmyeu664WW0+nwIx7+bqGu5qvkuf3xoxQV1l9wmoNuUSVOOhwVjv95tQjuGBY8CpIM2LX0CALUz6ypTyxILEs3nJFeeekB2pqoN+XU/b0KgzTyVfzk4BRFgUgu2W6GhcMCwTlbutrLXkc/PvlA76y+0nFpRzxR3p4Kqhis3P1W4wYydXkDrNxjNpBSMwJulbcquTorf6EsMWZKr2vkxAyOqbJdG4xb03CZVDhAsswRepmHME21xmWeWdfeXii1gUWtZk3LCYwW/KjGa+mK0xEGW3S/HWZZdl6PJdDeDdd1avieZBloYt98NVqit/OEzHVsgG52NhC11q+5isFNMZqvlijX1vjE5Zlh36KlWrpt2k4LhW+GIXlkDrmwDTihQ+v5KXCBfo5flRNZ5UBJTBYz207+8rOgvlions996hnRmOO4dzfRZiCycCZL6MSo4ZFezkWkZlHlEJnMFxZhafBC75kvkMU7QqeUR3TixXhEF3MikoqmuVuv2pIhZEGlwL/GmplsUPxVLIs8Dt3l58oMEkuKqNPMighf6TifaseQ8sCZtWHblBCpfXXgRd0faac0Ka4RLWPMXCzovhE/8xIUmc4eqH+894xRoXGHWkkrmWW1tpsblMwPxxzdSHhKXk6xiV51V4yti9eAPl5PTTmGDx2MQAi2WVzg53H74XWe+Ek2dE7/EThjxF46lAf8bsGIY1gi7ygsLHWN3FQqowM1nVF1zSZ88Zw8ee17jNcRoQDCBf6UAdGshWjT8TUYl4BM2c8/HAmIeEnxSWnwZG9ZAsRLmTZ3nQPULwa9EeCxLhWyTBjOjVKk8ym634Al7SA2pW84OpvLxDuhmxQq7xkAlatwACw7+hLGSOdsWWpyPgSqDguXpgE+NHFvQewYmbK184ZA/cO9bxBA5daXgi39zF6RGk+jl8rSqpHA8HCJclG90Nr9OxcwJ/CxdmDK3EhqqgMxZspcKnk5UNcuAlKoEodIIHp6isnM/acl9ZU7S1U8lJsfVBelsExWEaVAor452G4gNdNiJM6iJ87qsc0pbwUyxksD+HinBX8Uu9HLjDOsuQSGVn4fgXSmh5/FPrHZe7D61Ad47KWHtau8oKAsZSZZl3TVY+/iuIDExjE90Dp6nBccOx5GbuOYRhOlbvR7JChyXBBjERMtOHscsD+GLYvZJkl44Lvt51P8LWmSyYydpULPzLZA9txTO43PXuVXesfl42l4qHOPJeaTkW7vPgjaam7hYqkDo6EOhaSGznXIxrUC2txDU2NC7hU/RyThc/kzGcfcl7xW/M+g6nLNthacfGylCGarKmhgR5LosVMhPQtXzJwxt6P4WIiXXsFDM7NNzJa8Rq0+mM6bASNq0iRBH3EV3aXNTDoUv5lOXIlSCtcoIj1Jiwpg19YuqbCBepLwedtxcWvkn/DU8Q+ArP8Y+aLlMIz6Lz9mB5Djt5VSEkKWI+SYkduMvEN1PE+1CxJQw3z4tr0k/Bz0c1XNlZbrSaS7/esufDeGpe1yJFpxLUPXVvLSya43BUuDfuiwUP9NZIDc72ovDhbJi5LkS/TLRfQnnFBPvJ1HIgZLeUZzVUGITPeCj2GxesghWBGqCltFuyaqB+uDpV/xciGtcaqcIFlLuZehiwPrdkUhgoX2eXg/tiavffIcBG3I+IPBjGVlylDSZe+gBP8kLykkSrSR55JKiwyV1vu+sq4JDwPg2MYaTOD5KcVvrL90dFXNuPF7AXKkQnUz/zdFS6NoGjFrMALVZgcFyins5vxy5H7YwLTnZBdaUFwOensOZBdF5747hmXSehdV/LhLGMgSKuRbgG3FypcKDDa5SRKzFGVoMYZm3nXNJmZBMVLQ2jgJ9NlCBfKyt1UehNTZODlSH7k8UtDK7fhIkqzETB5ITI0tJjCOsieS/oj8Ys5akmMFQLzsbRU7pUSF8pxcBESIIPNTp0oU4aKbRTPUUBRB3mYS5+ULxyX9728r+MyhW9b5EeOSySj14bLTvhsxhuTF4KLc2F6rLH/M939BC5IhyoDwPIoftW14Fwp7QvXUVIYM/JaNmLyh3Y+nPn5UNbIAHAmL3NcmhvUTsZwoaF8hYts1tryMOJ+/1DCZcIcCrCQP16y/QFchvjzKTImUBSXSQAEmVL6yVT5IWBC4eElRbWqICaTn937ZEzHh1mtycj9qzxMIxlqcGudSbg0/PM2XD4EkDkuVI9Nduy5aDTA/QguSaZkHQSL+pE2cinddUNeEJ6emOVbAE250wbeHt+rcOY7LjKAyHKdH2vgsubyQgzK/J3ispa9jTZc1oIoN+SF49KUF6rfJK58l4yjwug3xWUq24lWeSESY4s5AjdSKknNlny9ruQeuIUhHG+TF6bHALcvHBfZCrXhYgneQUNeeJR5lC6EI+jecUkj+4ptBJhl/dQ7RyDtzbTKCwUGinGjpRIYRDC8U4NhUvbIjhv3gGGJVUYVVzbkJd4yXGi8wnH5kFe1yotCjzG7v+MaseGP9e8nb/ZKLYasvrCFjuVUXHMLF/zeYlVzc6SsFCQ1GLdMvzlZTSlJ8DlcYEgrLcfFbliOacFwYXEll5duuHwo9BiVF64fG/GLeeodFwPnkZWPs3APZwxk3t7QY4Tn74LATAplSRrSZNktqTenM1L8qvlSyGiGLMdMIu46rkylN7N4ArxL8f53cKHyMhgxPeZJ95uE9NUecYn3qgJLklKpv4SbNUpd78gLEJ9fw1JvT+t3BpTEO7oH6AWSwLwyFkjyAv2RqO6MPWBiJOXHvi8vg4TtIYBM/OjTS9/5MexnqSpXdNG0memsEbXfkRfEcmGKEnrGrm9ALnIzr+wsWOq2EDMITsZw2WEeV/YF7KW8JdtTtuV8cg/y4hy4IhMeBGfhgZ5xSba2yiojcdHrFJ+zuEoK35IX8nbBQeLlmFcEwfGGr8yrLTUtq6fLDed8b4VEEHU+2c+FPP+eFTh9Mtz7k5dBzvdadvxpMZ3chz3jgpFWl6xCv4773KzJ2Nvygt8uNGHFLRYMAVOkN0x/zJNR2uFES/WGzom7Y7QrsJYXGPH8P051cuzY1fuTl8GECYwGLjnZr5wkQVU33Rcuw9VOUWtBGSuYlyS6iYtCXpBHVquo4VKNC54cc6sGw0AgUEZphXWaJsk03XNpAZZUd4GzzMUiIXxKw4KWT4Cq5aBHXAZcYDVQHsJ8dLQuHiwudCOuL1xwckVZf4+7jir9aZzKR+VFh55gYKwWeSF55Rum3wm8qkgLeL4/4xkyqDHLVMuLhzyBXZDn47UP2NZVUaUdetRjKJTzqkfBfsH1MNA7poc+/eThyW/pqkAcqzfknLer/pY78tIwMOc2PYaWWbd85U3ISyhoBwzfRgGHlH0Djssl3OEypXdY1ylF4+oT9CkvCJioSqACPCoSLF231/zYJFQafcqwc82d821cruUFDx45195tYLfdBcDZzfGXm2NVdVQR1Molr3mocAkmORUTDh0UYKG4AAUuxFGUcMGMFvOWOM9PFtUZayPferAu7dS2J5Pt9/SES3Kx27pdAKwzppM7uCjlRcKlXV7klM01Oad9UQq7Yogf5XZcFdlV9WOhES9BXYYHy0wsA5hjWUK0lO919Og8YZ5wCl5oe62YtzTe2NBhYSyEsXrbFYDVSUfWyRn0istw7rV2ISF+Vevu4aKQFznZP1Ym4Nh97jRemPFpsS48D7PBBp63/ciFmcw1Ls5wGm5nZBnwivVYGpaQLj/2H1m2HMu4jHDxf7bMeM3eKMMl+ll2FHEZZZRyUa6d6Skgw7v34zQ2q6xdP7gYc3BD8d/Bxb8pLxiXmgejdlwkx01NphOneX583e/3b+M82Yj8qXB5dQbmJBmNF2jVEfGqsU0Wx5NJjP4zbL5MaGKqf2Z3p+Q0Nr6dDSbW/8LzlkUvuOStvZT3cfGEPr6VAl8Rl/wmLl32x0zTcCaTidEsChBxIesMZ3O9qkfiKMXSPcw5r6zpo+/TCVr7iO/aFyB0OA5zxe+hMHVk0TqeCeHir77BxiYuP07Jev2BaC3XE/C8pZ3fcmK6EvJ/23qH7/pjQJhb5W6VuHSw+38fLnFEGl1sT6wU4EWZ0Ev7EFVjdEuP3YxfsMDwyCMO4ZX70DF+6azH2uiP4zI428QX9861fTVWS5YmfaR5tJ2QP3YDlzreJ35bc4EG9HW6cZzNdO9dbazheH90P94nC6PvTBX587icWOnz7DwlNh/5BfPMY7Xloz7U2MA8qXP8FJeLlB+7XoDeGe2D4GMHr/uPZDFoy4+Ry3zvGfvzuDgZL/Df7Y/z02n0hqcKUXGxesomu4c2w493eWsNirfFFMAAXKyMdJimqA2X8snFLVxupfrv0p/HZZCCKtL3St8vq2jW3rY0Tz1MzpuqQYU98OL+y9v1ZB4+/UKcglH/DtivtdlfaTfCJP9Wpv8u/QIuwxzyQULCyBoMS9pXL7+5Ulep0vK8xn7lA+OUcQmZkPbKYVsWDi3s2mypJlxviQjH+9+5zENkjHypjp08F7jVsL8RC84bw0DFWqEaNF4/istB2N9vNS+4Ru17nuUwf5+VZel55z84ntlY4Z0wMWdne8tR3GM0a5Jt5BZchLI+YwwUxRk3cLEFL3mjroch94BfKLqUvkBMi5n+7PAd00mO2wjQhCb0okPYTPx8l4yxqtaSME3qVEsubTsCqrfK9WOn9klzcJt89ykzByahb17mUXI27mm8CBAd5+7E6X36j2uplT92sYSzDpzFI/KivYtlqZa6Gob0ZIz/nFnonYaGg8n4kYlMQ9IeruaaGPElzQqyVsIF/du79cnEkYM3C/v+vylWlsFivkFdKFrHTkg3icGhjxj3tgzMxFtiPcXH/ySZp5aoT9fgTohfJyFocd0aUoALJAXfd7Nr8ZKxj3wnPjY3U4kSMhjm/wRLJ1CXxGCBkfvF7A4DrBEs8EPUTnlbDk6/7yMbI8/HbnBFRRQV0XrcWwAnk9n4/y9TkrVYGF1qNBxMd/a9A/pw1szeSf2V27YCNXC/MQknvEnBBPlDEh7IV9C8MrvZCfBFMhcZ2RpePsmxjkb7yGRPbFcbpsX17IUmLJodSU9z27XRwt3dBL8xem8G1jSQA+VPxPdnmp31Xp8DF9rRqpIXAKT2hWEakdOS26JE/Cu7kPr33Rbrgl4r7+/tteGiQf0ngDnT/gHwNAeijErF9AMaj8uVPdMlYMNeVZzWIQSZtPtoBLrai0OvdWgUr3GpxlpXmamy/8MOzqyF4mlw2ezVhTH4qZYb1V0800kFDBkGC/W9zGzaLKu6sNSn0EYcF9zo9P6uvb/bwtS3svejF6m8PBEueDiiqmkYT4K8pNJK47TFA+okZUbHWaPHeTuSlctqq7UMudSh1SGPzHGBexdXw8TuKg8LjQ/xC/r2m6ynwwUXaLek+2HWeC43Rx+XHtDfUkiwBoPQXzRY7WYtQ+VJHrnDx6pwETy3ZMkKY2FxzT58fs+9xAjJnig5z+TFC5/EUR6QNvC2bAzMmtGfe/x8J9oekjCSav5o0Vw2WbfsupGRmV3MdoWL2Lm8Kpi8NE5tQUFobu0+Pz8vy9FqomatkaTBFi35PBxTKQM9NBBx+7LH7RrGz+S9HqRhPlM2DZPd4v3V3sZkFR5mOqAlusgIHc7plVpy8OgstYegwUunIpgKl1fxE5wZLpp4DSNZXHAtP6TDR3cLxaFhzmip23QN+m8hDjJLL9vD1mcacnbZoj/WUxwdHH8AdRoLS4yl2HQyklM+H5/DcDQ6Jc0a0QHuRiDDTdTGpeMgRYN1/zZw4T1zgo+xWXxCG9fikwceANv2g4b8Istov0C2hAwfhVkVauW26FKQOvHiKY6pM+dFy3FUCJj3c5uRbt34mOCWotbdsI555BZ54UN46qbLadacHodCnMwVP5uz8Gytsf9r+7zo44Q/Wf0LgAepfaeurT+atPjKVGKWj+1fmQkVvzaj33H4mBoX1gMOq3EcwyntKCf89CoGQ1/QRE44g9UazHbyV+gzOzcXKyiIybSj58AFjyJoaenDwDxU7GGsDqA1lYZucm2wWq7DcRE7+NOIvlZXouJyK8Lmcrc8B+H6wrr/7Lq63jiyocfAP1hBYB2YLYEzmnWY+0VRlPQ14KG/F37TD/0tah0DT9CCxXjTVWQ2eUQOT2zNI3cdBF/jwluNDSPJGCxVlDFhY/z5jGUjeS351B7+vlXJTpLZjrCrZsb51qNLfFL0NVlNkymPX5bTJEmmT3NcD5kB05b6Ara371aIYyRhCduOiSdTLjrXelW4rKekt8GdzhcROfZAq/NjRjpjPUFV/IRcQaaQWA3chI7P1/RsVb2LnfBj105NwOKXxmyx3ybz2CIwNPLHHYv3qz4MN99BtSPGriSernDvYjw/5s18QjNA7XuR1ZmFCevyB0IHbWzRimE2p9c8UeMBo7qqzRixETJ1Df7T5ccYuVl7fT9+HXpZ7ipc4opMIx4ty9YzeSgs5bhzwFbhAmGVuCQkxLDmlLdqnYRPduLzlMgz4CzZpBmxyixmQzHsPYf4WXEheeXWDRbil4HLYtrWj2VMpsfL9dkL8kU07YE68db9FyutdpMNNkUGSEXbbsactgX+rDHXdOKcenoKLx5Wwt/4tLg465YRboLMvPvWaDppJpgMZ5KMLB/YbYalFpcOeeTqqq37L96OuyEOzwIvxI9kHkvGdCwMJ8DUmOT6ps1moqfFhbQ739yQxJ6ZbRf7xTxx4w2pn8J53uS02Ef2HVDoTszHAwWrIi5Ei2GJZczj+zebjDjJ0JNTCGzEO/QxLgw6zZKWTD7oq1Vn/vPiMgz0m6fwsvSxbduz3SFbB2+LRfD6kW0vJUJLaz24ska1eQzDbapwidZ70pT9sVxuWSCi2UuMsDklAFwlqFkjKtRRFGJaykSx8UqjHnh+elxwEd79s8QB3W2haUJ6rBAx9ffeqeOCgUe+c51PJvsvk8kmjleLgsfzeMvOTNkPBzkMrAbBI0/ZPLO4U2a4w4fHhc+Py+CoTl/K3K06Xmos2k/flQB9LOmk2n8ZODlrc4D4MN7h6Z0+9I2U25TjkqM1ezb8ugWX59djOKfR6dxqUB+5e+tE5MZboHd86CtzXKRyZ2TpWQ5Fn5LQhPCyOSuzwmV0F5eXvwEXrJg78vlB0uXmvi6kxmWQ8mh+RPQYsS924wh5PusP67EB02NNXF65vLCA6qlxcVoK/L8NCz5vcXT//iK14DLlZ7+HOHPNYxM56TZidh9Su89wkSJaJ2S4/AV2f0As5gMtFZ1RwR2b1oM1Xy24rPiBeHj0w4T6yVqp9pPJsbA8sbmXLhPzsxUWfwUuw8Zo8X5wwZvH/qM7gG248IF5uN/ACCku2pt0UBPLXNLNs5QlcGSvg+VqoLaS40rvOXEZuK155W/ggktmHv6+NS7yMUcMFz3Fa9hPskNWnf9C8jAblnERJ6jj06BZFoBfnMvLs9TBNsjMYWu//XdwuTvQ6orU8pIcGC5kpJOZ8NFfo9p6mCOGBBl+jWWKclw8PctdMm1YJXA4Lh8/UPvcB00udsse8DdwAWD8cFmWIn4xnNWax5V0mLizZ1Z9XeOeLJkQ0b1mPIiLYlfXRBtjligop808//JJccGdqn3jopMo8EGqcDmM5yNC+Tjgx1NDQL274Yq5xOWeFyG47PxKyKfoIyeTRvwHvh1unA60DuC9LkA/84nVT7KDfEWG1TqY7IuooH8f9JHJ56j2xUq6L+aXpcdHe3v8sXYWTDhKax4PTTM+nX36Qm3RmLLTysM4MUzS583ORv6sQWDaTis/priu7/t87J0SsnPZFzT4Os2Rn53oqp6/3hmDXl0a6Fqs1sUr1sFi8RExnEB9PKgxp3gCUGZoSZCVbELsTDpHgA/N3oVBeHNO7S+RGdgPDbi4AwtOWH5FN7TuvyCOZvWQHDOx+PxrzfM8nf9dWEKar+olHrM3ttSEE/NJ4nh0qff2hLgMXL9bmqwjMBpc3L/nNeE+vivCbHsvQrGgzaRHiItVexB6llQK68wj8aBFJnMnUYoN6x3Uv1s8Iy74kKO+0mS6fMbPA2TkL7aCvM8glcsMzM0ow1OWOXTwxbvkjdpxY7qfka07StC2/ddGhY97sW12De055QWPP7u/odINFeSLveT376ggI7WsbFlTtsTbY+fUve6TMNyRVZB5+XhkfmHl1+3kprMKDyX+PZnqcghWzRoSMw4KGy14wdfovx+tFzrhp+/73rJO5198cdqRgbepnYmD/3HIXzCp62kMJ5nPx+H5dTyaJ+oGFzyJeZ4H+/1iNF9tVOUjhjufj94C9PtRj2Or+iQjeCFz+L4JDCkIAH+mNN4cDg3DMYzhsD2CxWscvKZtyRBfBF3iJ4cwf4sm1gs9BfbLyBBFiJthT8/6Hf9KmoTQbus+7ggLmX8R9TJU+D+qyBh9vkAgbxg/QFSHvTzYovEf3adhcvZZVdhXcMG+6Gf+rEnAv5qG7vjgUc/xYbK92Xn+B8dO/p+R467GX6KT2/PQx//oP/qj9D/bnQ6Kim3swgAAAABJRU5ErkJggg==;" parent="1" vertex="1">
          <mxGeometry x="-280.64" y="646.25" width="131.29" height="40" as="geometry" />
        </mxCell>
        <mxCell id="dq0KdhcwPf0WLffFqdIs-44" style="edgeStyle=orthogonalEdgeStyle;rounded=0;orthogonalLoop=1;jettySize=auto;html=1;exitX=0;exitY=0.5;exitDx=0;exitDy=0;entryX=1;entryY=0.5;entryDx=0;entryDy=0;" parent="1" source="dq0KdhcwPf0WLffFqdIs-18" target="dq0KdhcwPf0WLffFqdIs-14" edge="1">
          <mxGeometry relative="1" as="geometry" />
        </mxCell>
        <mxCell id="dq0KdhcwPf0WLffFqdIs-45" style="edgeStyle=orthogonalEdgeStyle;rounded=0;orthogonalLoop=1;jettySize=auto;html=1;entryX=1;entryY=0.5;entryDx=0;entryDy=0;" parent="1" source="dq0KdhcwPf0WLffFqdIs-18" target="dq0KdhcwPf0WLffFqdIs-15" edge="1">
          <mxGeometry relative="1" as="geometry" />
        </mxCell>
        <mxCell id="dq0KdhcwPf0WLffFqdIs-18" value="" style="rounded=1;whiteSpace=wrap;html=1;" parent="1" vertex="1">
          <mxGeometry x="-70" y="595" width="120" height="60" as="geometry" />
        </mxCell>
        <mxCell id="dq0KdhcwPf0WLffFqdIs-40" style="edgeStyle=orthogonalEdgeStyle;rounded=0;orthogonalLoop=1;jettySize=auto;html=1;exitX=0.5;exitY=0;exitDx=0;exitDy=0;entryX=0.5;entryY=1;entryDx=0;entryDy=0;" parent="1" source="dq0KdhcwPf0WLffFqdIs-30" target="dq0KdhcwPf0WLffFqdIs-38" edge="1">
          <mxGeometry relative="1" as="geometry" />
        </mxCell>
        <mxCell id="dq0KdhcwPf0WLffFqdIs-47" style="edgeStyle=orthogonalEdgeStyle;rounded=0;orthogonalLoop=1;jettySize=auto;html=1;exitX=0.5;exitY=1;exitDx=0;exitDy=0;" parent="1" source="dq0KdhcwPf0WLffFqdIs-30" target="dq0KdhcwPf0WLffFqdIs-46" edge="1">
          <mxGeometry relative="1" as="geometry" />
        </mxCell>
        <mxCell id="dq0KdhcwPf0WLffFqdIs-49" style="edgeStyle=orthogonalEdgeStyle;rounded=0;orthogonalLoop=1;jettySize=auto;html=1;entryX=0.5;entryY=0;entryDx=0;entryDy=0;" parent="1" source="dq0KdhcwPf0WLffFqdIs-30" target="dq0KdhcwPf0WLffFqdIs-48" edge="1">
          <mxGeometry relative="1" as="geometry" />
        </mxCell>
        <mxCell id="dq0KdhcwPf0WLffFqdIs-30" value="" style="rounded=1;whiteSpace=wrap;html=1;" parent="1" vertex="1">
          <mxGeometry x="-267.5" y="808" width="245" height="122.5" as="geometry" />
        </mxCell>
        <mxCell id="dq0KdhcwPf0WLffFqdIs-17" value="" style="shape=image;verticalLabelPosition=bottom;labelBackgroundColor=default;verticalAlign=top;aspect=fixed;imageAspect=0;image=data:image/png,iVBORw0KGgoAAAANSUhEUgAAAOcAAADbCAMAAAChknbEAAAAsVBMVEX///8WplMVm0kXm0nj9escrVrP7NsApEvX8OIAmUL8/v2w3sL2/PgPmkYAnEUTqVXG5NFNtnRRsXLb7+MrtWUKoEwlpFez3MIzpVym1rdivIMAljyr3L3t+PF5wpQAqFCHy54Aokac17O95M2GzqKR0qp4yJdXvn8xsWVrwo07s2xcwIS34ciY1bBxv42QzKY3s2lyx5NkwolGu3R/zJ1ArGhpuoVXsncAkzIwqV6azqv6eHLhAAAOmElEQVR4nO2de3+iOhPHlVIQBLR11Vrqhdo97XZb7W63buv7f2EPKJfcJ0oSfPbj769Tjxv4kmSYzExiq3XWWWedddb/jew+qmWnjpyqoU7QNBgm/6E3d1H16ghpqvf03W8aDtGr29Yl97+m4SrZPW2YKeiyabxSD/q6M9VT03iFplox28n3pgFz/aeXsz23mybcaaBzdmZyf5yCzfV1d2faoadgijq6uzPt0KsTcBd+ae/OFPS+acqWM9eP2W5fNm6KHg10Z9qhvxrGXBrBTEH7jWL6z4Y428+Nct6ZwmwnTZqi4JspzNQUTZvjvE/McTa4QJsa7M7UK2rMFH03NjszuY8NeUX2k0nMtEPvmuHUu7xm6KkRUzS4NIzZdv80wfnDdHemoAPzmI55zEa8oqsmOBPjpsiUA0/IuCl6bgSz7T6YxewmzXC2e45JzOBN4pZc9+nq/fIgJeBscH+aDP7JOPDuQ+an+QfJvgVB511zmFOJ7pwftb4IrsCG38yZIhkH/um40FUngRo2Z4pkHHj32KzIH3jkdpTS1LmV1HM5dnRNQbfZfVRKw5VMBD4ZH918F3yKyYtCGr5+wt1Zy/rD7RvxivoSEXi3ztvcgUeuiZSohANfM2YFm/NL/aZIxoGvmZmdgs6z/pSoL9Oddd9wywR8krpTojIO/FPtwBwYq3Df9Ab/gne4OxXE5QLYn9driu4lRq2KOOsE9op0pkSnEh5fT8nUAfOq7k8Vl+FIwoFXlJKFX6KJPlNkw73Z7imKPYJRcPdZ27vlt0R3viq6VgCmkLUVinUkPL7675RCsENyqSlsLeHAJwqjGmDFjqbqjL7EqH1XeD243FWLV+RLdKfaC98l0PXeNZgi2Olsu7/VXvINHLkTtRdsyXl8qpdLA9DwucpX3PAg0hCJe+kBDzdR9RorJBOyfVPvcjq/nr6J9KQ6ai3h8elJ2k3tgc2X6mFrSyTpr06h7LmmJKpsk2ZLDZWoI+Ei/Gj6JhVIJmTbeClwfUl4fHPDiWYd8iWKpr/9A935ksDd2Xylfm1J5F7nzyew86KuJJL0rpkMllZJxPjc23/ARZAoyzSWYdYoiW1yzdRRKpZEjK/XYIm+KkmUZSpfAzYhiTTgpYQRCgRrKzWqN6Yksrpwesy+fzys/O0Y1SufktjEChVE2X+eXP1FrPX2iMq4QkA1T/fSSKXuvJanErzDFxCvOzUeIYGqbtIVfqvMhTHb18QAZLv+ZiW4HGEuiokvjez2VRDMCGDnVpDwnIIBdUVyazue8A7POT8NaWoDmoK9hBI7di95JiAwtWNprsDxhKcYt8TF2OZtJYltuGSdF+rTf1LGXtwBdZAG4HV4eWVD+yZdRfkO2JpwylDNvFSUnQoCp8rYZcWBGU51Gz3gdwszDmaGU+F25gCuh2WOHSOcKksi4NIE5okyJl6favdhwYkH1jEOJnb8JkpDjXAlGCvmNzawvFacjYRf+Yx62Kl2TOVVuHDenuUsaD95wF2oxZSJCyS0syBTllxL6s+Zgne2uo+05YP3UNWSjsjxC9yhDMfke6KT8+jNegJJlDEyLus/aATVc+AJfLIbq5baf53rGru6jvWDa4iYIWvnUROpruSyRPUkM0HoL3/jpx1LSAJzzrB7agS/DnscLyxwuvfb7bYrqbuFBKi++jM4rqVs8wx86I/qmmZU8G4ohrNwnO6hSTLXeEYPvClS2R7xDtCheo9/gyOVqvaIQ5yaTxaFl5SKKqYAj1H3Dm343aLogEhghmg//AP245Rs+geWR6pCtnzZ4BmMKoaUDUyPd/2VPPCO3volqlAhrImzeeCM6Lx2eRjwLF0jOw7gtXOvZodCB6gY2nEAZkRrBuGgUWvqvBoH6s92Ussng/JW9ZP0koI3oNbpUGgHurkDfyWCnDXceciHNniWPBjkrLFogto2eVKhREb02A61E6DlI89XO07gZlD39siWoYJCsz/1EIAL0SPrCkFvS0fIViAwI+oe5YJCq06l5xZICYxaH2P+fWh5a/6XWCQyoocbxjuoUY1nt/AEZ0Tdnwc6Ll0I073SwyISfG5i202uXl/6A2eZ6q7U5PX1Dtdyp8l7AjbYxH4giaOl0jubz3vzTKLg+zz/BthYI1uG4XeLauk6nwbQi6Fi6UKmz6YuJHOwi0oZ9fhQmfmtq0LKTqo6XCZ+u6xQz+B5zaRsgx1q3ONDZfCXZhrdAS6x7UORGvD4UMEZUUVqwOND5cMb7ZSo1gHJKiRzirMCzOYPiTHybmnI40MFhgAUyMi525AM/OyV4aAQWxIL0Zoy+RMdAuney3oSP8+bytfcoSdz8JjeamKdhV8HSmtkITmdk6p0bvRs8Hc/aUkc9nKs6hYBKJW+yMJJdWer9SfRxHkCHh8qXScIaDtT/Fh1Hi/nPfWH0LyehouAKHCWfUe1TsGvPeuss84666yzzvr35Mw2MygWM11vNhOGO2avNqsZrdVms7mlf1TDX65uF0jxSGc9W0CZhWC8mHUD5M/ZbAv5hax2/UXkpZoJPeflKPvOB1Xf4q/i0ONpSF4qWGWXGpb822H6ZzQTVvc7H1lTV8UybXC9uxHhw/HX0a5d/NN1HFqp4o3gcgNr9x3vhnyQTmTx5RFXas3ii1Shl/8Y6vjTyv6O14J7HkRh+iXL+9hfeXrjZS2HkQh0sSf6xBL+01GY35XgEOaZl3+HuCX/ryfgDEd47GNg7bguwo/d2PG/wt2fVsQPkTjR/jsX8X4QrOO86ZgPOiu+00Z7pV/2iAD0o3gWRP7qRYSZfn2LfXvs7e/ZGu5GYSfa/3nhcXdT9a2w+M5+uK2KC4ZDnkWZlffkoV+pOFMKzhwNbnLOEE+7BgU/r0O/sCc3jvObHu7med+zcgberwD1RwXmRXid3VtQjZ9wxAadVTwxh9PyVmxQHudW3J2WFWFZd5IzBDgRzJwT6SwOKIJpDdH5gHJaMRuUw1lObX6H/q3B6SCYBaczrC4ZXtBzdBEjvYbVsGOcHKvL4VxD3ZnaPPSRHsY5iBDMgrM0RLu7icj33AL7v5h5wznZxojNOa0a9Ya4Ktu2OJbTwTBLztb6E0Hx8B6doZhDPDJKcDJB2Zyl7bOixRTXSzm8IsS2H8LZH2KYFSfeo5jVRSav5X0RAWCSk2V1mZyVi5C/D1FtikvGyKvlAE7UBBGcrTVyx6gxQk2Q90UOaYqTYXVZnP6m6k76x97LVtFnIM9JYaKcHFC8NykPleakrS6LE/Ev/tIj3b8trhpVG1qkOR0KE+PEDGBo7ecoZoJGdKE5g5OyugxOxOOLWe+xfnFZZL7LcuKWlsFJ2NUO+cmQkZxhcRKvHhbnuGzX2zAwW63r4p9UqxZJToeBSXDiVjd16jFL22bloCpO5BVMWF2as/zE4nnh/c9or3hVchYfuSLOyqfN1ikcTtzqjm4xE8RMtZWc0fYKnckbpF2as5oh8YKJ2WrdF2vuRdFSv1yR23xO1ASl66ObkM2JGyO0h2gTRHC+5Iu7/P4RY0RxTq2i5XDIXdv7hTifMDkJzNaIx8nxxkIOJsI5btkcUIoTWfts2c1KiMXZQTGzocLnZIKGI15+GOUkQEurS3IOqtXR1/GJSgYnZml3M0LAidnYYnRx0+AYZ8v+QOdoYXVJTsRFqErT7O1isfh1y9Yu+uT8Wez1wJmfqKW1PjNMISdmdXc3zO1NkpME9VmclYkOKxdhMuTGwzzvc0cy/sz/jNj2FrO0uX0Tcra2Q6w3rwVxQIKTAN1bXYJzUc3OSdWMYC2aO3/F+9Nivz9JEyTB6WMBDTJ6JeTE5+je1yU4Kx+h6k9hBCXeNy3mZGKKOf0NftVQUOBJcTKsLsHpX1dOQv6PpsK4340Pc1KWFub0N4QhCkP+7gias2V/EVaXtEP9qkPz5Ygt4ozzxyzipC0tyElhZuFOLiiDk7K61PvztpqheTB4yB+3ZdRPwOmElKWFOINbClMEyuIkQSlOu7Q6YR4w2DIuWjRchGe5nGOHPWhFnMEt2x/inb7J5CSt7qhohfZv8+RClmhBhVy5XGnzOMPVB8sECTl9FDNE/3tIr/r5nLgxKu+atV6J9+9mf3z99XVT6qLqztIz5HFehFxMHicSzUgf9fUWDXcOmT3K4cRBKc7WuOrQ8t2CBMLs8jmEVe6Jy1mJWv6wOTETlF1hgq5eItYc5XEyQSvO4FoYTxiX10UCYRKc1CqPyYlheqPsQU5QcNYdcTnxOUpyos4fHe6rEi/hDR0H43IyFrMsTszSFrnKSYwMXYbV5XMyQNG45kqwNutW3YmsLSFO1pqdwYmZIO+jCGdMEgSUhhFw0qAo56Cc+2SeE3E7wxHS1wAn0z+lOTmYKWiEGiOSRsRJzVEsHr9G3NxJFznnolu5nWh3ApyWt2CkPChO3NJ+oE8YA7UIqyvkJEExzqAy5mSNQvl5G711IScn0ERy4pZ2hC/EMKtL+LpiTgIUz5dN+D5Q8byxmSvkjMliBiZn6o4grY/I9SZudbEkE8CJz1Eizwuks/HZKeTkhg0JziU6aKmqEMLqYtl0iBMDJTiZMW5EEVGfwOXkR0cJzsrIE3OzBEWsLpYeBTnRoesRRz9uRMux9IHiD5zkLOoTLvA0KZPT+7vj/FHdChMTM0aYu1Cm9yJuSVgF6q3w/9OxRCOXfE8UYHnByyCqMAWVLjnn/splQJWHiYJi/Vm860jbxQSl+nwtMEXUa3Wad04eR/RzBv6gbWXrvdxM7dfqhVstutuJlxN9YE9vGWefhzGvuGUH+hXvvkPlukWlGPTtd+PwIjOT+XPuf2agIcfS7uWPskFgxdVrJbsR2tJioDtjFH4SA3R51R4On8XnTkxX6XdGCzpGc+cOefqi72X5HHntTRlk7Y7Sr7VFDzi98nXW1qpoy1+kNzLkFTrlcr7S73xQRL49GEAnBWffYTaefs4R65EHTh8dzFPO18grE/8G3EoYDDh3e9ZZZ52U/gf0gX02wXkgKwAAAABJRU5ErkJggg==;" parent="1" vertex="1">
          <mxGeometry x="-36.370000000000005" y="600" width="52.74" height="50" as="geometry" />
        </mxCell>
        <mxCell id="dq0KdhcwPf0WLffFqdIs-34" style="edgeStyle=orthogonalEdgeStyle;rounded=0;orthogonalLoop=1;jettySize=auto;html=1;exitX=1;exitY=0.5;exitDx=0;exitDy=0;" parent="1" source="dq0KdhcwPf0WLffFqdIs-23" target="dq0KdhcwPf0WLffFqdIs-11" edge="1">
          <mxGeometry relative="1" as="geometry" />
        </mxCell>
        <mxCell id="dq0KdhcwPf0WLffFqdIs-23" value="" style="shape=image;verticalLabelPosition=bottom;labelBackgroundColor=default;verticalAlign=top;aspect=fixed;imageAspect=0;image=data:image/jpeg,/9j/4AAQSkZJRgABAQAAAQABAAD/2wCEAAkGBw8QDxAQERASFRAQDxAQDRAPEBEWEBAQGhUWFhYSFxUZHCggGBolGxMTITMiJSstLi4uFyAzODMuNygwLisBCgoKDg0OFxAQGi0lHyUtKy8tLi0tKy8tLS0tLS0uMC4vLy0uLS8tLS0tLS0tLSsuListLy0tLSs1LS0tKy0tLf/AABEIAOEA4QMBIgACEQEDEQH/xAAcAAEAAgIDAQAAAAAAAAAAAAAABgcBCAIEBQP/xABSEAABAwIBBQcNCg0EAwEAAAABAAIDBBEFBgcSITETFkFRU2FxIjI0NVJzdIGRkrLB0hRCRHKDoaKxw9MXGCNDVFVigoSTlMLRo7Th8BUkMwj/xAAbAQEAAgMBAQAAAAAAAAAAAAAABAUCAwYBB//EADkRAAIBAQQFCQcDBQEAAAAAAAABAgMEBREhMVFxodESEzNBYYGRscEUFSIyUuHwQqKyBiNygtJi/9oADAMBAAIRAxEAPwC8UREAXnY7XCnpppeFjDoc8h1MHnEL0VAs5uIWbFTg7fyzxza2tHRfTP7oWMngiZd9m9otMKb0Y4vYs3w7yEwYnOzrZpW/Flc36iu7DlPXs2VMh+MQ/wBMFeSijn0CdKE/nintSfmiTU2XVc3aY398jH9miu/BnFmHXwRn4pez69JQpF7i9ZFndtknppx7lh5YFiU+cWI9fTvHxXtd9Yau/Dl1Qu27o347B/aSqsRZcuRFncdjl+lrY364lxwZUUD9lSwfH0m+kAu7DiNO/rJ4nfElYfqKo+6zpc695xkaf9OUH8s5Lbg+BfaKiaetljsY5Htts0HuH1K0skcoRVx6LrCdlt0GzTbs0wPrHAekLOM8XgVNvuapZYc5GXKj15YYduGLyJIiIsymCIiA4uIAudg1kngCitJlzSyVL4CdFlw2KZx6h54b9yL7Dw8y8bODlR11HA7mqXtP+kD9fk41Xyv7DdMalJzrZYrLs7e/qWrPrWFPbLydOooU88NPD86zYZFVGSWWj6bRhnu6DY1218Q5u6HNwcHErQpqhkrGyRuDmOF2uabghVdrsdSzSwloeh9T4Ps9MyfZrVTrxxjp611r7dp90RFEJIREQBERAEREAREQBUtlPiHuirlkvdumWx8W5t1NI6QL+NWblfX+56OV9+qe3co+PSdq1c4bpHxKnyVqqPPA6r+nbP8ADOu+v4V5v03hERajpQiIgCIiAIsovcDzEL7UVVJDIyWNxa5puHD6ucHZbnXwRZYGuTTWDLiycxuOshDwQHtsJWX613GONp4D6wvaVH4RictLK2WM6xqe09a4cLXcx/wVb2D4nHVQtlj2HU5p2sfqu08//BW5PE4q87v9mly4fI9z1P04o9JQ/LjKj3LHuMTv/YkGsj80w+++MeDy8V/Ryqx9lDDpajK+4hYeE90f2Rq+YcKpypnfI90kji573Fz3HaSVc3XYOefO1F8K0LW+C36NZy94W3mlzcPme5cX1eOo+d1hZRdSc6YXtZN5Rz0T7s6qJxvJE49S79ody7n8t14yLCpTjUi4zWKZnCcoSUovBl5YLi8FXEJIXXGoPYdT43dy4cH1HgXqKhMLxKamlEsLy1429y4dy4cIVsZL5UQ1rdE9ROB1cRO3jcw8I+cfOeVt12SofHDOG9beztOisdvjW+GWUtz2cCRoiKrLAIiIAiIgCIvlLK1jXOcbNa0ucTsAAuSgK8zl4lpSx04dqjaHvAP5x2wHoaPpqFrs4tWOnnlldtke51idgPWt8QsPEusozeLxPo1js/s9CFLUs9ul78QiLw8psbdSbjosa7dN0B0iRbR0eL4yJYvA2V68KFN1KjwS097w9T3EUF38y8gzznrO/qXkGec5Zc3Irvfli+v9suBOkUF39S8gzznrO/qXkGec9e82zH33Y/r/AGy4E4RQffzLyEfnOWN/MvIR+c5eqDMHfNk+rc+BOUUH38y8hH5zljfzLyDPOcs+SYO97K/1bnwJuvWycxx9HNpt1sdYSsvYObwdBHAf8qst/UvIM85yxv4l5BnnOWeCI9S87JOLjJ4p6cmT7G8SlqZ3SynW7U0DrWM7gdH+Suioi/LWQjXCzm6p2rnXy35ychH5zl1Fnvaz83FS+FrqSeHd2fnafOrZddRVpc0+VHHFN5PPWss1oeGT05aCZooZvzk5CPznJvzk5CPznLd72sv1bnwI3u20at6Jmihm/OTkI/Ocm/OTkI/Ocnvay/VufA993WjVvRM1yikc1wc1xa5pBa5pIc0jYQRsKiNDlXJLLHGYowHyMaSNK4BNrqWKRQtNOvFum8tGjiaatnnSaU1gWZknlu2W0FUQ2XUGS6gx54ncDXfMebYp0tebKZ5KZavg0YakufDqDJNZkiHEeFzfnHPsVPbrqWc6C2x4cPDUWdlt/wCmr48ePjrLTRfGCZsjWvY4OY4Atc0gtcOMEL7KgLcIiIAoxl9iO40ZYD1U7tyFu52vPRYaP7yk6qvOJiG61W5g9TA0N26tM63n0R+6sJvBFpc9n561xx0R+J92jfgRdEWVpO7MKHZxtlL01H2amShucbZS/wAR9msofMVV8vGxVP8AX+cSEoiLecKEVgYLmjxSspoamI0+5zsD49OVwdonjGjqXd/AdjPHS/znewgKyRWb+A7GeOl/nO9hdPGc0WKUlPLUymn3OCN0kmhK4u0RtsNHWUBXyIiAIiIAisHBc0WKVlNFUxGn3Odgkj05XB2ieMaOorGN5pMUo6aWplNPuULNOTQlcXW2aho69qAr9ERAEREB3sH7Jp+/w+mFaKq7Buyqfv8AF6YVorormeFKW30RTXisaq2erCIituUQlA9vJnKaehdYdXA43kiJ1c7mH3rvmPDxi2cIxWCriEsL9Juxw2Oa7uXDgKotdzCMTmpZRLC7RdscDrY9vcuHCP8Aosqy22GNf4o5S89vEnWau6XwvOPls4F8Iq9/CHL+iN/nO9lFT+7rT9P7o8Sd7bQ+rc+BN6+pbDFJKdkbHPPPYXt0nYqRqJnPe97jdz3ue48ZcSSfKSrHzk4joU7IAeqmfd3e26/S0fIVWyrJvF4Hc3BQ5FB1Xpk9y++O4IsIvMC7cgobnE2UvTP9mpkoZnE+DdM/2azisyqveWNjqf6/yiQtERbDijbrNf2lw7wZnrUpWji2qzJ9oKH+K/3MyAnKjOcztNiPgkv1LhnQ7S4j4K/1LUVAEREAREQG3Wa/tLh3grPWuOdTtLiPg5+sLlmv7S4d4Kz1rjnU7S4j4OfrCA1HREQBERAd7Buyafv8XpBWiqvwXsqn7/F6QVoK/ul/2pbfRFdbI4zWz1YRZRWXKI6pmEOxZC4v2HoK2U1oxIdpqZOK7yW+4Aik3uFFSe0vWWvs61ETy2r92rZNfUxHcWfu30vpF3zLwVa+J5F0c13Bro3HXeIjRv8AENwPFZRXEcgKplzE5sreAda/yONvnVDyWfQbJelk5uNNPk4JL4stHbmt6Iki+1XRTQu0ZY3MdwBzCL9F9viXXWSiWDmmsUFDs4nwb5f7NTFQ7OJ8F+X+zWeGRV3pLGyzWz+SIWiIvDkgtqsyfaCh/iv9zMtVVtVmT7QUP8V/uZkB6GdDtLiPgr/UtRVt1nQ7S4j4K/1LUVAEREAREQG3Wa/tLh3grPWuOdTtLiPg5+sLlmv7S4d4Kz1rjnU7S4j4OfrCA1HREQBERAd/A+yqfv0fpBWiquwTsqn79H6QVpK6uyWFOW30RHrR5UkYWUWFa048rMrrVV5HwR09fYZXB+w9BXJYtfVx6lLhpRUT0MvP3Ii9CyLiOdZ2fNoyiLq19U2GJ8rtjG3txngaOcmwWttJYvQYpNtJEYy5xEWbTCxvZ8v9rfX5FCJaJh2ajzbPIu7VTuke6R5u57i53TxdC+a5Kpb6sqzqQk1joXZ1YrR26NJ2NmoKhSVNd+3r4bEeVLQuGyx+YqC5xmEe5rgj/wC+35NWY5V7nV+CfL/Zq7sVvqVWoTSePXo7dm5EC8pf2JLZ5ogCIisznAtqsyfaCh/iv9zMquyazLSVtHT1YrmsE8QkDDTlxbfgvpi6uvIfADhuHwURkEhh3W8gboh2nK+Trbm1tO23gQHVzodpcR8Ff6lqKtzMqsJNbQ1FIHhhniMYeW6QbfhtcXVG5SZlZKKjqKs1zXinidKWCnLS63BfTNkBUq7mHUUtRKyGGNz5ZHBsbGC7nH/uu/BZdZjSSAASSbAAXJPEAtm802b1uGQiedoNdMz8psIp2HXuTTx90Rw6hqFyBrPNE5jnMe0texxa9rgQ5rgbFpB1gg8C+K2sy1zZ4fijt1eHRVOq88GiDJYWG6NIs/g16jqAvYWUXwLMRSQyiSpqn1DGkERNiETHczzpuJHRZATrNzA6PB8OaRY+44XEHaNJukPrXWzrvDcExAk2/IW8Ze0AeUhSxjAAABYAWAGwDiVV/wD6Cx5kOHNogQZayRpLeEQxuDy4/viMDj18SA1yREQBERAd/Auyqfv0fpBWmqtwTsqn79H6QVpK5uuHKi9WJEtdoVGOXzPRx4dphCiwr6KOek282F9KVt5GDjc0eVwXzXZwkXngHHNGPpBbNCxMFm0i+kRFwR2mIUIy1xPSeKdp1Ms6S3C8jUPED8/MpRi9a2CJ8h2gWYO6edg/7wXVYyPLnFzjdziXOJ2kk3JVRe9p5MFRjpenZq73uLO6bNypus9C0bfst5xRZWFzx0TODlX2dX4J8v8AZqwXKvs6vwT5f7NXN29LHv8AJlNeXRS7vNFfoiLoTnjaLN1lThsWEUMctfSMkZTtD45KqFr2nXqLS64Kkm/PCf1nQ/1lP7S05RAbjb88J/WdD/WU/tKO5wcqsMlwmvjjr6N8j6aRrGR1ULnvdbUA0OuStW0QBW9m4zwPpWspcQDpIGgNhqG65om7NF49+wcY6oW99qAqFEBuVhGU+H1jQ6nq4JLgHRbI3dBfZpMPVN8YXoz1kUbS58jGtG1z3ta0eMlaSIgNoMqs72F0bXCGQVU+xrKc3ivrsXTdbo6ve6R5lrtlHj1RiFTJVVL9KR52DUyNg62Ng4Gj/k3JJXkIgCIiAIiIDvYN2VT9/h9MK1FVeDdlU/hEPphWmugujo5bfRFLefSLZ6swURFcoq2YXewAXrKUcdRCPptXQXpZMi9bSeEwnyPafUsp/K9j8jyn88dq8y80RFwZ2JEcuIJnBhAvCwEu0drXn3zhxW4elQ5W8ohj+S97y0453RDZ0s/x5OJUd43fOUnWhnrXX3cPMuruvCEYqjPLU+rv4kRWEIsbHUQbEHaDxIqIvjg5V5nTdrpBzTHy7n/hWG5VrnKfpOpz+1Pbo6hX900+VNy1Lzy4lNeXRS7vNEIREV2c8EREAREQBERAEREAREQBERAEREB3sG7Kp+/w+mFaaqzBuyqfv8PphWkuhubopbfRFHenSx2erCwiwrtIqjK9XJJt6+k78w+TWvKXtZFi+I03fCfI1xWFfKlN/wDmXkzKh0sNq8y6kRFwx2AREQ8PBx7J+OoBc2zJbdd713M7/O3pUEq6WSJ5jkaWuG0HhHGDwjnVsroYnhkVQzReNY61w65p5j6lV227o1vjhlLc9vb2+JZ2K8pUcIVM471xXZ4aiqKp+ixx5tXSq1zh/Bvlf7FZ+VWHvpnticQdLq2ub75uwG3B/wAKsM4fwb5b+xTLts8qVlbksG35ZcX3km31IzpNxeKy80QxEVx4RmMfUU1PUf8AkGt3eCKbR9zE6OmwO0b7prtfapBRlOIrt/F9f+sm/wBIfvU/F9f+sm/0h+9QFJIrt/F9f+sm/wBIfvU/F9f+sm/0h+9QFJIrt/F9f+sm/wBIfvVF84ea92D0sdSasTbpUNg0BAWWux79K+meTtbnQFdIiIAiIgCIiAIiIDvYP2TT9/h9MK0lVuD9k03f4fTCtBdJcvRS2+iKK9eljs9WFlYWVcoqmF72QYviVN0yH/Sco+pFm+F8Sp+YTH/SePWtVq6Cp/jLyZss3TU/8o+aLkREXDnXBERAERdTEqoQwyzHZHG99uOwJsgKoy3rt2r5iDdsVoWfu9d9MvVY5wvg3y39imTnEkkm7iSXHjJ1kqG5w/g3y39inVI8mm0Wddcmk4rs80QxX7gWevDaekpoHwVhfBTwwvLWQaJcxjWki8t7XCoJFBKw2M/D1hX6NW/y6f71Pw9YV+jVv8un+9WuaIDYz8PWFfo1b/Lp/vU/D1hX6NW/y6f71a5ogNjPw9YV+jVv8un+9ULzrZyqLFqKKnp4qhj2VTJiZ2xBpaI5GWGi8m93j51U6IAiIgCIiAIiIAiIgO9g/ZNN3+H0wrRVXYN2TT+ERemFaBXSXL0MtvoihvXpY7PVmURcVdoqQpRm3bfEGczJD9C3rUYUtzZNvXnmhefnA9aj23Kz1P8AFkixLG0U9qLYREXEHWBERAFEs5FbudGIxtmka3n0W9WT5WtHjUtVW5y63Tq2RA6oYhfme/qj9ERrbQjjNfn5mbaCxmiIqNZZYbNUbhuTNLQ3TSsWi19C208xUkWVYTgprBk2phJcllab2a3kT58ftLO9mt5A+fH7SslFq9khrZH5iPaVtvZreQPnx+0m9mt5A+fH7SslF77HDWzF0olbb2a3kT58ftJvZreRPnx+0rIWV77HDW/zuMXTRWu9mt5E+fH7SzvZreRPnx+0rKDCuYbZZeww1v8AO4i1a1OCeDxf53FZ72K7kD58ftJvZreQPnx+0rLKwtsbupvrfiuBXu3TXUitN7VbyB8+P2k3tVvInz4/aVlLBW1XXSfXLxXA1u8ampb+JW29ut5H6cftJvbreR+nH7SslYWxXRQf6pbv+TB3nV1LfxK23uVvIHz4/wDKb26zkT58ftKyFhZK5qH1S/b/AMmDvStqW/iQLDcBq2TwvdCQ1s0bnHSZqAcCTtU9WFlWFkskLNFxg28Xjnh6JEK02iVeSlJLRhkFxRZUwiswpjmsH/uSc1M4/SYPWoap5mvopRPJM6N4jdAWMe5pDXEuadRO3U3gUS8JKNmqY6iXYFjaYfnUWWiIuKOqCIiAxdUZi9bu9RNNykjnN+JfqR4mgBWzlhXbhQ1Dweqcwxs49J/U3HRcnxKmVNskcnIk2fLFhEWVOwNzZhF3cOwmpqDaGF7x3QFmDpebNHlUtwvNy82NTMGjhZDrd57hYHxFYTqwh8zNUppEFJXr4XkxW1NiyFwYfzkvUMtxi+sjoBVpYXk3R01jHC3TH5x/VSX4wTs8Vl7CjTtv0LxNTqaiBYbm5jAvUTOcbdbCA1oPxjcnyBeFlBklPSXe0bpANe6NHVMH7beDpGroVtItCtVTHFvHsNFSPLWDKEXEqzsociYp7yQWil2ltvyTzzgdaeceRVziFDNTvMczCx44DscONp2OHOFa2etCro06vzSVdanKGnRrOsVxKysKfFEKTMIsFFvijS2FhZWFtijU2FxWVgraka2zK4r18IyarKqxjiIYfzj+pZbjBPXeK6muEZu4W2dUvMh7hl2s6C7afFZRq9uoUMpyz1LN/bvwJFGx1qucY5a3kvzYiuKenfI4MjY57zsaxpc7yBSzCc3tTLZ07mwt7mwfIfEDYeXxKyqKhhgboRRsY3iY0C/OeM85XbVNXvupLKksO15vgvBlpRuqnHOo8dy4kfwjJGiprFsWm8e/ls51+MDrW+IKQIiqKlWdWXKm232lnCEYLkxWC7AiItZmEREBAM6dZ1NPTg7S6Z46Opb6T/IoHSUksztCKN73dyxpcRzm2wK3q/JimqJzUTB0jtFrWMLrRtaOYWJ1knWeFetS00cTQyNjWNGxrGhrR4gpcLRGnBRSxZuVRRjgitcLzf1UljM5sLeLr5PIDYeXxKW4ZkXQwWJj3V499OQ76PW/MpIi1TtFSXX4GDm2cWNAAAFgNQA2BckRaTAIiIAiIgC6WJYbDUxmOaMPbwX2tPG07WnnC7qL1Np4o8aTyZVeUWRM1PeSC8sI1loH5Vg5wOuHOPJwqJXWwKi+UeR9PVXkZaOc69No6l5/bbw9I19OxW9lvLDCNbx48SttFhxzpeHAqZYXfxjCJ6R+hOzR7l41seONruHo28YX1wnJ2rqrGOF2gfzj+pZ06R2+K6u1UgoctyWGvFYFS4ScuQk8dXWeUucED5HBkbHPedjWNLnHxBWLhGbuFvVVEheeFkd2t6C7rj4tFTChoIYG6EUbGN4QxoF+cnaTzlQK170oZU1yn4LjuJlK7Kks5vDe+BWuE5v6mWzpnNhZxGzpD+6DYeM+JTTCMkaKnsWx6bx7+XqjfjA60eIKQoqmveNoq5OWC1LL7vvbLKjYqNLNLF63n9l3IIiKCSwiIgCIiAIiIAiIgCIiAIiIAiIgCIiAIiIAiIgCIiA8PK/sZvf4PTC9tuwdARFtl0UdsvQwXzPYvUyiItRmEREAREQBERAEREAREQH/2Q==;" parent="1" vertex="1">
          <mxGeometry x="-770" y="845" width="50" height="50" as="geometry" />
        </mxCell>
        <mxCell id="dq0KdhcwPf0WLffFqdIs-36" style="edgeStyle=orthogonalEdgeStyle;rounded=0;orthogonalLoop=1;jettySize=auto;html=1;exitX=1;exitY=0.5;exitDx=0;exitDy=0;entryX=0;entryY=0.5;entryDx=0;entryDy=0;" parent="1" source="dq0KdhcwPf0WLffFqdIs-26" target="dq0KdhcwPf0WLffFqdIs-30" edge="1">
          <mxGeometry relative="1" as="geometry" />
        </mxCell>
        <mxCell id="dq0KdhcwPf0WLffFqdIs-26" value="" style="shape=image;verticalLabelPosition=bottom;labelBackgroundColor=default;verticalAlign=top;aspect=fixed;imageAspect=0;image=data:image/png,iVBORw0KGgoAAAANSUhEUgAAARkAAACzCAMAAACKPpgZAAAA/FBMVEX////1hjWRQQfediryhDO2XBqxWBjvgjKXRguaRwyMOwDLf0f4hzT3m1r+8uvs4NicUhvnfC+hTRDvhzyyZTHfhUSbTx2iVCHl5eXBwcHoh0IAAAD19fUgICC7jXPa2to/Pz+cnJwqKiru7u6Li4uurq67u7tERERxcXF8fHyYTyJsbGyWlpZeXl7MzMxSUlIwMDDl08YbGxtWVlYuLi4PDw+0fluMNQD+8ej2k0r95dT4qXL5uI+pqal6enriw6772MHPsJ/4sIGgXjb3pW381Lf6yKfEoI3hkli0gmK5c0f0fyLroW3hy7vlx7CyXyb5uIymaUPBl3ygXCs9wzO7AAAG0klEQVR4nO2da1ubSBSAId3t2ojBNdUOzSDXkKQEglG0URPvZi11a/X//5edAeKletSVWISc9/FJCI/izMvMmUM+zBEEBEEQBEEQBEEQBEEQBEmQ97bzbsKbRL5c+Vjf+Zp3M94atb3Nua3qx3okHu7X8m7MG0I++FmtVirMjChKErqZsLZ6VGFeUjPMTf34JO82vQno6lbs5doMcxMtnGDAYWZSMTdm+JxaOJ15Nw+a4W6OZ90NYIa5EQe7MxmLZTl5B83weFPfnbnkb2189c9F3OtHzPA5NZgtN3tnV1sry9GAu3nUTOzmYkbcUHm8tFWtVleWJYktz9u1x81wN9LOLLipXc4l+QszE4fZnW9PmBFnJDFeW0lFJGZE8Y8/K0+a4Ynxzn7eTX9l1r68yAwfXeV9aJB55vZiM3wRH5TyoUEef/t+WstippwPDeerR9VPn1nG/+8jZn48ZaZ0bmoHV3ydZmYk6d1cBTJTef/Xk2b4nBIvSuPmLFmnP31m/cpshhENTkuS4GwmE4ibEadhhifGh4V3wxO0qZspvhsqn80fbtceNvM5ixnuJtrZLmpifL66uDUf1Q+/PWTmwzsxkxkuR7wopJq11RW2IM1LovS+8jpmRGmhiGbkRb4icTMimrmDvMjnEJq5z30zS3U0w3nAzN9ohoNmINAMBJqBQDMQaAYCzUCgGQg0A4FmINAMBJqBQDMQaAYCzUCgGQg0A4FmINAMBJqBQDMQaAYCzUCgGQg0A4FmINAMBJqBQDMQaAYCzUCgGQg0A4FmINAMBJqBQDMQaAYCzUCgGQg0A4FmINAMBJqBQDMQaAYCzUCgGQg0A4FmINAMBJqBQDMQaAYCzUCgGQg0A4FmINAMBJqBQDMQaAYCzUCgGQjcswgCzUDIS5MdwHBvtF+QL48qfNc4afDjtfbTi44LaYbXHlpdmR/sbj+4B2NmM5JU5GoIdI3X8XqV3SmjMuz2P/0dTSUpOizDJsGbW9M1I0kLJRgvnPO4pNe0dk4uVUUReY9vt813246WV7KZKV0VGnpwVFn6LC7sn2fZu55XLrrIuytTp3ZwdniSbVd/KSrVxvU31Hha9nIzLL6U00vKS82w+FLKAhk3yD/TUoKpGelZZiTx+DTvlr868vhLvIbHZqRosLv5ZJUilr+cFPQB6f8hjxe3kspWUf3iGZWtouOSz6Nb1MZXlbll9kT49elqaGylz7u5v5Xaweb33WdU0BMPZ2Me3aaWzpDHqi5Kx/u5tjFfIDMsCh2XvzjcY0DVXQelLwz3FA9XBBZL8jVDJsYf0tzv2kwkzfx4SZAvk9wvMSNJ9VJ8XTcd5DH/boubmaFirs9EPjiqMjNl+1pqKtQOrn7Ucbw8zBrGFwRBEAQpEZTS9MCi+bYkE449zH4RanQZdpewY9LsuG1DoYLl2G6762e/ek7oDTP7jSW62WL0mBnLU1vttqn6QlftjXphT5tCI/PACdx+M/NViN62kiPa7hvMtGX4QlNhn+2Gkfnq+eC5fs/jB8RnPwq7wZrvJ7eZfVR8Pp58TnxOY6f4AfUty1d8a3IVZiYdeM1+5871lUb3d3Rj+li6LXQCHguMoNlTGz3F6amhzk8460EvMFm/aCPsq32XaWi2zJbaGlJBC7ojs9+3J2quzdBOeDewFNaMYzqCE/IBb6iBQfy+HjQtx2yzE90usYgbsNBBiKWENhV802OneqYiaOaGp5HO9TwkuqsRQljUdVXrzj/ohtnnai6MWuw+90fshhtxFzqhw1/1Sdgcqk787q0Tga7rvNdkw6WaGo+R0E5/jegqo68IpKffieda4JHf1JXp4gd8uHQ2mAijwbvQDLkTOzZDWcTpqPEtjwWRoMN7Tb2epalxXFU7qQairzcdxyHMTHDbjOUGBV21jX7HMIxR2OVmuI1bZsiopesbsRnS4kGaqPEQoS43E0cP88ZMGmcs17w9m+zGFJKlPLC8OA1pbbBp8qsZ6ukOZdGnycOqHqdwqRnvETO001Burm/3baGYaGx1YRm81Q2Ve2ZII4nLzMwwiaJWr8fHg2aOKGiGhXQvHjSWxedgUXMZwU6XWMW075tRXSL4LjND9XVF0wifezahWnuDrU33zHiOEmc/1A7bjqY120NhaHoOy3+UIj47qcn9Fch6MDETv9oBD8n9lquP1KGgNUxd11mWb41CnaU4bABpYWwmXtTiC+ihyfF5GApVPVB1zfIaZsDO9QsYg6kyWZw1hZL43iavWvI6HGqCwlZrRVEm2fDQaGo3f3n994If/44Si9aaxpArSs85RRwzCIIgCIIgCIIgCIIgCIIgyFvgP71LK+bv/L/yAAAAAElFTkSuQmCC;" parent="1" vertex="1">
          <mxGeometry x="-470" y="830" width="125.59" height="80" as="geometry" />
        </mxCell>
        <mxCell id="dq0KdhcwPf0WLffFqdIs-29" value="" style="shape=image;verticalLabelPosition=bottom;labelBackgroundColor=default;verticalAlign=top;aspect=fixed;imageAspect=0;image=data:image/png,iVBORw0KGgoAAAANSUhEUgAAAMgAAACyCAMAAAAwP3ALAAAA3lBMVEX///8Dm8YAi7gkuOs5TVQAqtq/2+AhwvgAotA0YHEzSFAhO0QvRU38/Pz29/eboqVebHFyfoInQEhqdns7SEzs7e4+My4hveksmLdGWF85VV4zZ3gtj63d3+BPX2W0ubwuODwIr9c7PDwvP0UzeI0qn8EwgJgudpAihaDKzs8VLjUMqM0sbYGBi4+QmZy+w8WZsbbU7fEAIS0Sg6sAKTQbep2nrrClvsMrkbYtMDAyV2YmbIc+qs+JyN2jydVlttSt2uhRhZZwiZBOoMKDmp8AgLNQbneMuMRSlKwAFiVi7Y9ZAAAONklEQVR4nO2ciXbauhaGQ1CaIAvjscEzM7bxcJoAoeS0PbfNnd7/ha62PDIlOYmB9C7/K00DsmV9GvbesmRfXNSqVatWrVq1atWqVatWrVq1atWqVavWhxe/pXOX561SBYxKwvK5C/RWqQLRSyLCuQv0VqnCsNuf9WfwM+ubw98Z5Na4nXTHo77bHXd/bxD91jC7Rn9kmr89SFCDfBjVIB9NNchHE4AgML+tfvA7gGyHhrkApHs77vfH7NdHB7EE+ZA07Jq5RvgVIM4ZI2RrPuwVIqT4e6AgZZBLeQWIhzT1BEXeL8tvdWkkNaY/9H8D0V6UyR24Rcrk5a5laYRI8SkKvffqvjGbzExzFsxosQMEoe5sNp51++PxYDyBeJEmd7vmi2E8H/aCYIic9knKvSMKMl53g1FXmRkTk4K4rmvSn9F4REHQrDUxW93AnbgvgngEXTWnPXSmNgGQ1ng0ARC3CyB0ZNN/k/GEguj0S9N4FUg77E2azeZ0iK3TlHxLlYHwHGpQkCbtXacp+ZYqA/H8oMnUGp5ldl8ZSNRbMI7rG4Sd05R9Q5WBCGR1nZC4PfkM7qQyEKI3EpBmUyFnsFwMpDti5tc1C5ARA0Hw5evMr683Uo6m+zU6TazSLsRARmPXHFO/aIJDBD9OPbnZNylI0J8wJgpHQdrlE7c1X99kIFeKdhITHMtiIZm0aBSSyUCzLECZ9V3FLVImCiqdJYY7o2BetEgz8D1aXbyqqke90epIUilORMrnQgoqfRigQfmDUpwz5HajQ6kEsugtPacTAnDkxNaxghYH690iPm+tu7Os2meGUo7cFXNWapFRntCdYHsHxM6sFtX9wEZ+r/eVqudLQhQfB8XB65npztwxLZLZDYy+e9sd345uzVl/otARAkXt0tTu4HZCv5zR5Nm4q7AvJ/RXPxjvAQl7bt4iq8EABYvVqtFY3U/1wRDJRxkzDm6NJ8G4ZU5GbmAGrX6rP3FnCp2e03rvTqhGE3dkjigIm+oaM5jqKjSaNLot0zVmypjsgjj+YwHSalwVagQKni+PB2IAyKgM0mUgLiVx3VEXQEo3HxIQ4yCI6uu52WpebWqlcMcY9McB4cXeaj/G1U3LP0aDHAnkIvbXB0CmvT2Hf1wQVe5Nr/dxTIb4OCHLkUAuPG1gXu9pD4XrHIXj/SBoH0hbXWqKcrPN0Wj1yJE4GMgooJZ0lIKsZyN3Ntgwv5MEpHSn8Xnzq1odzUfG1fXmKF9NUU87ykAHxcwh0uiWFs8dg0OkkWI/c4jgJVlC7hAhfpwlDnE2GTOHuAHStuJliPxhsGqWOG4aphugHgm9akvvOblCrLMIN5GxpqEJ/MCvAIqbaTLoFimuMilOMrG2TDNb0pBK0IZfe9PGVTo+DCMIDKO11oe+H3pVO5BQQjgTUkrr58rBD+jwB4Sz3IjS+/p5EKwKu3uvUADfn99xoqNW7gfboaSvqVpVyxi5jeb1dcl/tEgYO7F3pBkJL35twIXoNavXhh9c6dwxZ+yqOGBxXPN4ytzGUDwiB3W7X2+OC5LFh/rdMTpVPqGxXg9y/fIhhzloXCWXZ1GVDfbs1gcFeW3XMg8dtHrm7NyR6365QTpVORGV2IkhV+VkjCRlWU0Pl2g6QDd7E4LPxs2h5rpaTG/SBgnzRmir4ryiaFENMSGRpzKrtWJXum7SuGGgBLnNzEU/XzUWukKdyWQrFU5iCeD1ts+jqY0pGqzd1c1VY4CyNuC9pSZhoZIBE4uwdYxDYsfxxJ5Jo4bVvTttgddT9MBtlIxx8+pmbE4NPXF7iv5YSoWQaZ24SgW1plDg8omN1eMacqRZTo2haPG8qlpxJ9Q4enUsvHtd0VoKmCNMHEc0hKhD1HWkDJREA4V+0zKmoKBF04oklkoPN4Lp9BFijc0UyKl8opLGA/A/QTZIwxwnsWtLxI68t99EsZYirNYWt+FEG6GjePZynmvaAGK6JFxcWpYFOaoucoyRfsl0U60al4UesVZZeQ/K0nBytUalKmFcLpBfcci+T7yNF5WDlDEu79d+eHyOiwuRPFbdJBscl8FQOMn6jsOtqwXZxLhcKOQEHesCVl31xUskf76d435AjjY335I8fKFv/fnt+/cfb8O4vNel8FQ7arz5+v5Zku8d+dOX15HscLRONEBAbW04vXyG5IfDcQ8Pf/19CsZx1GnhluJ567km+RZxNM54GWSX47KlzE+5b0MVeotnmuTPT4hInRdB9nAYvRPvP3EIun+G5NtD+CLHHozL1sl3BKni0LjcJoF4qbFaBAtK8u3b38e4bynoNA6kJA8pi5wkiflWK5cG4/rw85TyPOcs90Ek41w6w76mDseCeYi8DQNicF3HmPN9+x+rN/Qp4EBDcpb9WbLEbnimt05Bws8/Hr58+fSsUz9AQQP3gXSODTQgm/v58P2PRA8Pn75kOjw6DlJAtyLRufaVWrb09KlQDvLl19/FuFzoQ+1cWzEvYIGM+/lpUwzkr8tXE6TNgXz55OZqgwRxwqddfflx+UqEZHToQ65zvu3KTBbi7Ic9KL/++SqEpFcRqZpbVu8SL3Dkj12Q76vXUdwv1j1in2Pf4o74EPs/dxvlVST309aAE87dqzLxsT3Xnr7vkrzUuxaP6+FcWJ6/V+VSozvOftpplOfHySONZea280FaI5Nl+xIRt0l+HOxSj2tMJGpxP+BT1J6MON9+2hws33/tMtwvHvXBkGjC8gNSMHmRwM2lfz1BtJLr268ywuLRWCu9HhbCjzQydmU5kTCf+zR2/Pn0xOKvh4d//2exWEwfH+FOPB72aHAcLo+3xbIy8Za3FNHd3dyXsK5rbFkAonuJhvfzuSZGjmd9sOF9UG2eVz0nkjXOn99RzTlJE8KINgPP8x++JWrVqvV/KzXk3vH4E98RTnbD/QUt55h7++pYfEfmJ1lbe1F8JL3nfTMdDp1i1fYVqkES1SCVqwZJ9DxI+8jBpeV0QDHE4TsgarykaTTGPXBmFEWdZb61pwxiLb3NY6MwDDvO/pmXFTvLd64EeaKNiESl2aG1DUITNUgkyBZ3rmOFNoYTJTq/dXZAYg2Xnse1xPRYbIs791B5R7Y1hHD0DgxVlkj20jKMuahdBmmHXJFIthYHKHLpTEnYAol9jEjWOO2IHM7owtPS1PnbOTwuWQshaVacJpIcxLK5jUSJK9WlqrFEtnGM/RFvgHj/hdzCAxlJpYz46A6nlfH2h9w92ImHJCLIomhLhF0sf5Ocp0ks0ZZFWSAMuFhgthBLRIIYijKi2XBlkLbDUtPHFTybfcJwrMDOw0WVqKHPvkC28Pb79h6iHEQKY0tVVctJVqoyEDW5vOiwxFhk18uer1UFAOZCNs9V40gjSayYgLQdyFiyk4NVViHs2DZvxREHp2ZrcTAmoSMsY896c7Sp0m5E+3GcZaAupRKIDN2By7dNqg50ISKyzzCSaGHyRN5KS5GApBxpBYuQkR9n44JnLU3SLcwOYZDvu4nkcFDH5fZ05jmIB3/elRM9RC8qOcmf0JR77rUDiMA6LMkaz4Pa2dixbLF3IrKuaNk0T+6dD4SrkMnWMj6wJSAavRi3uSnJo98RsDht2Mix96moDqt9VOK4kCGjcoXw7CBmmttLeix5b9zvQWm2nxoQpQTEgkoVtmoqgi+95DWTe57EzUBgaOUcFqWXylWuhtDWiQnmbZrRu1/Bs6QXlbYNBdABiAO9fNsFWtCfl+0LC6pgr/dKQfLxQa8CQ7uUkZWMveQJY4sySe9xg6A2PIhEtr9VoY5kVvnY3hmCNBH2jsXQIfaOzwSkxHEBDra0AGeBuUN+umDt+WWT/lYQ2ovITnjIh4lnDwntdruPcdNvZZ6NJGlvpgyElAwID1cpMmJWAvudtKtBRnfv5KAghFbvDkgaorDEHRA6yImgvgRSNoS8SDKbDQUHJ45Rbu6gd3OVgOw8IVRqkT0gr2sRVBrbkF/WInznjtmBYsRQEPx+ECjyztwBDBKYsogWeXdtWSiNkb22JgEhJRJWMSwjNWTDvDR+qmmRJJdtV2SlHmKJ94xnFQrSSa3W3qXnThodFpYIrBbbq6XKzImL5UyrAQHfvbMPN0ptsoeTMm8Wk0CsAf4YH5hG5n4kH3zgRensAF51xjg2GrIaEHWPNwLDnmQNnn3LMnrsBPpdG8qL9+1FTpx2KYKnnh2CEMuaszh7y2dUA9KGbMjGJEdlvZjFHjAO8Mb+VhWi48RJgxXF2p6pKYDYIgtos3ECsRZOwpad9q8GJHFOUmnmyUI4jJIS2Cw0Lh60scQixuRDSETF+q1q5SDYbrP5QD7ixXR2kO3oUIuVxopAWBxC3XAnKYXVSbpxWtGexGx+lE4qlgK0lpRGihBB0TEdJlMAyxGFTg6i0fkBi/KjpMBqsg0vqYO21xHtzB9WBsKiWHpFWw47oWyzeaifj3DHzxMjUcAstAizxJgF/HSGKIv0TCyRJGpLZ4g8tAnORkQyD0WITkNlQZPovCbrBFWBUCufTaYxYfWGpVJwvmQFwJDEGDFX8p/OPJ1pk+TMxBznc3aBzULSMRGzWTTKN0lmjV4hyEUH5bc3WPVvDODYlsqJm+8ziLXkrkOSKCXmr7iLwubC+S0uGUv5sUTKbXCFIHBzipPgKTqJI8L2LkorEiQuSeTsaMs/qqVELTUZ8VxK10fgVtI8t7a8I6P0WEleFjHknHCVvce1bTmRKNOu3tl3N9GCN0dB4r47hJAoC5CY7aLhl2FWGXxHLgdrqrcMRYGOt/K+ITimyj0f8LYu9dB9WfYuL/W5xI0zixcftLffgbAno51jatWqVatWrVq1atWqVatWrVq1atWqVavWi/ofCzQptn+ya1AAAAAASUVORK5CYII=;" parent="1" vertex="1">
          <mxGeometry x="-369.66" y="768" width="69.66" height="62" as="geometry" />
        </mxCell>
        <mxCell id="dq0KdhcwPf0WLffFqdIs-10" value="" style="shape=image;verticalLabelPosition=bottom;labelBackgroundColor=default;verticalAlign=top;aspect=fixed;imageAspect=0;image=data:image/png,iVBORw0KGgoAAAANSUhEUgAAAOEAAADhCAMAAAAJbSJIAAABTVBMVEX///8AAADw1rfTODMzUGEjHyBta21eXl4AHB735M2BsMRJcou/v7+7u7vVODM0U2XKysrY2NhwcHB5eXlRUVG2trbhOjX227v19fVXV1cbFhfo6OgAAAXwPTr5+fkiGxs/Y3j848ISCw0XHh/s7Oyjo6ODg4OSkZELHR8eHyDf398fFBALAAPS0tKhoaEPDw//7dWpMS2ULSv+QD0yMjI/Pz//89uPhXNPJCTqPDkEAA7DNTF3KScvLC1jJiW4My8uQ1AoMTkvLy/i0bKgnI5gXFXVwaV8cmNDPTe6rJSun4kAERaJLCorHyBWTESDeGhJIyNmJyUXAADYzbqzq5yWkYXl2sa6qpJLRDydkHxxZVgUFBzCuaiXjXnJtJqcLiw6ISKIhnp/cGAkExd1l6hOZnEnLDJjfYpqj58+S1QhJSs6PEKBq76PxNpOfZnd2FuEAAAVxUlEQVR4nO1d+V/a2NfmqBdSRRZZTZCYsIfFjWhFUSytWrXavda21plvx8440/7/P77nZicEBadT0veT5xcFknCfe/Zzb4LP58GDBw8ePHjw4MGDBw8ePHjw4MGDBw8efjbSUj0SqXPZcY/jPwGXiMk10MDGS8H0uEf0Q8GVmlATWcKyIoLFf0SAeGLcw/pRyCZkEHlCSAYOD357/+a3g/MatJAlQOn/hb6WRGCRHoH26wfrywrWH7x6fEpJ1tjguIf3r1FAdQSZJy3yen35gQlk+foQqUNx3CP8d4g00dwKnATwZtnKT8X6qzgQmB/3IP8FuHkAfyTPxeD0rc5vworU8kf0PfK4x3lvlFB+9Xy0RODxusIuNdGH1MSh+KtSzMsAqJ+NgFh7tdwnPRPC+QcxPu7B3gdSDeQoF/H7yaNB8tMptlkxMO7hjo58rRbnuETAHyf95mdDF91NadwDHhkyEpQKAb+/difBCeEjUoyMe8QjIgFEkmb9c3Otj8t3EcSo8bjFt8c95BHRhEi9RNpN9mLdJJhytMYHyx/fvD4k0Bj3mEdCFIhMSwgRXi8bBDHAP37ctXNMPZCh1cKkjh33oEdBAzALFWOJKFd7ojNMLb/FTDQD+3YRvoHDJnwgv5QlIkEWShwXnS20+XVNhMuvQMyIBDZsQkwdTQjCxEaGsHPjHvfQkJBgs56PFAMBvwzLmqjeQub8ckLot0OFsdBlWX7cAx8acyIrc1IRI4V/Tm5pDNebcCYMjvoTqW4GouMe+ZDIAqlJ0pyfYq7Z1qzwI1w4yM8C4QwK4x76kAiCWMzH/CpDcqrySv2WuZ3gxMQ+/CqG2KhBJBHQGIqaY0ltvL9FRRVjFKA57qEPiTkROFVHEfAuZfEnmrD6uabwMOEcxj30IRFgRUkToT8A3X42b4yQmNK5pg66E6nfIT/usQ+FfJtvR3SG8/3Wh0nagS7XDY1ravnxgZDa+DWcqcSypB3UlTR+bmdICw0wGJ4J2ptvYSL1/pfIaqJA+6KzOkO5L0TQLtuBRiz1TuWKGfn64ZlwBLFxD/9uIMHyM1LDsgkLJ2T495ndq1AZvoUjjbiaw6UeCMJT6L5ruT9ecMAzJ7tlSLRRkDKV4UFfKYEQPsFTNVd7onii/fcbF4eti8uM65unaZZlTtZ2GQJsC2qsGJ+bb9q0VDj49G5//6ylae8+HAoTqTMsn+Bw4jKTc3uVKLPl7bW1hxUCh49fP6b9JT/YRChAJkPLxiNVtsIFbCDXi+bFOyF1mdlGim7u8sdquYdrCysowtd0eWJdZknsw2Wvmqb2T1sARLfDiVSLKqwgYFKeuoQVKn/3BsUEVMjCwtpOBT4uL79+/WD5LYj+Zl85SAsMs8hAWqCV/SjDleQJw7q2PZwHwoSQYY59sr7MQgYu1+dZmX1yR8KNXofVyL7L7IaSO7maWxuL8yzzeW1hIcmgCB9fnqK5dY/Q4J7cmnArpphR3VHqqLUVmgyhFbsztUkANcKFzUkG3j54IMBRVzzrHmy8u6tmQoqHLSXzSX3KTCLDXZfqaVYkTJISDJWRYaoLqdRRW0il7pKgIjwiHtI/B8fJycnJ5IucK0vhUq28iiLEAebg1YOJrihgNXSH/Iw26j4aLV2h4SnDyRBDau5b+0Y3k1tYWAghw4eZx8sTArlbOy2t8BYNm0LrocpwtexCZ1MUmRWqozi+k/LhOqYuwzDUZXgJ1ON24SREGU4my6Tmtp0oaag8U3QUGW4x8OpOdkjrTDtKmHjfop0ADBYrKsPQ53LNbclbo0ZFmFQlcMXKy3czFE5p4pYSumcAT2jMT20cb6kMMWJU3NbiJ6S8oIoQh7fCZDbUAHebI00diE/3L9+fApxfYvIt7AuHFXWKqKbnYHbcnHoQgdzJ2oImgMnk8wqm01gjPYXfbuG4r+z+Imf7OBvCZbvbhR2D4STDumuDRkxkJnUR0vHlKq32xtEF0LjhgEvMS9Hu9p8+3e/SkClcnsIn4ai1qs/RZBKTW1cl4Gzlam1BFwClSMpEbLF0Zc3OTnGgcI5FYpcm4alU93KjDa1TQTg3zJBqernmpqgfgfKqKUI6wNA2U66wp+v9i7/4jjDRJVRBMyIrwuUnEEkLy+AuEMschcquUtOSiEVFctKKZGjlij13YpjaP8R68OgQWh9YlmSO3mdatAhOnR2fhCznP6y4KSQ2WbKwEJrsBU0vjeVfsy38YCJ1TgkJ3aOz0yZpHb27OOpSz5thtiyXwLzGRa3FNORerC3YCCpjfGUwPLOkOELlPa2A0cPQ0l5NzoWz44dWLcC8QXRP5oZmuGJTUm2Mv+lCFNrWtYounD9NqeT04qMLzG6PFiTLrHs2ERVqGCvsSqqExaZuiKmn1o4Uvspkzi823iM+nSkzcHr8Imk/Wxw3MQMYDTf7lHSSlrKmmgrn1lJKOIKW+KHVyqBHpYtuqSPosULKcDvnnogYZytrm/0MMWwfH5i+BqymmOq+vzhsN08PVC/ThcqOTc2pGdfHzUxHu/J8rc8MJ5XcC4waMLUP760FleJmBNUKhXO28tzOcIUBt+xzz4q57bV+M0RsPjN9DTW+I+eaUThrYeZus0N0VK7JatI07XYimNwtE9qVMo1vw4micAaEVEm5V0/dFC44mrM56ChmboSwT9atFJ/0FVTCfrPFk5kwUnyetIb8SUZ0y1qbBOXP/fE++bmcI3yVNvhNiu+g9c66pwYzmwsg/N73mZnFKsk9m7RSLItuWWqLIsNNO7/dKwY1L4zjhjfryymD0CEcHgkKSZrSXD5RbsToTM0oFCtlS8jA3Ns/bmoaqAxt0Xpyh6lUbxZV0bTaj98qCYxwdHFxdshmWgdHl/tY3l+0MsqNJpVKtaMeSiyJDTJ0iwztDEPJEybH82EcNGKqSngA8fz3jaMDOD4+ppTYFq2dMOBn2oTkmIcPy1VNihaKqKVusUMOcqsWhsndZ2VS7cxo+L7H0720/ngbRObk8w7D5JDiBY+kzy67F0vMSXJt7aS8RynOEJ4wmi1ST+OW9eAsRoukKcBtqqA6v5nFqfBelSgrLXU4WVtYW9jdYXLsaZfG+277+Cq0trC5mWRuwlOLOB3XpPw55LpokWVzeigLJVee5Uh16rvBDxGeuoFAMO0rZSYXKNaoFsPh72dnmdzqmtJFTl7xYTyQKqrBcNc9Ed8nV66S2qieMRWeLGr8wlMawh0WanNyeXNTnYaFJMrx+H//Y3bW1CZrcodVDpyZqeqGGFopu2e9O8CW1fWGFaZCqnua+Ax+KseKyDJGiYXKurO9tvmCWT3ZoqeGTnLacTyjN4VPcu5ZRiyKaumTvEKCqgtdnLIj3LlhNvXRh1ZeMCcLqIif1e5HaFVj2DFqDNoEcc0CVAJrfI0hP+PMT6FY3jQ7vitXDzeTq4bjXM0pIg/v6WZIL+aeGzAkdKYKw+1cVQmBA1BOWlzuCmroMbOVDFHgmSpDM1iEGNcEfARUlC5S6HOZ7wwSIQ6f2TXDZnIbg36gnbna/ryytRV6tqeaLauXia5ypcoehZA676R6C8O97QVDhC+g1IhyXBEyZaR6zHdUM8zpjf3QtoscjdKKUg1xp1IND1ZTNETd01wdy3kpyuWlelH8Mv3PHy9JWJkDo1tDvda4aVmAhridVMMFuf5+iyEqsQ4LD3apCSWJS8e4fKPybXr6258vr2nI1wOrktG4yAzpfracGhFzipqGnQmGrx+iY0lu7cBf09MvoZ6OwKyvcIMMp7/93VGUVG/su6vl7VMWLlY0b8pPDTREVNOtrdUrBr4iqa+1+bwv7/M1/qYM/xTDvUr6rFIbN6kecFo3ED2gUrDbiHV0IRKsLCovv0xTqTXVpKz0F31V7SgfV0xP6prCQkOc1dIaUqnaXU34pmMIlZA9leD09BeIp30JX/EP/P+Pm7CipNt6QrPjKk9KEdR9zUm5umgzxDDpfNffCIfJH99Uht/+hkgB6rGv+H9tSvWku0ZtyLru5u4mr2QjODYa9O0MDcsM7738Z3paF+JcftYX+Dr97a+OEiuIvkRKO/quqSt0JDQhJh9Wbr73uprwzZT5RrX6VZMhtUTUxMMv019eKjNiKCmdJhfeH9TWhPi5XLU50/B12JQhT6r8nxrFP6GU99X++VbVJkJTUrrF1H0ipJaoJKcYqqkh9jDcC1soX1f5l21NjlWWy8O3P65VpeYxpmK4TE6uuNAKKdCd0piYJDQi9jJctDAMd655HnWVMvwKhWDnn5pWOGG4T4ZWdhiGIey8axbWLJCAlCnDF5XObQxp34ZyfPnHl2/TL5ulr6Sj+SNmcmu7zFR4egc4K7qRYgloRwrzLfLd4kzDfQw1OVJl/ZsVmzQUhsPhPf7qBZMjLJCEL1sC0U17TQzILLOaxHTE6mo6e2GrHYZ1TO0Rgk6HoE53Op29vRv8t8IC+FUXUwCQxszGCRzQlrXiakyZVW+myNT3RUpK5XJ9fYO8eHr/lwKe/q+8gvis0ZmRay7L2lTMoilOhspWhuEOjv8a1ZJQ/yKKxvPaQHm2mcKQ0Gd+saStLGqngwW6U6gA7tmnYEURKiT5jA+brqajyKmqMGPluWIpEQxG6vV6JJhoFOMs4fc6HZ6dk6R5SKAAo3FtaZsDd1VPBvy1yvPnvOFMMcBfX1/zRJ5rBB3sikvA4veZ7zxdRquDP+1rmE+pabpmXcaGuFip0AJKYzjzHbFYdT42HY0AXazYU+6vIM28D8WW18JETHRTF8OKuEhoJ0PX0sVF5ADOe/DS0TplONPhqc3FqPdMsGwzXqTidqk3pYjXCLFViAPGmo5KEF5cnOrwdG9Qotfw6uCazSZ98LN8b/0UHuA0KEOlPcPTvUFRxdXoyEqs67brG4hA1cYw49zbTUc5VknZeHoXUB4wTBRkwjfn8J88J7vy1iAF9T6GN87RGxm2VYZKUwZKhrlmfRIydGEFpSIKGPJ7GO4576NEhk2VobLjGYoSBcdx+XwexetaT4NFBjLs8TQd51UkZCjT9Yow4dvZqFQLcNEo5RhFSEFwa7Sg6UgfQ+cneiDDuMqQiFI0z8oSTXUKhUQ9ip+4+BF1/QwHhAtkGFCa+TcEopEifewurQ0DpYSULwJwP3vgQyMLpNqZ6mm3OTsN1MyYUh1eE3p3QjMeiIvNICfVg41mzdX35dNqiN8LW6pg0XG4yLD4gRaLe4SXZ5VsTTYqD/fqqI9mJyItijoGx3DFcYcaMmyIHSx+eWLEvkiiFIsVCxHXLOE7gyuxWO/xROcY3nNuf0alBLAiZnliwOWMHBCUKUes/sLKopJz7h2VZkGOFWo112agt0LhiILc69Bw4bgpnUY9ScqzLi1270YkrjymnPZhnLPoqBQBJfS5627KUSCV2hjg6EPmHV2NFKUMpZK7Hedd4BKlYnGedewrSVgC16m7cc/9P/dFxDlDwTwUIpTmr/NIyEHIOhfslGFQikrEvWXE0JivOXXO8ljkz0pYYbi3YTE0CuBUQNE2RgIZBn5tV6OAc+ycZaMcFDhOcnOlNDScuy5Rrh2IYWbg3obF8Cg5/sQDRnuRrmW4chVmRETBKTXlOD9L/AX31rqjQHRIzdKS5CzbXxLFvsQljZGQmwVXbkq4D6Ig1uKNiLE8n+c4LhosxVn3ttRGRVP9iSdoBuaKxWIsFpBZuiXB/U+7HBpYL9JlX1b9SSul4BCRsUtXCe+HfKSAkiNK07DGtuVArJRw46YSDx48ePAwXmSj9WAiUSgV5/yB5sCt6lJRlou/aDYeBQsG1YSF2z92N7hA806Gdf3z/747FfTP2eD/ARlIXr6D4bz++X+fzxWgDz/COLg7GC7pn//3j9rNJ4ptKz1/4ccsoMi3MzRk/HMa4RH48TMauJ2hoTo/abmmoX/fj+vZ3sHQF1c//ll14+yPn9G7GNLf9oSft+VrHAzRG/3EsnE8DH8mPIb3wK/CMJ2Yk1lYehQvWkeaTXNSlG5OU3dS1kvxR5VmoNCzl6SXYdSCvPUKjUjfNRXrjDpdUxlQDD9oy/5GlH7H0M/rG8BQ0oepQF85ilvew/FFHxmvrLGmh2HWep2Cz3rZuZ6jtWtKTcvRFuT91gsVR9AQZ4YllVg+q6XJS2qWLFu+JNKb9VmG0yvDonlSQOrhE3NgOOiaQe2duhQpOYx3ZIaqrBTJSdrHKsW0OYJoEXpgprR2O0wrr2T1C9IJIy/VMu+sec16qfeaRvWhEmQ1xZ2jL4bOUJwYqtk/a2ULS/bjUZsaUlqK6a/NFMXOkKbiFTPlTdsYGgJSrlnCaxpzF+g9xdizQw8YOmNwYKhNpGZ8elqnX95I1ufVGTUoDmKYbds2IupXNKsnQ5HjWYOBgmzPiExSfhh+82Y/Q7360WZdn2D9Ofi6t9GXlPL6BYymRS/DLLqjXr+X6GMYsF0zbbtmvFekiBF2b/Yz1J2WZlj2klxnaIy60jsjNobpNsg2vz+YoXEJ3UnP9n6FyaowfP3cx9CYP21cuqvRTVtnaIxGf8Nw31aGeRYq9q8cguF873calrHU0OY9O3wt28dQ/37wpdN5hCHD0gCG+micGHKWYY7CUH8j0fuSolkcsU7vY2gLAibuwVCTv62QGJ2hMesaiqOUJn0M52EAiqMyjOi9RVv7YHSGZm/HNt2DkE4US/rF+hgannvAycMzNOKIbTz3YNjTh3WatV6ovZlH+f+aoQU9rdF7MHSgeEsfS493TWeGxvgG6PrwDJtp41qP/i1DX9bUCPvBfYj1HGIw1AdoeJoB5ckonsYsLKybou7FkNpWr4sY3MkyrLZh/TpDkRI9H/87hpZmpWW+RmZYamsfZIMWSfbFWWMqjEOU0/UkUc+szSzMZst6YjISQ1NhLOMZnaF115FZmwz6ARBTcxRD8w/8ut4HOUm6oY7G0Gevle7H0Gp0ae2Sg58rqRfRqhbqAzDLO8NtWe+DoZLN3oehqafGCSMzRD1bsuS2DfvpdpSsB+jfZvUEhmaZdxjQ5ESzpBEZquWqgnszpCWyZf9fwnZwH9IWSrpR9tqcERIrs4quc9S/6tFEz4KNYk3XiZL9DVVJTKvQJ0wv5E3TlHvOsLxRMimZFFVvf9uGwIQxoZJWltjrG0vHqRmPty0Sypp9Bo2yUaCD1h0zVkI0CZhJZUCxbFNv45ql28+wXLNBp1iNaBVNidR4vnTrDw1RqS+VEg2dSP8OXvM7tSngbINVKfV236gqBHuPmLcKhKLU7j0gaD+jYM+Mmwph5RrxQr0e1CR4x71wknVgc07LomlrT0jWVd62ptowNVLFkn0OFGdlzbjsmUnCfkapd0aAahtK3SdZz5SHaCVKDX9zCSrxYnDgZEQLxcB8PFAc/+a7dFB9InrJH5dlHNAvuo3DgwcPHjx48ODBgwcPHjx48ODBgwcPHjx48ODBgwd34P8ApB3KyCHXoBkAAAAASUVORK5CYII=;" parent="1" vertex="1">
          <mxGeometry x="-180" y="834.25" width="70" height="70" as="geometry" />
        </mxCell>
        <mxCell id="dq0KdhcwPf0WLffFqdIs-41" style="edgeStyle=orthogonalEdgeStyle;rounded=0;orthogonalLoop=1;jettySize=auto;html=1;exitX=1;exitY=0.5;exitDx=0;exitDy=0;" parent="1" source="dq0KdhcwPf0WLffFqdIs-38" target="dq0KdhcwPf0WLffFqdIs-8" edge="1">
          <mxGeometry relative="1" as="geometry" />
        </mxCell>
        <mxCell id="dq0KdhcwPf0WLffFqdIs-38" value="" style="shape=image;verticalLabelPosition=bottom;labelBackgroundColor=default;verticalAlign=top;aspect=fixed;imageAspect=0;image=https://d2uleea4buiacg.cloudfront.net/files/fa2/fa204630bed1deaf4e18a19a180f885934b613c6293584180ef1412fe8ed5283.m.png;" parent="1" vertex="1">
          <mxGeometry x="-800" y="575" width="282.61" height="100" as="geometry" />
        </mxCell>
        <mxCell id="dq0KdhcwPf0WLffFqdIs-46" value="" style="shape=image;verticalLabelPosition=bottom;labelBackgroundColor=default;verticalAlign=top;aspect=fixed;imageAspect=0;image=data:image/png,iVBORw0KGgoAAAANSUhEUgAAAV8AAACPCAMAAABqIigoAAABDlBMVEX///8AAADssi4utn02xfDgHlr4+Pju7u56enqjo6MFBQW1tbXrrRAsw/BjY2MitHiM0rLzz4rrsCLj9vz++vzgCFb78N275NHl5eXd3d2H2PXz8/PeAE3s+f3Pz8/Dw8NtyJ/rhZ7++vD44ruSkpI0NDS3t7eEzqr2zNXrrABbW1sAsHCpqakVFRUpKSlnZ2eYmJiEhIRycnLt+PPc8ecrKyseHh5AQEDS7eCk28FERERQUFC35/k9uoXJ7fr53ePqeZbxyHfwwmNjz/JazfKd3/eb17y24s1ew5aS3Pbumq7zuMfsjqX226riLWTxrL3lV33uuUX75+zoaIrvvVT67NL116DjQG7mW4HyzIJHpMy8AAAJiElEQVR4nO2cfV8SSxSA1zfQAC0SA0EwBQ0RdFEx37W3e7OysrrV9/8il30/Z+acHcjdW7/ref7KYXaWfXZ2dubMIcsSBEEQBEEQBEEQBEEQBEEQBEEQBEEQBEEQBEEQBEEQBEEQBOEes/J6+eXy6Qosev5wdXXzye/6Qv8vlgseb8OS/bPOwpDOVMKGMyfzIVvVZNvW2d2KTraR9sl4XhWmPQqv/JLnnYUpj85RoqfKTACyiTZNMAtONpf2yVheBnqHgpfdkr3AriP4eZLnuod+zyO9Q8GPnaJN4HfqLMmT3UO/L5FfZwjOQL3JduB76Hca4YzAz5HfhSRH4HvvtzAseYL9PkzwZPfe77QlfpPlVUH8psmp+E0XGR/S5XFB/KbKeaEgflPl9XQhwBK/qbDiY4nftBG/6SJ+78jKY4Jo94L1u7e/N+IZMtVKpVLVA+hmv9Xs8MDMOFfjnKtMxup/j9/TVwWS6WD7gvF7dNbpdBZW903tZ7fnB/5FdQ/tHLIY7zez0e95H7XsultSzUVQOxDZ7R3/iAfHzbr6Ke83hzFd0hisKOthGNspnLtVSL97Zx3vT8OORuNkQqE1F3WuOL9ZGx02cK66DEvM52ribsz67ePDtBtzB6ZZvdNBeJ3ym5kKCztv+NbLx6pdl9lAZYzfpnZUr4L8PlDOVe8RZ7Lh0ML53cXHNH5RJcVynF5veUH6XYVbRuwQkSPtgstj/WZb1FH1LOs3s8OcCdhi/DbIr5YIKwa9hVOL9LvfgSWrTOtzrN5hF/asMH4rzFHwhiG/lQfsmZphJdqvcq7ZhNS6nJr8vrRIv0e4iG58I0av360Yv5xeBPRbj6s4H+u3iitvJanXODxw8YdVvCVHDhDZiTisGL9l7iDOb6zeyBnpFw9ErUT1mv0y8YdR/G7FXXIzzu/BmH6N92OW9zuPayac4/La5Nfd3+wgv0e6X2qZgS96a2dnqwv+Lsf4xfOyEfwOjHU3OL/KucrJ6sXJDlT3ddcYemfFfsmUCDi/Cibs9ab/NJ5YvN+RBl/od9Zc12tb96tMcJKc+HqYhgcmvwT5pXfsD+mvXXEvMpg0UX71cWXQonpo4Fe/H71WVy1yxyPNrzJubyeu19CB2fwo6HeBzuiJvvYB/qBqR0svwq86mPbrzhIhU9d6aeBXuR92xamfzYH7O9Hy7rDqV3kDN60UiBuB3dmZw36U3/eXWwD8LkyRQR7w3dWFllUOOwrhF4+Ix9GIWFVWsX6zuPv2o/VauGx4EAxPql/8VOz8ssNYzqfp8M6Q12Glvb+9/NQzPzlqdSGgs0oHt2Df6LMnJ/yia8aTfTyh9v2i+4Ge8Kq3YN4NCxS/OFpxPLqyMTl/u0yB86v332xuPgxTz442fY64CCUyd8BFpHS/aEhUuxRayfp+YdEuru4sHWbB7cd+8YPSHSsG+gegvJJ2clR4V/cLYy3awEJ8CoeHE7V6/QRNuKDfnDJ1SD24nzTKaDlkYDfUTqL7hfN9PcKrx89gjMM0e4V+lXVF8jOztFGiUsFlYWe6Xziz0hvV/YKwmdZ9VfiJcqq/Fnh2/dTj8sIvWXz3/un7d6jS2odHFB/W2GbJCOMQGzyKul/wN/Fa1P2Cl5QxsMj63TUdeQee3dRKPrVnXtF1zSmq1T6GldZetIs07Z9cw/w6zA7raH7htIPwpfsFw7zxGef8JhqSVPhYmwnx/X4KimqXfqWlYnGSozjJdWE+Ptmt+FVi/RL7CLpfEPet6PUxnN8kNywUngG9vt/LqKj23qvFynUFf+Yap4dg2Ndi/RKDYjp+U3y7zcyofi+Q8Vun0iO+9zrkP3CtV7lNm2A+pPmFBcSoqPsFsUxjN+Tfb2nNzlD39fxelkBJye3A8XonJ9kOPBTCXZO3XIp9vxFbCbpfEH0wxg/gd8HT87RWF9clze8N6tLfhyXf8ga/bX4SMaRhUxu73jOp+4WzDj3YrfsFznqmq4V+t/EE+HB8d6NwqfldRCUzpWGldZPf/JLhNNlGU9uod2dful/oQO+Qul+4DNMHCNwtkV9lgTmvHZsE/5Ffl3oTXdHAKdP9bsMSbUEGDXl+ofGuWn0OB3xw/EEJhNrqwUnwEY+/i6TfJaPfUU+HJhTO06/7RVfdU4ZFtOHvRyfg4KOM2E6sqMfnP6SY9xBwC/2WnMGW8Gt9jtdbfEE3TryUYXSM9ouXfS3UBk7p8f2i5Bsk2Pd3Es7b1Phvink7AV+ATvf1Rvldb8f6bX+j26Ze6Ga/SlJK9IDXlQW37xfnLwxCSdXI5o5/l7T9IWX6aJxAj8/iTOjTW61Rfq2ruBEi/4hu2hGlxn3hmtnd9tH9ZiYUmo1yttxoaltwQfRS2QLu7daz2coGVme7UxF9f1O5ZSlMg29vvCGiVHvq/k36ta7a3By42Gb0+u9nG3aKKlgNuJkc1P6mnthHE/jVbggFvb+pJu+o430iXM/UhnzyYzu0X2v9aztP0X7BDA7R22PQ3647+c7ZOuppNucX7xCZ/cZkEUbi3IpE/oOyg5zOJtHtxcVi8G/Gr2WtLVHwjWp5vwpuvyb9xoQtSL9qDg6BN9Gj8ne2ccWUNjkjWL9jYsoS8YLhdH6UvvUR79eYUOVHisj8M2UBn8omPSApv6akGq9HMfmTh9xRjN8quQLXXNL5qcrKMoUkEwjld81njGZML50cUQ28vbkOCT3C3c9MnODQGO1X/arpbsVR6+Pw1XbFvcx0yGx97erY/HV69O7CUQfvLvOR0MgXk7+uDmVJJ/khYuMPxfbV6C0pbw5IuAjgf39BzdJ6Vf73AdwsYh4E4bjfX6gv1DT/IzZDfIdbC5Pk6HF0PhIZ8/uWinawTcXPIjJEXmsLPezs74eUm6kkzCWKKX6W/2ec1spz2oM+Cx+/2N+/NVDmnu0cF//7rMwcXo/1laEUzkvw5ojyLRPOYocY45PFcVusbDT7x62Dbrd12N9VXx5ZgH5odcM+aXUHra3wt4Lx9YefO0cMugfEqZzfgkYoK7UsopxespTRb349tXPfB8z9d6wBQlAw++XiOcJI4P3NG0vd35T+eze+oP35y2HJGh5/R19jCARERs8VDP7GJDsIo/Ap6sC1L24J7MDcZpAwKos3geDad7/oW7gB15bR984sfqmVSjOlUpg+aVlLk3knGTVflMlvEly8//H9x/UtLFr/+fXrldgVBEEQBEEQBEEQBEEQBEEQBEEQBEEQBEEQBEEQBEEQBEEQBEEQhD+EfwHdT+gjG+D+kQAAAABJRU5ErkJggg==;" parent="1" vertex="1">
          <mxGeometry x="-310.34" y="1050" width="147.27" height="60" as="geometry" />
        </mxCell>
        <mxCell id="dq0KdhcwPf0WLffFqdIs-48" value="" style="shape=image;verticalLabelPosition=bottom;labelBackgroundColor=default;verticalAlign=top;aspect=fixed;imageAspect=0;image=data:image/jpeg,/9j/4AAQSkZJRgABAQAAAQABAAD/2wCEAAkGBxEQEBEQDxEREBAQDhAQEBAQEBAQEA4QFhYXFxYSFhYZHioiGRsnHBYWIzMjJystMDEwGCE2OzYuOiovMC0BCwsLDw4PFhEQFi0eHx46Ly0tLy0tLS0tLy0wLS0tLS0tMC06Ly0vLS0tLS0tLS0vLy86LS8tLy8tLy0xMi0tLf/AABEIAOEA4QMBIgACEQEDEQH/xAAcAAABBQEBAQAAAAAAAAAAAAAAAQIDBgcFBAj/xABFEAACAQIBBQgOCAcBAQAAAAAAAQIDERIEBSExUQYTFkFSYXGRByIyNFNzgZOisbLB0dIVFzNCVHKh8CMkYoKDksLx4f/EABoBAQADAQEBAAAAAAAAAAAAAAABBQYEAgP/xAA7EQABAgICDwcFAAEFAAAAAAAAAQIDEQQFFBUhMTNBUlNxgZGhscHREhM0YaLh8CJRY5LiMiNCcrLx/9oADAMBAAIRAxEAPwDcQAAAAgyivCnCU6klCEVeUpOyitrZnG6Pd9ObdPI704anWku3l+VfdXPr6Doo9FiUh0mJevriQ+MaOyEk3Lqx/PM0DL850aCvXqwprixSSb6FrZXcp7IWRw0RVWpzxgox65NP9DLKtSU5OU5SnJ65SblJ9LZGXcKp4KJ9blcuxOa7ytfWERV+lETeaLU7Jsfu5LKWzFWUfVFkL7J0uLJV59v/AJKAB0JVtFze93U+NmR8vcnQvn1mz/DLzj+AfWZU/DR85L4FDCxNraLm97uosyPl7k6F8+syp+Gj5xifWZU/DR/3kUQLC1tFze93UWZHy9ydC9fWZV/DQ/3kH1mVfw0P95FFsAtbRc3vd1IsyPl7k6F6+syr+Gh/vIPrMq/hof7yKKAtbRc3vd1FmR8vcnQvf1mVPw0f95B9ZlT8LHzjKJYBa2i5ve7qTZkfL3J0L59ZlT8LHzjD6zZ/hV5x/AoYWItbRc3vd1FmR8vcnQvy7Jk/wsfOtf8AJLDsncrJGvy1k/XAzwCbW0XN73dRZkfL3N6Gp5N2RckloqQq0+fDGcV1O/6FhzZnvJso+xqwm+Te01/a9JhYq0NNaGtKa0NPajmiVPBcn0KrV2pvu7z7MrCIn+SIu75sPoYDJtz27mtQahlDlXpasTf8WC5pPuuh9Zpubc4UsopqpRkpwlxrWnxprifMU1JocWjr9aTRbype9l8ixg0hkb/G/wDbH80HsAAOU+4AAAAR1ZqKcpNJJNtvQklpbZIUTskZ6cIRyWm7SqrFUtrVNPQvK11LnPtR4Lo0RsNuPcmNT5xoqQ2K9cRWd2G6WWWTcINrJ4S7WOrfWvvy9y4ukrdh1hbGuhQ2wmIxiSRPm1cZnXxHPcrnX1GWCw+wWPpM8jLBYfYLCYGWAfYSwmBtgH2CwmBlgsPsFhMDLBYfYLCYGAPsFhMDLBYfYLCYGBYfYSwmBtgsOsLYTAyx19zefamRVcUbypyaVSnfROO1bGuJ+45dhLHl7WvarXJNFvktcrVRzVkqG8ZDlkK1OFSlLFCcU4vm59j4j1mY9jbPLhUeSzfaVLzpX+7NLSl0pda5zTUzJUqjrAiqzFfTR8uGgo8ZI0NHbdPy6goABzH3GTegxPdHljr5XXq8TlKMPyrRH9EjYM8VsFGpPk05y8qi2YckXVTsuxH6E5rwQqqzfcY3SvLmogC2CxelVMQBbBYCYgC2CwExBLDrBYCYgC2CwExAFsFgJiALYLATEAWwWAmIAtgsBMQSw6wWAmNsKLYAJiALYLATJMmrypThUg7SpzjKL507o3PIsoVSnCce5nCM49Eldeswixr+4jKN8yKi9kXHqk16kimrhn0Mf9lVNt3kWdWP+p7fvd2XOaFhAAKEtzh7rpWySv4trrsveY7Y1/dk/wCTr/kXtRMisX9T4J+nkhS1phGaOY2wWFAtisEsFhToZtzHlOULFRoznDlvDCD6JSaT8hDntak3LJPO4emtVyyak18jnAWDgbl/gF52j8wnA3L/AAC89R+Y+Vkwc439k6n1seNm3bFK+BYOBuX+AXnqPzBwNy/wC89R+YWTBzjf2TqLHjZt2xSvgWDgbl/gF56j8wcDcv8AALz1H5hZMHON/ZOoseNm3bFK+BYOBuX+AXnqPzBwNy/wC89R+YWTBzjf2TqLHjZt2xSvgWDgbl/gF56j8wcDcv8AALz1H5hZMHON/ZOoseNm3bFK+BYOBuX+AXnqPzBwNy/wC89R+YWTBzjf2TqLHjZt2xSvgWDgbl/gF56j8wcDcv8AALz1H5hZMHON/ZOoseNm3bFOAB3+BuX+AXnqPzBwNy/wC89R+YWTBzjf2TqLHjZt2xTgBY6uX7ncroRc6lCagtc4uM4xW14W7LnZyz6Ne16TaqLoWZ8nMc1ZOSS+YlgsKB6PIljUOx1L+TitlSovU/eZhY0zsbv+V/yy9UStrXw+tOCnfVuH1LxQuICAZwvivbtn/J1vyx9uJk9jV92/edb8sPbiZTYv6owLtPJCjrTCt0c1G2AdYRloVp0NzubVlOU06Uu47aVS2txirteXQvKadk+U4HgaUVFJYErKEdScVs5ihdj/AL+XianuNBzhkmNYovDOOmMvc9qM/Wj1WMjVvInH4mwvatYiQu0l9VPYndXWlPUByMgy5puElZx7uHJ/qjtTOvF30rSnxlaWANiYltWu3lCUb6wwrZx38oAqf75hMS2oFFLyK3kEwLYAKpLagxLatGvmBQXFst5AcU/L1AA2gcltXPpDCgcEAGJbV+//ABhdaOfVzhgXX+/eGFaObUAGJbVqvr4totxqgv3++cco28oACiHMzjl6SsrtN4Ul3VSWxcwBLlOWaUobbK2ub+BnW7LNiyfKFgSjGvDfFFaFCV7SilxK9n5TRM3ZI1/EqaZvi4orkop3ZN+2ybxVT2onfVr1bSERMc9yT5HFWDUWAqriVJbZFQCwqFsaMz42xpPY472fjZezAzmxo/Y572fjZezAr608PrTgp31Zh9S8ULgAAZwvyu7te863RD24mV2NV3ad51uiHtxMssX9U4F2nkhQ1rhW6OajGNZI0MZZKVp3ux/39HxNX/k08zHsf9/LxNX/AJNOM9WWH1JzNDV2ATSpzM65BjtOm8NSOmMrdae1PYQZszlrjJYZRf8AEhxx/qjti/3pO1Y42eM2uVqtLtakNMWuP+lrjT2HCdp2YtNXWlPUwOFmnOl7xksLi/4lPW4PlR2p/vSd2LTSa0p6muMgkAAAAAAAAAAAAAAAADj52znGMbK7V7JLuqsuSuYAdnTOSirK7Tdko91VlyVzCZryGTe+1bObWhcVOPJXx4yDNOQSnLfq1nNrtY/dpx5K+PGd5KxJAGf9k37bJvE1PaiaCZ92Tftsm8TU9qJ11f4huvgpyU/w7tXFCoockJEcjSGcCxo/Y672fjZezAzs0Tsd97vxsvZgcFaYDWnBSwqzxGpeKFvAAM6aAr27TvOr0Q9uJl9jUd2fedXoj7cTLrF9VWBdp5IUFbYVujmoxoZJErQyRZKVh3dwHf3+Gp7jTbmZbg+/f8VT3Gk4jPVjh9SczR1dgE0qSXElpGYgxHCdxxc8Ztbaq0nhqR1PifM1xp7BuZ87XvGSs423ynrcG/vR2p/vSdqWkr2es3tNVabwzjeztoa409q5iUIUs0ZJpNO6elNcaFKvuez/ABqYlxwdqtO93TfKjti/3pLPGSaTTunpTXGiFQkUAAAAAAAACvboM+06MG5StC+FW7qrPijHm/8AWAT54zrGMbK7jeyS7qrLkrmPJmrIJVJb9W7p9zH7tOPJXx4zz5nySVaW/wBXS2u1iu5px2L48ZZqcUlYm8RfJYKysLcZiDEQSSXM/wCyZ9tk3iqvtRL5iKD2Sftcn8XU9pHZQPEN18FOOsPDu1cUKrEekNiiRI0aGaVRbGh9jzvd+Nl7MTPEjQ+x73u/GS9mJX1ngNacFLCq/Eal4oW4AAz5oiv7su9KnRH24mY2NP3Y961f7PbiZjYvaqwTtPJDPVvhm6OajGhkkStEckWRWIp2dw3fn+Kp7jRcRnW4vRlf+Op7i/4zP1hh9SczSVb4dNKk2IMRDiEczhkd5NKditZ7zk6r3minJt4e10tt8SH52zlKT3mjdybwvDpd9i5zr5izNGgsc7SrSWl61TXJj72TeIK3HcxKglWi7V7O7WmMU9cOdbdp1cy531xkmrP+JT1uD5Udqf70lhqwUkVrO+ampb5SeGa1Nep7VzC+JSLPGSaTTumrprjFKnmvPTg8E7QlfTTk+0m9sHt5tfSd+nnSm9d4PY4t/qiJEzPaDPHPOdJam5cyi/fY4mds937RaW9VKLvJ883xL96QiCZ6c9Z3iotJvDeyS7qrLkrmOKtz7ytb5WeGol/DenDSXJtsei/H6j15szbOpPfaumXEvuwWxItFCkoom9eIlO+VDNWVTyWe81lhS0c0ee/HHnLTCqpK6I875shlEbO0ake4nbV/S9sSvZBlk8nm6FZNWdtOnDs08afExfF4s+IMRBGpdXQuIgkmxFF7Iv2uT+Lqe0i6YildkB3q5P4up7SOug4duvgpxVh4Z+rihWookSGxQ9I0ZmVUWxoPY/73fjJeyjP7Gg7gO934yXso4KzwGtOCljVXiNS8ULYAAZ80Zwt1/etX+32omY2NP3Wd7VeiPtRMyaLyq8E7TyQz1cYZmjmoxojkiZojkiyKpFOnuQ0ZV/jn7i9YyibldGU/2T9xdMZQVhhtSczS1Z4dNKk+M5Ocsvbe9UruTdtGl3fEucTLstd97p6ZN20a1zLnPbmrIVRWKWmo9b14FsXxOI7yfMua1QWOVnVa0vWoLkx97OpjPJvgb6CT14xk0nrPPvgb6QDwZwzTCprRyJZnqw+zqVIrZibS8j0Fm3wRyRJEitLNNWXd1ajWxPCv0sdPN+ZoU+I6SkhVUAkT0oqK0EmM8m+hvpEiT14zxZ1zfGvGz7Wce4ns5ntiO3wN9AOBkWVzoz3mtotoV/008a2M7CqEecckjXjZ6JruZbOZ7UcrI8qlTlvVXQ1oTf6eTnJPN47WMp+7p/xaH5KntItOMqm7N3q0fFz9Z10HDt18FOOsfDP1f9kOFFEiQ2KJEjQIZhRLF/3A/YPxkvUihJF+3BfYPxkvUjhrLAa04KWNU+I1LxQtYABQGlOJur72q/lj7SM0saZuq72q/lj7SMzsXdV4J2nkhna5wzNHNRjQySJWhjRYlSinp3P1FDKYt8cZRXThT9xZsqyt9zDTJ6NBSp3TUou0ou6exnXzfn2nFdunGeq9nLqa95UU6A9z+21J4i8q2ksbDWG9ZXZp86lmyDJlT7Z6ZvW+Sti+J7N9Kxwkocv0ZfAOEtDl+jL4HB3UTIXYpad/Cy27ULPvgb6VjhLQ5foz+AnCWhy/Rn8B3UTJXYo7+Flt2oWjfA30q/CWhy/Rn8A4S0OX6M/gO6iZK7FHfwstu1C0b6G+FX4S0OX6M/gLwlocv0Z/Ad1EyV2KO/hZbdqFn30N9Kxwlocv0Z/AThLQ5foz+A7qJkrsUd/Cy27ULRvob6VjhLQ5foy+AnCWhy/Rn8B3UTJXYo7+Flt2oWjfQ30q/CWhy/Rl8A4S0OX6M/gO6iZK7FHfwstu1C0b6ebLaEaq06JLuZe58xweEtDl+jP4Bwkocv0Z/Ad1EyF2KO/hZbdqHRybKZQeCprWhP8AfFznD3U1VKrSS1xi7+X/AMZJluf6Ul2t5y4rJrrdtRxccpyc56W/0XEjuoUB6RO25JIhXVjSoawlYxUVVleuyks/iDookSEih6RcFAqhYvu4T7B+Ml7ih2L5uF+w/wAkvUjhrLA604KWNUeJ1LxQtQABQmnOPunX8tU/IvaRmdjUc/QvRqLbCX6afcZhYuasX6Hp58jO12kokNfJeIxoRofYGiyKaZ55RIJ0kz2OJG4nlT2jjxuihu8I9jiNwHmSHrtnl3gN4PVgDAJIT2zy7wG8HqwBgEkHbPLvAbwerAGASQds8u8BvB6sAYBJB2zy7wG8HqwBgEkHbPLvAbwerAGASQds8u8IcqKPRgHKAkhHbIYUkTQiOUSRRPSHlXDUh6QqQtj0eBLF93DL+XXPUl6olEsX/cZC2TQ53OX629xwVkv+imlOClnU12kr/wAV4tLGAoFGag8uXQxQaeppp9D0GV1qTjKUXrUrPpua1VjdMzzdRkbhWc7aKnrWv985Y1dERHuYuPl7TKWuoPahMiJ/tXcsuaJtOJYWw6wli5M2RtCOJLYSwJmRYQwkuETCRIdoiwhhJcIYRITIsImAmwhhEh2iLCGElwhhEhMiwhhJcIYRITIsIYSXCGESEyLCGElwhhEhMjwhhJMIYRIdoYojkh2EWxImNSCw6wtgQNsaZmKhvdGEdkV+ul/qyhZmyTfq0Va8U259Gzyml5LCyKms4iKrWJiury5mgqSEsokVcdxOK8taE4ABVl8IziZ+zeqsGtT4nyXxM7gyrDEiWuVqoqXFQ8vY17Va5JotxTJ6tJxk4yVpRdrDLFzz7mbH20dE1qfFYqNajKEnGSaa4maCj0lsZv2XGnTyMbTaG+ivkt1q3l5L9l439EVgsOsB0zOOY2wWHAJiY2wWHARMTG2Cw4CZiY2wWHCiYmMsFh1gsJiY2wWHWCwmJjbBYcAmJjbBYdYBMTG2Cw4UTExlhUh0YNuyTbepLS2WfMOZHFqc1eXEuKH/AN9R8I9IbBbNdSfc6qLRYlJf2WXkvriT3+yf+nt3NZr3uN5Lt5Wc/cizJWIqFFRViYz73ue5XOvqbKFCbCY2GxJInzffXzAAA8H0AAAAjq0lJaTjZxzRGa0q62bPKd0RolFVFmlxSHNRyK1yTRcS3jPsrzDKPcO/9L4vLrOfPIKsdcX03Vus0ypk8XxHmqZvi+I7GU+K1JLJ2n2kVMWpaO9ZtVW6Fmm+e5ZeRmjjbX+mkLdPUzRpZsT2kbzTHYuo+9svx7/Y5VqH7RvR/SGe26ephbp6maD9Dx2LqQfQ8di6kLZfj9XsRaB2e9H9GfW6ephbp6maD9Dx2LqQfQ8di6kLZfj9XsLQOz3o/oz63T1MOvqZoP0PHYupB9Dx2LqQtl+P1ewtA7Pej+jPrdPUwt09TNB+h47F1IPoeOxdSFsvx+r2FoHZ70f0Z9bp6mFunqZoP0PHYupB9Dx2LqQtl+P1ewtA7Pej+jPrdPUwt09TNB+h47F1IPoeOxdSFsvx+r2FoHZ70f0Z9bp6mC8vUaEs0R2LqRJHNiQtl+Pf7EpUK443o/ooEMiqPVHF5W/Ue7JsxTl3Tw8ytL9/oXWGbYo9NPJoriPi+sIq/wCKIm/j0OmFUlHas3qrtck3Xd5w825ljDUtPG9bflO7QoKK0EqVhTic5XLNVmpbMY1jUaxERExJeAAAg9AAAAAAAAAAAAAAAAjAAAAAAAAAAAAAAAAAAAAAAAAAFAAAAAAAAAAAAAAAAAP/2Q==;" parent="1" vertex="1">
          <mxGeometry x="-70" y="1050" width="60" height="60" as="geometry" />
        </mxCell>
        <mxCell id="dq0KdhcwPf0WLffFqdIs-51" style="edgeStyle=orthogonalEdgeStyle;rounded=0;orthogonalLoop=1;jettySize=auto;html=1;exitX=0;exitY=0.5;exitDx=0;exitDy=0;entryX=1;entryY=0.5;entryDx=0;entryDy=0;" parent="1" source="dq0KdhcwPf0WLffFqdIs-50" target="dq0KdhcwPf0WLffFqdIs-18" edge="1">
          <mxGeometry relative="1" as="geometry" />
        </mxCell>
        <mxCell id="dq0KdhcwPf0WLffFqdIs-50" value="" style="shape=image;verticalLabelPosition=bottom;labelBackgroundColor=default;verticalAlign=top;aspect=fixed;imageAspect=0;image=data:image/png,iVBORw0KGgoAAAANSUhEUgAAATYAAACjCAMAAAA3vsLfAAABaFBMVEX4+Pj///8ac+gik0LfNyvcNCj7vgvlPTAklUTeNiornUr7vQgomkgwo0/7wBT7wBL8xCHoQTP8xigyplEAa+f5rg4RcOgAaOf7uQCux/Xt9P20y/b/+/D8yC/iLzHoNzZ/qPBMi+sufOny9/5ck+3h6/vI2fi+0vcAjED98O/fJRLcEwDaJxr1+vb+8tVvn+7+9uIYn0GgvvT935r+7cn92o3l8ej+6r2lz68AjS3M49H8y0X0xMHuoJzoenTkW1PxtbLiTkT2z83lbGbpWE3ojIfnMB7gYVrlf3rtqab32dfoKROzyKryt7T759374cn61675yYL4tzagaDmTy6D80WuDfkLMPytjkEi1VjNouXtEnU78zFrX69z946eUcDxyhEPDSi+qXzbSPCu63MKDbi/XaFxceCjKtKR8u4vt0XjPtQB0ojWbqi2kza1Rp2fBtCxRmz2QqDi2sjRIlj1xoDsAhiRur32Yh9S2AAAIX0lEQVR4nO3d+VPbRhQH8AohGyxbkm1qHMAtkIQYSyY4NAZxhiMQQtMruEc4mrROW5oEJ2lD/v2uLlvHriQ7oppZve8Mv0SKZt5nnnZXh0effQaBQCAQCAQCgUAgEAgEAoFAIBAIBAKBQCAQCIS2MBEk7hr+50RBljS6KM0SIxc9WgLgrgeNdrjrU6PZ7TrV6HW7XjVa3fo0mEfp9/9QmLC1z69vbG6la7KWWi2/tbmxPp9ct3BkDzY5uaYo3OiwnjT6U5R9eXjzQTi6uKuMPCHMDrcRmQlmslnh9uW9wxBycVcZdQIL3tmVu03mZdOyf7S7kzC3oGrXt2VlFMWPLZ0erm2vJ8otCK3GjY4Gs6HUtgM6Lu5KI41fofMHMseFZUunjw58x7i4K40yfnVuoDGtH7Z8+mgjIW4+rYbOz55aKLZ8en/Pp+HirjXCEGtcN1qtr25DSR+Rp4a4a40uxBIfypxDLSxbPn/0kH43UoG7NY7jBuk2lP3dpLJtKdzgbPn9rWSybdvV+mfLD+8lkW3PoTYAWz6Nd4u72siCK+7AqTYIW37/IGlsj2rcp7Pl9x8li+1Q5qJgyx8dJontMUGtb7b80eMEsbnRBmdL55PDtqlExoYZ3uKuNrK46trxnKIDj23aaeq+ARd3tZHFVdcwRs3Jxik1I4ryhSdfupMMtq9xzWZj42ry3sMnO4/n57/59rvvf/g8MEtJYKs3nnqHth6bIh88cdxNmzpfK6dw4a2UpxLAdtwokruNkzcxdyAXW2XebWVL+T79bPVGsfgjpt10tdqWdxlmwPU6DufmaLe4q40srmYrFn/CsnEyZs1vZcmn4ZztFne1kcVeVFHLz7iFG6d0W21icnpmdmhodmZ6csL6twWeJzcc7Wzthu72i5eNG7ZGtTsz42Ol0hBKqTQ2PnPH/OcpkfdOB2a7LVPO9kxXK55gRjdTbW52XCezUhqfnTPdUkS3U7rZ6kazFYueRUjNVLvrRDPg7hrbFntsLjj7pBB3tZHFc46iuNRk4wnexOyYG03L2KwxxC07VnB2tnOq2cxztJhzLUIU44J8ouRpNbPhSoZby95vdrhTqtnMZsvlcsUXDjZ9n5tDBDXkNnRTPwDpSoGnme2sYaIhNvsipPZA3zxDVENuM/ou5zwerrxAMdtKw0TT3H7rsQ3rW++Nk9WGhsbv6TuJ+EvT8hLFbBddNMSW6babor9CdNNXDbnpp+mSu91MuRbFbDY15Par5Sbri49p7CTay9i0ttdUWfQ0nOYmUMzWyDncrGY7CNNsqN30A62lRBxcuU4tW9PF9txot5p+BX8joNlQu90wJgUR51ZepJZt1clmLUJk/RL+ls80aqR0S9tvQWfzwJW/opat7WLLGYsQWd8YqIbc9B3LooiB45epZVtxsxmLEH35cTtwaEOD221jCYJz488Tw5bJZTQ2fUaYC8M2150TPHD8ErVsx062TCZTfKlwyqa2bTJwRkBzwqS2Z8vG1oPj7yeDDaFl0Gn6u8kWPJFaU6mTzYJLBpuBhv6eK8rup3Sb5UYxW3dss9C00/SF8gljWw+O4rHNZMvY1DK5E6XPmVQQBcELR/FMaqzb7Ghauz3tc93GC1rcbhSv27SrBBealn6vEgQBA8fTe5WArkl1NQdaJvdyI9xUal6TpgScG0/vNSnT8LYaSuMPvdrgOyD6DbdTURAwcL274nFXG1m6FeUwaCh/9nO/jRfs6U4JNN9vu8CYae32l7Yx5N3dlIBzS9F8d3elgXc70beGepYgiYKAgeNpfpZwRmBrtPXNYZ5cpdxqBhxP85MrBs+WzWb1W9rBz0nrnl4z4VIMzWzP8GjZ7IW+OfCp/N+4ZkNJ0f1Uvu1pt6wR1ThNA94BWSWoCTzd74DUG1g0za1p7OH3xlHzFekc5el+48h5lmYdMZ/Ykd9vq78WJQnPRvn7bY6zNJvFuplvU5a0Ec3+NmWzWhAkvBtP+9uUDBEN5czaCffu7hn7RjLibTaRoZ3tuEFCy46oKwwxlyorSQS3lON3MHFXG1nsRRmTAk5Nmxc6TTxas6NW3woSAS5F/+8StHYjoKF+G1EvMHDNjyrLvpMcsasl4FcwqN3IaCis2mnXHfu3OwiNrb6SJAJcKgm/uWIu8W4jVlhV7Ry3V5soq+3jjqqhsdXXbrWuWyoRv/BDk6mvmi6H6IywZqoFL5sJJzHJYFtV/dEMOdPPVHuDU9Pheg8RKGdjLvpEY9kRgpokiS330eOuNrK4C2MC0LqnarfZ3pLUPKcozWxnarAaa8s7CTu0oaQWEsTGrKh9oGmLj0IBC5c69x477moji7c05kINjcZW32tqOLiUZ2CjnI3psGHV0OLDins6OMUdOe5qIwuuOOQWDo2t/lMoYOHENeyB4642smCrY06wbm40lv234EiQGu1suH7zoqHFR6GAgyOpUc/GPFNDqH1wqxlw+HEtEWxoPg1AQ2wVDFtBEu8TDxp3tdGFWGJbZX3R0OIDr7ZMPGTctUYYYo1M80R1X386g2s2cW2KfMS4a40w5CL1hwRkNLT4qFQq7lZb8jte3LVGGb86mx2VpIYWH5WK0w3NBYt+R4u70kjjVyjDrJ4Q4NDio1Kxw6Flh/v2WnLZ0NSAhat+qPRioJGnAhrZgr88tPrxyiNXrdjZJLEV0GnUqYX5zlX98sQpV31vN1s795k+aVUL91W1Zvsje9V77mKcm+iKoNBaDmFGI1vob/g125cfO6x6dXX1VhSlymlradl36qRbrd8vRtbrzalwHUa3GnyfdNCA2mABtcECagMG0AYMoA0aMBs4QAaBQCAQCAQCgUAgEAgEAoFAIBAIBAKBQCAQCAST/wBsf4MGNU7MaQAAAABJRU5ErkJggg==;clipPath=inset(18.35% 33.33% 18.35% 33.33%);" parent="1" vertex="1">
          <mxGeometry x="200" y="600" width="50" height="50" as="geometry" />
        </mxCell>
        <mxCell id="4dobk5z7qQ-hC0CsfyiK-1" value="Notify" style="text;html=1;strokeColor=none;fillColor=none;align=center;verticalAlign=middle;whiteSpace=wrap;rounded=0;fontStyle=1" vertex="1" parent="1">
          <mxGeometry x="-175" y="990" width="60" height="30" as="geometry" />
        </mxCell>
        <mxCell id="4dobk5z7qQ-hC0CsfyiK-3" value="git push" style="text;html=1;strokeColor=none;fillColor=none;align=center;verticalAlign=middle;whiteSpace=wrap;rounded=0;fontStyle=1" vertex="1" parent="1">
          <mxGeometry x="-710" y="874.25" width="60" height="30" as="geometry" />
        </mxCell>
        <mxCell id="4dobk5z7qQ-hC0CsfyiK-5" value="git webhook" style="text;html=1;strokeColor=none;fillColor=none;align=center;verticalAlign=middle;whiteSpace=wrap;rounded=0;fontStyle=1" vertex="1" parent="1">
          <mxGeometry x="-550.71" y="874.25" width="90" height="30" as="geometry" />
        </mxCell>
        <mxCell id="4dobk5z7qQ-hC0CsfyiK-6" value="gradle build&lt;br&gt;docker image build &amp;amp; push" style="text;html=1;strokeColor=none;fillColor=none;align=center;verticalAlign=middle;whiteSpace=wrap;rounded=0;fontStyle=1" vertex="1" parent="1">
          <mxGeometry x="-140" y="768" width="160" height="30" as="geometry" />
        </mxCell>
        <mxCell id="4dobk5z7qQ-hC0CsfyiK-7" value="port: 80, 443" style="text;html=1;strokeColor=none;fillColor=none;align=center;verticalAlign=middle;whiteSpace=wrap;rounded=0;fontStyle=1" vertex="1" parent="1">
          <mxGeometry x="50" y="591.25" width="70" height="30" as="geometry" />
        </mxCell>
        <mxCell id="4dobk5z7qQ-hC0CsfyiK-8" value="port: 8081" style="text;html=1;strokeColor=none;fillColor=none;align=center;verticalAlign=middle;whiteSpace=wrap;rounded=0;fontStyle=1" vertex="1" parent="1">
          <mxGeometry x="-140" y="546.25" width="70" height="30" as="geometry" />
        </mxCell>
        <mxCell id="4dobk5z7qQ-hC0CsfyiK-9" value="port: 8082" style="text;html=1;strokeColor=none;fillColor=none;align=center;verticalAlign=middle;whiteSpace=wrap;rounded=0;fontStyle=1" vertex="1" parent="1">
          <mxGeometry x="-140" y="673.75" width="70" height="30" as="geometry" />
        </mxCell>
        <mxCell id="4dobk5z7qQ-hC0CsfyiK-10" value="Mail" style="text;html=1;strokeColor=none;fillColor=none;align=center;verticalAlign=middle;whiteSpace=wrap;rounded=0;fontStyle=1" vertex="1" parent="1">
          <mxGeometry x="-70" y="1100" width="60" height="30" as="geometry" />
        </mxCell>
        <mxCell id="4dobk5z7qQ-hC0CsfyiK-11" value="Jenkins 로그 관리" style="text;html=1;strokeColor=none;fillColor=none;align=center;verticalAlign=middle;whiteSpace=wrap;rounded=0;fontStyle=1" vertex="1" parent="1">
          <mxGeometry x="-163.07" y="1065" width="60" height="30" as="geometry" />
        </mxCell>
        <mxCell id="4dobk5z7qQ-hC0CsfyiK-12" value="로컬 개발" style="text;html=1;strokeColor=none;fillColor=none;align=center;verticalAlign=middle;whiteSpace=wrap;rounded=0;fontStyle=1" vertex="1" parent="1">
          <mxGeometry x="-775" y="895" width="60" height="30" as="geometry" />
        </mxCell>
        <mxCell id="4dobk5z7qQ-hC0CsfyiK-13" value="버전 관리" style="text;html=1;strokeColor=none;fillColor=none;align=center;verticalAlign=middle;whiteSpace=wrap;rounded=0;fontStyle=1" vertex="1" parent="1">
          <mxGeometry x="-625.36" y="895" width="60" height="30" as="geometry" />
        </mxCell>
        <mxCell id="4dobk5z7qQ-hC0CsfyiK-14" value="&lt;b&gt;CI/CD&lt;/b&gt;" style="text;html=1;strokeColor=none;fillColor=none;align=center;verticalAlign=middle;whiteSpace=wrap;rounded=0;fontStyle=0" vertex="1" parent="1">
          <mxGeometry x="-22.5" y="854.25" width="42.5" height="30" as="geometry" />
        </mxCell>
        <mxCell id="4dobk5z7qQ-hC0CsfyiK-15" value="Slack" style="text;html=1;strokeColor=none;fillColor=none;align=center;verticalAlign=middle;whiteSpace=wrap;rounded=0;fontStyle=1" vertex="1" parent="1">
          <mxGeometry x="-775" y="920" width="60" height="30" as="geometry" />
        </mxCell>
      </root>
    </mxGraphModel>
  </diagram>
</mxfile>
